<svg width="26" height="23" viewBox="0 0 26 23" fill="none" xmlns="http://www.w3.org/2000/svg">
<path d="M9.4001 6.4C7.90893 6.4 6.7001 5.19117 6.7001 3.7C6.7001 2.20883 7.90893 1 9.4001 1C10.8913 1 12.1001 2.20883 12.1001 3.7C12.1001 5.19117 10.8913 6.4 9.4001 6.4Z" stroke="#525252" stroke-width="2" stroke-linecap="round" stroke-linejoin="round"/>
<path d="M17.8 14.2C16.3088 14.2 15.1 12.9912 15.1 11.5C15.1 10.0089 16.3088 8.80005 17.8 8.80005C19.2912 8.80005 20.5 10.0089 20.5 11.5C20.5 12.9912 19.2912 14.2 17.8 14.2Z" stroke="#525252" stroke-width="2" stroke-linecap="round" stroke-linejoin="round"/>
<path d="M11.8 22C10.3088 22 9.1 20.7911 9.1 19.3C9.1 17.8088 10.3088 16.6 11.8 16.6C13.2912 16.6 14.5 17.8088 14.5 19.3C14.5 20.7911 13.2912 22 11.8 22Z" stroke="#525252" stroke-width="2" stroke-linecap="round" stroke-linejoin="round"/>
<path d="M1 19.3H9.1" stroke="#525252" stroke-width="2" stroke-linecap="round" stroke-linejoin="round"/>
<path d="M14.5 19.3H25" stroke="#525252" stroke-width="2" stroke-linecap="round" stroke-linejoin="round"/>
<path d="M1 11.5H15.1" stroke="#525252" stroke-width="2" stroke-linecap="round" stroke-linejoin="round"/>
<path d="M20.5 11.5H25" stroke="#525252" stroke-width="2" stroke-linecap="round" stroke-linejoin="round"/>
<path d="M1 3.69995H6.7" stroke="#525252" stroke-width="2" stroke-linecap="round" stroke-linejoin="round"/>
<path d="M12.1001 3.69995H25.0001" stroke="#525252" stroke-width="2" stroke-linecap="round" stroke-linejoin="round"/>
</svg>
