<svg width="20" height="20" viewBox="0 0 20 20" fill="none" xmlns="http://www.w3.org/2000/svg">
<path d="M8.7501 12.0001H10.5179C10.7168 12.0001 10.9075 11.9211 11.0482 11.7804L18.705 4.12354C18.9979 3.83064 18.9979 3.35577 18.705 3.06288L16.9373 1.29511C16.6444 1.00222 16.1695 1.00222 15.8766 1.29511L8.2198 8.95199C8.0791 9.09259 8.0001 9.28339 8.0001 9.48229V11.2501C8.0001 11.6643 8.3359 12.0001 8.7501 12.0001Z" stroke="#525252" stroke-width="2" stroke-linecap="square" stroke-linejoin="round"/>
<path d="M18.5 12V17C18.5 17.8284 17.8284 18.5 17 18.5H3C2.17157 18.5 1.5 17.8284 1.5 17V3C1.5 2.17157 2.17157 1.5 3 1.5H8" stroke="#525252" stroke-width="2" stroke-linecap="round"/>
</svg>
