<?xml version="1.0" encoding="utf-8"?>
<!-- Generator: Adobe Illustrator 25.3.1, SVG Export Plug-In . SVG Version: 6.00 Build 0)  -->
<svg version="1.1" id="Layer_1" xmlns="http://www.w3.org/2000/svg" xmlns:xlink="http://www.w3.org/1999/xlink" x="0px" y="0px"
	 viewBox="0 0 1000 411.9" style="enable-background:new 0 0 1000 411.9;" xml:space="preserve">
<style type="text/css">
	.st0{fill:#0047BA;}
</style>
<g>
	<g>
		<path class="st0" d="M395.7,385.8c-24,0-44-7.2-59.5-21.5c-15.5-14.4-23.3-36.2-23.3-65.5V191.6c0-1.2,1-2.2,2.2-2.2h41.5
			c1.2,0,2.2,1,2.2,2.2v105.3c0,15.1,3.4,26.4,10.2,34c6.8,7.5,15.7,11.3,26.7,11.3s19.8-3.8,26.7-11.3c6.8-7.5,10.2-18.9,10.2-34
			V191.6c0-1.2,1-2.2,2.2-2.2h41.5c1.2,0,2.2,1,2.2,2.2v107.1c0,29-7.9,50.8-23.5,65.3C439.4,378.5,419.4,385.8,395.7,385.8z"/>
	</g>
	<g>
		<path class="st0" d="M702.9,283.9l-143.8,27.5c-1.5,0.3-2.3,2-1.5,3.3c4.7,8,11.1,14.5,19.4,19.4c9.2,5.4,19.2,8.1,30.2,8.1
			c10.1,0,18.9-2.1,26.6-6.4c7.7-4.3,12.9-8.7,15.5-13.1l2.2-3.1c1.3-1.8,3.7-2.4,5.7-1.4l32.4,16.6c2.3,1.2,3.1,4,1.8,6.2
			c-0.2,0.3-0.4,0.6-0.6,1c-1.3,2.2-4.5,6.1-9.5,11.8c-5,5.6-10.6,10.6-16.7,14.9c-6.1,4.3-14.4,8.2-24.9,11.8
			c-10.5,3.5-21.7,5.3-33.5,5.3c-30.2,0-54.8-9.6-73.7-28.9c-18.9-19.2-28.4-43.1-28.4-71.5c0-28.1,9.6-51.9,28.9-71.2
			c19.2-19.4,43.1-29.1,71.5-29.1c28.4,0,52.1,9.4,71,28.3c18.5,18.4,28.2,41.2,29.2,68.3C704.8,282.8,704,283.7,702.9,283.9z
			 M604.4,228.6c-14.5,0-26.8,4.4-36.8,13.3c-9.4,8.3-15,19.1-16.9,32.5c-0.2,1.5,1.2,2.8,2.6,2.5l96.6-18.5
			c1.5-0.3,2.3-1.9,1.6-3.2C641.8,237.4,626.1,228.6,604.4,228.6z"/>
	</g>
	<g>
		<path class="st0" d="M61.7,366.3v16.9c0,1.2-1,2.2-2.2,2.2H18c-1.2,0-2.2-1-2.2-2.2V64.3c0-1.2,1-2.2,2.2-2.2h41.5
			c1.2,0,2.2,1,2.2,2.2v139.5c1.5-1.5,3.6-3.2,6.4-5.3c2.8-2.1,9.2-4.9,19.1-8.4c9.9-3.6,20.5-5.3,31.7-5.3c27.2,0,50,9.4,68.4,28.2
			c18.4,18.8,27.5,42.8,27.5,72.1s-9.2,53.4-27.5,72.1C169,376,146.2,385.4,119,385.4c-11.2,0-21.6-1.5-31.1-4.7
			c-9.5-3.1-16.3-6.3-20.4-9.5L61.7,366.3z M75.5,243.6c-10.4,10.2-15.5,24-15.5,41.5c0,17.5,5.2,31.3,15.5,41.5
			c10.4,10.2,23.4,15.3,39.1,15.3c15.7,0,28.7-5.1,39.1-15.3c10.4-10.2,15.5-24,15.5-41.5c0-17.5-5.2-31.3-15.5-41.5
			c-10.4-10.2-23.4-15.3-39.1-15.3C98.8,228.3,85.8,233.4,75.5,243.6z"/>
	</g>
	<g>
		<path class="st0" d="M241.3,380.3v-316c0-1.2,1-2.2,2.2-2.2h41.6c1.2,0,2.2,1,2.2,2.2v316c0,1.2-1,2.2-2.2,2.2h-41.6
			C242.3,382.5,241.3,381.5,241.3,380.3z"/>
	</g>
	<g>
		<g>
			<path class="st0" d="M730.3,28.4V77c0,1.5,0.7,2.9,2,3.7l65.3,44c1.5,1,3.5,1,5,0l35.7-24.1c1.3-0.9,1.3-2.8,0-3.7L733.7,26.5
				C732.2,25.5,730.3,26.6,730.3,28.4z"/>
		</g>
		<g>
			<path class="st0" d="M734.7,385.4l245.1-0.1c2.5,0,4.5-2,4.5-4.5V196.7c0-0.7-0.4-1.4-1-1.9l-67.1-45.3c-1.5-1-3.5-1-5,0
				l-35.7,24c-1.3,0.9-1.3,2.8,0,3.7l61.7,41.7c0.6,0.4,1,1.1,1,1.9v116.6c0,2.5-2,4.5-4.5,4.5h-49.1c-2.5,0-4.5-2-4.5-4.5V235.7
				l-23.4-15.8l-22.6,15.3v102.3c0,2.5-2,4.5-4.5,4.5h-49.1c-2.5,0-4.5-2-4.5-4.5V220.3c0-0.7,0.4-1.4,1-1.9l205-138.3
				c1.2-0.8,2-2.2,2-3.7v-48c0-1.8-2-2.9-3.5-1.9L731.2,194.3c-0.6,0.4-1,1.1-1,1.9V381C730.3,383.4,732.3,385.4,734.7,385.4z"/>
		</g>
	</g>
</g>
</svg>
