<?xml version="1.0" encoding="utf-8"?>
<!-- Generator: Adobe Illustrator 27.3.1, SVG Export Plug-In . SVG Version: 6.00 Build 0)  -->
<svg version="1.1" id="Layer_1" xmlns="http://www.w3.org/2000/svg" xmlns:xlink="http://www.w3.org/1999/xlink" x="0px" y="0px"
	 viewBox="0 0 6083.34 1413.47" style="enable-background:new 0 0 6083.34 1413.47;" xml:space="preserve">
<style type="text/css">
	.st0{fill:#02A931;}
</style>
<g>
	<path class="st0" d="M962.05,661.59c87.14-135.15,93.43-278.29,16.71-418.58C902.19,102.87,779.04,29.72,618.18,27.72
		c-152-2-304.15-1-456.3-0.29C53.88,27.86,0.74,81.29,0.45,189.58c-0.57,171.15-0.14,342.29-0.14,513.44
		c0,178.29-0.86,356.58,0.29,534.87c0.57,92.43,53,150,143.58,151.43c163.86,2.57,328.15,6.29,491.87-1.29
		c322.58-15.14,499.58-363.58,324.44-635.44C937.33,716.59,940.05,695.59,962.05,661.59z M617.18,1100.6
		c-4.72,0.29-9.43,0.29-14.14,0.29H475.18c-2.43,0.14-4.86,0.29-7.14,0c-58-5.43-144.86,27.14-167.72-13.14
		c-29.72-52.29-9.71-132.58-12.14-200.72c-1.14-31.43,18.43-33,41.43-32.86c97.14,0.43,194.29-1.57,291.29,1.29
		c69.72,2,120.86,58.14,120.01,124C740.04,1045.46,688.61,1095.75,617.18,1100.6z M607.18,564.59
		c-45.14,2.43-90.43,0.43-135.57,0.43c-184.58,0.43-182.58,0.43-184.58-184.43c-0.57-51.29,9.28-71.72,65.43-68.14
		c83,5.28,166.43,0.43,249.72,1.71c81.29,1.43,137,51.86,138.72,122.58C742.61,507.73,689.04,560.3,607.18,564.59z"/>
	<path class="st0" d="M3751.62,704.78c-0.01-168.9-0.31-337.8,0.08-506.69c0.29-124.79,48.46-174.75,170.85-175.18
		c211.69-0.75,423.39-0.71,635.09,0.01c105.43,0.36,168.38,53.9,169.62,141.3c1.26,89.1-65.73,147.45-171.88,147.87
		c-154.61,0.61-309.24,1.48-463.82-0.73c-40.22-0.57-55.34,10.28-51.61,51.47c5.74,63.4-25.34,144.57,12.23,185.96
		c35.09,38.65,116.65,10.51,177.68,11.58c107,1.87,214.07,0.03,321.1,0.66c109.46,0.64,175.14,54.56,176.29,143.27
		c1.16,89.51-63.76,144.59-173.12,145.04c-149.85,0.62-299.74,1.86-449.54-0.84c-46.79-0.84-70.74,7.26-64.83,60.79
		c6.72,60.82-24.89,140.75,11.74,178.58c36.97,38.16,117.01,10.36,178.1,11.38c111.76,1.87,223.59-0.34,335.37,0.82
		c96.77,1,160.85,58.56,162.17,142.77c1.34,86.21-59.62,145.21-157.56,145.86c-221.2,1.48-442.43,1.63-663.62-0.21
		c-101.39-0.84-153.22-54.38-153.96-155.62C3750.71,1056.86,3751.64,880.82,3751.62,704.78z"/>
	<path class="st0" d="M2813.92,906.71c0,122.58,0.53,229.09-0.15,335.6c-0.66,102.3-62.73,170.97-151.67,169.46
		c-86.84-1.47-147.59-68.02-147.78-166.54c-0.72-359.3-0.73-718.59,0.02-1077.89c0.2-97.46,62.56-165.02,148.81-165.9
		c85.66-0.88,149.65,67.72,150.53,163.83c0.99,108.62,0.23,217.26,0.23,341.46c115.37-100.89,219.99-192.29,324.51-283.81
		c66.22-57.99,131.44-117.16,198.65-173.97c76.61-64.77,162.78-61.97,222.07,4.73c58.2,65.47,49.38,151.86-27.1,220.03
		c-149.17,132.96-299.07,265.16-451.2,394.7c-37.75,32.15-33.29,47.71,1.43,77.45c151.75,129.99,301.75,262.06,451.1,394.82
		c63.51,56.45,78.55,121.25,48.58,184.93c-43.2,91.79-156.52,113.87-240.38,42.14c-146.41-125.25-290.03-253.78-434.89-380.85
		C2880.06,963.53,2853.12,940.57,2813.92,906.71z"/>
	<path class="st0" d="M6071.75,1187.75c-152.43-365.44-305.01-730.59-458.3-1095.6C5588.03,31.58,5540.74-0.42,5474.31,0
		c-63.72,0.57-108.57,33.29-132.86,90.58c-153.86,364.72-307.44,729.59-459.15,1095.17c-33.86,81.57,3.29,165.72,78.57,195.01
		c78.14,30.43,156.58-3.14,193.72-85.14c25.43-56.15,50-112.72,70.72-170.72c12.43-35,31.57-46.72,68-46
		c121.15,1.86,242.43,2.43,363.58-0.29c40.43-1,58.72,14,72.15,50.29c23,62.29,48.43,123.86,78.29,183.01
		c32.72,64.72,99.29,90.72,168.86,73c64.29-16.43,108-74.43,107.15-154.86C6081.75,1223.89,6078.89,1204.89,6071.75,1187.75z
		 M5370.88,783.17c34.86-83.86,68-163.15,105.58-253.43c38,89.29,71,167,107.72,253.43H5370.88z"/>
	<path class="st0" d="M1919.3,1035.1c-0.06,73.7,1.57,147.44-0.46,221.09c-2.64,95.84-61.42,156.86-147.8,157.29
		c-86.51,0.43-148.18-59.14-150.33-155.15c-3.3-147.33-2.32-294.79-0.51-442.16c0.5-40.47-10.41-72.16-35.7-103.69
		C1465.56,564.19,1348.37,414.5,1230.95,265c-66.78-85.03-62.38-176.63,10.24-232.47c71.38-54.88,156.99-38.08,223.11,44.99
		c88.79,111.55,178.69,222.3,264.27,336.27c32.11,42.76,48.56,51.6,84.99,2.61c86.46-116.26,178.91-228.07,269.46-341.26
		c65.38-81.73,151.42-97.41,223.25-41.69c69.77,54.11,75.34,146.83,11.69,227.18c-115.1,145.28-229.84,290.88-347.71,433.9
		c-36.84,44.69-56.47,89.16-51.99,148.09C1923.11,906.43,1919.36,970.91,1919.3,1035.1z"/>
</g>
</svg>
