<?xml version="1.0" encoding="utf-8"?>
<!-- Generator: Adobe Illustrator 23.0.1, SVG Export Plug-In . SVG Version: 6.00 Build 0)  -->
<svg version="1.1" id="Layer_1" xmlns="http://www.w3.org/2000/svg" xmlns:xlink="http://www.w3.org/1999/xlink" x="0px" y="0px"
	 viewBox="0 0 4992.32 2220.37" style="enable-background:new 0 0 4992.32 2220.37;" xml:space="preserve">
<style type="text/css">
	.st0{clip-path:url(#SVGID_2_);fill:#08AF57;}
</style>
<g>
	<defs>
		<rect id="SVGID_1_" y="0" width="4992.32" height="2220.37"/>
	</defs>
	<clipPath id="SVGID_2_">
		<use xlink:href="#SVGID_1_"  style="overflow:visible;"/>
	</clipPath>
	<path class="st0" d="M2489.66,526.45C2697.25,350.66,2904,175.6,3111.38,0h1880.95c-135.1,592.14-269.74,1182.23-404.52,1772.97
		c-223.57,124.91-446.55,249.49-673.36,376.21c118.5-540.91,236.24-1078.34,353.78-1614.9c-1.91-1.8-2.52-2.49-3.24-3.03
		c-0.69-0.52-1.46-0.98-2.27-1.27c-0.84-0.3-1.76-0.46-2.66-0.51c-1.8-0.08-3.61-0.04-5.42-0.06c-0.9-0.01-1.81-0.03-2.72-0.02
		c-3.62,0.04-7.24,0.15-10.86,0.15c-576.73,0.27-1153.47,0.53-1730.2,0.79c-2.71,0-5.43,0.13-8.15,0.18
		c-0.91,0.02-1.81,0.03-2.71,0.01c-0.91-0.02-1.83,0.04-2.71-0.14c-0.86-0.18-1.7-0.56-2.5-0.95
		C2494.02,529.07,2493.3,528.58,2489.66,526.45"/>
	<path class="st0" d="M899.58,839.17c-61.48,7.44-120.56,14.61-179.66,21.69c-3.54,0.42-7.18,0.06-10.47,0.06
		c-7.12-5.92-3.91-13.73-4.48-20.61c-4.57-55.28-52.53-92.71-107.42-84.02c-47.26,7.48-84,32.12-111.94,69.83
		c-41.4,55.87-61.62,120.03-70.17,188.28c-2.92,23.31-5.31,46.74,0.69,70.05c9.19,35.67,24.76,67.38,62.91,78.53
		c44.23,12.93,86.16,7.24,121.34-25.51c15.29-14.23,28.16-30.64,38.03-49.15c8.49-15.91,16.52-32.07,25.83-50.24
		c64.98,10.57,130.41,21.22,197.37,32.12c-7.42,27.94-18.31,51.5-30.97,74.2c-30,53.79-70.07,98.56-121.44,132.85
		c-38.13,25.46-80.19,40.94-125.24,48.81c-65.88,11.51-131.44,11.52-195.91-7.69c-99.86-29.74-157.18-99.05-177.79-199.07
		c-14.49-70.31-8.23-140.61,11.7-209.22c19.81-68.19,48.95-131.98,95.8-186.59c61.43-71.6,138.61-114.39,231.97-127.64
		c52.31-7.42,104.33-7,156.21,5.14c92.36,21.61,152.69,77.75,183.05,166.93C896.59,790.16,902.39,812.82,899.58,839.17"/>
	<path class="st0" d="M459.11,1925.94c62.54,7.81,126.13,19.47,188.71,30.08c3.95,7.01,2.2,12.29,0.29,17.25
		c-35.34,91.82-92.27,165.09-181.47,210.45c-40.04,20.36-83.08,30.3-127.41,34.28c-50.74,4.56-101.29,2.4-150.6-11.78
		c-97.89-28.16-155.85-94.53-179.05-191.94c-15.37-64.51-10.99-129.38,4.09-193.45c17.35-73.75,45.7-142.95,93.59-202.38
		c63.48-78.77,145.3-125.5,246.66-137.47c50.83-6.01,101.24-5.86,150.6,7.62c102.38,27.97,162.78,95.58,183.34,199.29
		c1.93,9.73,3.2,19.59,4.54,29.42c0.22,1.62-0.76,3.41-2.01,8.44c-62.08,7.39-125.34,14.93-187.55,22.34
		c-7.78-8.43-4.52-17.05-5.25-24.8c-4.17-44.24-39.75-78.21-84.15-80.93c-40.58-2.48-73.96,13.34-103.76,38.89
		c-28.03,24.04-47.4,54.33-62.31,87.76c-24.18,54.22-38.69,110.59-38.73,170.32c-0.01,22.04,3.48,43.17,13.68,62.94
		c20.03,38.81,54.1,57.06,100.94,53.26c38.6-3.13,67.86-22.79,90.42-53.26c14.02-18.93,26.01-39.14,35.35-60.82
		C451.2,1936.47,452.76,1931.28,459.11,1925.94"/>
	<path class="st0" d="M1148.48,964.14c-56.84-6.47-113.97-12.97-173.1-19.7c5.21-30.69,18.96-54.44,36.92-75.89
		c24.42-29.18,55.4-49.15,91.73-59.97c19.86-5.92,40.21-11.85,60.7-13.62c74.96-6.47,150.01-8.82,224.21,7.95
		c47.98,10.85,84.77,35.51,100.56,84.53c7.89,24.48,8.39,49.6,5.06,75.1c-6.68,51.21-19.42,101.11-32.12,150.99
		c-9.14,35.92-17.87,71.93-23.25,108.58c-3.68,25.1-4.48,50.41,1.93,75.47c1.74,6.8,1.89,14.01,2.99,22.83h-183.48
		c-5.68-16.1-5.59-34.1-7.7-54.58c-14.8,10.5-26.25,18.99-38.06,26.93c-65.23,43.85-136.19,50.82-210.17,29.62
		c-53.21-15.25-90.9-68.2-93.38-127.29c-3.91-93.24,43.96-144.46,126.67-167.57c47.84-13.36,97.6-18.36,147.05-23.57
		c39.45-4.16,78.84-8.78,116.45-18.35c8.88-11.08,8.19-23.56,9.4-34.83c1.78-16.55-14.58-34.65-35.03-39.45
		c-44.59-10.47-96.96-5.08-120.88,45.86C1154.26,958.75,1152.58,959.84,1148.48,964.14 M1280.23,1088.75
		c-49.26,7.83-94.13,16.36-137.72,30.72c-6.72,2.21-12.99,6.25-18.96,10.21c-19.23,12.77-26.85,30.99-23.21,53.59
		c3.6,22.36,18.91,33.87,39.3,39.6c22.2,6.25,42.72,0.17,62.35-10.08C1250.41,1187.53,1269.33,1143.41,1280.23,1088.75"/>
	<path class="st0" d="M1766.97,1689.2h191.88c-40.68,173.41-80.94,344.98-121.42,517.55h-177.85c4.84-23.39,9.3-44.92,14.37-69.37
		c-14.27,4.5-20.79,13.26-28.41,20.04c-51.24,45.63-111.26,65.61-179.4,61.96c-72.59-3.9-117.96-53.51-115.58-126.16
		c1.22-37.29,10.59-73.31,18.9-109.29c22.53-97.47,46.51-194.61,69.91-291.84c19.21-4.98,138.65-6.39,186.19-2.17
		c5.09,6.56,1.73,13.82,0.19,20.38c-22.36,94.82-45.1,189.56-67.55,284.36c-5.03,21.23-8.7,42.63,0.96,63.73
		c22.69,17.37,54.17,16.46,79.26-2.88c20.4-15.72,35.87-35.57,46.91-58.85c12.44-26.21,22.07-53.51,28.81-81.64
		C1731.98,1840.57,1749.07,1765.92,1766.97,1689.2"/>
	<path class="st0" d="M3292.73,1998.65h-373.96c-4.96,41.29,12.16,83.22,42.94,95.59c50.91,20.47,93.7,4.63,128.47-38.32
		c59.3,5.86,118.42,11.7,177.93,17.57c-6.73,22.26-29.48,54.72-50.35,73.25c-46.25,41.05-100.93,61.94-161.79,68.98
		c-52.47,6.07-104.35,4.97-156.46-5.01c-89.3-17.1-142.72-71.75-162.28-157.85c-21.97-96.73,1.26-185.08,63.5-262
		c59.65-73.71,137.08-112.95,232.93-113.97c48.03-0.51,95.41,0.63,142.06,15.66c66.34,21.37,105.1,67.45,124.8,131.75
		c11.09,36.2,8.44,73.55,4.12,110.47C3302.24,1955.23,3297.17,1975.37,3292.73,1998.65 M2936.87,1898.08
		c19.98,6.54,155.34,7.64,182.44,1.9c5.57-13.31,3.93-27.84,3.34-42.03c-1.22-29.43-17.7-51.18-45.57-60.84
		c-31.83-11.04-60.57-3.5-86.5,16.19C2962.84,1834.36,2947.99,1864.03,2936.87,1898.08"/>
	<path class="st0" d="M1036.33,1677.07c39.2-1.2,77.53,3.82,114.48,17.34c56.32,20.62,92.19,61.62,114.21,115.96
		c27.62,68.17,21.47,136.2-2.76,203.57c-27.99,77.81-75.79,138.71-152.09,174.91c-33.03,15.67-67.78,24.37-103.83,28.54
		c-48.97,5.67-97.87,3.74-145.11-10.01c-83.12-24.19-131.14-83.18-144.04-166.25c-14.97-96.46,10.26-185.06,73.2-260.66
		c53.07-63.74,123.73-94.6,205.26-102.53c5.4-0.53,10.83-0.75,16.25-0.84C1020.05,1676.97,1028.19,1677.07,1036.33,1677.07
		 M1097.4,1904.64c-0.52-10.8-0.4-21.67-1.67-32.37c-3.73-31.43-23.52-53.7-54.21-59.16c-38.45-6.84-72.56,2.86-96.07,35.11
		c-35.22,48.3-52.17,103.05-44.91,162.91c4,33,21.92,59.33,54.94,70.25c31.03,10.26,58.63,0.31,81.99-21.4
		c9.9-9.2,18.33-19.85,24.94-31.83C1083.62,1989.69,1097.1,1949.11,1097.4,1904.64"/>
	<path class="st0" d="M1729.2,1321.06H1536.2c56.7-240.06,113.01-478.44,169.31-716.8h192.86
		C1841.82,843.88,1785.7,1081.67,1729.2,1321.06"/>
	<path class="st0" d="M2026.58,604.17h193.03c-56.67,240.06-112.9,478.29-169.18,716.73h-188.67c-3.66-18.63,3.73-34.84,7.53-50.99
		c38.15-162.39,77.19-324.57,115.76-486.86C1999.01,724.28,2012.39,665.38,2026.58,604.17"/>
	<path class="st0" d="M3611.1,1780.78c16.22-19.07,31.83-38.69,48.78-57.08c31.88-34.58,70.92-51.73,118.75-46.27
		c15.5,1.77,30.07,5.48,45.65,15.82c-20.4,51.32-47.98,99.57-70.36,148.35c-8.93,5.24-15.84,1.48-22.82,0.46
		c-42.64-6.23-78.27,6.75-106.88,38.95c-18.91,21.29-31.32,46.23-40.46,72.91c-19.07,55.66-28.88,113.7-43.26,170.56
		c-6.84,27.03-12.71,54.3-19.26,82.54h-186.89c-0.05-20.52,106.47-481.97,119.37-517.58h172.92c2.27,16.98-5.7,30.87-8.01,45.66
		c-2.34,15.02-10.31,28.99-8.35,44.81c-2.16-0.4-3.62,0.39-3.42,2.29c0.1,1,1.41,1.87,2.17,2.8
		C3609.71,1783.59,3610.41,1782.18,3611.1,1780.78"/>
	<path class="st0" d="M2251.72,1758.34c11.86-13.64,23.03-27.95,35.7-40.79c41.73-42.27,100.78-53.76,156.77-26.5
		c-3.75,18.41-49.6,116.3-72.2,153.87c-19.91-1.44-39.83-6.19-60.99-2c-33.43,6.63-57.44,24.81-75.97,51.79
		c-25.51,37.16-38.21,79.47-48.13,122.8c-13.08,57.18-26.08,114.37-39.32,171.51c-1.39,6-4.15,11.68-6.56,18.27h-183.2
		c-1.52-1.27-2.39-1.73-2.84-2.44c-0.47-0.73-0.76-1.72-0.73-2.58c0.07-2.67-0.04-5.42,0.56-7.99
		c39.22-167.73,78.51-335.45,118.11-504.57h176.47c-1.03,22.47-10.75,42.24-13.24,63.43c-5.66,11.6-11.38,23.19-7.99,40.39
		C2238.52,1780.83,2247.02,1770.96,2251.72,1758.34"/>
	<path class="st0" d="M2694.04,1689.36c-40.94,173.82-81.24,344.96-121.85,517.4h-186.2c-1.02-1.09-1.76-1.64-2.16-2.37
		c-0.42-0.77-0.79-1.76-0.7-2.59c0.5-4.46,0.8-8.98,1.82-13.33c39.01-166.02,78.09-332.02,117.42-499.1H2694.04z"/>
	<path class="st0" d="M3066.63,1245.39c-19.86,13.2-40.6,26.99-62.16,41.33c-113.3-105.25-247.79-150.62-399.4-149.91
		c-150.71,0.7-283.89,46.84-396.26,153.04c-15.96-17.52-32.11-35.25-48.73-53.49c35.5-41.56,76.48-73.73,122.69-99.08
		c72.82-39.96,150.43-64.84,233.21-74.7c125.42-14.93,247.39-3.57,364.45,45.42c67.34,28.18,127.99,67.02,177.28,121.89
		C3061.19,1233.78,3065.69,1237.14,3066.63,1245.39"/>
	<path class="st0" d="M2285.87,1406.33c-13.12-15.22-25.32-29.38-38.51-44.7c26.15-33.59,58.41-59.26,94.15-80.36
		c79.53-46.93,166.05-69.01,258.2-70.94c90.14-1.9,175.8,15.88,256.62,55.98c41.72,20.7,99.58,62.72,124.47,99.76
		c-14.5,14.65-31.78,25.56-51.16,36.66c-90.01-86.07-198.23-125.1-321.74-124.65C2484.22,1278.54,2376.3,1318.57,2285.87,1406.33"/>
	<path class="st0" d="M2896.98,1482.12c-14.05,11.97-26.81,21.85-40.8,29.69c-128.18-135.08-361.85-140.37-494.24,2.26
		c-9.51-12.07-18.85-23.94-28.85-36.64c13.63-22.89,33.68-38.52,53.82-53.07c80.47-58.13,170.64-79.33,269.08-68.91
		c66.07,6.99,126.52,27.92,180.65,66.84c10.36,7.45,19.65,15.91,28.78,24.63C2876.49,1457.48,2887.5,1468.13,2896.98,1482.12"/>
	<path class="st0" d="M2709.63,1531.35c1.98,56.11-53.26,109.81-105.4,109.5c-55.28-0.33-81.82-46.11-78.75-83.62
		c4.35-53.08,44.73-96.3,91.39-103.77C2669.87,1444.98,2709.79,1477.8,2709.63,1531.35"/>
	<path class="st0" d="M2251.72,1758.34c-4.7,12.63-13.2,22.5-23.55,35.19c-3.39-17.2,2.32-28.79,7.99-40.39
		c0.72,3.31,1.44,6.63,2.12,9.74C2243.38,1761.15,2247.55,1759.74,2251.72,1758.34"/>
</g>
</svg>
