<?xml version="1.0" encoding="utf-8"?>
<!-- Generator: Adobe Illustrator 27.3.1, SVG Export Plug-In . SVG Version: 6.00 Build 0)  -->
<svg version="1.1" id="Layer_1" xmlns="http://www.w3.org/2000/svg" xmlns:xlink="http://www.w3.org/1999/xlink" x="0px" y="0px"
	 viewBox="0 0 96 18.01" style="enable-background:new 0 0 96 18.01;" xml:space="preserve">
<style type="text/css">
	.st0{fill:none;}
	.st1{fill:#FFFF00;}
</style>
<rect x="0" class="st0" width="96" height="18"/>
<g>
	<path class="st1" d="M50.19,13.55c1.07-2.39,2.04-4.56,3.01-6.73c0.73-1.65,1.53-3.27,2.15-4.96c0.36-0.97,0.84-1.42,1.93-1.25
		c0.39,0.06,0.81,0.01,1.49,0.01c0,1.36,0,2.63,0,3.89c-0.01,3.23-0.06,6.47-0.01,9.7c0.04,2.72-0.2,2.12,2.19,3.3
		c-2.54,0-4.81,0-7.09,0c0.67-0.44,1.52-0.74,1.86-1.31c0.35-0.58,0.23-1.43,0.25-2.17c0.06-3.11,0.09-6.22,0.12-9.34
		c0-0.22-0.04-0.44-0.06-0.66c-0.12-0.03-0.24-0.07-0.36-0.1c-2,4.53-4,9.06-5.99,13.59c-0.14,0-0.28,0.01-0.42,0.02
		c-1.95-4.6-3.9-9.2-5.85-13.8c-0.08,0.01-0.16,0.02-0.24,0.03c-0.04,0.28-0.11,0.56-0.11,0.84c-0.01,3.35,0.01,6.7,0.01,10.05
		c0,1.27,0.28,2.35,1.85,2.74c-1.73,0-3.47,0-5.21,0c0.04-0.08,0.05-0.19,0.09-0.21c1.8-0.66,1.8-0.66,1.8-2.62
		c0-3.51,0-7.01,0.01-10.52c0.01-2.26,0.01-2.26-2.19-3.42c1.83,0,3.32-0.05,4.79,0.04c0.28,0.01,0.61,0.55,0.76,0.91
		c1.54,3.56,3.05,7.13,4.57,10.7C49.71,12.65,49.9,12.98,50.19,13.55z"/>
	<path class="st1" d="M65.03,0.57c3.43,0,6.86,0,10.29,0c0.7,0,1.41-0.04,2.09,0.06c0.4,0.06,0.77,0.36,1.14,0.56
		c-0.39,0.19-0.78,0.5-1.19,0.55c-0.77,0.09-1.56,0.03-2.33,0.04c-1.52,0-3.04,0-4.55,0c-0.59,0-1.02,0.05-0.99,0.82
		c0.06,1.44,0.08,2.88-0.02,4.32c-0.07,1.03,0.35,1.25,1.33,1.22c2.17-0.06,4.35-0.05,6.52,0.01c0.41,0.01,0.8,0.42,1.2,0.64
		c-0.39,0.18-0.78,0.51-1.18,0.52C75.17,9.35,73,9.34,70.82,9.32c-0.93-0.01-1.39,0.18-1.28,1.27c0.15,1.5,0.06,3.04-0.02,4.55
		c-0.05,0.87,0.24,1.17,1.17,1.15c2.17-0.05,4.35-0.04,6.52,0.03c0.45,0.01,0.88,0.43,1.33,0.66c-0.43,0.24-0.86,0.68-1.3,0.69
		c-3.94,0.03-7.88,0-11.81-0.03c-0.23,0-0.46-0.06-0.7-0.1c0.05-0.14,0.05-0.25,0.09-0.27c1.93-0.79,1.9-0.78,1.91-2.82
		c0.02-3.47,0.1-6.93,0.09-10.4c-0.01-1.34,0.17-2.86-2.07-3.15C64.83,0.79,64.93,0.68,65.03,0.57z"/>
	<path class="st1" d="M23.45,17.5c-1.77,0-3.53,0-5.42,0c3.29-2.5,3.73-6.32,5.33-9.55C24.6,5.43,25.58,2.79,26.76,0
		c0.34,0.52,0.63,0.84,0.79,1.21c1.92,4.46,3.79,8.93,5.76,13.37c0.47,1.05,1.26,1.97,1.88,2.92c-1.88,0-4.05,0-6.59,0
		c0.51-0.25,0.71-0.38,0.94-0.45c1.35-0.44,1.66-0.82,1.18-2.03c-1.38-3.52-2.85-7-4.38-10.74c-0.33,0.44-0.58,0.67-0.7,0.96
		c-1.21,2.8-2.41,5.61-3.59,8.43c-0.17,0.39-0.26,0.82-0.37,1.23c-0.37,1.43,0.68,1.91,1.85,2.31C23.5,17.3,23.48,17.41,23.45,17.5z
		"/>
	<path class="st1" d="M87,16.26c2.58,0,4.83,0,7.08,0c0.32,0,0.7-0.07,0.97,0.04c0.35,0.15,0.64,0.46,0.95,0.7
		c-0.32,0.22-0.62,0.6-0.94,0.62c-2.09,0.07-4.18,0.08-6.27,0.08c-1.85,0-3.69-0.01-5.53-0.03c-0.38,0-0.77-0.06-1.26-0.24
		c2.46-0.38,2.14-2.09,2.15-3.61c0.03-3.38,0.04-6.77,0.08-10.16c0.02-1.35,0.01-2.66-1.89-2.95c1.47,0,2.95,0,4.67,0
		C87,5.86,87,11.01,87,16.26z"/>
	<path class="st1" d="M15.29,13.32c-0.12,0.41-0.15,0.87-0.37,1.24c-1.95,3.23-5.55,4.29-9.21,2.76c-3.58-1.5-6.05-5.34-5.67-8.82
		c0.43-4,3.39-7.28,7.31-8.2c1.77-0.41,3.42,0,5.03,0.63c1,0.39,1.92,0.79,2.58-0.84c0,1.74,0,3.11,0,4.48
		c-0.09,0.03-0.18,0.05-0.27,0.08C14.38,4.3,14,3.99,13.79,3.6c-1.61-3.1-7.42-3.73-9.75,0.29c-1.85,3.19-1.95,6.55-0.31,9.87
		c0.98,1.98,2.68,3.1,5.02,3.25c2.39,0.15,4.04-0.99,5.29-2.8c0.24-0.35,0.47-0.7,0.71-1.04C14.94,13.22,15.11,13.27,15.29,13.32z"
		/>
</g>
</svg>
