<?xml version="1.0" encoding="utf-8"?>
<!-- Generator: Adobe Illustrator 27.3.1, SVG Export Plug-In . SVG Version: 6.00 Build 0)  -->
<svg version="1.1" id="Layer_1" xmlns="http://www.w3.org/2000/svg" xmlns:xlink="http://www.w3.org/1999/xlink" x="0px" y="0px"
	 viewBox="0 0 61.67 7.85" style="enable-background:new 0 0 61.67 7.85;" xml:space="preserve">
<style type="text/css">
	.st0{fill:#636363;}
</style>
<g>
	<path class="st0" d="M16.6,0.05c0.78,0,1.56-0.03,2.33,0.01c1.36,0.05,2.28,0.81,2.53,2.12c0.22,1.2,0.22,2.42-0.03,3.62
		c-0.22,1.06-1.04,1.76-2.12,1.88c-1.69,0.18-3.38,0.16-5.07,0.05c-1.4-0.09-2.16-0.7-2.49-1.9c-0.06-0.23-0.09-0.47-0.1-0.7
		c-0.01-0.83-0.02-1.66,0-2.49c0.02-1.44,1.08-2.53,2.54-2.58C14.98,0.03,15.79,0.05,16.6,0.05C16.6,0.05,16.6,0.05,16.6,0.05z
		 M16.67,1.93C16.67,1.93,16.67,1.93,16.67,1.93c-0.68,0-1.35-0.01-2.03,0.01c-0.46,0.01-0.83,0.3-0.85,0.75
		c-0.04,0.81-0.03,1.61-0.01,2.42c0.01,0.33,0.22,0.58,0.55,0.67c0.3,0.08,0.62,0.14,0.94,0.15c0.93,0.02,1.85,0,2.78,0
		c0.17,0,0.34-0.02,0.5-0.05c0.43-0.08,0.73-0.31,0.8-0.76c0.03-0.18,0.09-0.37,0.09-0.55c0.03-0.7,0.13-1.4-0.12-2.08
		c-0.12-0.33-0.35-0.53-0.71-0.54C17.96,1.92,17.32,1.93,16.67,1.93z"/>
	<path class="st0" d="M41.46,5.52c0.61,0.76,1.17,1.46,1.77,2.21c-0.19,0.03-0.34,0.06-0.49,0.06c-0.47,0.01-0.94-0.01-1.4,0.01
		c-0.28,0.01-0.47-0.09-0.63-0.31c-0.55-0.74-1.1-1.48-1.65-2.21c-0.27-0.36-0.55-0.73-0.83-1.08c-0.06-0.08-0.13-0.14-0.27-0.28
		c-0.03,0.2-0.07,0.33-0.07,0.45c-0.02,1.04-0.03,2.07-0.04,3.11c0,0.25-0.09,0.35-0.35,0.34c-0.47-0.01-0.94-0.01-1.4,0
		c-0.24,0.01-0.3-0.1-0.3-0.32c0.01-1.45,0.01-2.9,0-4.35c0-0.9-0.03-1.8-0.04-2.69c0-0.4,0.03-0.43,0.44-0.44c1.44,0,2.87,0,4.31,0
		c0.8,0,1.59,0.01,2.39,0.04c1.11,0.05,1.97,0.94,1.99,2.05c0,0.37,0,0.75,0.01,1.12c0.03,1.41-0.86,2.01-1.96,2.18
		C42.47,5.49,42.01,5.48,41.46,5.52z M39.98,1.93c-0.6,0-1.2,0.01-1.79-0.01c-0.24-0.01-0.32,0.09-0.31,0.31
		c0,0.45,0,0.91-0.01,1.36c-0.01,0.23,0.09,0.31,0.32,0.31c0.57-0.01,1.14,0,1.7-0.01c0.74-0.01,1.47-0.01,2.21-0.06
		c0.18-0.01,0.43-0.17,0.52-0.32c0.22-0.4,0.22-0.87,0.01-1.28c-0.07-0.15-0.32-0.28-0.5-0.29C41.41,1.91,40.69,1.93,39.98,1.93z"/>
	<path class="st0" d="M7.5,3C7.49,2.67,7.47,2.42,7.46,2.18c0-0.17-0.06-0.26-0.24-0.26c-0.45-0.01-0.9-0.04-1.34-0.03
		C4.89,1.89,3.9,1.91,2.92,1.93C2.58,1.94,2.36,2.16,2.28,2.47c-0.24,0.9-0.24,1.81-0.03,2.72c0.09,0.39,0.38,0.59,0.75,0.67
		C3.23,5.9,3.46,5.92,3.69,5.92c1.75,0.01,3.51,0.01,5.26,0c0.29,0,0.42,0.08,0.4,0.38C9.33,6.69,9.34,7.09,9.33,7.48
		c0,0.21-0.07,0.32-0.32,0.32c-1.97-0.01-3.95,0-5.92-0.02C2.67,7.77,2.22,7.69,1.8,7.58c-1.07-0.28-1.55-1.08-1.69-2.1
		c-0.15-1.11-0.16-2.22,0.04-3.33c0.22-1.23,1.1-2.01,2.29-2.06C4.69,0,6.96,0.05,9.22,0.05c0.07,0,0.14,0.02,0.23,0.03
		c0,0.66,0.01,1.32-0.01,1.98c0,0.08-0.08,0.2-0.15,0.23C8.73,2.53,8.14,2.75,7.5,3z"/>
	<path class="st0" d="M33.46,2.72c0,0.92-0.01,1.83,0,2.75c0.01,1.01-0.89,2.08-2.21,2.21c-1.63,0.16-3.26,0.14-4.89,0.06
		c-0.98-0.05-1.8-0.39-2.31-1.29c-0.28-0.49-0.3-1.04-0.31-1.58c-0.03-1.52-0.02-3.04-0.03-4.56c0-0.22,0.08-0.29,0.3-0.29
		c0.5,0.01,1,0.02,1.49,0.01c0.29-0.01,0.35,0.12,0.35,0.37c-0.02,1.16-0.03,2.33-0.03,3.49c0,0.42,0.06,0.84,0.12,1.26
		c0.07,0.41,0.38,0.61,0.76,0.7c0.16,0.04,0.33,0.05,0.5,0.05c0.96,0.01,1.91,0.01,2.87,0c0.86,0,1.27-0.36,1.3-1.24
		c0.04-1.35,0.03-2.7,0.03-4.05c0-0.7-0.04-0.59,0.6-0.6c0.42-0.01,0.84,0.02,1.25,0.02c0.2,0,0.26,0.07,0.26,0.26
		c-0.01,0.81,0,1.62,0,2.43C33.5,2.72,33.48,2.72,33.46,2.72z"/>
	<path class="st0" d="M61.46,0.1c-0.16,0.16-0.32,0.31-0.49,0.47c-0.96,0.92-1.92,1.84-2.86,2.77c-0.31,0.3-0.3,0.33-0.01,0.65
		c0.96,1.03,1.92,2.06,2.88,3.09c0.21,0.23,0.42,0.47,0.69,0.77c-0.73,0-1.38-0.01-2.02,0c-0.47,0.01-0.83-0.17-1.15-0.52
		c-0.64-0.71-1.31-1.38-1.95-2.09c-0.17-0.18-0.28-0.2-0.46-0.02c-0.63,0.65-1.28,1.27-1.89,1.94c-0.42,0.46-0.87,0.7-1.51,0.65
		c-0.53-0.04-1.07-0.01-1.7-0.01c0.18-0.19,0.29-0.31,0.4-0.43c1.1-1.13,2.2-2.26,3.3-3.39c0.27-0.27,0.28-0.28,0-0.56
		c-1.03-1.04-2.07-2.08-3.11-3.12c-0.07-0.07-0.13-0.14-0.22-0.24c0.11-0.02,0.18-0.05,0.24-0.05c0.69,0,1.38,0,2.06,0
		c0.25,0,0.44,0.1,0.62,0.29c0.58,0.62,1.17,1.24,1.78,1.83c0.33,0.32,0.35,0.31,0.67,0c0.65-0.63,1.28-1.27,1.93-1.89
		c0.12-0.11,0.3-0.22,0.46-0.23C59.9-0.01,60.67,0,61.43,0C61.44,0.03,61.45,0.06,61.46,0.1z"/>
	<path class="st0" d="M49.11,3.89c0,1.12,0.01,2.25,0,3.37c0,0.54-0.02,0.55-0.57,0.55c-0.42,0.01-0.84-0.01-1.25,0
		C47,7.83,46.92,7.71,46.92,7.45c0-1.84-0.01-3.69-0.01-5.53c0-0.54,0.01-1.09,0-1.63c0-0.21,0.08-0.28,0.28-0.27
		c0.5,0.01,1,0.01,1.49,0.02c0.43,0.01,0.43,0.01,0.43,0.45c0,1.13,0,2.27,0,3.4C49.11,3.89,49.11,3.89,49.11,3.89z"/>
</g>
</svg>
