<?xml version="1.0" encoding="utf-8"?>
<!-- Generator: Adobe Illustrator 27.3.1, SVG Export Plug-In . SVG Version: 6.00 Build 0)  -->
<svg version="1.1" id="Layer_1" xmlns="http://www.w3.org/2000/svg" xmlns:xlink="http://www.w3.org/1999/xlink" x="0px" y="0px"
	 viewBox="0 0 300 124" style="enable-background:new 0 0 300 124;" xml:space="preserve">
<style type="text/css">
	.st0{fill-rule:evenodd;clip-rule:evenodd;fill:#0094D9;}
	.st1{fill:#105DA9;}
	.st2{fill:#B2B2B2;}
</style>
<g>
	<g>
		<g>
			<path class="st0" d="M166.12,44.24l-20.26-0.04l-3.2-6.37h11.55l-6.44-12l-8.49,18.41h-9.42l11.93-24.63h13L166.12,44.24
				L166.12,44.24z M278.43,23.54c3.97,0,7.21,3.74,7.21,8.33c0,4.59-3.24,8.33-7.21,8.33c-3.97,0-7.21-3.74-7.21-8.33
				C271.23,27.28,274.46,23.54,278.43,23.54L278.43,23.54z M278.22,17.91c9.05,0,16.43,6.27,16.43,13.96
				c0,7.69-7.38,13.96-16.43,13.96c-9.05,0-16.43-6.27-16.43-13.96C261.79,24.18,269.17,17.91,278.22,17.91L278.22,17.91z
				 M245.26,23.54c3.97,0,7.21,3.74,7.21,8.33c0,4.59-3.24,8.33-7.21,8.33c-3.97,0-7.21-3.74-7.21-8.33
				C238.05,27.28,241.29,23.54,245.26,23.54L245.26,23.54z M245.05,17.91c9.05,0,16.43,6.27,16.43,13.96
				c0,7.69-7.38,13.96-16.43,13.96c-9.05,0-16.43-6.27-16.43-13.96C228.62,24.18,236,17.91,245.05,17.91L245.05,17.91z
				 M190.58,44.14h-24.41V19.72h30.51l6.05,15.38l4.5-8.72l-2.95-6.66h12.65l-3.39,6.58L218,35.2l6.42-15.48h8.23l-10.05,24.31
				h-7.03l-5.29-9.76l-4.66,9.76h-7.35l-7.71-18.28h-15.63v3.57h13.54v5.45h-13.54v3.66h15.66V44.14L190.58,44.14z M124.96,31.94
				c0-4.4-2.66-6.59-7.99-6.59h-4.7v13.09h4.24c1.81,0,3.33-0.2,4.56-0.59c1.23-0.4,2.17-1.07,2.82-2c0.37-0.49,0.65-1.06,0.82-1.69
				C124.87,33.51,124.96,32.78,124.96,31.94L124.96,31.94z M134.08,31.86c0,2.89-0.65,5.26-1.96,7.08
				c-1.31,1.83-2.88,3.14-4.73,3.93c-1.84,0.79-3.65,1.3-5.43,1.52c-1.65,0.19-3.31,0.29-4.96,0.29l-13.98,0.02V19.08h14.66
				c3.28,0,6.03,0.41,8.26,1.25c2.23,0.83,3.92,1.89,5.08,3.18c1.15,1.29,1.95,2.66,2.4,4.09
				C133.85,29.03,134.08,30.45,134.08,31.86L134.08,31.86z"/>
			<path class="st0" d="M48.78,24.04c2.08,0,4.12,0.08,6.13,0.24c-4.44,19.97-5.23,38.21-5.25,55.81c-0.29,0-0.59,0.01-0.88,0.01
				c-0.34,0-0.67,0-1.01-0.01c-0.01-17.6-0.81-35.83-5.24-55.8C44.57,24.12,46.66,24.04,48.78,24.04L48.78,24.04z M45.64,80.03
				c-0.94-0.04-1.87-0.09-2.79-0.16c-0.33-22.95-6.2-37.3-18.86-51.63c3.02-1.12,6.27-2.04,9.69-2.73
				C42,41.9,45.14,54.93,45.64,80.03L45.64,80.03z M40.7,79.67c-1.04-0.11-2.06-0.23-3.07-0.38c0.11-6.24-0.81-12.82-2.9-17.95
				C30.71,51.5,22.92,42.7,9.16,36.89c2.1-1.93,4.58-3.69,7.39-5.25C27.81,38.01,40.92,55.06,40.7,79.67L40.7,79.67z M35.06,78.87
				C15.74,75.37,1.62,64.66,1.62,52.06c0-3.29,0.96-6.44,2.72-9.37C13.99,44.48,24,49.9,29.98,58.26
				C33.99,63.87,35.94,70.66,35.06,78.87L35.06,78.87z M63.75,25.49c3.38,0.68,6.58,1.57,9.57,2.66
				C60.6,42.51,54.71,56.88,54.38,79.89c-0.86,0.06-1.73,0.11-2.6,0.14C52.28,54.92,55.43,41.89,63.75,25.49L63.75,25.49z
				 M80.84,31.54c2.83,1.56,5.33,3.32,7.45,5.25C74.4,42.6,66.54,51.44,62.51,61.34c-2.1,5.15-3.02,11.74-2.9,18
				c-1.01,0.14-2.04,0.26-3.07,0.37C56.3,54.96,69.54,37.85,80.84,31.54L80.84,31.54z M93.18,42.64c1.78,2.95,2.75,6.12,2.75,9.43
				c0,12.67-14.27,23.42-33.75,26.87c-0.9-8.24,1.05-15.05,5.07-20.67C73.29,49.82,83.44,44.37,93.18,42.64L93.18,42.64z"/>
			<g>
				<path class="st1" d="M130.11,53.8v5.68h-13.15c0,0-7.58,0.22-6.91,8.69h20.06v5.35h-20.1V86.9h-6.98V68.29
					c0,0-1.11-15.04,16.16-14.49H130.11z"/>
				<path class="st1" d="M175.57,54.25c-10.58,0.56-10.36,9.03-10.36,9.03c0.22,10.92,9.47,10.36,9.47,10.36h11.14
					c4.46-0.11,3.9,4.01,3.9,4.01c0.34,4.12-5.35,3.45-5.35,3.45h-22.4l-11.7-26.85h-7.47L129,86.9h6.68l2.56-7.91h15.71l2.89,7.91
					h30.09c12.26-0.78,10.25-11.48,10.25-11.48c-0.22-7.46-9.36-7.35-9.36-7.35h-11.25c-4.12-0.34-4.24-4.12-4.24-4.12
					c-0.33-5.13,6.36-4.57,6.36-4.57h31.31V86.9h7.36V59.37h11.03v-5.13H175.57z M140.99,73.16l5.17-12.11l5.34,12.11H140.99z"/>
				<path class="st2" d="M288.13,49.73h-6.74l-8.63,14.7h-1.48l-7.95-10.17h-5.8l10.79,15.57l-7.69,12h-21.03
					c0,0-6.74-0.67-5.53-9.17h19.01v-5.26h-19.16c0,0-1.07-6.88,6.08-8.22h13.48v-4.92h-12.27c0,0-14.83,0.36-14.02,16.32
					c0,0-0.27,14.61,11.46,15.56h25.21l7.42-10.65h1.48l18.47,30.61h7.15l-23.07-36.44L288.13,49.73z"/>
			</g>
			<g>
				<path d="M143.19,99.83c-0.57,0-1.1-0.1-1.59-0.29c-0.48-0.19-0.9-0.46-1.26-0.81c-0.36-0.35-0.63-0.76-0.83-1.22
					c-0.2-0.47-0.3-0.98-0.3-1.54s0.1-1.07,0.3-1.54c0.2-0.47,0.48-0.87,0.84-1.22c0.36-0.35,0.78-0.62,1.27-0.81
					c0.48-0.19,1.01-0.29,1.59-0.29c0.58,0,1.12,0.1,1.61,0.3c0.49,0.2,0.91,0.49,1.25,0.88l-0.7,0.68
					c-0.29-0.3-0.61-0.53-0.97-0.67c-0.36-0.15-0.74-0.22-1.15-0.22c-0.42,0-0.82,0.07-1.18,0.22c-0.36,0.14-0.68,0.34-0.94,0.6
					c-0.27,0.26-0.47,0.57-0.62,0.92c-0.15,0.36-0.22,0.74-0.22,1.16c0,0.42,0.07,0.8,0.22,1.16c0.15,0.36,0.35,0.66,0.62,0.92
					c0.27,0.26,0.58,0.46,0.94,0.6c0.36,0.14,0.76,0.22,1.18,0.22c0.41,0,0.79-0.07,1.15-0.22c0.36-0.15,0.68-0.38,0.97-0.68
					l0.7,0.68c-0.34,0.39-0.76,0.68-1.25,0.88C144.32,99.73,143.78,99.83,143.19,99.83z"/>
				<path d="M150.85,99.83c-0.57,0-1.11-0.1-1.6-0.29c-0.49-0.19-0.92-0.46-1.28-0.81c-0.36-0.35-0.64-0.76-0.84-1.22
					c-0.2-0.47-0.3-0.98-0.3-1.53s0.1-1.06,0.3-1.53c0.2-0.47,0.48-0.87,0.84-1.22c0.36-0.35,0.78-0.62,1.27-0.81
					c0.49-0.19,1.02-0.29,1.61-0.29c0.57,0,1.1,0.1,1.59,0.29c0.48,0.19,0.91,0.46,1.27,0.81c0.36,0.35,0.64,0.76,0.84,1.22
					c0.2,0.47,0.3,0.98,0.3,1.54s-0.1,1.07-0.3,1.54c-0.2,0.47-0.48,0.87-0.84,1.22c-0.36,0.35-0.79,0.62-1.27,0.81
					C151.96,99.74,151.43,99.83,150.85,99.83z M150.85,98.88c0.42,0,0.8-0.07,1.16-0.22c0.36-0.14,0.66-0.35,0.93-0.61
					c0.26-0.26,0.47-0.57,0.61-0.92c0.15-0.35,0.22-0.74,0.22-1.15c0-0.42-0.07-0.8-0.22-1.15c-0.15-0.35-0.35-0.66-0.61-0.92
					c-0.26-0.26-0.57-0.46-0.93-0.61c-0.36-0.14-0.74-0.22-1.16-0.22c-0.42,0-0.81,0.07-1.17,0.22c-0.36,0.14-0.67,0.35-0.93,0.61
					c-0.27,0.26-0.47,0.57-0.62,0.92c-0.15,0.35-0.22,0.74-0.22,1.15c0,0.42,0.07,0.8,0.22,1.15c0.15,0.35,0.35,0.66,0.62,0.92
					s0.58,0.47,0.93,0.61C150.04,98.8,150.43,98.88,150.85,98.88z"/>
				<path d="M159.62,99.83c-0.99,0-1.77-0.28-2.34-0.85c-0.57-0.57-0.85-1.4-0.85-2.49v-4.29h1.08v4.24c0,0.84,0.18,1.45,0.55,1.84
					c0.37,0.39,0.89,0.58,1.57,0.58c0.68,0,1.21-0.19,1.58-0.58c0.37-0.39,0.55-1,0.55-1.84v-4.24h1.04v4.29
					c0,1.09-0.28,1.92-0.85,2.49C161.4,99.55,160.62,99.83,159.62,99.83z"/>
				<path d="M165.02,99.75v-7.54h2.94c0.66,0,1.22,0.1,1.69,0.31c0.47,0.21,0.83,0.51,1.08,0.9c0.25,0.39,0.38,0.87,0.38,1.41
					c0,0.55-0.13,1.01-0.38,1.41c-0.25,0.39-0.61,0.69-1.08,0.9c-0.47,0.21-1.03,0.31-1.69,0.31h-2.35l0.48-0.5v2.79H165.02z
					 M166.09,97.07l-0.48-0.53h2.32c0.69,0,1.21-0.15,1.57-0.45c0.36-0.3,0.53-0.72,0.53-1.25c0-0.54-0.18-0.96-0.53-1.25
					c-0.36-0.29-0.88-0.44-1.57-0.44h-2.32l0.48-0.54V97.07z M170.06,99.75l-1.92-2.74h1.15l1.94,2.74H170.06z"/>
				<path d="M172.85,99.75v-7.54h1.08v7.54H172.85z"/>
				<path d="M177.26,98.81h4.39v0.94h-5.47v-7.54h5.32v0.94h-4.24V98.81z M177.17,95.46h3.88v0.92h-3.88V95.46z"/>
				<path d="M183.4,99.75v-7.54h2.94c0.66,0,1.22,0.1,1.69,0.31c0.47,0.21,0.83,0.51,1.08,0.9c0.25,0.39,0.38,0.87,0.38,1.41
					c0,0.55-0.13,1.01-0.38,1.41c-0.25,0.39-0.61,0.69-1.08,0.9c-0.47,0.21-1.03,0.31-1.69,0.31H184l0.48-0.5v2.79H183.4z
					 M184.48,97.07L184,96.54h2.32c0.69,0,1.21-0.15,1.57-0.45c0.36-0.3,0.53-0.72,0.53-1.25c0-0.54-0.18-0.96-0.53-1.25
					c-0.36-0.29-0.88-0.44-1.57-0.44H184l0.48-0.54V97.07z M188.45,99.75l-1.92-2.74h1.15l1.94,2.74H188.45z"/>
				<path d="M196.13,99.83c-0.51,0-0.96-0.08-1.36-0.25c-0.4-0.17-0.71-0.39-0.94-0.69c-0.23-0.29-0.34-0.64-0.34-1.02
					c0-0.34,0.08-0.65,0.23-0.93c0.15-0.28,0.39-0.55,0.72-0.81c0.33-0.26,0.76-0.53,1.3-0.81c0.44-0.23,0.78-0.43,1.03-0.6
					c0.25-0.17,0.42-0.34,0.53-0.49c0.1-0.15,0.16-0.32,0.16-0.5c0-0.24-0.09-0.44-0.26-0.6c-0.17-0.15-0.42-0.23-0.74-0.23
					c-0.34,0-0.6,0.08-0.79,0.25c-0.19,0.17-0.29,0.39-0.29,0.66c0,0.14,0.02,0.27,0.07,0.39c0.05,0.13,0.13,0.27,0.26,0.42
					c0.13,0.15,0.31,0.35,0.54,0.59l3.99,3.96l-0.58,0.69l-4.23-4.21c-0.25-0.25-0.45-0.48-0.59-0.67c-0.14-0.2-0.25-0.39-0.31-0.58
					s-0.1-0.38-0.1-0.57c0-0.34,0.08-0.63,0.25-0.89c0.17-0.25,0.41-0.45,0.71-0.59c0.31-0.14,0.66-0.21,1.07-0.21
					c0.38,0,0.71,0.06,0.99,0.19c0.28,0.13,0.5,0.31,0.65,0.54c0.15,0.23,0.23,0.52,0.23,0.85c0,0.29-0.07,0.55-0.21,0.8
					c-0.14,0.24-0.36,0.48-0.67,0.71c-0.31,0.23-0.73,0.48-1.25,0.74c-0.43,0.22-0.77,0.43-1.01,0.62
					c-0.24,0.19-0.42,0.38-0.52,0.57c-0.1,0.19-0.16,0.39-0.16,0.61c0,0.24,0.07,0.45,0.21,0.63c0.14,0.18,0.34,0.33,0.59,0.43
					c0.25,0.1,0.55,0.15,0.89,0.15c0.48,0,0.92-0.1,1.3-0.31c0.39-0.21,0.71-0.52,0.97-0.94c0.26-0.42,0.45-0.93,0.58-1.55
					l0.83,0.27c-0.14,0.73-0.39,1.34-0.74,1.84c-0.35,0.5-0.78,0.89-1.29,1.15C197.34,99.7,196.77,99.83,196.13,99.83z"/>
				<path d="M204.42,99.75v-7.54h1.08v6.6h4.08v0.94H204.42z"/>
				<path d="M214.08,99.83c-0.57,0-1.11-0.1-1.6-0.29c-0.49-0.19-0.92-0.46-1.28-0.81c-0.36-0.35-0.64-0.76-0.84-1.22
					c-0.2-0.47-0.3-0.98-0.3-1.53s0.1-1.06,0.3-1.53c0.2-0.47,0.48-0.87,0.84-1.22c0.36-0.35,0.78-0.62,1.27-0.81
					c0.49-0.19,1.02-0.29,1.61-0.29c0.57,0,1.1,0.1,1.59,0.29c0.48,0.19,0.91,0.46,1.27,0.81c0.36,0.35,0.64,0.76,0.84,1.22
					c0.2,0.47,0.3,0.98,0.3,1.54s-0.1,1.07-0.3,1.54c-0.2,0.47-0.48,0.87-0.84,1.22c-0.36,0.35-0.79,0.62-1.27,0.81
					S214.66,99.83,214.08,99.83z M214.08,98.88c0.42,0,0.8-0.07,1.16-0.22c0.36-0.14,0.66-0.35,0.93-0.61
					c0.26-0.26,0.47-0.57,0.61-0.92c0.15-0.35,0.22-0.74,0.22-1.15c0-0.42-0.07-0.8-0.22-1.15c-0.15-0.35-0.35-0.66-0.61-0.92
					c-0.26-0.26-0.57-0.46-0.93-0.61c-0.36-0.14-0.74-0.22-1.16-0.22c-0.42,0-0.81,0.07-1.17,0.22c-0.36,0.14-0.67,0.35-0.93,0.61
					c-0.27,0.26-0.47,0.57-0.62,0.92c-0.15,0.35-0.22,0.74-0.22,1.15c0,0.42,0.07,0.8,0.22,1.15c0.15,0.35,0.35,0.66,0.62,0.92
					s0.58,0.47,0.93,0.61C213.27,98.8,213.66,98.88,214.08,98.88z"/>
				<path d="M223.13,99.83c-0.58,0-1.12-0.1-1.61-0.29s-0.91-0.46-1.27-0.81c-0.36-0.35-0.64-0.76-0.84-1.22
					c-0.2-0.47-0.3-0.98-0.3-1.54s0.1-1.07,0.3-1.54c0.2-0.47,0.48-0.87,0.85-1.22c0.36-0.35,0.79-0.62,1.28-0.81
					c0.49-0.19,1.03-0.29,1.62-0.29c0.6,0,1.14,0.1,1.64,0.29c0.5,0.19,0.92,0.48,1.26,0.87l-0.67,0.67
					c-0.31-0.3-0.64-0.52-1.01-0.66c-0.36-0.14-0.76-0.21-1.18-0.21c-0.43,0-0.83,0.07-1.2,0.22c-0.37,0.14-0.69,0.34-0.96,0.6
					c-0.27,0.26-0.48,0.57-0.62,0.92c-0.15,0.36-0.22,0.74-0.22,1.16c0,0.41,0.07,0.79,0.22,1.15c0.15,0.36,0.36,0.66,0.62,0.93
					s0.59,0.47,0.95,0.61c0.37,0.14,0.76,0.22,1.2,0.22c0.4,0,0.79-0.06,1.16-0.19c0.37-0.13,0.71-0.34,1.03-0.63l0.61,0.82
					c-0.37,0.32-0.81,0.55-1.31,0.72C224.18,99.75,223.66,99.83,223.13,99.83z M224.95,98.74v-2.8h1.03v2.94L224.95,98.74z"/>
				<path d="M228.04,99.75v-7.54h1.08v7.54H228.04z"/>
				<path d="M233.58,99.83c-0.57,0-1.12-0.09-1.65-0.26c-0.52-0.18-0.94-0.4-1.24-0.68l0.4-0.84c0.29,0.25,0.65,0.46,1.1,0.62
					c0.45,0.17,0.91,0.25,1.39,0.25c0.44,0,0.79-0.05,1.07-0.15c0.27-0.1,0.47-0.24,0.6-0.41c0.13-0.18,0.19-0.38,0.19-0.6
					c0-0.26-0.08-0.47-0.25-0.62c-0.17-0.16-0.39-0.29-0.66-0.38c-0.27-0.1-0.57-0.18-0.89-0.25c-0.32-0.07-0.65-0.16-0.97-0.25
					c-0.33-0.1-0.62-0.22-0.89-0.37c-0.27-0.15-0.49-0.35-0.65-0.61c-0.17-0.25-0.25-0.58-0.25-0.99c0-0.39,0.1-0.74,0.31-1.07
					c0.2-0.33,0.52-0.59,0.95-0.79c0.43-0.2,0.97-0.3,1.63-0.3c0.44,0,0.87,0.06,1.3,0.17c0.43,0.11,0.8,0.28,1.12,0.5l-0.36,0.86
					c-0.32-0.22-0.66-0.37-1.02-0.47c-0.36-0.1-0.71-0.15-1.04-0.15c-0.42,0-0.77,0.05-1.04,0.16c-0.27,0.11-0.47,0.25-0.6,0.43
					c-0.13,0.18-0.19,0.38-0.19,0.6c0,0.27,0.08,0.48,0.25,0.64c0.17,0.16,0.39,0.28,0.66,0.38c0.27,0.09,0.57,0.18,0.89,0.25
					c0.32,0.08,0.65,0.16,0.97,0.25s0.62,0.22,0.89,0.37c0.27,0.15,0.49,0.35,0.65,0.6c0.17,0.25,0.25,0.57,0.25,0.97
					c0,0.38-0.1,0.73-0.31,1.06c-0.21,0.33-0.53,0.59-0.96,0.79C234.79,99.74,234.24,99.83,233.58,99.83z"/>
				<path d="M239.46,99.75v-6.6h-2.59v-0.94h6.24v0.94h-2.59v6.6H239.46z"/>
				<path d="M244.29,99.75v-7.54h1.08v7.54H244.29z"/>
				<path d="M251,99.83c-0.57,0-1.1-0.1-1.59-0.29c-0.48-0.19-0.9-0.46-1.26-0.81c-0.36-0.35-0.63-0.76-0.83-1.22
					c-0.2-0.47-0.3-0.98-0.3-1.54s0.1-1.07,0.3-1.54c0.2-0.47,0.48-0.87,0.84-1.22c0.36-0.35,0.78-0.62,1.27-0.81
					c0.48-0.19,1.01-0.29,1.59-0.29c0.58,0,1.12,0.1,1.61,0.3c0.49,0.2,0.91,0.49,1.25,0.88l-0.7,0.68
					c-0.29-0.3-0.61-0.53-0.97-0.67c-0.36-0.15-0.74-0.22-1.15-0.22c-0.42,0-0.82,0.07-1.18,0.22c-0.36,0.14-0.68,0.34-0.94,0.6
					c-0.27,0.26-0.47,0.57-0.62,0.92c-0.15,0.36-0.22,0.74-0.22,1.16c0,0.42,0.07,0.8,0.22,1.16c0.15,0.36,0.35,0.66,0.62,0.92
					c0.27,0.26,0.58,0.46,0.94,0.6c0.36,0.14,0.76,0.22,1.18,0.22c0.41,0,0.79-0.07,1.15-0.22c0.36-0.15,0.68-0.38,0.97-0.68
					l0.7,0.68c-0.34,0.39-0.76,0.68-1.25,0.88C252.13,99.73,251.59,99.83,251,99.83z"/>
				<path d="M257.6,99.83c-0.57,0-1.12-0.09-1.65-0.26c-0.52-0.18-0.94-0.4-1.24-0.68l0.4-0.84c0.29,0.25,0.65,0.46,1.1,0.62
					c0.45,0.17,0.91,0.25,1.39,0.25c0.44,0,0.79-0.05,1.07-0.15c0.27-0.1,0.47-0.24,0.6-0.41c0.13-0.18,0.19-0.38,0.19-0.6
					c0-0.26-0.08-0.47-0.25-0.62c-0.17-0.16-0.39-0.29-0.66-0.38c-0.27-0.1-0.57-0.18-0.89-0.25c-0.32-0.07-0.65-0.16-0.97-0.25
					c-0.33-0.1-0.62-0.22-0.89-0.37c-0.27-0.15-0.49-0.35-0.65-0.61c-0.17-0.25-0.25-0.58-0.25-0.99c0-0.39,0.1-0.74,0.31-1.07
					c0.2-0.33,0.52-0.59,0.95-0.79c0.43-0.2,0.97-0.3,1.63-0.3c0.44,0,0.87,0.06,1.3,0.17c0.43,0.11,0.8,0.28,1.12,0.5l-0.36,0.86
					c-0.32-0.22-0.66-0.37-1.02-0.47c-0.36-0.1-0.71-0.15-1.04-0.15c-0.42,0-0.77,0.05-1.04,0.16c-0.27,0.11-0.47,0.25-0.6,0.43
					c-0.13,0.18-0.19,0.38-0.19,0.6c0,0.27,0.08,0.48,0.25,0.64c0.17,0.16,0.39,0.28,0.66,0.38c0.27,0.09,0.57,0.18,0.89,0.25
					c0.32,0.08,0.65,0.16,0.97,0.25s0.62,0.22,0.89,0.37c0.27,0.15,0.49,0.35,0.65,0.6c0.17,0.25,0.25,0.57,0.25,0.97
					c0,0.38-0.1,0.73-0.31,1.06c-0.21,0.33-0.53,0.59-0.96,0.79C258.81,99.74,258.26,99.83,257.6,99.83z"/>
			</g>
		</g>
		<g>
			<path d="M125.53,100.62l1.09-0.79l-3.07-2.58l-0.79,4.21l1.49-0.3c0,0,5.95,5.3,9.86-1.81
				C134.11,99.36,131.18,104.59,125.53,100.62z"/>
			<path d="M132.47,93.51l-1.09,0.79l3.07,2.58l0.79-4.21l-1.49,0.3c0,0-5.95-5.3-9.86,1.81C123.9,94.78,126.82,89.55,132.47,93.51z
				"/>
		</g>
	</g>
	<rect x="222.81" y="95.94" width="3.06" height="0.93"/>
</g>
</svg>
