<?xml version="1.0" encoding="utf-8"?>
<!-- Generator: Adobe Illustrator 27.3.1, SVG Export Plug-In . SVG Version: 6.00 Build 0)  -->
<svg version="1.1" id="Layer_1" xmlns="http://www.w3.org/2000/svg" xmlns:xlink="http://www.w3.org/1999/xlink" x="0px" y="0px"
	 viewBox="0 0 566.93 125.12" style="enable-background:new 0 0 566.93 125.12;" xml:space="preserve">
<style type="text/css">
	.st0{fill:#D71635;}
</style>
<path class="st0" d="M99.7,22.47L81.58,47.08c0,0,93.9,0,98.72,0c4.99,0,4.92,1.9,2.49,5.2c-2.48,3.35-6.62,9.19-9.15,12.59
	c-1.28,1.73-3.59,4.88,4.08,4.88c8.11,0,40.37,0,40.37,0s6.51-8.85,11.96-16.26c7.42-10.07,0.64-31.02-25.88-31.02
	C180.42,22.47,99.7,22.47,99.7,22.47L99.7,22.47z"/>
<path class="st0" d="M74.26,102.64l36.38-49.43c0,0,40.33,0,45.15,0c4.99,0,4.92,1.9,2.49,5.2c-2.48,3.35-6.69,9.13-9.21,12.53
	c-1.28,1.73-3.6,4.88,4.07,4.88c8.11,0,60.48,0,60.48,0c-5.03,6.89-21.35,26.82-50.64,26.82
	C139.23,102.64,74.26,102.64,74.26,102.64L74.26,102.64z"/>
<path class="st0" d="M282.61,75.82l-19.73,26.82h-52.04c0,0,19.72-26.82,19.74-26.82L282.61,75.82L282.61,75.82z"/>
<polygon class="st0" points="362.34,69.75 235.05,69.75 269.86,22.47 321.88,22.47 301.93,49.58 325.16,49.58 345.12,22.47 
	397.14,22.47 362.34,69.75 "/>
<path class="st0" d="M357.87,75.82l-19.74,26.82h-52.02c0,0,19.72-26.82,19.74-26.82H357.87L357.87,75.82z"/>
<polygon class="st0" points="0,86.4 76.67,86.4 72.48,92.1 0,92.1 0,86.4 "/>
<polygon class="st0" points="0,75.82 84.46,75.82 80.26,81.51 0,81.51 0,75.82 "/>
<polygon class="st0" points="0,96.98 68.88,96.98 64.71,102.64 0,102.64 0,96.98 "/>
<polygon class="st0" points="566.93,92.1 490.56,92.1 494.75,86.4 566.93,86.4 566.93,92.1 "/>
<polygon class="st0" points="566.93,102.64 482.79,102.65 486.96,96.98 566.93,96.98 566.93,102.64 "/>
<polygon class="st0" points="502.53,75.82 566.93,75.82 566.93,81.52 498.34,81.52 502.53,75.82 "/>
<path class="st0" d="M469.19,22.47l-34.8,47.28h-55.13c0,0,34.81-47.28,34.83-47.28H469.19L469.19,22.47z"/>
<path class="st0" d="M374.79,75.82c0,0-3.8,5.2-5.65,7.7c-6.54,8.83-0.76,19.12,20.57,19.12c24.63,0,83.55,0,83.55,0L493,75.82
	H374.79L374.79,75.82z"/>
</svg>
