<?xml version="1.0" encoding="utf-8"?>
<!-- Generator: Adobe Illustrator 23.0.1, SVG Export Plug-In . SVG Version: 6.00 Build 0)  -->
<svg version="1.1" id="Layer_1" xmlns="http://www.w3.org/2000/svg" xmlns:xlink="http://www.w3.org/1999/xlink" x="0px" y="0px"
	 viewBox="0 0 1294.8 508.2" style="enable-background:new 0 0 1294.8 508.2;" xml:space="preserve">
<style type="text/css">
	.st0{clip-path:url(#SVGID_2_);fill:#18136E;}
	.st1{clip-path:url(#SVGID_2_);fill:#006DBA;}
</style>
<g>
	<defs>
		<rect id="SVGID_1_" width="1294.8" height="508.2"/>
	</defs>
	<clipPath id="SVGID_2_">
		<use xlink:href="#SVGID_1_"  style="overflow:visible;"/>
	</clipPath>
	<path class="st0" d="M47.9,183.3c4.7-2,9.2-4.4,14-6.3c11.6-4.5,23.6-7.5,35.7-9.9c4.5-0.9,9-1.5,13.5-2.3
		c13.2-1.6,26.5-2.3,39.8-1.9c10.4,0.3,20.7,1.3,30.9,3.3c0.4,0.1,0.9,0,1.3,0c6.5,1.5,13.1,2.8,19.5,4.8c0.7,0.2,1.6,0.1,1.6,1.1
		c-7.5,0.8-15,1.7-22.4,2.5c-0.4-0.2-0.6-0.1-0.9,0.2c-5.6,0.8-11.1,1.6-16.7,2.5c-0.2,0-0.4,0-0.6,0.1c-1.1,0.2-2.3,0.4-3.4,0.6
		c-6.6,0.9-13.1,1.9-19.5,3.4c-0.2,0-0.4,0.1-0.6,0.1c-0.5-0.1-0.9-0.1-1.4,0.2c-0.4-0.2-0.6-0.1-0.7,0.3c-3.9,0.2-7.6,1.3-11.4,2.1
		c-5.2,1.1-10.4,1.9-15.5,3.4c-0.2,0-0.4,0.1-0.7,0.1c-1-0.2-1.8,0.4-2.7,0.7c-6.6,1.1-13,2.9-19.4,4.7c-12.3,3.3-24.4,7-36.3,11.4
		c-0.5,0.2-1,0.5-1.5,0.7c-5.8,1.7-11.3,4.2-16.7,6.6c-11.3,5.1-22.3,10.8-32.4,18.2c-0.4,0.3-0.8,0.4-1.1,0.7
		c-0.8-0.9,0-1.5,0.3-2.1c2.9-5.3,6.5-10.2,10.3-14.8c9.6-11.6,21.2-20.8,34.2-28.2C46.2,184.6,46.7,183.5,47.9,183.3"/>
	<path class="st0" d="M47,180.1c0,0,0.2,0.2,0.1,0.6c-0.1,0.4-0.5,0.5-0.8,0.4c-0.1,0-0.3-0.3-0.3-0.5C46,180.2,46.2,179.9,47,180.1
		"/>
	<path class="st0" d="M243.8,112.5c4.2-0.7,8.4-1.3,12.5-2.1c8-1.5,16.1-2.6,24.2-3.4c10.8-1.1,21.6-1.9,32.5-1.7
		c11.5,0.2,22.9,1.6,33.9,5.3c2.6,0.9,5.2,1.9,7.9,2.9c3.2,1.9,6.5,3.5,9.5,5.6c9.1,6.6,14.7,15.4,17.5,26.2
		c2.3,8.8,3.3,17.8,3.1,26.9c-0.3,12.7-2.3,25.2-6.6,37.2c-2.5,7.2-6.1,13.9-9.4,20.8c-8.6,17.7-18.2,35-29.5,51.2
		c-4.2,6-8.5,11.8-13.4,17.2c-0.4,0.4-0.6,0.9-0.9,1.4c-0.8,0.7-1.6,1.4-2.1,2.4c-0.1,0.2-0.3,0.4-0.5,0.5c-0.4,0.1-0.7,0.4-0.7,0.8
		l0,0c-0.4,0.1-0.7,0.3-0.7,0.7c-0.8,0.4-1.2,1.3-1.8,1.9c-4.8,5.1-9.7,10.3-14.5,15.4c-19.3,20.3-39.1,40.1-59.5,59.3
		c-3.9,3.7-7.8,7.3-11.7,11c-4.1,3.2-7.9,6.8-11.9,10.3c-15.8,13.9-32.1,27.2-49.3,39.2c-4.3,3-8.7,5.9-13,8.9c-0.9,0.6-2,1.1-2.6,2
		c-3.2,1.4-5.8,3.7-8.7,5.6c-14.4,9.7-28.7,19.4-43,29.2c-0.4,0.2-0.6,0.6-0.9,0.9c-0.9,0.2-1.8,0.5-2,1.7c-0.1,0.2-0.3,0.2-0.5,0.2
		c-1.2,0.1-2,0.9-2.9,1.5c-8.1,5.5-16.2,11.1-24.3,16.6c-0.3,0.2-0.6,0.3-0.9,0.1c-0.4-0.8,0.3-1.2,0.6-1.7
		c8.2-11.8,16.5-23.6,24.6-35.5c4.2-6.1,8.6-11.9,12.4-18.3c0.6-0.3,0.8-0.9,1-1.5c1.7-1.9,3.1-3.9,4.3-6.2c0.8-0.3,1-1.2,1.5-1.8
		c6.3-9.1,12.6-18.2,18.8-27.4c3.1-4.6,6.5-9.1,9.3-13.9c1,0,0.5-0.9,0.9-1.3c2.6-2.9,4.5-6.3,6.7-9.6c2.5-3.7,5.3-7.2,7.3-11.2
		c0.5-0.4,1-0.8,1.1-1.5c0.2-0.1,0.3-0.3,0.2-0.5c1.1-0.5,0.5-2.2,1.2-2.5c1.6-0.6,1.8-2.1,2.8-3.1c0.4-0.1,0.6-0.3,0.5-0.7
		c1.1-1.6,2.2-3.3,3.3-5c7.8-11.8,15.7-23.7,23.5-35.6c5.4-8.2,10.8-16.5,15.3-25.2c0.4-0.2,0.9-0.4,0.6-1.1
		c0.2-0.4,0.4-0.7,0.5-1.1c0.4-0.1,0.5-0.4,0.5-0.8c6.6-12.2,12.8-24.6,18.5-37.2c2.1-4.6,4.4-9,5.8-13.9c0.5-0.3,0.7-0.8,0.6-1.3
		c0.1-0.2,0.1-0.4,0.2-0.6c0.1-0.1,0.2-0.1,0.3-0.2c4.9-12,9.3-24.2,11.4-37.1c0.7-4.5,1.4-9.1,0.3-13.7c-0.4-1.8-0.9-3.6-1.5-5.8
		c18.4,6.8,35.5,14.8,47.7,30.5c0.4-0.8,0.1-1.3-0.1-2c-4-11.5-10.1-21.7-18-30.8c-4.7-5.4-9.6-10.7-16-14.2
		c-5.4-3-10.7-6.1-16.2-8.7c-1.8-0.8-3.5-2.1-5.6-2.3c-0.1-0.2-0.3-0.4-0.4-0.5c-0.1-0.4-0.3-0.6-0.7-0.3c-0.2-0.1-0.4-0.2-0.6-0.3
		c-0.2-0.7-0.7-0.7-1.3-0.6c-0.2-0.1-0.4-0.1-0.6,0c-0.6-0.4-1.2-0.9-2-0.8c-3.8-2.1-8.1-3.2-12.2-4.6c-7.5-2.6-15.3-4-23.1-5.4
		c-3.5-0.6-6.9-1.8-10.5-2c-4.3-1.3-8.7-1.9-13.1-2.6c-7.6-1.3-15.2-2.5-22.9-3.3c-7-0.7-14-1.5-20.9-0.5c-0.5-1.2,0.3-1.4,0.9-1.6
		c7.6-2.4,15.1-4.8,22.7-7c8.4-2.5,16.9-4.9,25.4-7.4c0.4-0.1,0.8-0.4,1.2-0.6c6.5-1.7,13.1-3.4,19.6-5.1c4.4-1.1,8.8-2.2,13.2-3.3
		c0.4,0.3,0.7,0.1,0.8-0.3c9.7-2.1,19.3-4.3,29-6.4C242.9,112.8,243.4,112.6,243.8,112.5"/>
	<path class="st0" d="M354.8,98.9c-5.1,0.3-10.3,0.8-15.4,0.2c-20.8-2.6-36.5-12.7-44.6-32.4c-6.6-16-4-31.4,6.3-45.3
		c7.3-9.9,17.2-16.1,29-19.3c0.9-0.2,1.7-0.5,2.6-0.8c1.2,0.1,2.2-0.5,3.4-0.6c0.5,0.1,1,0.2,1.5-0.2c1.8-0.1,3.5-0.3,5.3-0.4
		c1.8,0,3.6,0,5.4,0c1.8,0.2,3.6,0.4,5.4,0.6c0.4,0.3,0.9,0.3,1.4,0.1c6.5,1.3,12.8,3.3,18.5,6.6c12.4,7.3,21.1,17.5,24.6,31.7
		c3.3,13.9,0.6,26.7-7.7,38.2C381.7,89,370,96,355.6,98.5C355.3,98.6,355.1,98.8,354.8,98.9"/>
	<path class="st0" d="M321.2,304.3c0-0.4,0.2-0.7,0.7-0.7C321.8,304,321.6,304.3,321.2,304.3"/>
	<path class="st0" d="M321.8,303.6c0.1-0.4,0.3-0.7,0.7-0.8C322.5,303.3,322.3,303.6,321.8,303.6"/>
	<path class="st0" d="M357.2,111.7c-0.1-0.1-0.1-0.1-0.2-0.2c0.1-0.1,0.1-0.2,0.2-0.2c0.1,0,0.1,0.1,0.2,0.2
		C357.3,111.6,357.2,111.6,357.2,111.7"/>
	<path class="st0" d="M213.5,119.3c-0.2,0.4-0.4,0.6-0.8,0.3C212.9,119.3,213.2,119.2,213.5,119.3"/>
	<path class="st0" d="M138.8,181.5c-0.1,0.3-0.1,0.7-0.3,0.7c-0.3,0.2-0.4-0.2-0.4-0.5C138.2,181.4,138.4,181.3,138.8,181.5"/>
	<path class="st0" d="M164.3,177.3c-0.2,0.5-0.4,0.6-0.6,0.1C163.9,177.3,164.1,177.3,164.3,177.3"/>
	<path class="st0" d="M140.8,181.2c-0.2,0.5-0.3,0.7-0.6,0.1C140.4,181.3,140.6,181.3,140.8,181.2"/>
	<path class="st0" d="M111.2,187.3c-0.1,0.5-0.3,0.8-0.7,0.1C110.7,187.3,111,187.3,111.2,187.3"/>
	<path class="st0" d="M209.1,305.9c-0.3-0.7,0.2-0.8,0.6-1.1C210.1,305.5,209.6,305.7,209.1,305.9"/>
	<path class="st0" d="M235,251.9c0-0.5-0.1-1.1,0.6-1.3C235.7,251.1,235.5,251.5,235,251.9"/>
	<path class="st0" d="M210.3,303.8c-0.1-0.4,0.1-0.7,0.5-0.8C210.8,303.4,210.7,303.6,210.3,303.8"/>
	<path class="st0" d="M905.5,358.4c-12.4-0.6-24.9,0-37.8-2.1c2.3-4.3,4.5-7.9,9.6-8c8.1-0.2,11.6-5.3,13.1-12.4
		c3.8-18.2,7.4-36.5,11.1-54.8c-13.7-2-21.7,4.8-25.5,21.7c-2.4,2.2-5.4,3.2-8.4,4.4c-0.5-0.7-1.2-1.3-1.2-1.9
		c1.4-14.9,9.8-23.8,24-27.5c15.5-4.1,31.3-2.5,47.1-2.3c1.8,0,3.7,0.2,5.5,0.4l6.6,1.8c0.7,1.7,2.2,2,3.9,2.2
		c6.6,4.8,8.7,12,10,19.6c0,1.5,0.1,3,0.1,4.4c-1,7.9-0.6,15.9-4.3,23.4c-5.9,12.1-15,20.4-27.4,25.1
		C923.4,355.5,914.6,357.6,905.5,358.4 M887.1,349.1c11.1,3.1,20.6,3.7,30.1,3.2c8-0.4,15.1-3.2,20.3-9.4
		c10.9-13.2,14.7-28.5,12.1-45.2c-1.3-8-6.1-13.9-14.1-16.8c-7-2.5-14.1-2.7-21.9-1.4c-2.7,13.1-5.7,25.9-7.8,38.8
		C903.7,330.8,899.5,341.6,887.1,349.1"/>
	<path class="st0" d="M1196.9,352.1c-5.8,4.5-12.8,5.3-19.7,5.5c-9.4,0.2-15.5-4.6-17.1-13.8c-3.6-21.2,12.9-43.1,31.8-48
		c5.2-1.3,10.3-1.1,13.9,3.8c3,4.1,2.8,13-0.5,17.7c-5.6,7.8-13.2,12.7-22.5,14.7c-3.5,0.8-7.3,0.5-10.3,3.2
		c-0.4,13.6,3.8,17.5,16.5,15.3c1.8-0.3,3.5-1,5.3-1.5C1195.5,349.8,1196.8,350.4,1196.9,352.1 M1173.2,328
		c18.4,0.5,27.6-10.5,21.8-25.6C1182.5,301.2,1173.5,311.7,1173.2,328"/>
	<path class="st0" d="M1264.9,347.4c-0.9-5.1-1.6-10,2.6-14.3c0.9-1,0.4-3.4,0.5-5.1c2-7.2,4-14.4,4.1-21.7
		c-4.1-2.8-7.4-1.1-10.6,0.4c-1.3-0.5-2.4-1.3-2.7-2.7c0.2-3.1,2.9-3.9,5-5.3c5.3-2.7,10.9-5.8,16.4-1.7c5.6,4.2,3.3,10.8,2.5,16.4
		c-1.3,9-3.4,17.9-5.3,26.7c-0.8,3.6-1.3,7.1-0.6,10.4c2.4,2.3,4.3,1.3,6.3,0.2c0.1,1.3,0.3,2.6,0.4,3.9c-3,1.1-6.1,2.2-9.1,3.4
		c-2.5-0.9-5.6-0.2-7.6-2.6C1264.6,353,1265.8,350,1264.9,347.4"/>
	<path class="st0" d="M1115.2,349.6c-3,3.3-4.9,8.3-10.8,7.3c-2.3-3.8-1-7.5-1.1-11c-0.1-9.2-0.7-18.2-2.9-27.2
		c-1.1-4.3-2.7-8.3-5.8-11.6c-2.8-3.1-5.8-4.3-9.7-2.4c-1.5-0.4-3-0.8-4.6-1.2c14.2-13.4,25.2-10.3,30.4,8.6
		c2.6,9.6,2.7,19.4,2.7,29.1C1112.1,344.5,1114,347,1115.2,349.6"/>
	<path class="st0" d="M1062.9,354.9c-4.6,2.3-9.2,4.5-14.7,2.4c-3.1-3.9-3.7-8.3-2.5-13.3c1.8-7.8,3.3-15.7,4.7-23.6
		c0.8-4.3,1.6-8.6,0.7-12.7c-3.3-3.8-7.1-0.1-12.2-1.2c8.6-7.2,18.5-6.4,26.9-11.8c0.9,10.1-3.5,18.1-4.6,26.6
		c-1,8.3-3.2,16.4-4.9,24.6c-0.4,2-0.1,3.6,1.2,5C1058.4,353.6,1062.7,351.5,1062.9,354.9"/>
	<path class="st0" d="M987,302c-1.3,0.1-2.6,0.2-3.8,0.3c-0.8-0.8-1.6-1.7-2.3-2.5c4.6-3,9.5-5.2,15.2-4.4c2.6,0,3.8,1.7,4.3,3.9
		c0.2,5.8,0.4,11.6-1.4,17.3c-0.7,2.2-2,5,1.3,6.6c0.4,0.5,0.9,1,1.3,1.5c-5.9,9.5-8.3,20.2-10.1,30.9c-3.9,1.5-7.4,1.6-11.9,0.4
		c3.5-16.8,8-33.3,9.8-50.2C989.6,303.9,990.2,301.8,987,302"/>
	<path class="st0" d="M1244.6,328.7c-6,7.9-5.6,17.9-8.5,27c-3.3,1.6-6.9,1.4-11.5,0.6c1.9-8.8,4-17.5,5.5-26.2
		c1.5-8.9,4.7-17.5,4.3-26.2c-2-2.8-4.1-2.4-6.2-1.6c-1.4-0.3-2.7-0.7-4.1-1c2.7-2.6,6-4.3,9.5-5.4c4-1.2,8-1.4,11.6,3.3
		c0.9,5.8,0.9,12.3-1.9,18.5c-0.7,2.2-1.4,4.5-2.1,6.5C1242.5,326,1243.6,327.4,1244.6,328.7"/>
	<path class="st0" d="M1130.2,325.7c1-1.9,2.1-3.8,3.1-5.8c3.6-7.2,7.2-14.4,1.3-23.4c6-0.1,11-4,14.2,2.9c0.1,0.7,0.2,1.4,0.3,2.1
		c0.1,7.3-3.7,13-8.1,18.3c-2.5,3-5.3,5.8-8,8.7C1131.5,328.1,1130.7,327.1,1130.2,325.7"/>
	<path class="st0" d="M1020.8,297.3c4.8-1.7,9.5-3.3,15-0.2c-1.1,4-3.8,6.3-6.7,9.3c-8.2-3.1-13.7,1.6-18.6,7.5c-3,3.6-6,7.3-9,11
		c-0.5-0.5-0.9-1-1.3-1.5c0.8-5.8,6.1-9.3,7.7-14.7c3.4-3.1,6.9-6.2,10.3-9.4C1019.6,299.3,1020.3,298.6,1020.8,297.3"/>
	<path class="st0" d="M1244.6,328.7c-1-1.4-2.1-2.7-3.3-4.4c0.6-2,1.3-4.3,2.1-6.5c2.7,0.7,3.7-1.1,5.1-2.9c3-4,5.6-8.4,10.3-10.9
		c0.3,1.5,1.4,2.3,2.7,2.7C1255.8,314.1,1250.2,321.4,1244.6,328.7"/>
	<path class="st0" d="M1130.2,325.7c0.5,1.4,1.3,2.4,2.8,2.8c-5,7.8-10.4,15.3-17.8,21.1c-1.2-2.6-3.1-5.1-1.8-8.3
		c3,1.4,4.5-0.8,6.1-2.6C1123.1,334.4,1125.7,329.3,1130.2,325.7"/>
	<path class="st0" d="M1073.2,270.6c-1.1,9.5-9.6,10.7-17.3,15.1c3.3-9.4,9.3-13.5,17.5-14.8L1073.2,270.6z"/>
	<path class="st0" d="M1062.9,354.9c-0.2-3.5-4.5-1.3-5.4-3.8c7.5,0.1,11.1-7.1,18.7-11.3C1074.1,349.1,1068.9,352.4,1062.9,354.9"
		/>
	<path class="st0" d="M1196.9,352.1c-0.1-1.7-1.5-2.3-2.6-3.1c4-2.5,7.9-5,12-7.6C1207.5,347.6,1207.5,347.6,1196.9,352.1"/>
	<path class="st0" d="M1224.1,301.4c1.4,0.3,2.7,0.7,4.1,1c-3.9,3.4-7,8-13.4,10.5C1215.9,306.3,1219,303,1224.1,301.4"/>
	<path class="st0" d="M974,303.8c2.7-0.6,3.7-4,6.7-4c0.8,0.8,1.6,1.7,2.3,2.5c-3.9,3.6-7.4,7.8-12.1,10.3c-1.9-1.4-1.4-2.9-1.5-4.3
		C971.6,307.4,973.1,305.9,974,303.8L974,303.8z"/>
	<path class="st0" d="M1080.3,303.6c1.5,0.4,3,0.8,4.6,1.2c-2.4,4-5.5,7.4-9.4,10l0.2,0.2C1074.7,310.1,1075.2,305.9,1080.3,303.6"
		/>
	<path class="st0" d="M987,302c3.2-0.1,2.6,2,2.3,3.9C987.9,305,987.3,303.6,987,302"/>
	<path class="st0" d="M1075.5,314.7c-0.3,0.4-0.7,0.8-0.7,0.8c0,0,0.4-0.3,0.8-0.7L1075.5,314.7"/>
	<path class="st0" d="M1073.5,270.9c0.3-0.4,0.6-0.9,0.8-1.1c-0.3,0.2-0.6,0.5-1,0.9L1073.5,270.9"/>
	<path class="st0" d="M517.3,297.3c3.3-3,6.7-0.9,11.4-0.9c-2.7,18.8-9,36.5-9.7,55.2c2,0.1,3.1,0.1,4.2,0.2
		c1.2,0.7,2.6,1.1,2.7,2.9c-1.9,1-3.8,2.3-5.9,2.9c-9.4,2.5-13.4-1.3-12.2-11.3c0.4-3.5,0.8-7.1,1.2-11.5c-3.9,0.6-4.4,3.4-5.5,5.2
		c-3.7,6-8.3,11.2-14,15.2c-4.2,3-9.4,5-14.3,1.7c-4.4-3-4.7-8.1-3.8-12.9c1.6-9,3.6-17.9,5.2-26.8c0.7-3.9,1.1-7.9,1.4-11.9
		c0.2-2.1-1.1-3.3-3.3-3.5c-1.5-0.7-4,0.7-4.4-2.2c5.1-2.9,10.5-6.6,16.2-2.5c5.5,4,3.1,9.7,1.9,15.2c-1.9,8.9-3.5,18-5,27
		c-0.5,2.8-1.4,5.8,0.6,9.3c8.3,1,11-6,14.9-11.1c1.4-0.3,2-1.2,2.1-2.6l0-0.1c2.5-1.5,3.7-3.9,4.5-6.5c5.9-6.7,9.5-14.3,9.4-23.4
		C517.5,302.7,516.7,299.8,517.3,297.3"/>
	<path class="st0" d="M424.6,360.3c-6.1-3.2-12.9-0.7-19.2-2.2c-0.9-1-2-1.3-3.3-1c-2-0.9-4-1.9-6.6-3.1c1.5-3.1,3.8-5.2,6.3-7.4
		c0.9,0.3,2,0.4,2.8,1c6.5,4.9,13.8,6.7,21.7,5.9c6-0.6,10.6-3.5,12.7-9.1c2.1-5.5,1-11-3.3-15.2c-5.8-5.7-11.6-11.2-17.6-16.6
		c-4.5-4.1-7.8-8.7-7.7-15.1c0.7-3.8,1.8-7.5,1.3-11.4l0.1-0.1c1.2-0.5,2.4-1.1,3.6-1.6c1.4-0.1,1.8-1.1,2-2.3l0.1-0.1
		c1.4,0,2.1-0.7,2.2-2.1c0.7-0.6,1.5-1.3,2.2-1.9c1.9-0.1,3.4-0.8,4.4-2.5c10.9-3.5,21.5-3.2,32.5,3.2c-2.8,4.2-0.6,10-6.3,14.2
		c-1.7-4.3-1-9.1-5.1-11.8c-3-2-6.2-2.2-9.3-2.8c-6.1-1.1-12.9,2.4-15.8,7.5c-3.2,5.7-2.4,11.7,2.9,17c5.2,5.2,10.7,10,16.4,14.6
		c13.5,11,10,28.1-3.6,35.4c-2.9,1.6-5.8,3.1-8.8,4.5c-1.7,0.9-1.3,2.4-1.3,3.8l-0.4,0.3C426.6,360.7,425.6,360.5,424.6,360.3"/>
	<path class="st0" d="M702.5,352.3c-5,3.1-10.5,4.8-16.4,5.7c-12.4,1.8-19.2-7.4-20.4-16.5c-2.2-17.2,13.4-40.9,29.9-45.6
		c10.4-2.9,19.8,2.8,18.7,11.8c-0.9,6.9-3.5,13.4-10.1,17.4c-7.8,4.8-16,8.1-25.3,8c-3.2,8.1,0.3,13.1,6.7,17.6
		c5.4,1.2,11,0,16.5-2.5C702.2,349.6,702.4,351,702.5,352.3 M701,302.2c-12.4-0.8-20.6,8.7-22.3,25.7
		C697.7,328.6,707.6,317.3,701,302.2"/>
	<path class="st0" d="M644.9,350c-6.9,4.4-14,7.9-22.4,8.1c-8.5,0.2-14.4-4.2-17.2-12.2c-3.4-9.4-0.8-18.5,3.3-26.4
		c3.7-7.3,8.9-14.1,16.6-18.6c9.4-5.5,18.9-7.6,29.9-2.6c-0.4,4.6-1.4,9.3-2.9,13.2c-1.7,0.7-2.6,0.5-2.6-0.4
		c-0.2-4.2-1-8.2-5.6-9.7c-4.7-1.6-9.4-1-13.7,1.7c-6.9,4.5-9.4,11.9-11.8,19.1c-2,6-1.9,12.4-1.2,18.6c0.8,7.6,5.2,10.8,12.9,10.1
		c5.2-0.5,10-2.3,14.5-4.8C644.8,347.4,644.8,348.7,644.9,350"/>
	<path class="st0" d="M765.8,296.4c5.1,4.6-0.8,8.6-0.6,13.4c-4.1-5.3-7.5-10.8-15.4-9.1c-4.8,1.1-6.5,4.2-7.4,8.5
		c1.9,8.1,9.3,12.6,13.8,19.2c3.9,5.9,6.1,11.4,3,18.1c-13.2,12.4-23.1,14.5-38.4,7.8c1.1-2.6,2.2-5.3,5.9-6.3
		c3.3-0.1,6.2,2.5,9.7,3.4c3.7,1,7.1,1.1,10.5-0.7c4.9-2.6,6.2-6.1,3.1-10.6c-2.2-3.2-3.9-6.8-7-9.6c-2.7-2.4-4.8-5.5-6.7-8.5
		c-4.4-7.1-3.5-13.9,2.8-19.6c3.5-3.1,7.3-6,12-7.1c2.2-0.2,4.4-0.5,6.6-0.7L765.8,296.4z"/>
	<path class="st0" d="M583.2,350.1c-6,4.1-12.9,6.2-19.8,7.9c-1.6-0.9-3.2-0.9-4.7,0.3c-13.2-4.6-16-8.7-15.4-22.8
		c0.7-17.3,12.7-33.3,29.2-38.8c7.2-2.4,14.2-2,20.9,1.1c1.6,5.8-2.7,9.4-1.8,13.7c-3.4,0.7-3.5-0.7-4-2.2
		c-2.1-7.7-6.2-10.3-13.5-8.3c-7.3,2-11.9,7.2-14.6,13.9c-3.2,7.9-4.5,16.3-3.7,24.8c0.9,9.6,6.3,13.1,16.1,10.9
		c4-0.9,7.8-2.1,11.1-4.4C583,347.5,583.1,348.8,583.2,350.1"/>
	<path class="st0" d="M525.8,354.6c-0.1-1.7-1.5-2.2-2.7-2.9c3.8-4.8,9.4-7,15.9-12.2C536.7,348.8,532.1,352.4,525.8,354.6"/>
	<path class="st0" d="M470.5,299.4c0.4,2.9,2.9,1.5,4.4,2.2c-5.2,3.3-9.9,7.1-13.9,12.2C459.2,306.1,459.7,305.4,470.5,299.4"/>
	<path class="st0" d="M702.5,352.3c-0.1-1.4-0.2-2.7-0.3-4.1c3.5-3.1,7.1-6.2,13.4-7.1C713,348.9,707.9,350.8,702.5,352.3"/>
	<path class="st0" d="M583.2,350.1c-0.1-1.3-0.2-2.6-0.3-3.9c1.8-3,4.6-4,8.6-4.5C590.9,347.4,587.6,349.3,583.2,350.1"/>
	<path class="st0" d="M644.9,350c-0.1-1.3-0.1-2.6-0.2-3.9c1.7-2.8,4.4-4,8.2-4.3C652.8,347.7,648.4,348.4,644.9,350"/>
	<path class="st0" d="M517.3,297.3c-0.5,2.5,0.3,5.4-2,7.4C515.2,302,512.7,298.7,517.3,297.3"/>
	<path class="st0" d="M501.3,334.7c-0.1,1.4-0.8,2.3-2.1,2.6C499.2,335.9,499.9,334.9,501.3,334.7"/>
	<path class="st0" d="M417.3,281.7c-0.2,1.2-0.6,2.2-2,2.3C415.3,282.6,415.9,281.8,417.3,281.7"/>
	<path class="st0" d="M419.7,279.5c-0.1,1.4-0.9,2.1-2.2,2.1C417.6,280.3,418.3,279.6,419.7,279.5"/>
	<path class="st0" d="M1283.4,354.6c-0.1-1.3-0.3-2.6-0.4-3.9c3.7-3.3,7.4-6.5,11.8-10.3C1294.2,347.9,1293.2,349,1283.4,354.6"/>
	<path class="st0" d="M814.5,311.9c-1.6-7.2-4.3-11.2-10.2-11.3c-5.1-0.1-9.5,0.9-11.6,7.5c2.5,12.3,18.2,17.7,18.6,32.6
		c-5.9,15.8-22.9,22.2-40.2,13.9c1.9-2.6,3.8-5.1,5.8-7.9c8.5,5.3,17.3,10.5,25.3-0.5c0-5.3-2.6-8.8-5.7-12.1
		c-2.3-2.4-4.8-4.6-6.9-7.1c-9.5-11.4-6.8-22.6,7-29.2c6.9-3.3,14.1-3.5,21.6,0C818.9,302.1,817.4,305.9,814.5,311.9"/>
	<path class="st0" d="M915.4,254c-1.4,0.5-1.2-1.1-2.1-1.5c-8.9-3.3-12.8-10.3-13.6-19.3c0-0.5,0-1-0.1-1.5
		c0.1-14.3,0.2-28.6,0.3-42.8c0-0.2,0.3-0.4,0.8-1c5.3-0.2,10.9-0.5,16.5-0.7h12.4c2.7,1.8,1.9,3.8,1.9,5.5c0.1,8.8,0,17.6,0.1,26.5
		c0,3.9-0.1,7.8,2.5,11.1c-0.2,0.1-0.4,0.2-0.5,0.3c0.1,0.2,0.2,0.4,0.3,0.5c0.2,0,0.4-0.1,0.5-0.2c3.5,1.8,6.6,1.8,8.8-2
		c1.3-2.1,0.8-4.3,0.4-6.5v-34.7h34.2v65.6h-32.1c-0.2-3-0.3-6-0.5-9.1c0-0.2-0.2-0.4-0.4-0.5c-0.6-0.2-0.9,0.1-1.1,0.7
		c-1.5,0.5-2.5,1.4-2.9,3c-4.7,5-10.9,6.5-17.4,7c-1.1-0.5-2.3-0.6-3.4-0.1C918.5,254.2,917,254.1,915.4,254"/>
	<path class="st0" d="M1150.4,186.2c1.1,0.2,2.1,0.3,3.2,0.5c0.5,0,0.9,0.1,1.4,0.3c1.1,0.6,2.2,1.3,3.3,1.9
		c14.9,7.5,20.9,17.9,20,35.5c-5.3,1.3-10.7,0.3-16.1,0.5c-5.4,0.2-10.8,0-16.4,0c2.7,12,19.4,14,31.7,4.1c1.6,1.7,1,3.8,1.1,5.7
		c0.1,1.8,0,3.6,0,5.6c-7.1,9.5-17.2,12.9-28.2,14.6c-4.6-0.7-9.3-0.4-13.9-1.3c-21.2-4.1-30.2-21.1-27.9-39.3
		c2.1-16.9,14.5-27.7,31.7-28.3C1143.7,186.1,1147,186.2,1150.4,186.2 M1157.9,212.8c-2.2-8.1-4.2-10.1-8.8-9.7
		c-4.3,0.4-6,3-6.3,9.7H1157.9z"/>
	<path class="st0" d="M1025.7,199.5c2.5-3.7,4.6-6.7,7.4-8.9c6.9-5.5,17.4-4.9,22.6,1.3c5.7,6.8,5.3,17.5-1.1,23.4
		c-4.9,4.5-10.7,5-16.7,2.9c-2.9-1-5.5-2.7-8.8-4.3c-7.3,12.6-2.2,26.2-4.5,39.5h-33.3v-65.1c5.3-1.9,11-0.6,16.6-0.8
		c5.4-0.2,10.9-0.1,16.5-0.1C1025.9,190.8,1024.6,194.6,1025.7,199.5"/>
	<path class="st0" d="M1092.4,188c1.6,1.4,3.5-0.3,5.5,0.8v64.5h-33.3v-64.7c2.3-0.8,4.3,0.7,6.4,1.2c6.7,1.8,13.3,1.7,20,0
		c1.1-0.3,1.9-0.7,1.7-2.1L1092.4,188z"/>
	<path class="st0" d="M798.2,216c0.5,1.1,1,2.2,1.5,3.3c0,1.3,0.2,2.5,1.5,3.2c2.7,8.3,8.4,15.3,10.8,24c-7.6,5.2-16.4,6.3-24.8,8.4
		c-7.5,0.1-15,0.3-22.5-1.3c-20-4.4-32.5-23.1-32.5-39c0-22.7,10.3-37.6,31.8-44.4c1.5-0.5,3-0.9,4.5-1.4c1.7,0.5,3.2-0.3,4.8-0.6
		c2,0.3,3.9-0.3,5.6-1.2c7.6,2.5,15.8,2.5,23.4,5.3c3.4,1.3,6.7,2.5,10,4.8c-2.7,5.7-5.3,11.2-8,16.7c-1,0.2-1.4,0.9-1.2,1.9
		c-1.9,2.8-3.3,5.8-4.4,9c-1.1,0.9-2.1,2-3.6,2.1c-3.9-2.3-8.2-2.1-12.5-1.6c-4.8-0.6-9.4-0.8-12.3,4.3c0.1,4.9,3.1,6.7,7.4,7.2
		c3.2,1.5,6.4,1,9.6,0.3C791,217.7,794.3,214.3,798.2,216"/>
	<path class="st0" d="M638.9,186.6c4.3-5.2,7.9-10.9,11.7-16.8h38c-5.8,8.5-11.2,16.4-16.6,24.3c-4.2,6.2-8.3,12.5-12.6,18.7
		c-2,2.9-2.8,5.9-2.7,9.5c0.2,10.1,0.1,20.2,0.1,30.9h-37.3c0-8.5-0.4-17.1,0.1-25.6c0.4-7.2-1.8-13.1-5.8-18.8
		c-7.9-11.2-15.5-22.7-23.2-34.1c-0.8-1.2-2.2-2.3-1.8-4.6h36.5c3.1,4.3,6.4,8.9,9.6,13.5c0.5,0.7,1,1.3,1.5,2
		c0.2,0.3,0.4,0.5,0.5,0.9c0.2,0.4,0.3,1,0.6,1.1C638.2,187.8,638.6,187.2,638.9,186.6"/>
	<path class="st0" d="M539.9,253.9c-1.2-0.3-2.5-0.5-3.9-0.8v-84h16.5h20.1c0.6,7.4,0.3,14.4,0.3,21.3c0.1,6.8,0,13.5,0,20.3
		c0,7,0,13.9,0,21.4h32.4c0.1,7.4,0.1,14.3,0.2,21.2c-1,0.2-2,0.4-3,0.6C581.6,253.4,560.8,253.5,539.9,253.9"/>
	<path class="st0" d="M496.1,192.5c0,3.7,0,7.4,0,11c0,4.2,2.5,2.8,4.8,2.2c5.9,0.3,11.8,0.5,18.2,0.8v20
		c-7.2,1.3-14.7-0.1-22.6,0.8c-1.4,8.4-0.1,16.9-0.8,25.8h-36.7v-83.4h68.1v20.9c-9.9,0.2-19.7,0.3-29.5,0.5
		C496.5,191,495.9,191.3,496.1,192.5"/>
	<path class="st0" d="M1250.9,217c-7.9,2.6-10.9,4.2-23-3c-3.5,2.4-4.2,6.2-4.3,10.1c-0.3,7.3-0.3,14.6-0.4,21.8c0,2.3,0,4.6,0,7.3
		h-33.7v-65.5h32.9c1.9,3.4-0.3,6.8,1.8,9.5c13.5-12.3,17.9-13.2,29.5-6C1259.7,201.4,1259,208.2,1250.9,217"/>
	<path class="st0" d="M842.8,187.1c4.9-1.1,9.8-1.1,14.7-0.9c22.6,0.8,37.1,20.5,32.1,42.6c-2.2,9.9-8,17.4-16.1,21.8
		c-7.6,4.2-16.7,5.3-25.7,3.7c-13.6-2.4-23.3-9.7-28.3-22.7c0.3-0.8,0.1-1.5-0.6-2c-0.2-3.1-0.4-6.2-0.5-9.3
		c-0.3-13.5,5.7-23.4,17.3-30.1c1.6-0.9,3.2-1.6,4.9-2.5C841.3,187.6,842,187.4,842.8,187.1 M854.1,227.1c4.7,0.1,7.8-3,7.7-7.8
		c-0.1-4-3.6-7.4-7.6-7.3c-4.1,0.1-7.2,3.4-7.3,7.6C846.8,224.1,849.7,227,854.1,227.1"/>
	<path class="st0" d="M1099.1,177.2c0,4.9-4,8.9-8.9,8.9s-8.9-4-8.9-8.9c0-4.9,4-8.9,8.9-8.9S1099.1,172.3,1099.1,177.2"/>
	<rect x="395.4" y="388.4" class="st1" width="899.3" height="20.2"/>
	<rect x="514.5" y="424.3" class="st1" width="697" height="20.2"/>
</g>
</svg>
