<?xml version="1.0" encoding="utf-8"?>
<!-- Generator: Adobe Illustrator 27.3.1, SVG Export Plug-In . SVG Version: 6.00 Build 0)  -->
<svg version="1.1" id="Layer_1" xmlns="http://www.w3.org/2000/svg" xmlns:xlink="http://www.w3.org/1999/xlink" x="0px" y="0px"
	 viewBox="0 0 49.33 24.18" style="enable-background:new 0 0 49.33 24.18;" xml:space="preserve">
<style type="text/css">
	.st0{fill:#00FFF3;}
	.st1{fill:#FFF303;}
</style>
<g>
	<path d="M34.46,21.44c0,1.13-0.86,1.75-1.85,1.75h-1.4v-3.5h1.4C33.59,19.69,34.46,20.31,34.46,21.44z M32.61,22.79
		c0.73,0,1.35-0.46,1.35-1.35c0-0.89-0.62-1.35-1.35-1.35h-0.92v2.7H32.61z"/>
	<path d="M36.08,22.85c0.44,0,0.77-0.2,0.77-0.48h0.46c-0.03,0.39-0.46,0.87-1.25,0.87c-0.7,0-1.27-0.48-1.27-1.3
		c0-0.82,0.57-1.3,1.27-1.3c0.8,0,1.27,0.55,1.28,1.29v0.17h-2.06C35.34,22.63,35.7,22.85,36.08,22.85z M36.08,21.02
		c-0.36,0-0.71,0.21-0.79,0.69h1.55C36.77,21.18,36.47,21.02,36.08,21.02z"/>
	<path d="M38.59,23.18h-0.3c-0.46-0.01-0.59-0.19-0.59-0.66v-2.83h0.47v2.67c0,0.31,0.04,0.44,0.36,0.44h0.06V23.18z"/>
	<path d="M38.96,19.56c0.17,0,0.3,0.14,0.3,0.3c0,0.18-0.13,0.32-0.3,0.32c-0.18,0-0.32-0.14-0.32-0.32
		C38.65,19.7,38.78,19.56,38.96,19.56z M39.19,20.69v2.5h-0.47v-2.5H39.19z"/>
	<path d="M39.92,20.69l0.86,1.96l0.85-1.96h0.51L41,23.18h-0.44l-1.15-2.5H39.92z"/>
	<path d="M43.48,22.85c0.44,0,0.77-0.2,0.77-0.48h0.46c-0.03,0.39-0.46,0.87-1.25,0.87c-0.7,0-1.27-0.48-1.27-1.3
		c0-0.82,0.57-1.3,1.27-1.3c0.8,0,1.27,0.55,1.28,1.29v0.17h-2.06C42.74,22.63,43.1,22.85,43.48,22.85z M43.48,21.02
		c-0.36,0-0.71,0.21-0.79,0.69h1.55C44.18,21.18,43.87,21.02,43.48,21.02z"/>
	<path d="M45.57,20.69v0.45c0.18-0.31,0.5-0.5,0.83-0.5h0.24v0.39h-0.39c-0.4,0-0.68,0.29-0.68,0.77v1.39H45.1v-2.5H45.57z"/>
	<path d="M48.25,23.23c-0.29,0.68-0.4,0.95-1.43,0.95v-0.39c0.76,0,0.79-0.2,0.95-0.58l0.02-0.05l-1.08-2.48h0.53l0.79,1.96
		l0.77-1.96h0.51L48.25,23.23z"/>
</g>
<path class="st0" d="M27.87,0c1.26,0,2.28,1.02,2.28,2.28c0,1.35-1.02,2.37-2.28,2.37c-1.33,0-2.37-1.02-2.37-2.37
	C25.5,1.02,26.55,0,27.87,0z M29.94,5.32v10.87H25.7V5.32H29.94z"/>
<path d="M36.87,16.19h-2.63c-2.13,0-3.02-1.04-3.02-3.11V0.98h4.24v10.41c0,1.04,0.3,1.37,1.26,1.37h0.15V16.19z"/>
<path class="st1" d="M43.44,13.23c1.07,0,1.59-0.26,1.59-0.96h4.28c-0.39,2.22-2.11,4.13-6.08,4.13c-3.43,0-5.87-2.11-5.87-5.65
	c0-3.56,2.43-5.67,5.87-5.67c4.15,0,6.08,2.17,6.11,5.58v0.96h-7.61C41.92,12.95,42.57,13.23,43.44,13.23z M43.44,8.26
	c-0.85,0-1.52,0.41-1.72,1.63h3.3C44.87,8.67,44.33,8.26,43.44,8.26z"/>
<path d="M10.21,0.98H5.96v15.2h4.25V8.7l3.28,7.48l1.58-4.66L10.21,0.98z"/>
<polygon class="st1" points="24.17,0.98 24.17,16.18 19.91,16.18 19.91,8.7 16.63,16.18 13.49,16.18 15.07,11.52 19.91,0.98 "/>
<g>
	<path d="M2.37,0c1.26,0,2.28,1.02,2.28,2.28c0,1.35-1.02,2.37-2.28,2.37C1.04,4.65,0,3.63,0,2.28C0,1.02,1.04,0,2.37,0z"/>
	<path class="st1" d="M4.43,7.44v6.63c0,1.17-0.95,2.12-2.12,2.12h0c-1.17,0-2.12-0.95-2.12-2.12V7.44c0-1.17,0.95-2.12,2.12-2.12h0
		C3.48,5.32,4.43,6.27,4.43,7.44z"/>
	<path class="st0" d="M4.43,10.58v3.49c0,1.17-0.95,2.12-2.12,2.12h0c-1.17,0-2.12-0.95-2.12-2.12v-3.31c0-1.17,0.36-0.87,1.53-0.87
		l0.59-0.15C3.48,9.74,4.43,9.41,4.43,10.58z"/>
	<circle cx="2.31" cy="10.76" r="2.12"/>
</g>
</svg>
