<?xml version="1.0" encoding="utf-8"?>
<!-- Generator: Adobe Illustrator 23.0.1, SVG Export Plug-In . SVG Version: 6.00 Build 0)  -->
<svg version="1.1" id="Layer_1" xmlns="http://www.w3.org/2000/svg" xmlns:xlink="http://www.w3.org/1999/xlink" x="0px" y="0px"
	 viewBox="0 0 700.36 293.46" style="enable-background:new 0 0 700.36 293.46;" xml:space="preserve">
<style type="text/css">
	.st0{fill:#59595C;}
	.st1{fill:#F26726;}
	.st2{fill:#5A5A5D;}
	.st3{fill:#5C5A5D;}
</style>
<path class="st0" d="M352.07,293.17c-0.06,0.06-0.12,0.17-0.18,0.17c-28.7,0.02-57.39,0.02-86.09,0.02c-0.14,0-0.28-0.09-0.51-0.16
	v-1.49c-0.2-0.2-0.31-0.31-0.46-0.46v-1.86c-0.16-0.19-0.32-0.37-0.49-0.58v-1.38c-0.17-0.18-0.33-0.36-0.49-0.54v-1.44
	c-0.11-0.1-0.23-0.2-0.33-0.29c-0.29-0.54-0.07-1.1-0.17-1.64c-0.11-0.11-0.23-0.23-0.34-0.34c-0.23-0.45-0.08-0.93-0.13-1.48
	c-0.09-0.12-0.22-0.3-0.41-0.55c-0.26-0.64,0.25-1.51-0.32-2.17c-0.55-0.63,0.21-1.63-0.68-2.13v-1.42
	c-0.17-0.18-0.33-0.35-0.49-0.54v-1.43c-0.11-0.11-0.23-0.21-0.42-0.4v-1.93c-0.2-0.2-0.31-0.31-0.42-0.42
	c-0.37-0.54,0.22-1.28-0.34-1.77c-0.59-0.52,0.08-1.33-0.36-1.76c-0.58-0.56-0.29-1.18-0.38-1.82c-0.13-0.15-0.28-0.32-0.46-0.53
	v-1.39c-0.17-0.18-0.33-0.35-0.49-0.53v-1.9c-0.17-0.18-0.33-0.35-0.5-0.53v-1.41c-0.13-0.13-0.24-0.24-0.35-0.35
	c-0.37-0.6,0.17-1.35-0.47-1.98c-0.46-0.44,0.24-1.42-0.6-1.95v-1.14v-0.79c-0.23-0.23-0.34-0.34-0.47-0.47v-1.42
	c-0.17-0.18-0.33-0.35-0.49-0.53v-1.42c-0.17-0.18-0.33-0.35-0.49-0.54v-1.42c-0.9-0.5-0.14-1.5-0.69-2.13
	c-0.57-0.65-0.06-1.52-0.35-2.25c-0.11-0.11-0.23-0.23-0.36-0.36v-1.39c-0.17-0.19-0.32-0.36-0.49-0.55V239
	c-0.17-0.18-0.33-0.36-0.49-0.53v-1.42c-0.12-0.12-0.23-0.23-0.43-0.43v-1.92c-0.2-0.2-0.31-0.31-0.53-0.52
	c0-0.28-0.05-0.68,0.01-1.05c0.08-0.48-0.45-0.62-0.48-1c-0.04-0.4-0.01-0.8-0.01-1.24c-0.13-0.15-0.28-0.33-0.46-0.54v-1.37
	c-0.17-0.18-0.32-0.36-0.49-0.55v-1.88c-0.17-0.18-0.33-0.35-0.49-0.54v-1.4c-0.17-0.19-0.33-0.36-0.47-0.52v-1.31
	c-0.09-0.13-0.23-0.31-0.48-0.65c0-0.21-0.05-0.61,0.01-0.98c0.08-0.48-0.46-0.62-0.49-1c-0.03-0.4-0.01-0.8-0.01-1.24
	c-0.13-0.15-0.28-0.33-0.46-0.54v-1.86c-0.17-0.18-0.32-0.36-0.49-0.54v-1.44c-0.11-0.1-0.23-0.2-0.3-0.26
	c-0.37-0.57-0.05-1.14-0.27-1.73c-0.05-0.06-0.17-0.17-0.29-0.29c-0.28-0.44,0.03-0.93-0.08-1.41c-0.14-0.18-0.27-0.36-0.47-0.62
	c-0.04-0.6-0.09-1.3-0.13-2c-0.67-0.46-0.32-1.16-0.41-1.8c-0.13-0.15-0.28-0.32-0.46-0.53v-1.38c-0.17-0.18-0.33-0.35-0.5-0.54
	v-1.43c-0.11-0.1-0.23-0.21-0.32-0.29c-0.34-0.54-0.03-1.12-0.24-1.69c-0.07-0.07-0.18-0.18-0.38-0.38v-1.92
	c-0.2-0.2-0.31-0.31-0.51-0.51c0-0.3-0.05-0.69,0.01-1.07c0.08-0.48-0.47-0.61-0.49-1c-0.02-0.4,0-0.8,0-1.23
	c-0.14-0.16-0.29-0.33-0.47-0.53v-1.39c-0.17-0.18-0.33-0.35-0.49-0.53c0-0.63,0-1.27,0-1.91c-0.11-0.11-0.23-0.23-0.42-0.42v-1.44
	c-0.2-0.2-0.31-0.31-0.42-0.42c-0.36-0.54,0.22-1.28-0.34-1.77c-0.59-0.51-0.02-1.23-0.34-1.78c-0.11-0.11-0.23-0.23-0.42-0.42
	v-1.92c-0.2-0.2-0.31-0.31-0.44-0.44v-1.41c-0.17-0.18-0.33-0.35-0.5-0.53v-1.42c-0.17-0.18-0.33-0.35-0.49-0.54v-1.42
	c-0.9-0.5-0.14-1.5-0.69-2.13c-0.57-0.65-0.06-1.52-0.35-2.25c-0.11-0.11-0.23-0.23-0.36-0.36V170c-0.17-0.19-0.32-0.36-0.49-0.56
	v-1.4c-0.17-0.18-0.33-0.35-0.49-0.53v-1.43c-0.12-0.12-0.23-0.23-0.34-0.34c-0.4-0.54,0.17-1.26-0.34-1.78
	c-0.33,0.73-0.96,1.36-0.75,2.26c0.08,0.38-0.22,0.56-0.46,0.8v1.88c-0.17,0.18-0.32,0.36-0.49,0.55v1.88
	c-0.17,0.18-0.33,0.36-0.49,0.54v1.9c-0.12,0.12-0.23,0.23-0.43,0.43v1.92c-0.2,0.2-0.31,0.31-0.51,0.51v1.92
	c-0.2,0.2-0.31,0.31-0.46,0.46v1.85c-0.16,0.19-0.31,0.37-0.5,0.58v1.86c-0.17,0.18-0.32,0.36-0.49,0.54v1.41
	c-0.11,0.12-0.22,0.23-0.43,0.45c-0.19,0.57,0.06,1.29-0.1,2.01c-0.08,0.08-0.2,0.2-0.39,0.4v1.92c-0.2,0.2-0.31,0.31-0.51,0.51
	v1.92c-0.2,0.2-0.31,0.31-0.51,0.51v1.92c-0.2,0.2-0.31,0.31-0.39,0.4c-0.28,0.82,0.35,1.8-0.54,2.46v1.93
	c-0.11,0.1-0.23,0.21-0.42,0.39v1.94c-0.2,0.2-0.31,0.31-0.48,0.48v1.33c-0.16,0.21-0.29,0.39-0.53,0.71v1.85
	c-0.2,0.2-0.31,0.31-0.51,0.51v1.92c-0.2,0.2-0.31,0.31-0.44,0.44v1.89c-0.17,0.18-0.33,0.35-0.49,0.53v1.91
	c-0.11,0.11-0.23,0.22-0.42,0.41v1.92c-0.2,0.2-0.31,0.31-0.51,0.51v1.96c-1.04,0.56,0.06,1.83-1.02,2.32v2.01
	c-0.2,0.2-0.31,0.31-0.44,0.44v1.89c-0.17,0.18-0.33,0.35-0.49,0.53v1.91c-0.11,0.12-0.23,0.23-0.43,0.43v1.92
	c-0.2,0.2-0.31,0.31-0.51,0.51v1.92c-0.2,0.2-0.31,0.31-0.51,0.51v1.92c-0.2,0.2-0.31,0.31-0.45,0.45v1.87
	c-0.17,0.19-0.32,0.36-0.49,0.56v1.39c-0.12,0.13-0.22,0.24-0.33,0.36c-0.05,0.13-0.15,0.27-0.15,0.41
	c-0.02,0.56-0.01,1.12-0.01,1.67c-0.12,0.12-0.23,0.23-0.43,0.43v1.92c-0.2,0.2-0.31,0.31-0.51,0.51v1.92
	c-0.2,0.2-0.31,0.31-0.51,0.51v1.92c-0.2,0.2-0.31,0.31-0.45,0.45v1.88c-0.17,0.19-0.32,0.36-0.49,0.55v1.88
	c-0.17,0.18-0.33,0.35-0.49,0.54v1.9c-0.12,0.12-0.23,0.23-0.35,0.35c-0.3,0.43,0.04,0.93-0.08,1.41c-0.13,0.18-0.27,0.36-0.52,0.71
	v1.7c-0.77,0.75-0.38,1.76-0.49,2.54c-0.21,0.21-0.32,0.32-0.45,0.45v1.88c-0.17,0.18-0.32,0.36-0.49,0.54v1.89
	c-0.12,0.12-0.22,0.24-0.47,0.49c-0.09,0.54,0.03,1.25-0.04,1.95c-0.11,0.11-0.23,0.23-0.42,0.42V272c-0.2,0.2-0.31,0.31-0.46,0.46
	c-0.04,0.66-0.09,1.35-0.13,2.05c-0.67,0.46-0.32,1.15-0.41,1.8c-0.12,0.14-0.27,0.32-0.45,0.53v1.86
	c-0.17,0.18-0.33,0.36-0.49,0.54v1.92c-0.11,0.1-0.23,0.21-0.45,0.41c-0.12,0.6,0.03,1.31-0.06,2.01c-0.11,0.11-0.23,0.23-0.42,0.42
	v1.92c-0.2,0.2-0.31,0.31-0.51,0.51v1.92c-0.2,0.2-0.31,0.31-0.51,0.51v1.92c-0.2,0.2-0.31,0.31-0.46,0.46c0,0.6,0,1.24-0.01,1.87
	c0,0.06-0.09,0.12-0.17,0.23h-59.12c-0.18-0.18-0.35-0.35-0.61-0.61v-1.44c-0.2-0.2-0.31-0.31-0.54-0.54c0-0.35,0.1-0.84-0.02-1.27
	c-0.14-0.49-0.62-0.89-0.45-1.49c0.15-0.54-0.38-0.81-0.47-1.24c-0.09-0.45,0.19-1.01-0.48-1.17v-1.51
	c-0.17-0.18-0.33-0.35-0.49-0.53v-1.42c-0.17-0.18-0.33-0.35-0.49-0.53v-1.41c-0.13-0.13-0.24-0.24-0.41-0.41
	c-0.03-0.48,0.1-1.14-0.16-1.52c-0.3-0.44-0.19-0.96-0.41-1.27c-0.46-0.64-0.47-1.29-0.42-1.99c-0.16-0.19-0.32-0.36-0.49-0.56v-1.4
	c-0.17-0.18-0.33-0.35-0.49-0.53v-1.42c-0.17-0.18-0.33-0.35-0.49-0.54v-1.41c-0.13-0.13-0.24-0.24-0.41-0.41
	c-0.04-0.48,0.1-1.14-0.16-1.52c-0.31-0.44-0.19-0.97-0.41-1.27c-0.47-0.64-0.46-1.29-0.42-1.99c-0.17-0.18-0.32-0.36-0.49-0.55
	v-1.4c-0.17-0.18-0.33-0.36-0.49-0.53v-1.41c-0.17-0.19-0.33-0.36-0.47-0.52v-1.31c-0.13-0.19-0.37-0.41-0.46-0.68
	c-0.1-0.28,0.02-0.65-0.11-0.91c-0.13-0.26-0.44-0.43-0.4-0.8c0.03-0.32,0.01-0.64,0.01-1c-0.13-0.15-0.28-0.33-0.46-0.54v-1.37
	c-0.17-0.18-0.32-0.36-0.49-0.55v-1.4c-0.17-0.18-0.33-0.35-0.49-0.54v-1.42c-0.12-0.12-0.24-0.23-0.35-0.35
	c-0.34-0.37,0.13-0.96-0.34-1.3c-0.4-0.29-0.31-0.73-0.25-1.09c0.1-0.55-0.38-0.82-0.48-1.25c-0.11-0.45-0.06-0.93-0.13-1.39
	c-0.02-0.13-0.21-0.23-0.34-0.36v-1.4c-0.17-0.18-0.33-0.36-0.49-0.54v-1.44c-0.11-0.1-0.23-0.2-0.33-0.29
	c-0.29-0.54-0.07-1.1-0.17-1.63c-0.11-0.11-0.23-0.22-0.34-0.34c-0.33-0.37,0.13-0.96-0.34-1.3c-0.4-0.29-0.3-0.73-0.24-1.09
	c0.1-0.55-0.39-0.82-0.48-1.25c-0.1-0.45-0.06-0.93-0.14-1.39c-0.02-0.13-0.21-0.23-0.34-0.36v-1.41c-0.17-0.18-0.33-0.35-0.49-0.54
	v-1.42c-0.17-0.18-0.33-0.35-0.49-0.53v-0.93c-0.13-0.13-0.24-0.24-0.35-0.35c-0.37-0.54,0.22-1.28-0.34-1.77
	c-0.59-0.52,0.08-1.33-0.36-1.76c-0.58-0.56-0.29-1.18-0.38-1.82c-0.13-0.15-0.28-0.32-0.46-0.53v-1.39
	c-0.17-0.18-0.33-0.35-0.49-0.53c0-0.31,0-0.63,0-0.95c-0.11-0.11-0.23-0.23-0.42-0.42v-1.44c-0.2-0.2-0.31-0.31-0.42-0.42
	c-0.36-0.54,0.22-1.28-0.34-1.77c-0.59-0.51,0.08-1.33-0.36-1.76c-0.58-0.56-0.28-1.18-0.37-1.82c-0.13-0.15-0.29-0.33-0.46-0.52
	v-1.4c-0.17-0.18-0.33-0.35-0.49-0.53v-0.95c-0.12-0.12-0.23-0.23-0.43-0.43c-0.02-0.44-0.05-0.98-0.07-1.48
	c-0.16-0.21-0.45-0.41-0.42-0.57c0.2-1.12-0.71-2.05-0.53-3.16c0.03-0.16-0.25-0.37-0.43-0.61v-1.34c-0.17-0.19-0.32-0.36-0.49-0.55
	v-0.92c-0.17-0.18-0.33-0.36-0.49-0.53v-1.42c-0.12-0.12-0.23-0.23-0.43-0.43c-0.02-0.45-0.05-0.99-0.08-1.52
	c-0.11-0.11-0.31-0.21-0.32-0.34c-0.07-0.46-0.02-0.94-0.13-1.39c-0.1-0.42-0.58-0.7-0.48-1.25c0.09-0.46,0.01-0.89-0.39-1.28
	c-0.22-0.22-0.12-0.73-0.21-1.1c-0.03-0.13-0.21-0.23-0.33-0.35v-1.42c-0.17-0.18-0.33-0.35-0.49-0.54v-1.4
	c-0.17-0.19-0.33-0.36-0.47-0.52v-1.31c-0.1-0.12-0.33-0.28-0.37-0.48c-0.11-0.53,0.04-1.19-0.23-1.57
	c-0.32-0.44-0.36-0.84-0.36-1.3c0-0.32,0.02-0.61-0.27-0.85c-0.51-0.42,0.16-1.34-0.69-1.63v-1.46c-0.11-0.1-0.23-0.2-0.32-0.28
	c-0.3-0.55-0.09-1.12-0.19-1.65c-0.11-0.11-0.23-0.23-0.34-0.34c-0.23-0.45-0.07-0.93-0.11-1.31c-0.03-0.48-0.61-0.61-0.49-1.08
	c0.24-0.97-0.62-1.7-0.6-2.63c0-0.11-0.21-0.22-0.34-0.36v-1.41c-0.17-0.18-0.33-0.35-0.49-0.54v-1.43
	c-0.11-0.1-0.23-0.21-0.34-0.32c-0.27-0.52-0.06-1.09-0.16-1.62c-0.11-0.11-0.23-0.23-0.34-0.34c-0.37-0.54,0.24-1.31-0.35-1.76
	c-0.53-0.41,0.07-1.13-0.49-1.46h-0.49c-0.47,0.48-0.14,1.06-0.24,1.63c-0.13,0.15-0.28,0.32-0.46,0.52v1.87
	c-0.17,0.18-0.33,0.35-0.49,0.53c0,0.63,0,1.27,0,1.91c-0.11,0.11-0.23,0.23-0.42,0.42v1.92c-0.2,0.2-0.31,0.31-0.51,0.51v1.92
	c-0.2,0.2-0.31,0.31-0.45,0.45c-0.05,0.67-0.1,1.37-0.15,2.07c-0.68,0.46-0.31,1.16-0.4,1.79c-0.13,0.15-0.29,0.33-0.46,0.52v1.88
	c-0.17,0.18-0.33,0.35-0.49,0.53V180c-0.12,0.12-0.23,0.23-0.43,0.43v1.92c-0.2,0.2-0.31,0.31-0.51,0.51v1.92
	c-0.2,0.2-0.31,0.31-0.51,0.51v1.92c-0.2,0.2-0.31,0.31-0.51,0.51v1.92c-0.2,0.2-0.31,0.31-0.43,0.43v1.89
	c-0.17,0.18-0.33,0.36-0.49,0.53v1.43c-0.12,0.12-0.23,0.23-0.43,0.43v1.92c-0.2,0.2-0.31,0.31-0.48,0.48v1.82
	c-0.16,0.2-0.3,0.38-0.54,0.69v1.86c-0.2,0.2-0.31,0.31-0.45,0.44v1.88c-0.17,0.18-0.32,0.36-0.49,0.55v1.88
	c-0.17,0.18-0.33,0.35-0.49,0.54v1.9c-0.12,0.12-0.23,0.23-0.35,0.35c-0.3,0.43,0.04,0.93-0.08,1.41c-0.14,0.18-0.27,0.36-0.51,0.69
	v1.85c-0.2,0.2-0.31,0.31-0.51,0.51v1.92c-0.2,0.2-0.31,0.31-0.44,0.44v1.88c-0.17,0.18-0.33,0.36-0.5,0.54v1.89
	c-0.11,0.12-0.22,0.23-0.46,0.48c-0.1,0.55,0.03,1.26-0.04,1.95c-0.11,0.11-0.23,0.23-0.42,0.42v1.92c-0.2,0.2-0.31,0.31-0.46,0.46
	c-0.04,0.66-0.09,1.35-0.13,2.05c-0.67,0.46-0.32,1.16-0.41,1.8c-0.12,0.14-0.27,0.32-0.45,0.53v1.86
	c-0.17,0.18-0.33,0.35-0.49,0.54v1.91c-0.11,0.1-0.23,0.21-0.42,0.39v1.94c-0.2,0.2-0.31,0.31-0.51,0.51v1.92
	c-0.2,0.2-0.31,0.31-0.51,0.51v1.92c-0.2,0.2-0.31,0.31-0.51,0.51v1.92c-0.2,0.2-0.31,0.31-0.44,0.44v1.41
	c-0.17,0.18-0.33,0.35-0.49,0.53v1.91c-0.11,0.11-0.23,0.22-0.42,0.41v1.92c-0.2,0.2-0.31,0.31-0.51,0.51v1.92
	c-0.2,0.2-0.31,0.31-0.51,0.51v1.92c-0.2,0.2-0.31,0.31-0.51,0.51v1.92c-0.2,0.2-0.31,0.31-0.44,0.44v1.89
	c-0.17,0.18-0.33,0.35-0.49,0.53v1.91c-0.11,0.11-0.23,0.23-0.44,0.44c-0.02,0.44-0.05,0.97-0.07,1.51
	c-0.11,0.11-0.23,0.23-0.42,0.42v1.92c-0.2,0.2-0.31,0.31-0.51,0.51v1.92c-0.2,0.2-0.31,0.31-0.45,0.45v1.87
	c-0.17,0.19-0.32,0.36-0.49,0.56v1.88c-0.17,0.18-0.33,0.35-0.49,0.53v1.9c-0.12,0.12-0.23,0.23-0.43,0.43v1.92
	c-0.2,0.2-0.31,0.31-0.42,0.42c-0.34,0.61,0.26,1.45-0.51,1.95c-0.04,0.7-0.09,1.39-0.13,2.05c-0.15,0.15-0.26,0.26-0.4,0.4v1.88
	c-0.17,0.19-0.32,0.36-0.49,0.55v1.88c-0.17,0.18-0.33,0.35-0.49,0.53v1.9c-0.12,0.12-0.23,0.23-0.43,0.43v1.98
	c-0.65,0.21-0.33,0.92-0.76,1.18c-28.3,0-56.6,0-84.9,0c-0.39-0.3-0.21-0.72-0.24-1.1c-0.02-0.39,0-0.77,0-1.06
	c0.21-0.21,0.32-0.32,0.46-0.46v-1.88c0.17-0.18,0.32-0.36,0.49-0.55v-1.88c0.11-0.12,0.22-0.24,0.46-0.49
	c0.09-0.54-0.02-1.25,0.04-1.95c0.11-0.11,0.23-0.23,0.34-0.34c0.24-0.44,0.08-0.92,0.14-1.49c0.08-0.11,0.22-0.29,0.46-0.62v-1.85
	c0.2-0.2,0.31-0.31,0.51-0.51v-1.92c0.2-0.2,0.31-0.31,0.44-0.44v-1.88c0.17-0.18,0.33-0.36,0.49-0.54v-1.89
	c0.17-0.18,0.33-0.35,0.49-0.53v-1.41c0.12-0.12,0.24-0.24,0.43-0.43v-1.92c0.2-0.2,0.31-0.31,0.51-0.51v-1.92
	c0.2-0.2,0.31-0.31,0.51-0.51v-1.92c0.2-0.2,0.31-0.31,0.44-0.44v-1.41c0.17-0.18,0.33-0.35,0.49-0.53v-1.91
	c0.11-0.11,0.23-0.22,0.42-0.4v-1.93c0.2-0.2,0.31-0.31,0.51-0.51v-1.92c0.2-0.2,0.31-0.31,0.45-0.45c0.05-0.67,0.1-1.36,0.14-2.06
	c0.68-0.46,0.31-1.16,0.4-1.79c0.13-0.15,0.28-0.32,0.46-0.53v-1.87c0.17-0.18,0.33-0.35,0.49-0.53c0-0.63,0-1.27,0-1.91
	c0.11-0.11,0.23-0.23,0.42-0.42v-1.92c0.2-0.2,0.31-0.31,0.51-0.51v-1.96c1.04-0.56-0.07-1.84,1.02-2.31v-2.02
	c0.2-0.2,0.31-0.31,0.44-0.43v-1.89c0.17-0.18,0.33-0.35,0.49-0.53v-1.91c0.89-0.66,0.26-1.64,0.54-2.46
	c0.08-0.08,0.2-0.2,0.31-0.31c0.35-0.6-0.26-1.46,0.51-1.95c0.05-0.7,0.09-1.39,0.14-2.05c0.15-0.15,0.26-0.26,0.4-0.4v-1.87
	c0.17-0.19,0.32-0.36,0.49-0.55v-1.88c0.17-0.18,0.33-0.35,0.49-0.53v-1.9c0.12-0.12,0.23-0.23,0.43-0.43
	c0.02-0.45,0.05-0.99,0.08-1.52c0.11-0.11,0.23-0.23,0.39-0.39v-1.83c0.16-0.2,0.3-0.38,0.54-0.69v-1.86
	c0.2-0.2,0.31-0.31,0.45-0.45v-1.88c0.17-0.18,0.32-0.36,0.49-0.55v-1.88c0.17-0.18,0.33-0.35,0.49-0.54v-1.42
	c0.12-0.12,0.23-0.23,0.43-0.43v-1.92c0.2-0.2,0.31-0.31,0.51-0.51v-1.92c0.2-0.2,0.31-0.31,0.46-0.46v-1.86
	c0.16-0.19,0.31-0.37,0.49-0.58v-1.86c0.17-0.18,0.33-0.36,0.49-0.54v-1.44c0.11-0.1,0.23-0.2,0.45-0.4
	c0.11-0.6-0.02-1.32,0.05-2.01c0.11-0.11,0.23-0.23,0.42-0.42v-1.92c0.2-0.2,0.31-0.31,0.51-0.51v-1.92c0.2-0.2,0.31-0.31,0.51-0.51
	v-1.92c0.2-0.2,0.31-0.31,0.44-0.44v-1.41c0.17-0.18,0.33-0.35,0.49-0.54v-1.91c0.11-0.1,0.23-0.21,0.42-0.4v-1.94
	c0.2-0.2,0.31-0.31,0.51-0.51v-1.92c0.2-0.2,0.31-0.31,0.45-0.45c0.05-0.67,0.09-1.36,0.14-2.06c0.73-0.45,0.2-1.18,0.59-2.01
	c-0.05,0.06,0.1-0.11,0.28-0.32v-1.87c0.17-0.18,0.33-0.35,0.49-0.53c0-0.63,0-1.27,0-1.91c0.11-0.11,0.23-0.23,0.42-0.42v-1.92
	c0.2-0.2,0.31-0.31,0.51-0.51v-1.92c0.2-0.2,0.31-0.31,0.51-0.51v-1.44c0.2-0.2,0.31-0.31,0.51-0.51v-1.92
	c0.2-0.2,0.31-0.31,0.44-0.44v-1.89c0.17-0.18,0.33-0.35,0.5-0.53v-1.91c0.11-0.12,0.23-0.23,0.43-0.43v-1.92
	c0.2-0.2,0.31-0.31,0.42-0.42c0.35-0.6-0.27-1.46,0.51-1.95c0.05-0.7,0.09-1.39,0.14-2.05c0.15-0.14,0.26-0.26,0.46-0.46v-1.92
	c0.2-0.2,0.31-0.31,0.43-0.43v-1.89c0.17-0.18,0.33-0.35,0.49-0.53v-1.9c0.12-0.12,0.23-0.23,0.43-0.43
	c0.02-0.45,0.05-0.98,0.08-1.52c0.11-0.11,0.23-0.23,0.39-0.39v-1.83c0.16-0.2,0.3-0.38,0.54-0.69v-1.86
	c0.2-0.2,0.31-0.31,0.45-0.45v-1.88c0.17-0.19,0.32-0.36,0.49-0.55v-1.88c0.17-0.18,0.33-0.35,0.49-0.54v-1.42
	c0.12-0.12,0.23-0.23,0.43-0.43v-1.92c0.2-0.2,0.31-0.31,0.51-0.51v-1.92c0.2-0.2,0.31-0.31,0.51-0.51v-1.92
	c0.2-0.2,0.31-0.31,0.44-0.44v-1.88c0.17-0.18,0.32-0.36,0.49-0.54v-1.41c0.11-0.12,0.22-0.23,0.43-0.45
	c0.2-0.57-0.06-1.29,0.1-2.01c0.08-0.08,0.2-0.2,0.39-0.39v-1.92c0.2-0.2,0.31-0.31,0.46-0.46c0.04-0.66,0.09-1.36,0.13-2.05
	c0.73-0.45,0.22-1.18,0.57-1.98c-0.03,0.04,0.12-0.14,0.3-0.35v-1.86c0.17-0.18,0.33-0.35,0.49-0.54v-1.91
	c0.11-0.1,0.23-0.21,0.42-0.39V95.7c0.2-0.2,0.31-0.31,0.51-0.51v-1.92c0.2-0.2,0.31-0.31,0.51-0.51v-1.44
	c0.2-0.2,0.31-0.31,0.51-0.51V88.9c0.2-0.2,0.31-0.31,0.44-0.44v-1.89c0.17-0.18,0.33-0.35,0.49-0.53v-1.91
	c0.11-0.11,0.23-0.22,0.42-0.42v-1.92c0.2-0.2,0.31-0.31,0.42-0.42c0.37-0.6-0.27-1.46,0.51-1.95c0.05-0.7,0.1-1.39,0.14-2.06
	c0.14-0.14,0.25-0.25,0.45-0.45v-1.92c0.2-0.2,0.31-0.31,0.44-0.44v-1.89c0.17-0.18,0.33-0.35,0.49-0.53v-1.91
	c0.11-0.11,0.23-0.23,0.44-0.44c0.02-0.43,0.04-0.97,0.07-1.51c0.11-0.11,0.23-0.23,0.42-0.42v-1.92c0.2-0.2,0.31-0.31,0.51-0.51
	v-1.92c0.2-0.2,0.31-0.31,0.51-0.51v-1.92c0.2-0.2,0.31-0.31,0.43-0.43v-1.89c0.17-0.18,0.33-0.35,0.49-0.53V56.8
	c0.12-0.12,0.23-0.23,0.43-0.43v-1.92c0.2-0.2,0.31-0.31,0.51-0.51v-1.92c0.2-0.2,0.31-0.31,0.51-0.51v-1.92
	c0.2-0.2,0.31-0.31,0.45-0.45v-1.88c0.17-0.18,0.32-0.36,0.49-0.55v-1.4c0.11-0.12,0.22-0.24,0.44-0.47c0.19-0.55-0.07-1.28,0.09-2
	c0.08-0.08,0.19-0.19,0.39-0.39v-1.92c0.2-0.2,0.31-0.31,0.52-0.52v-1.78c0.79-0.75,0.31-1.77,0.56-2.62
	c0.13-0.13,0.24-0.24,0.38-0.38v-1.4c0.17-0.18,0.33-0.36,0.49-0.54v-1.89c0.11-0.12,0.22-0.23,0.46-0.49
	c0.09-0.54-0.03-1.25,0.04-1.95c0.11-0.11,0.23-0.23,0.42-0.42v-1.92c0.2-0.2,0.31-0.31,0.46-0.46c0.04-0.66,0.09-1.35,0.13-2.05
	c0.72-0.45,0.23-1.18,0.56-1.97c-0.03,0.03,0.13-0.14,0.27-0.31c0.27-0.79-0.36-1.77,0.53-2.43v-1.93c0.11-0.1,0.23-0.21,0.41-0.37
	c0.22-0.63-0.04-1.35,0.12-2.06c0.09-0.09,0.2-0.2,0.4-0.4v-1.92c0.2-0.2,0.31-0.31,0.51-0.51v-1.44c0.2-0.2,0.31-0.31,0.51-0.51
	V8.36c0.2-0.2,0.31-0.31,0.44-0.44V6.04c0.17-0.18,0.33-0.35,0.49-0.53V3.59c0.11-0.11,0.23-0.22,0.42-0.41V1.24
	c0.46-0.37,0.73-0.73,0.57-1.23h84.66c0.18,0.21,0.4,0.44,0.65,0.73c0.1,0.44-0.12,1.06,0.51,1.4v1.42
	c0.17,0.18,0.33,0.35,0.49,0.53c0,0.31,0,0.63,0,0.95c0.11,0.11,0.23,0.23,0.42,0.42V6.9c0.2,0.2,0.31,0.31,0.48,0.48
	c0.04,0.48-0.1,1.14,0.16,1.52c0.3,0.44,0.19,0.96,0.41,1.27c0.46,0.64,0.48,1.29,0.42,1.99c0.16,0.18,0.32,0.36,0.49,0.56v0.92
	c0.17,0.18,0.33,0.35,0.49,0.53v1.42c0.17,0.18,0.33,0.35,0.48,0.52v1.13c-0.02,0.51,0.61,0.62,0.48,1.09
	c-0.15,0.54,0.35,0.83,0.46,1.25c0.1,0.37,0.02,0.79,0.02,1.24c0.12,0.15,0.27,0.33,0.46,0.55v1.36c0.17,0.19,0.32,0.36,0.49,0.55
	v0.92c0.17,0.18,0.33,0.36,0.49,0.53v1.42c0.12,0.12,0.23,0.23,0.34,0.34c0.35,0.37-0.13,0.96,0.34,1.3
	c0.4,0.29,0.35,0.74,0.25,1.08c-0.19,0.65,0.56,0.9,0.52,1.49c-0.04,0.53-0.16,1.1,0.41,1.52c0.12,0.09,0.03,0.45,0.06,0.68
	c0.02,0.15,0.05,0.3,0.13,0.42c0.08,0.13,0.22,0.23,0.34,0.35v1.42c0.17,0.18,0.33,0.35,0.49,0.54v0.94
	c0.12,0.12,0.23,0.23,0.35,0.35c0.24,0.44,0.08,0.92,0.14,1.49c0.08,0.11,0.22,0.29,0.42,0.57c0.03,0.43,0.08,0.96,0.12,1.5
	c0.83,0.35-0.07,1.5,0.87,1.74v1.49c0.17,0.18,0.32,0.36,0.49,0.54v1.41c0.16,0.18,0.32,0.35,0.49,0.54v0.93
	c0.12,0.12,0.24,0.24,0.35,0.35c0.38,0.54-0.22,1.29,0.34,1.77c0.52,0.45-0.06,1.31,0.67,1.64c0.03,0.47,0.06,0.94,0.09,1.48
	c0.1,0.12,0.25,0.3,0.43,0.5v1.38c0.17,0.18,0.33,0.35,0.49,0.54v0.94c0.17,0.18,0.33,0.35,0.49,0.53v1.42
	c0.51,0.3,0.43,0.78,0.49,1.25c0.05,0.43,0.58,0.69,0.48,1.24c-0.08,0.46,0.02,0.87,0.37,1.29c0.24,0.3,0.1,0.91,0.13,1.45
	c0.11,0.12,0.26,0.3,0.44,0.5v0.91c0.17,0.18,0.33,0.35,0.49,0.53c0,0.47,0,0.95,0,1.43c0.11,0.11,0.23,0.23,0.42,0.42v1.44
	c0.2,0.2,0.32,0.3,0.42,0.42c0.32,0.38-0.13,0.96,0.34,1.3c0.4,0.29,0.23,0.72,0.25,1.09c0.02,0.31-0.03,0.61,0.26,0.86
	c0.5,0.42-0.1,1.32,0.7,1.63v1.43c0.17,0.18,0.33,0.35,0.49,0.53v1.43c0.12,0.12,0.23,0.23,0.43,0.43c0.02,0.28-0.09,0.8,0.11,1.01
	c0.39,0.4,0.46,0.8,0.41,1.28c-0.04,0.42,0.07,0.74,0.39,1.05c0.13,0.12,0.09,0.44,0.09,0.67c0,0.47,0.01,0.89,0.41,1.29
	c0.22,0.22,0.12,0.73,0.21,1.1c0.03,0.13,0.21,0.23,0.34,0.35v1.41c0.17,0.18,0.33,0.35,0.49,0.53v0.95
	c0.12,0.12,0.23,0.23,0.43,0.43c0.02,0.45,0.05,0.98,0.08,1.48c0.16,0.21,0.39,0.38,0.43,0.58c0.12,0.59-0.18,1.21,0.39,1.77
	c0.33,0.33-0.09,1.11,0.54,1.44v1.4c0.19,0.21,0.35,0.38,0.52,0.57v0.92c0.17,0.18,0.33,0.36,0.49,0.54v1.42
	c0.12,0.12,0.23,0.23,0.35,0.35c0.39,0.54-0.21,1.3,0.35,1.77c0.53,0.45-0.07,1.32,0.67,1.65c0.03,0.47,0.06,0.94,0.1,1.49
	c0.1,0.11,0.25,0.29,0.43,0.5v1.38c0.17,0.18,0.32,0.36,0.5,0.54v0.93c0.16,0.18,0.32,0.35,0.49,0.54v1.41
	c0.12,0.12,0.24,0.23,0.35,0.35c0.34,0.37-0.13,0.96,0.34,1.3c0.4,0.29,0.34,0.75,0.24,1.08c-0.2,0.66,0.57,0.9,0.52,1.49
	c-0.05,0.53-0.14,1.08,0.41,1.52c0.16,0.13,0.05,0.6,0.07,0.95c0.14,0.15,0.3,0.32,0.46,0.5v1.42c0.23,0.29,0.5,0.33,0.83,0.15
	c0.27-0.51,0.05-1.07,0.15-1.57c0.17-0.2,0.45-0.4,0.44-0.56c-0.06-0.59,0.26-1,0.47-1.5c0.17-0.4,0.07-0.85,0.42-1.28
	c0.24-0.3,0.1-0.91,0.13-1.45c0.11-0.12,0.26-0.3,0.44-0.5v-0.91c0.17-0.18,0.33-0.35,0.49-0.53v-1.43
	c0.11-0.11,0.23-0.22,0.43-0.42c0.02-0.29-0.06-0.73,0.11-1.03c0.2-0.33,0.42-0.59,0.44-1.03c0.04-0.67,0.6-1.2,0.49-1.96
	c-0.08-0.57,0.72-1.01,0.48-1.72c-0.04-0.12,0.27-0.35,0.44-0.57v-1.38c0.17-0.18,0.33-0.35,0.49-0.53v-0.95
	c0.12-0.12,0.23-0.23,0.34-0.34c0.4-0.36-0.14-0.95,0.34-1.3c0.48-0.35,0.29-0.88,0.26-1.32c-0.04-0.48,0.46-0.63,0.49-1
	c0.03-0.47,0.06-0.86,0.4-1.29c0.24-0.3,0.09-0.91,0.11-1.44c0.12-0.13,0.27-0.31,0.45-0.5v-0.92c0.17-0.18,0.33-0.35,0.49-0.53V87
	c0.12-0.12,0.23-0.23,0.38-0.38c0.02-0.64,0.47-1.24,0.52-1.87c0.06-0.71,0.78-1.17,0.55-1.96c-0.2-0.69,0.79-1.17,0.49-1.96
	c-0.04-0.1,0.27-0.35,0.45-0.55v-1.39c0.17-0.18,0.33-0.35,0.49-0.54v-0.94c0.12-0.12,0.24-0.23,0.35-0.35
	c0.35-0.37-0.13-0.96,0.34-1.3c0.4-0.29,0.24-0.71,0.26-1.09c0.02-0.3-0.06-0.62,0.24-0.86c0.51-0.42-0.07-1.3,0.7-1.63v-1.42
	c0.17-0.18,0.33-0.36,0.49-0.54v-0.93c0.17-0.18,0.33-0.35,0.49-0.54v-0.93c0.12-0.12,0.24-0.23,0.36-0.36
	c0.22-0.44,0.08-0.92,0.11-1.38c0.03-0.4,0.51-0.53,0.5-1c-0.01-0.83,0.77-1.53,0.46-2.44c0.32-0.44,0.77-0.84,0.4-1.42
	c0.22-0.24,0.38-0.42,0.55-0.6V59.7c0.17-0.18,0.33-0.35,0.49-0.53v-1.42c0.12-0.12,0.24-0.23,0.35-0.35
	c0.33-0.38-0.13-0.96,0.34-1.3c0.4-0.29,0.22-0.72,0.26-1.09c0.03-0.23-0.02-0.6,0.09-0.66c0.73-0.38,0.08-1.25,0.66-1.67
	c0.4-0.29,0.12-0.74,0.22-1.15c0.13-0.14,0.29-0.32,0.46-0.49v-1.43c0.11-0.11,0.23-0.22,0.45-0.44c0.02-0.27,0.04-0.65,0.06-1.02
	c0.11-0.11,0.23-0.23,0.45-0.45c0-0.19-0.01-0.49,0-0.8c0.01-0.3-0.1-0.64,0.22-0.87c0.31-0.22,0.22-0.55,0.26-0.85
	c0.03-0.21,0.11-0.46,0.26-0.6c0.28-0.26,0.23-0.58,0.2-0.88c-0.03-0.39,0.27-0.54,0.48-0.8v-1.4c0.17-0.18,0.33-0.35,0.49-0.53
	v-0.94c0.17-0.18,0.33-0.35,0.49-0.53v-1.41c0.13-0.13,0.34-0.24,0.34-0.36c-0.02-0.93,0.83-1.66,0.6-2.63
	c0.38-0.72,0.49-1.55,0.94-2.25c0.01-0.08,0.02-0.15,0.02-0.23c0-0.24,0-0.48,0-0.72c0.16-0.17,0.32-0.34,0.48-0.52v-1.43
	c0.12-0.12,0.23-0.23,0.35-0.35c0.27-0.52-0.1-1.28,0.6-1.66c0.1-0.52-0.26-1.12,0.24-1.58c0.49-0.45-0.05-1.3,0.68-1.64
	c0.08-0.52-0.09-1.13,0.52-1.47v-1.42c0.17-0.18,0.33-0.36,0.49-0.54v-0.93c0.17-0.19,0.33-0.36,0.47-0.52v-1.24
	c0.08-0.43,0.7-0.64,0.49-1.22c-0.17-0.46,0.44-0.62,0.46-1c0.03-0.47-0.07-0.97,0.47-1.26v-1.41c0.17-0.18,0.32-0.36,0.49-0.54
	v-0.93c0.17-0.18,0.33-0.35,0.49-0.54V10.3c0.2-0.25,0.55-0.4,0.47-0.78c-0.12-0.53,0.28-0.84,0.46-1.25
	c0.15-0.33-0.12-0.78,0.26-1.09c0.11-0.09,0.22-0.24,0.23-0.38c0.03-0.4-0.05-0.81,0.03-1.19c0.06-0.27,0.35-0.49,0.45-0.77
	c0.08-0.21,0.01-0.47,0.01-0.73c0.15-0.16,0.31-0.34,0.48-0.52V2.17c0.17-0.18,0.33-0.35,0.49-0.53V0.71
	c0.24-0.24,0.46-0.46,0.71-0.71c51.14,0,102.31,0,153.47,0.01c0.06,0,0.12,0.09,0.19,0.15c-0.06,0.1-0.12,0.31-0.17,0.3
	c-0.57-0.04-1.1-0.01-1.48,0.49c-1-0.12-1.66,0.65-2.5,0.91c-0.44,0.14-0.7,0.73-1.22,0.52c-0.65-0.26-0.86,0.71-1.48,0.49
	c-0.26,0.45-0.79,0.42-1.17,0.66c-0.44,0.27-0.89,0.55-1.36,0.77c-0.4,0.2-0.89,0.25-1.22,0.51c-0.54,0.42-1.3,0.49-1.71,1.1
	c-0.2,0.3-0.57,0.23-0.8,0.37c-0.33,0.21-0.63,0.37-1,0.51c-0.34,0.13-0.53,0.62-0.87,0.79c-0.34,0.16-0.76,0.17-0.97,0.54
	c-0.39,0.65-1.36,0.44-1.67,1.18c-0.65,0.26-1.21,0.65-1.67,1.19c-0.64-0.02-1.01,0.43-1.31,0.86c-0.56,0.8-1.56,1-2.2,1.68
	c-0.66,0.7-1.24,1.56-2.05,2c-1.58,0.86-2.53,2.33-3.85,3.4v0.51c-0.96,0.96-1.93,1.91-2.88,2.86c-0.04,0.24,0.06,0.47-0.17,0.68
	c-0.45,0.43-1.05,0.86-1.23,1.4c-0.2,0.61-0.89,0.81-0.94,1.28c-0.08,0.76-0.95,0.97-0.98,1.51c-0.04,0.84-1.13,0.93-1.01,1.76
	c-1.23,2.03-2.05,4.28-3.3,6.31c-0.23,0.37,0.12,0.91-0.34,1.31c-0.33,0.28-0.28,0.83-0.65,1.18c-0.16,0.15-0.03,0.61-0.03,0.89
	c-0.18,0.2-0.33,0.37-0.54,0.6c0.48,0.95-0.52,1.69-0.42,2.63c-0.64,0.53-0.45,1.27-0.48,1.96c-0.01,0.23-0.04,0.45-0.05,0.63
	c-0.16,0.16-0.27,0.27-0.41,0.41v2.84c-0.17,0.18-0.33,0.36-0.49,0.54v15.83c0.1,0.09,0.22,0.19,0.23,0.21
	c0.14,0.17,0.23,0.22,0.23,0.28c0.01,1.11,0.01,2.23,0.01,3.33c0.13,0.13,0.24,0.25,0.42,0.42c0.17,0.78-0.03,1.66,0.11,2.51
	c0.11,0.11,0.23,0.23,0.38,0.38c0.01,0.18,0.04,0.41,0.05,0.64c0.04,0.84-0.13,1.68,0.45,2.46c0.19,0.26,0.03,0.78,0.03,1.21
	c0.13,0.15,0.28,0.33,0.46,0.54v1.38c0.17,0.18,0.33,0.35,0.49,0.54v1.42c0.17,0.18,0.33,0.35,0.48,0.52
	c0.03,0.47-0.12,0.94,0.35,1.31c0.38,0.31-0.11,0.93,0.35,1.29c0.46,0.36,0.27,0.89,0.24,1.33c-0.03,0.48,0.52,0.61,0.49,1
	c-0.04,0.52,0.71,0.7,0.49,1.24c-0.27,0.65,0.75,0.85,0.49,1.48c-0.23,0.55,0.5,0.74,0.49,1.24c0,0.45,0.52,0.69,0.51,1.24
	c-0.01,0.48,0.22,1.07,0.55,1.41c0.4,0.42,0.18,0.97,0.4,1.28c0.36,0.49,0.34,1.21,0.92,1.55c-0.24,0.63,0.73,0.84,0.51,1.47
	c1.28,2.01,2.1,4.26,3.32,6.29c-0.08,0.49,0.29,0.73,0.59,0.95c0.37,0.26,0.28,0.7,0.5,1c0.49,0.66,0.61,1.57,1.2,2.13
	c0.58,0.55,0.64,1.39,1.32,1.89c0.4,0.29,0.36,0.99,0.87,1.3c0.48,0.3,0.27,1.07,0.85,1.32c0.58,0.25,0.28,1.06,0.84,1.34
	c0.08,0.04,0.05,0.29,0.07,0.44c-0.49,0.71-1.15,1.19-1.93,1.57c-0.39,0.19-0.9,0.19-1.18,0.65c-0.2,0.33-0.51,0.61-0.98,0.52
	c-0.52,0.48-1.04,0.95-1.57,1.43c-0.81-0.09-0.89,1.15-1.76,0.96c-0.45,0.45-0.84,1.06-1.38,1.29c-0.53,0.22-0.98,0.48-1.29,0.9
	c-0.49,0.65-1.33,0.74-1.87,1.33c-0.5,0.56-0.93,1.29-1.82,1.38c-0.06,0.01-0.11,0.11-0.17,0.16c-0.85,0.85-1.7,1.7-2.54,2.54
	c-1.28,0.26-1.84,1.42-2.67,2.22c-2.25,2.15-4.42,4.39-6.63,6.59c-0.73,0.73-1.49,1.45-2.2,2.21c-0.75,0.8-1.71,1.43-2.22,2.44
	c-0.48,0.95-1.36,1.51-2.04,2.27c-0.46,0.52-0.57,1.23-1.16,1.7c-0.46,0.37-0.91,0.78-1.18,1.41c-0.27,0.61-0.91,1.06-1.38,1.59
	c0.1,0.77-0.84,0.95-0.94,1.52c-0.12,0.73-0.7,1.02-1.11,1.45c-0.44,0.45-0.36,1.19-0.99,1.52c-0.5,0.26-0.28,1.05-0.85,1.32
	c-0.49,0.22-0.43,0.78-0.65,1.17c-0.3,0.54-0.66,1.01-1.01,1.51c-0.32,0.46-0.58,1.01-0.75,1.6c-0.13,0.48-0.83,0.64-0.94,1.29
	c-0.06,0.39-0.33,0.87-0.59,1.17c-0.36,0.42-0.25,1.09-0.81,1.36c-0.08,0.85-0.67,1.48-0.98,2.23c-0.28,0.68-0.63,1.34-0.96,1.99
	c-0.37,0.73-0.64,1.55-1.15,2.15c-0.45,0.53,0.11,1.34-0.64,1.67c0.04,0.64-0.74,0.98-0.6,1.68c0.04,0.18-0.15,0.41-0.25,0.6
	c-0.16,0.33-0.27,0.72-0.52,0.97c-0.4,0.4,0.11,0.98-0.33,1.3c-0.4,0.29-0.21,0.73-0.34,1.06c-0.22,0.56-0.6,1.06-0.5,1.71
	c-0.72,0.34-0.17,1.21-0.68,1.63c-0.3,0.24-0.24,0.56-0.23,0.86c0.01,0.48-0.02,0.89-0.42,1.28c-0.22,0.22-0.12,0.73-0.21,1.1
	c-0.03,0.13-0.21,0.23-0.33,0.35v1.45c-0.11,0.1-0.23,0.2-0.38,0.34c-0.29,0.66,0.04,1.39-0.17,2.12c-0.07,0.07-0.18,0.18-0.38,0.38
	v1.92c-0.2,0.2-0.31,0.31-0.51,0.51v2.88c-0.2,0.2-0.31,0.31-0.51,0.51v3.83c-0.2,0.2-0.31,0.31-0.44,0.44v14.39
	c0.13,0.15,0.29,0.32,0.46,0.5v4.31c0.11,0.1,0.23,0.21,0.29,0.27c0.1,0.12,0.19,0.18,0.19,0.24c0.01,0.8,0.01,1.59,0.01,2.36
	c0.14,0.14,0.25,0.25,0.45,0.45v2.4c0.2,0.2,0.31,0.31,0.51,0.51v1.92c0.2,0.2,0.31,0.31,0.51,0.51v1.92
	c0.2,0.2,0.31,0.31,0.44,0.44v1.41c0.17,0.18,0.33,0.35,0.49,0.53v1.43c0.11,0.11,0.23,0.22,0.45,0.44
	c0.02,0.26,0.04,0.64,0.06,1.02c0.11,0.11,0.23,0.23,0.34,0.34c0.37,0.54-0.22,1.28,0.34,1.77c0.51,0.44-0.05,1.3,0.67,1.64
	c-0.21,0.82,0.65,1.38,0.54,2.18c-0.07,0.5,0.68,0.68,0.48,1.24c-0.16,0.47,0.45,0.71,0.43,1c-0.04,0.61,0.66,0.83,0.57,1.49
	c-0.06,0.45,0.21,1.08,0.55,1.4c0.42,0.41,0.31,1.01,0.79,1.4c0.28,0.22-0.1,0.87,0.35,1.28c0.31,0.28,0.26,0.86,0.66,1.15
	c-0.12,0.6,0.68,0.85,0.55,1.45c0.48,0.24,0.32,0.84,0.67,1.16c0.34,0.31,0.2,0.92,0.68,1.15c-0.18,0.55,0.47,0.75,0.51,1.23
	c0.06,0.72,1.11,0.9,1.02,1.73c0.56,0.44,0.49,1.32,1.18,1.68c0.1,0.05,0.12,0.26,0.19,0.39c0.16,0.33,0.39,0.65,0.46,1
	c0.09,0.45,0.51,0.58,0.71,0.91c0.19,0.32,0.26,0.76,0.53,0.96c0.71,0.54,0.73,1.56,1.51,2.03c0.16,0.83,0.84,1.27,1.35,1.84
	c0.35,0.39,0.38,0.97,0.84,1.34c0.4,0.33,0.96,0.63,0.86,1.31c0.4,0.39,0.79,0.79,1.19,1.19c0.4,0.39,0.79,0.79,1.19,1.19
	c0,0.16-0.07,0.37,0.01,0.47c0.25,0.31,0.55,0.57,0.84,0.86c2.49,2.49,4.95,5,7.48,7.44c0.77,0.74,1.28,1.85,2.5,2.05
	c0.73,0.73,1.37,1.65,2.24,2.15c0.76,0.44,1.35,1.01,1.98,1.58c0.97,0.1,1.33,1.02,2.01,1.51c0.79-0.14,0.93,0.91,1.52,0.92
	c0.83,0.02,0.92,1.01,1.76,1.04c0.54,0.02,0.74,1.02,1.51,0.93c0.45,0.41,0.79,0.99,1.5,1.02c0.64,0.81,1.64,1.05,2.46,1.56
	c0.44,0.27,1.04,0.27,1.36,0.8c0.33,0.53,1.02,0.59,1.53,0.9c0.44,0.27,0.96,0.39,1.41,0.64c0.84,0.48,1.72,0.86,2.58,1.29
	c0.8,0.39,1.61,0.78,2.35,1.26c0.53,0.35,1.36-0.14,1.68,0.65c0.66,0.17,1.21,0.55,1.81,0.83c0.51,0.24,1.16,0.2,1.68,0.58
	C351.34,293.06,351.84,292.69,352.07,293.17"/>
<path class="st1" d="M381.36,66.87c-0.22-0.22-0.33-0.33-0.46-0.46V65c-0.17-0.18-0.33-0.35-0.49-0.54v-2.87
	c-0.11-0.1-0.23-0.21-0.33-0.31c-0.06-0.16-0.15-0.3-0.15-0.44c-0.01-2.31-0.01-4.63-0.01-6.92c0.14-0.14,0.25-0.25,0.45-0.45v-1.92
	c0.2-0.2,0.4-0.3,0.41-0.42c0.12-1.24,0.86-2.2,1.37-3.27c0.22-0.47,0.44-0.94,0.65-1.41c0.03-0.07,0.02-0.15,0.03-0.23
	c1.19-1.19,2.37-2.37,3.57-3.57c0.15,0,0.4,0.06,0.45-0.01c0.49-0.76,1.45-0.87,2.03-1.5c0.53-0.57,1.34-0.65,1.96-1.04
	c0.7-0.44,1.44-0.83,2.17-1.13c0.83-0.33,1.68-0.54,2.46-1.03c0.35-0.22,0.92-0.09,1.46-0.12c0.12-0.11,0.3-0.26,0.5-0.44h0.91
	c0.18-0.17,0.35-0.33,0.53-0.49h1.91c0.11-0.11,0.22-0.23,0.45-0.46c1.06-0.07,2.24,0.02,3.41-0.05c0.11-0.11,0.23-0.23,0.4-0.4
	h10.67c0.11,0.11,0.22,0.22,0.42,0.42h3.36c0.2,0.2,0.31,0.31,0.51,0.51h2.88c0.2,0.2,0.31,0.31,0.44,0.44h1.89
	c0.18,0.17,0.35,0.33,0.53,0.49h1.91c0.11,0.11,0.22,0.23,0.42,0.42h1.44c0.2,0.2,0.31,0.31,0.54,0.54c0.35,0,0.82-0.01,1.28,0
	c0.39,0.02,0.53,0.49,1,0.5c0.83,0.01,1.54,0.75,2.44,0.45c0.4,0.43,0.9,0.57,1.48,0.48c0.35,0.83,1.4,0.13,1.82,0.82
	c0.67,0.11,1.29,0.51,1.91,0.56c0.71,0.07,1.18,0.85,1.95,0.54c0.43,0.36,0.97,0.38,1.46,0.54c0.49,0.17,0.93,0.45,1.5,0.44
	c0.27-0.01,0.36,0.49,0.76,0.46c0.47-0.03,0.67,0.64,1.24,0.48c0.59-0.17,0.85,0.67,1.45,0.53c0.3,0.51,0.81,0.36,1.26,0.44
	c0.27,0.04,0.51,0.3,0.76,0.46c0.57,0.35,1.28,0.45,1.76,0.96c0.68-0.24,1.18,0.23,1.72,0.49c1.4,0.68,2.78,1.4,4.16,2.1
	c0.38,0.19,0.73,0.19,1.08,0.31c0.79,0.28,1.54,0.66,2.08,1.37h1.09c0.09-0.11,0.15-0.17,0.17-0.24c0.02-0.07,0.01-0.16,0.01-0.24
	V0.24c0.08-0.08,0.13-0.15,0.2-0.19c0.06-0.04,0.14-0.05,0.22-0.05c48.58,0,97.17,0,145.65,0c0.22,0.22,0.33,0.33,0.46,0.46h3.33
	c0.18,0.17,0.35,0.33,0.53,0.49h2.4c0.1,0.11,0.21,0.23,0.4,0.42h1.94c0.2,0.2,0.31,0.31,0.51,0.51h1.92
	c0.2,0.2,0.31,0.31,0.45,0.45c0.67,0.05,1.36,0.09,2.06,0.14c0.46,0.67,1.16,0.32,1.8,0.4c0.15,0.13,0.32,0.28,0.53,0.46h1.39
	c0.18,0.17,0.35,0.33,0.53,0.49h0.94c0.18,0.17,0.35,0.33,0.53,0.49h1.38c0.22,0.17,0.41,0.46,0.58,0.44c0.59-0.06,1,0.27,1.5,0.47
	c0.4,0.16,0.85,0.08,1.28,0.42c0.36,0.3,1.1-0.06,1.44,0.55c0.84-0.3,1.36,0.58,2.19,0.56c0.53-0.01,1.06,0.43,1.7,0.51
	c0.54,0.06,1.01,0.76,1.55,0.82c0.57,0.07,1,0.3,1.47,0.53c0.53,0.26,1.11,0.45,1.58,0.81c0.45,0.35,1.06-0.08,1.51,0.47
	c0.29,0.35,0.92,0.42,1.39,0.65c0.47,0.23,0.91,0.49,1.37,0.73c0.46,0.24,0.93,0.47,1.39,0.7c1.46,0.73,2.92,1.43,4.36,2.2
	c0.39,0.21,0.93,0.18,1.17,0.66c0.23,0.48,0.8,0.4,1.15,0.68c0.65,0.51,1.6,0.52,2.14,1.19c0.5,0.62,1.38,0.66,1.87,1.33
	c0.24,0.32,0.89,0.24,1.13,0.7c0.25,0.47,0.82,0.35,1.17,0.67c0.33,0.31,0.61,0.61,1.12,0.77c0.78,0.25,1.06,1.35,2.04,1.44
	c0.62,0.62,1.24,1.24,1.86,1.86c0.16,0,0.32,0,0.48,0c0.67,0.68,1.33,1.39,2.04,2.02c0.57,0.51,1.34,0.71,1.84,1.35
	c0.49,0.63,1.11,1.14,1.68,1.71c0.57,0.57,1.13,1.13,1.7,1.7c0.57,0.56,1.15,1.11,1.69,1.7c0.73,0.79,1.53,1.49,2.09,2.48
	c0.49,0.87,1.42,1.49,2.15,2.22v0.49c0.4,0.4,0.76,0.84,1.2,1.17c0.53,0.4,0.62,1.07,1.03,1.49c0.4,0.41,0.55,0.91,0.84,1.34
	c0.29,0.44,0.86,0.7,0.83,1.34c0.55,0.45,0.76,1.19,1.23,1.62c0.55,0.51,0.49,1.36,1.15,1.7c0.56,0.29,0.28,1.07,0.84,1.33
	c0.28,0.87,0.67,1.66,1.34,2.33c0.29,0.3,0.48,0.78,0.61,1.17c0.45,1.33,1.52,2.41,1.61,3.89c0.56,0.88,1.01,1.81,1.36,2.79
	c0.8,0.36,0.05,1.44,0.85,1.81c0.06,0.68,0.83,1.16,0.54,1.93c0.79,0.38,0.15,1.39,0.82,1.82c0.13,0.66,0.51,1.29,0.56,1.9
	c0.06,0.72,0.87,1.18,0.54,1.95c0.64,0.54,0.46,1.27,0.48,1.99c0.14,0.15,0.29,0.33,0.46,0.53v1.39c0.17,0.18,0.33,0.35,0.49,0.53
	v1.42c0.17,0.18,0.33,0.35,0.49,0.53v1.39c0.18,0.2,0.33,0.38,0.49,0.57v2.35c0.14,0.14,0.26,0.25,0.45,0.45v1.92
	c0.2,0.2,0.31,0.31,0.51,0.51v2.88c0.2,0.2,0.31,0.31,0.44,0.44v3.81c0.17,0.18,0.33,0.35,0.49,0.53c0,2.39,0,4.79,0,7.18
	c0.11,0.11,0.23,0.23,0.34,0.34c0.05,0.14,0.13,0.28,0.13,0.42c0.01,3.11,0.01,6.22,0.01,9.3c-0.14,0.14-0.26,0.26-0.45,0.45v6.71
	c-0.2,0.2-0.31,0.31-0.51,0.51v3.36c-0.2,0.2-0.31,0.31-0.51,0.51v2.88c-0.2,0.2-0.31,0.31-0.44,0.43v1.89
	c-0.17,0.18-0.33,0.35-0.49,0.53v1.91c-0.11,0.12-0.23,0.23-0.44,0.44c-0.02,0.43-0.05,0.97-0.07,1.51
	c-0.11,0.11-0.23,0.23-0.45,0.45c0,0.36,0.1,0.85-0.03,1.28c-0.15,0.49-0.61,0.9-0.45,1.49c0.15,0.54-0.42,0.81-0.47,1.24
	c-0.05,0.47,0.02,0.96-0.48,1.25v1.42c-0.17,0.18-0.33,0.35-0.49,0.53v0.94c-0.17,0.18-0.33,0.36-0.46,0.5
	c-0.02,0.35,0.09,0.81-0.07,0.95c-0.4,0.33-0.29,0.89-0.66,1.18c-0.47,0.36-0.08,0.9-0.33,1.31c-0.4,0.63-0.78,1.24-0.92,2.03
	c-0.11,0.62-0.58,1.19-0.88,1.79c-0.33,0.66-0.63,1.33-0.98,1.99c-0.42,0.78-0.7,1.63-1.14,2.4c-0.41,0.71-0.61,1.53-1.17,2.15
	c0.11,0.9-1.13,1.08-1.06,1.96c-0.57,0.43-0.58,1.2-1.11,1.72c-0.46,0.45-0.9,1.07-1.17,1.65c-0.28,0.6-0.68,1.01-1.08,1.47
	c0.2,0.87-1.01,0.97-0.98,1.76c0.01,0.13-0.12,0.28-0.21,0.38c-0.51,0.57-1.04,1.08-1.4,1.81c-0.34,0.68-1.07,1.17-1.65,1.71
	c-0.63,0.58-0.79,1.48-1.51,2.03c-0.69,0.53-1.26,1.22-1.88,1.84c-0.62,0.62-1.24,1.24-1.87,1.86c-0.62,0.62-1.24,1.24-1.86,1.86
	s-1.24,1.24-1.86,1.86c-0.45,0.45-0.83,1.12-1.38,1.3c-0.66,0.22-1.02,0.68-1.48,1.07c-0.47,0.39-0.78,0.96-1.49,1.05
	c-0.25,0.03-0.46,0.42-0.68,0.65c-0.28,0.28-0.63,0.52-0.83,0.86c-0.25,0.41-0.79,0.15-1,0.5c-0.42,0.73-1.39,0.68-1.85,1.35
	c-0.41,0.6-1.1,0.81-1.66,1.2c-0.37,0.26-0.61,0.73-1.17,0.67c-0.25,0.58-1.07,0.28-1.33,0.85c-0.26,0.57-1.01,0.39-1.32,0.85
	c-0.33,0.49-0.87,0.59-1.33,0.84c-0.46,0.25-0.88,0.58-1.37,0.75c-0.57,0.2-1.13,0.46-1.57,0.8c-0.43,0.34-0.88,0.57-1.35,0.82
	c-1.31,0.69-2.69,1.27-3.94,2.05c-0.49,0.31-1.03-0.01-1.52,0.44c-0.39,0.36-0.97,0.71-1.6,0.72c-0.25,0.59-1.06,0.29-1.33,0.85
	c-0.8-0.06-1.4,0.48-2.12,0.68c-0.4,0.71-1.47,0-1.81,0.85c-0.78-0.36-1.24,0.53-1.96,0.5c-0.68-0.03-1.19,0.69-1.93,0.52
	c-0.36,0.79-1.45,0.05-1.81,0.85c-0.64-0.06-1.17,0.22-1.71,0.52c-0.18,0.1-0.47,0.02-0.72,0.02c-0.17,0.15-0.34,0.32-0.52,0.48
	h-1.43c-0.11,0.11-0.23,0.23-0.44,0.44c-0.44,0.02-0.98,0.05-1.48,0.07c-0.21,0.16-0.41,0.45-0.57,0.43
	c-1.12-0.2-2.05,0.7-3.17,0.52c-0.16-0.02-0.37,0.25-0.61,0.43h-1.82c-0.19,0.17-0.36,0.32-0.55,0.49h-2.84
	c-0.18,0.17-0.36,0.33-0.53,0.49h-3.34c-0.12,0.12-0.23,0.23-0.34,0.34c-0.06,0.04-0.12,0.13-0.18,0.13
	c-20.94,0.01-41.88,0.01-62.79,0.01c-0.08,0.09-0.16,0.13-0.19,0.2c-0.03,0.06-0.04,0.15-0.04,0.22c0,32.03,0,64.06-0.01,96.1
	c0,0.06-0.07,0.13-0.11,0.19c-2.4,0.17-18.13,0.22-24.16,0.08c-0.32-0.53-1.09-0.71-1.15-1.44c-0.06-0.68-0.99-0.74-1-1.52
	c0-0.3-0.5-0.57-0.72-0.89c-0.16-0.24-0.19-0.57-0.36-0.8c-0.3-0.43-0.73-0.71-0.9-1.32c-0.14-0.52-0.82-0.83-1-1.5
	c-0.12-0.47-0.91-0.64-0.83-1.33c-0.67-0.45-0.79-1.33-1.35-1.82c-0.61-0.53-0.66-1.38-1.32-1.89c-0.38-0.29-0.36-0.99-0.87-1.3
	c-0.44-0.26-0.19-0.92-0.68-1.16c-0.55-0.27-0.48-0.93-0.84-1.33c-0.3-0.33-0.64-0.58-0.75-1.14c-0.1-0.53-0.87-0.78-0.99-1.5
	c-0.08-0.48-0.83-0.63-0.9-1.3c-0.06-0.59-1.06-0.73-0.93-1.52c-0.39-0.4-0.77-0.81-1.19-1.18c-0.35-0.32-0.2-0.91-0.67-1.17
	c-0.45-0.24-0.47-0.76-0.69-1.15c-0.22-0.4-0.79-0.54-0.82-1.1c-0.02-0.46-0.5-0.58-0.7-0.91c-0.19-0.32-0.26-0.76-0.53-0.96
	c-0.7-0.55-0.74-1.56-1.51-2.02c-0.15-0.95-1.15-1.4-1.36-2.31c-0.74-0.49-0.75-1.54-1.53-2.01c-0.12-0.55-0.42-0.96-0.84-1.34
	c-0.39-0.36-0.32-1.04-0.86-1.31c-0.48-0.25-0.21-0.91-0.68-1.16c-0.52-0.28-0.53-0.91-0.86-1.32c-0.34-0.41-0.82-0.72-0.84-1.34
	c-0.6-0.41-0.81-1.09-1.19-1.66c-0.38-0.57-0.73-1.17-1.2-1.65c-0.49-0.51-0.46-1.37-1.17-1.67c-0.68-0.29-0.51-1.11-1.01-1.51
	c-0.37-0.29-0.55-0.68-0.71-1.14c-0.14-0.41-0.72-0.59-0.78-0.8c-0.14-0.57,0.07-0.72,0.23-0.88c0.68-0.68,1.36-1.36,2.03-2.04
	c0.15-1.05,1.11-1.46,1.71-2.16c0.35-0.41,0.32-1.01,0.83-1.35c0.51-0.35,0.79-0.9,1.06-1.46c0.23-0.48,0.76-0.81,1.15-1.2
	c0.03-0.92,1.15-1.23,1.19-2.14c0.73-0.52,0.97-1.34,1.3-2.1c0.28-0.63,1.08-0.91,1.07-1.71c0.51-0.47,0.51-1.31,1.19-1.67
	c0.4-0.87,0.71-1.8,1.2-2.61c0.96-1.59,1.59-3.35,2.56-4.93c0.29-0.46-0.01-1.01,0.33-1.29c0.39-0.34,0.29-0.86,0.65-1.19
	c0.33-0.3,0.2-0.91,0.69-1.15c-0.03-0.55-0.06-1.11,0.49-1.48c-0.13-0.65,0.85-1,0.48-1.72c0.24-0.47,0.46-0.9,0.53-1.47
	c0.06-0.47,0.34-0.96,0.49-1.47c0.14-0.49,0.52-0.92,0.42-1.49c0.52-0.38,0.54-0.92,0.48-1.48c0.59-0.34,0.47-0.93,0.51-1.47
	c0.74-0.33,0.2-1.2,0.68-1.63c0.5-0.46,0-1.18,0.29-1.55c0.51-0.64,0.42-1.3,0.45-2.02c0.14-0.16,0.29-0.33,0.47-0.53v-1.39
	c0.17-0.18,0.33-0.35,0.49-0.53v-1.42c0.17-0.18,0.33-0.35,0.49-0.53v-1.41c0.13-0.13,0.24-0.24,0.44-0.44v-1.92
	c0.2-0.2,0.31-0.31,0.51-0.51v-1.92c0.2-0.2,0.31-0.31,0.45-0.45v-2.35c0.16-0.19,0.32-0.36,0.49-0.56v-2.36
	c0.17-0.18,0.33-0.35,0.49-0.53v-2.86c0.11-0.12,0.23-0.23,0.46-0.46c0.08-1.05-0.03-2.24,0.05-3.41c0.11-0.11,0.23-0.23,0.42-0.42
	v-4.79c0.2-0.2,0.31-0.31,0.51-0.51v-7.19c0.2-0.2,0.31-0.31,0.42-0.42v-15.46c-0.17-0.17-0.28-0.28-0.48-0.48v-2.05H472.7
	c-0.59,0.59,0.08,0.83,0.3,1.21v2.35c0.13,0.13,0.24,0.24,0.44,0.44v2.88c0.2,0.2,0.31,0.31,0.51,0.51v4.31
	c0.2,0.2,0.31,0.31,0.42,0.42c0,5.49,0,10.98,0,16.41c-0.17,0.17-0.28,0.28-0.41,0.41v3.81c-0.17,0.18-0.33,0.35-0.49,0.53v2.87
	c-0.11,0.11-0.23,0.22-0.42,0.42v1.92c-0.2,0.2-0.31,0.31-0.48,0.48c-0.03,0.48-0.07,1.01-0.11,1.55c-0.68,0.45-0.24,1.19-0.46,1.73
	c-0.19,0.49-0.58,0.91-0.45,1.49c0.15,0.66-0.65,1.02-0.51,1.72c0.1,0.51-0.51,0.85-0.51,1.47c0,0.54-0.6,1.04-0.45,1.71
	c-0.61,0.34-0.23,1.12-0.54,1.43c-0.43,0.41-0.23,1.11-0.81,1.36c0.07,0.64-0.22,1.17-0.52,1.7c-0.26,0.45-0.44,0.93-0.66,1.4
	c-0.26,0.53-0.53,1.06-0.78,1.6c-0.21,0.47-0.75,0.76-0.52,1.47c-1.08-0.27-1.62-0.84-1.86-1.59c-0.22-0.68-1.15-0.89-1.05-1.72
	c-0.5-0.39-0.51-1.08-1-1.51c-0.51-0.45-0.57-1.26-1.2-1.65c-0.1-0.67-0.77-0.99-0.97-1.52c-0.21-0.55-0.64-0.86-0.87-1.32
	c-0.28-0.56-0.69-1-1-1.51c-0.28-0.45-0.57-0.88-0.86-1.32c-0.33-0.51-0.61-1.03-1.03-1.5c-0.33-0.37-0.52-0.9-0.66-1.39
	c-0.12-0.43-0.52-0.58-0.72-0.9c-0.19-0.32-0.26-0.76-0.53-0.97c-0.7-0.54-0.74-1.56-1.51-2.02c-0.18-0.93-1.12-1.41-1.36-2.31
	c-0.74-0.49-0.76-1.54-1.53-2c-0.15-0.95-1.09-1.42-1.39-2.3c-0.13-0.4-0.18-0.9-0.64-1.18c-0.33-0.2-0.62-0.51-0.52-0.98
	c-0.7-0.43-0.77-1.34-1.37-1.82c-0.63-0.51-0.6-1.45-1.35-1.85c-0.15-0.63-0.75-1-0.96-1.52c-0.26-0.61-0.88-0.97-1.01-1.49
	c-0.18-0.7-0.81-0.96-1.03-1.5c-0.25-0.63-0.48-1.24-0.89-1.79c-0.41-0.55-0.79-1.11-1.19-1.66c-0.4-0.55-0.56-1.27-1.18-1.67
	c-0.05-0.91-1.15-1.23-1.19-2.15c-0.77-0.47-0.89-1.41-1.5-2.03c-0.39-0.4-0.5-1.06-0.8-1.57c-0.27-0.46-0.79-0.82-0.91-1.3
	c-0.16-0.67-0.98-0.81-1-1.51c-0.01-0.46-0.5-0.58-0.7-0.91c-0.19-0.32-0.26-0.78-0.53-0.96c-0.65-0.42-0.59-1.29-1.18-1.68
	c-0.57-0.38-0.43-1.15-1-1.52c-0.59-0.39-0.5-1.3-1.19-1.66c-0.11-0.05-0.13-0.26-0.2-0.39c-0.16-0.33-0.4-0.65-0.46-1
	c-0.08-0.46-0.51-0.58-0.7-0.91c-0.19-0.32-0.26-0.78-0.53-0.96c-0.65-0.42-0.59-1.29-1.18-1.68c-0.57-0.37-0.42-1.15-1-1.52
	c-0.59-0.38-0.5-1.31-1.2-1.65c-0.18-0.61-0.71-1.01-0.98-1.52c-0.49-0.93-0.93-1.87-1.63-2.68c0.03-0.57-0.49-0.77-0.79-1.1
	c-0.27-0.3-0.08-0.76-0.49-1.01c-0.38-0.24-0.6-0.63-0.73-1.13c-0.12-0.48-0.82-0.64-0.92-1.3c-0.06-0.39-0.59-0.7-0.91-1.05
	c0.26-0.64-0.75-0.84-0.51-1.47c-0.3-0.44-0.89-0.62-0.96-1.29c-0.05-0.56-0.87-0.68-0.93-1.28c-0.06-0.63-0.87-0.79-0.92-1.28
	c-0.07-0.67-0.77-0.84-0.88-1.32c-0.17-0.68-0.87-0.98-1-1.5c-0.15-0.62-0.64-0.87-0.89-1.32c-0.29-0.51-0.36-1.17-0.72-1.61
	c-0.43-0.54-0.74-1.2-1.2-1.64c-0.49-0.47-0.47-1.17-0.98-1.53c-0.54-0.38-0.57-1.06-1-1.52c-0.46-0.49-0.81-1.09-1.2-1.65
	c-0.34-0.49-0.5-1.07-0.81-1.58c-0.2-0.32-0.5-0.59-0.71-0.91c-0.2-0.31-0.26-0.79-0.53-0.96c-0.67-0.41-0.57-1.29-1.17-1.69
	c-0.56-0.36-0.47-1.11-1-1.52c-0.54-0.42-0.65-1.15-0.92-1.76c-0.15-0.34-0.55-0.56-0.78-0.88c-0.17-0.23-0.16-0.66-0.36-0.79
	c-0.71-0.45-0.7-1.36-1.33-1.87c-0.53-0.43-0.54-1.28-1.2-1.65c-0.34-1.01-0.9-1.89-1.58-2.7c0.05-0.74-0.95-0.82-0.96-1.52
	c-0.01-0.7-0.84-0.82-1.01-1.51c-0.15-0.6-0.44-1.3-1.02-1.73c-0.51-0.38-0.33-1.22-1.01-1.5c-0.33-0.14-0.21-0.68-0.36-0.78
	c-0.53-0.33-0.27-1.1-0.83-1.36c-0.56-0.26-0.49-0.92-0.83-1.34c-0.33-0.4-0.36-1.01-0.86-1.31c-0.07-0.04-0.13-0.1-0.17-0.17
	c-0.34-0.66-0.46-1.43-1.02-1.97c0.11-0.89-1.15-1.07-1.03-1.97c-0.54-0.28-0.41-0.96-0.82-1.35c-0.39-0.37,0.08-1.04-0.49-1.49
	c-0.35-0.28-0.29-1.05-0.63-1.37c-0.55-0.5-0.25-1.23-0.61-1.67c-0.34-0.42-0.27-1.07-0.8-1.36c0.36-0.78-0.57-1.24-0.48-1.96
	c0.07-0.63-0.81-1.01-0.47-1.72C381.21,68.38,381.39,67.65,381.36,66.87 M549.45,70.51c-0.09,0.1-0.19,0.16-0.19,0.22
	c-0.01,18.77-0.01,37.54-0.01,56.3c0,0.08-0.02,0.17,0.01,0.24c0.03,0.07,0.11,0.11,0.2,0.2h30.78c0.16-0.16,0.27-0.27,0.47-0.47
	h1.92c0.2-0.2,0.31-0.31,0.51-0.51h1.94c0.18-0.19,0.29-0.31,0.4-0.42h0.96c0.18-0.17,0.35-0.33,0.52-0.48
	c0.71,0.29,1.17-0.51,1.72-0.43c0.72,0.11,1.03-0.6,1.73-0.58c0.52,0.02,1.06-0.46,1.6-0.71c0.6-0.29,1.21-0.56,1.8-0.85
	c0.53-0.26,1.05-0.57,1.6-0.77c0.6-0.21,0.75-0.95,1.51-1.02c0.56-0.05,0.75-1.02,1.52-0.93c0.62-0.62,1.24-1.24,1.86-1.86
	c0.68-0.68,1.3-1.43,2.05-2.01c0.77-0.6,0.95-1.62,1.69-2.18c0.42-0.32,0.24-0.91,0.67-1.17c0.51-0.31,0.57-0.89,0.86-1.32
	c0.46-0.69,0.62-1.51,1.15-2.17c0.31-0.39-0.08-1.08,0.51-1.48c0.16-0.11,0-0.61,0.09-0.9c0.06-0.21,0.28-0.36,0.45-0.56
	c0.08-0.66-0.07-1.37,0.05-1.97c0.22-0.2,0.34-0.31,0.45-0.41v-3.35c0.17-0.18,0.33-0.36,0.46-0.5v-2.88
	c-0.13-0.13-0.24-0.24-0.44-0.44v-3.83c-0.2-0.2-0.31-0.31-0.5-0.5c0-0.39-0.1-0.89,0.02-1.32c0.19-0.66-0.69-0.91-0.49-1.48
	c0.23-0.66-0.73-0.88-0.49-1.48c0.27-0.66-0.77-0.84-0.49-1.48c-0.58-0.35-0.46-0.93-0.51-1.46c-0.28-0.29-0.75-0.53-0.81-0.86
	c-0.09-0.49-0.53-0.76-0.58-1.2c-0.07-0.65-0.61-0.91-1.01-1.25c-0.39-0.34-0.35-0.85-0.66-1.18c-0.5-0.52-1.01-1.02-1.52-1.53
	c-0.57-0.57-1.19-1.08-1.68-1.71c-0.46-0.59-1.33-0.52-1.68-1.18c-0.3-0.55-1.08-0.26-1.34-0.84c-0.25-0.58-0.91-0.54-1.35-0.81
	c-0.68-0.42-1.42-0.81-2.16-1.12c-0.95-0.4-1.79-1.1-2.89-1.13c-0.12,0-0.23-0.21-0.35-0.33h-0.93c-0.18-0.17-0.35-0.33-0.53-0.49
	h-0.93c-0.18-0.17-0.36-0.33-0.54-0.49h-1.41c-0.13-0.13-0.24-0.24-0.44-0.44h-1.92c-0.2-0.2-0.31-0.31-0.46-0.46H549.45z"/>
<path class="st2" d="M427.54,239.02c-0.31,0.25-0.62,0.49-0.92,0.74c-0.12,0.1-0.22,0.32-0.34,0.32c-0.74,0.02-1.03,0.64-1.5,1.03
	c-0.56-0.22-0.8,0.37-1.23,0.52c-0.83,0.28-1.62,0.74-2.38,1.19c-0.71,0.42-1.57,0.53-2.15,1.17c-0.92,0.09-1.56,0.86-2.45,1.02
	c-0.36,0.79-1.45,0.05-1.81,0.85c-0.67,0.08-1.17,0.82-1.94,0.53c-0.29,0.26-0.53,0.52-1,0.52c-0.24,0-0.38,0.54-0.76,0.43
	c-0.76-0.21-1.17,0.71-1.97,0.51c-0.75-0.18-1.36,0.64-2.15,0.55c-0.46,0.72-1.19,0.18-2,0.57c0.05-0.05-0.12,0.11-0.31,0.28h-1.88
	c-0.18,0.17-0.36,0.33-0.54,0.49h-2.38c-0.12,0.12-0.23,0.23-0.35,0.35c-0.06,0.04-0.12,0.12-0.19,0.12
	c-1.91,0.01-3.83,0.01-5.7,0.01c-0.15,0.15-0.27,0.27-0.39,0.39c-0.53,0.17-1.07,0.13-1.6,0.03c-0.12-0.11-0.23-0.23-0.43-0.43
	h-5.76c-0.2-0.2-0.31-0.31-0.44-0.44h-1.88c-0.18-0.17-0.36-0.32-0.55-0.49h-1.41c-0.18-0.17-0.35-0.33-0.54-0.49h-1.39
	c-0.2-0.17-0.44-0.49-0.55-0.45c-0.8,0.3-1.27-0.47-1.96-0.55c-0.63-0.08-1.26-0.39-1.8-0.85c-0.32-0.27-0.9,0.11-1.3-0.35
	c-0.28-0.32-0.89-0.23-1.15-0.67c-0.55,0.2-0.73-0.49-1.24-0.5c-0.43-0.02-0.7-0.58-1.21-0.53c-0.27-0.56-1.07-0.26-1.33-0.85
	c-0.22-0.48-0.87-0.37-1.13-0.7c-0.6-0.76-1.67-0.86-2.2-1.68c-1.05-0.15-1.39-1.24-2.19-1.67c-1.71-0.92-2.82-2.48-4.19-3.76
	c-1.4-1.31-2.71-2.71-4.09-4.05c-0.45-0.44-0.51-1.09-0.99-1.52c-0.51-0.46-1.17-0.83-1.32-1.6c-0.12-0.63-1.07-0.74-0.96-1.52
	c0.01-0.06-0.06-0.14-0.11-0.19c-1.25-0.99-1.71-2.46-2.4-3.8c-0.44-0.85-0.9-1.71-1.29-2.59c-0.17-0.4-0.67-0.66-0.52-1.23
	c0.17-0.59-0.68-0.84-0.54-1.45c-0.51-0.3-0.24-0.91-0.45-1.24c-0.33-0.51-0.3-1.22-0.91-1.5v-0.99c-0.17-0.18-0.33-0.35-0.49-0.54
	v-0.92c-0.17-0.19-0.33-0.37-0.53-0.6c0.48-0.95-0.53-1.69-0.42-2.63c-0.64-0.54-0.45-1.27-0.48-1.96
	c-0.01-0.23-0.04-0.45-0.05-0.63c-0.16-0.16-0.27-0.27-0.41-0.41v-1.88c-0.17-0.18-0.32-0.36-0.49-0.54v-2.4
	c-0.11-0.1-0.23-0.2-0.32-0.29c-0.06-0.17-0.15-0.31-0.15-0.45c-0.01-4.07-0.01-8.14-0.01-12.19c0.13-0.13,0.24-0.24,0.47-0.47
	c0.02-0.74-0.01-1.6,0.01-2.41c0.16-0.16,0.27-0.27,0.48-0.48c0-0.21,0.03-0.52-0.01-0.83c-0.07-0.64,0.17-1.16,0.45-1.74
	c0.25-0.51-0.21-1.28,0.48-1.71c-0.28-0.83,0.69-1.36,0.53-2.19c-0.09-0.47,0.67-0.67,0.47-1.24c-0.16-0.47,0.42-0.66,0.45-1
	c0.06-0.62,0.83-1.01,0.51-1.72c0.31-0.51,0.85-1.01,0.87-1.53c0.02-0.62,0.82-0.83,0.57-1.46c0.58-0.34,0.46-1.13,0.96-1.52
	c-0.13-0.83,1.09-0.93,0.96-1.76c0.52-0.47,0.52-1.28,1.13-1.69c0.46-0.32,0.34-0.98,0.83-1.35c0.4-0.3,0.84-0.61,0.97-1.27
	c0.09-0.46,0.83-0.76,1.06-1.23c0.71-1.47,2.01-2.39,3.1-3.5c0.4-0.41,0.48-0.95,0.83-1.34c0.38-0.41,0.76-0.82,1.19-1.18
	c0.48-0.4,0.75-1.03,1.41-1.22c0.73-0.21,1.08-0.87,1.6-1.34c0.48-0.43,0.83-1.07,1.38-1.31c0.97-0.44,1.57-1.25,2.34-1.89
	c0.27-0.23,0.66-0.33,0.98-0.52c0.33-0.19,0.46-0.62,0.91-0.71c0.35-0.07,0.66-0.32,0.96-0.47c0.5,0.04,0.64,0.49,0.95,0.71
	c-0.1,0.58,0.33,0.88,0.69,1.14c0.38,0.27,0.14,0.79,0.5,1c0.73,0.42,0.75,1.32,1.33,1.86c0.55,0.51,0.7,1.35,1.34,1.83
	c-0.08,0.89,1.07,1.06,1.1,1.96c0.01,0.38,0.76,0.55,0.82,1.08c0.07,0.62,0.87,0.78,0.92,1.29c0.06,0.58,0.48,0.78,0.76,1.14
	c0.33,0.42,0.33,1.02,0.84,1.33c0.48,0.3,0.29,1.05,0.85,1.32c0.49,0.23,0.36,0.83,0.68,1.15c0.38,0.38,0.82,0.72,0.85,1.33
	c0.6,0.41,0.81,1.1,1.19,1.66c0.38,0.56,0.71,1.2,1.21,1.64c0.45,0.39,0.24,1.1,0.82,1.35c0.58,0.25,0.4,0.98,0.84,1.33
	c0.36,0.29,0.59,0.64,0.72,1.14c0.12,0.48,0.85,0.62,0.91,1.31c0.02,0.31,0.52,0.56,0.74,0.88c0.17,0.24,0.19,0.58,0.36,0.8
	c0.32,0.42,0.69,0.76,0.89,1.32c0.19,0.53,0.79,0.87,1,1.5c0.15,0.47,0.91,0.65,0.81,1.34c0.7,0.43,0.78,1.34,1.37,1.82
	c0.63,0.51,0.68,1.36,1.32,1.89c0.36,0.3,0.39,0.97,0.88,1.29c0.4,0.27,0.2,0.92,0.68,1.15c0.56,0.27,0.44,0.96,0.84,1.34
	c0.33,0.31,0.81,0.56,0.69,1.15c0.7,0.43,0.77,1.34,1.36,1.83c0.62,0.51,0.7,1.34,1.32,1.88c0.35,0.31,0.43,0.93,0.87,1.3
	c0.41,0.34,0.31,1.04,0.86,1.32c0.48,0.24,0.23,0.9,0.68,1.16c0.51,0.29,0.55,0.9,0.86,1.32c0.31,0.43,0.75,0.72,0.87,1.33
	c0.08,0.41,0.77,0.56,0.83,1.08c0.07,0.63,0.87,0.79,0.93,1.28c0.06,0.58,0.46,0.79,0.75,1.14c0.34,0.41,0.32,1.04,0.84,1.33
	c0.51,0.29,0.28,1.06,0.85,1.32c0.49,0.23,0.38,0.82,0.68,1.15c0.36,0.4,0.75,0.73,0.88,1.32c0.09,0.41,0.77,0.55,0.83,1.09
	c0.07,0.62,0.87,0.78,0.92,1.28c0.06,0.58,0.48,0.78,0.76,1.14c0.33,0.41,0.33,1.02,0.84,1.33c0.49,0.3,0.29,1.05,0.85,1.32
	c0.49,0.23,0.36,0.83,0.68,1.15c0.38,0.39,0.74,0.74,0.88,1.32c0.1,0.42,0.77,0.55,0.83,1.09c0.07,0.61,0.87,0.77,0.92,1.29
	c0.06,0.58,0.49,0.77,0.76,1.13c0.32,0.42,0.34,1.02,0.84,1.33c0.48,0.3,0.29,1.06,0.85,1.32c0.49,0.23,0.35,0.84,0.68,1.15
	c0.39,0.38,0.8,0.74,0.85,1.33c0.61,0.4,0.8,1.11,1.19,1.66c0.39,0.56,0.71,1.2,1.21,1.64c0.44,0.39,0.24,1.1,0.82,1.36
	c0.57,0.25,0.4,0.98,0.84,1.33c0.37,0.29,0.58,0.66,0.72,1.14c0.14,0.48,0.86,0.62,0.9,1.31c0.02,0.31,0.52,0.56,0.75,0.88
	c0.17,0.24,0.19,0.58,0.36,0.8c0.32,0.42,0.75,0.72,0.88,1.33C426.65,237.99,427.27,238.18,427.54,239.02"/>
<path class="st3" d="M415.99,293.22c0-0.06-0.02-0.15,0-0.17c0.49-0.35,1.31,0.11,1.65-0.64c0.7,0.29,1.16-0.54,1.71-0.44
	c0.73,0.13,1.03-0.81,1.72-0.52c0.53-0.26,1.11-0.46,1.58-0.79c0.51-0.36,1.35,0.17,1.65-0.65c0.65,0.12,1-0.75,1.73-0.51
	c0.18,0.06,0.48-0.32,0.75-0.44c0.47-0.22,1.06-0.28,1.41-0.61c0.42-0.4,0.98-0.16,1.27-0.39c0.43-0.34,0.99-0.36,1.39-0.74
	c0.31-0.29,0.87-0.26,1.15-0.66c0.6,0.12,0.85-0.68,1.45-0.54c0.24-0.48,0.81-0.37,1.17-0.66c0.4-0.32,0.9-0.49,1.37-0.71
	c2.42-1.12,4.75-2.41,7.14-3.57c0.45-0.22,1.08-0.24,1.34-0.81c0.26-0.57,1.07-0.27,1.33-0.85c0.61,0.16,0.85-0.69,1.46-0.53
	c0.84-1.17,2.5-1.18,3.34-2.35c0.41-0.01,0.75-0.16,0.98-0.51c0.57,0.34,0.65,1.07,1.06,1.41c0.58,0.49,0.59,1.25,1.14,1.72
	c0.46,0.39,0.8,0.87,1.09,1.45c0.29,0.57,0.8,1.08,1.14,1.69c0.3,0.54,0.99,0.74,1.14,1.45c0.15,0.67,1.07,0.91,1.05,1.72
	c0.48,0.4,0.77,0.92,1.04,1.48c0.3,0.61,1.1,0.86,1.26,1.64c0.12,0.61,1.05,0.74,0.95,1.52c0.48,0.52,0.96,1.04,1.44,1.56
	c-0.12,0.73,0.8,0.85,0.85,1.47c-2.8,0.23-25.41,0.29-47.13,0.13C416.42,293.37,416.16,293.47,415.99,293.22"/>
</svg>
