<?xml version="1.0" encoding="utf-8"?>
<!-- Generator: Adobe Illustrator 23.0.1, SVG Export Plug-In . SVG Version: 6.00 Build 0)  -->
<svg version="1.1" id="Layer_1" xmlns="http://www.w3.org/2000/svg" xmlns:xlink="http://www.w3.org/1999/xlink" x="0px" y="0px"
	 viewBox="0 0 7096.5 1920.7" style="enable-background:new 0 0 7096.5 1920.7;" xml:space="preserve">
<style type="text/css">
	.st0{clip-path:url(#SVGID_2_);fill:#6C6D71;}
	.st1{clip-path:url(#SVGID_2_);fill:#3AB44A;}
	.st2{clip-path:url(#SVGID_2_);fill:#4AAF57;}
	.st3{clip-path:url(#SVGID_2_);fill:#2B833E;}
	.st4{clip-path:url(#SVGID_2_);fill:#4AB157;}
	.st5{clip-path:url(#SVGID_2_);fill:#48B056;}
	.st6{clip-path:url(#SVGID_2_);fill:#4CB159;}
	.st7{clip-path:url(#SVGID_2_);fill:#218737;}
</style>
<g>
	<defs>
		<rect id="SVGID_1_" y="0" width="7096.5" height="1920.6"/>
	</defs>
	<clipPath id="SVGID_2_">
		<use xlink:href="#SVGID_1_"  style="overflow:visible;"/>
	</clipPath>
	<path class="st0" d="M2809,1902.4c29-49.9,57.7-100.1,87.1-149.8c22.9-38.7,47.7-76.2,69.5-115.4c12.8-22.9,28.9-37,54.6-45.6
		c159.9-53.4,276.5-158.8,354.5-306c35.3-66.5,57.6-138.3,63.3-214.4c1.8-24.5,9.1-48.3,7.6-73.4c-8.5-137-43.1-264.2-129.4-375.3
		c-69.7-89.7-156.2-156.1-260-203.2c-58-108-116.2-216.3-175.7-327c42.1-9.6,80.7,0.5,118,8.4c75.2,16,149.1,38.5,217.5,73.7
		c67.2,34.5,130.5,75.3,189.7,123.6c102.8,83.8,179.2,186.9,238.1,303.4c39.2,77.4,64.9,160,77.4,246.6
		c8.3,57.6,18.7,115,15.5,173.1c-6.4,117.5-28.8,231.3-76.1,340.4c-29.6,68.3-66.2,132.2-110.4,190.9
		c-49.2,65.3-105.6,124.9-172.4,173.8c-77.7,57-160.9,103.8-251.4,136.9c-51.6,18.9-104.8,33-159.5,40.3c-20.6,2.7-42,3.7-59.5,17.3
		h-53C2842.6,1906,2814.8,1931.2,2809,1902.4"/>
	<path class="st0" d="M2809,1902.4c4.1,13.9,15.7,8.5,24.8,9.5c7.8,0.8,17.7-3.4,20.4,8.8h-53
		C2801.3,1913.5,2798.8,1905.2,2809,1902.4"/>
	<path class="st1" d="M5320.9,1164.2c-0.8,1.1-1.6,2.1-2.4,3.2c0.2,1.6,0.3,3.2,0.4,4.8C5321.7,1169.4,5322.4,1166.7,5320.9,1164.2"
		/>
	<path class="st1" d="M5682.2,1306.1c7.5-8.3,14.7-16.5,21.4-24.8L5682.2,1306.1z"/>
	<path class="st1" d="M5864.4,766.8c-0.9-42.9-6.5-86.3-14.1-129.3c-19.3-109.1-70.9-197.5-155.9-268.2
		c-83.8-69.5-182.5-102.3-288-111.2c-79.9-6.7-160.8-8-241.2,6.3c-67.4,12-132.8,29.6-195.6,56.3c-93.5,39.8-175,98.3-250.1,165.8h0
		c0,0,0,0,0,0c-11.7-2-9.6-11.5-10.5-19.3c0,0,0,0,0,0c15.7-35.8,35.9-69.1,55-103c15.4-27.5,29.6-55.6,46.4-87.4h-337.6
		c-9.2,6.8-14.9,14.9-19.7,24.1c-21.5,41-43.9,81.7-65.6,122.5c-60.5,113.8-120.7,227.7-181.4,341.3c-25.7,48.3-52.5,96-78.9,144
		c0,0,0,0,0,0c-6.4,5.8-12.5,6.5-18.1-1c-0.7-14.6-9.3-27-9.5-42.4c-0.5-56.7-12-112.7-20.2-168.4c-10.7-74.4-20.6-148.9-30.7-223.4
		c-7.6-55.9-20.3-111.5-20.4-168.4c-0.1-11.7-6-22.1-13.6-28.7h-488.8c-2.8,49.6,6.6,92.3,39.9,129.6c52.9,59,92.1,128,124.2,199.3
		c31.8,70.7,53.8,145.2,68.6,222.7c16,84.5,16.3,168.4,12.7,252.6c-1.2,28.3-3,58.1-9.6,86.2c-14.1,60.2-27.3,120.7-50.4,176.4
		c17.3,60.3,16.4,122.2,38.1,181.1H4111c58.5-103,116.1-203.6,172.9-304.8c45.5-80.9,87.9-163.6,135.7-243.2
		c19.3-32.1,30.9-69.1,58.3-96.4c5-1.7,10.1-3.3,15.1-5c1.5,2.2,3,4.5,4.6,6.8c0,0,0,0,0.1,0c0,0,0,0,0,0.1
		c-0.9,13-0.7,26.4-2.8,39.2c-6.9,39.9-14.1,79.6-15.1,120.2c-0.8,30.6,4,60.7,7.3,91.1c5.6,51,18.8,99.3,41.3,144.7
		c45,90.8,120.1,153.1,205.9,202.4c90.1,51.8,191.9,62.3,292.9,70c53.5,4.1,107.5,2.3,161.7-5.8c54.4-8.1,107.6-19.6,160.4-34.5
		c76.9-21.8,146.6-57.1,212.4-100.2v-0.1c0.6-0.3,1.2-0.7,1.8-1.1l0.6-0.4c4.9-3.2,9.6-6.5,14.3-9.6c40.7-28.7,75.1-60.2,103.8-91.6
		l21.4-24.8c0.2-0.1,0.3-0.3,0.3-0.3c1.1-1.3,2.2-2.7,3.3-4c1.1-1.3,2.1-2.6,3.2-3.9c0.1-0.2,0.3-0.3,0.4-0.5
		c0.9-1.1,1.8-2.3,2.7-3.4c1-1.3,2.1-2.6,3.1-3.9c2-2.6,4-5.2,6-7.8c1-1.3,1.9-2.6,2.9-3.9c0.8-1,1.5-2,2.3-3c0.7-0.9,1.3-1.8,2-2.7
		c15.1-20.7,27.7-40.4,38-58.1c0.3-0.6,0.7-1.2,1-1.7c1-1.7,2-3.4,2.9-5.1c0.4-0.7,0.8-1.5,1.3-2.2c0.8-1.5,1.6-2.9,2.4-4.4
		c0.5-1,1.1-1.9,1.6-2.9c0.5-0.8,0.9-1.6,1.3-2.4v0c0.4-0.8,0.9-1.6,1.3-2.4v0c0.4-0.8,0.8-1.6,1.3-2.4c0.4-0.8,0.8-1.6,1.2-2.3
		c0.1-0.2,0.2-0.4,0.3-0.6c0.4-0.7,0.7-1.4,1.1-2.1c0.4-0.7,0.7-1.3,1-2c0.9-1.8,1.8-3.5,2.6-5.1c0.3-0.5,0.5-1,0.8-1.6
		c0.5-1.1,1.1-2.2,1.6-3.3c0.3-0.5,0.5-1.1,0.8-1.6c0.3-0.7,0.6-1.3,1-2c1.9-4,3.6-7.6,5.1-11l0.6-1.3l0,0l8.5-20.3l0.4-0.9l-0.6,0
		l-431.3-28.3h-0.5c-4.8-0.2-9.6-0.5-14.4-1c-7.1,31.7-30.8,51.1-41,78.2c1.4,1,2.5,1.9,3,3c1.5,2.5,0.8,5.1-1.9,8
		c-0.2-1.6-0.3-3.2-0.4-4.8c-0.2-2.1-0.4-4.2-0.6-6.2c-21.1,15.3-40.5,34.4-63.8,45.4c-56.5,26.6-116.1,34.5-178.2,19
		c-54.5-13.5-90.7-55-92.8-111.4c-1-24.9,0.4-49.9,0.2-74.8c-0.1-16.5,3.3-31.5,18.3-44.8h826.2c3.7-7,7.8-11.8,8.9-17.1
		C5851.4,907.9,5865.8,837.9,5864.4,766.8 M5380.6,757c-107.1,0-216.7,0.2-326.3-0.3c-5-0.1-10.1-5-17.9-9
		c40.1-159.9,115.2-226.6,270.7-209.2c74.3,31.1,91.6,57.4,91.5,139C5398.5,721.6,5398.5,721.6,5380.6,757 M5842.3,629.5
		c-0.2-1.1-0.4-2.1-0.7-3.1c0.4,0.4,0.8,1,1.2,1.4C5842.7,628.3,5842.4,628.9,5842.3,629.5"/>
	<path class="st0" d="M6827.5,1290.5c35.1,76.2,69.9,152.4,104.8,228.6c-31.1,6.8-483,8.8-548.2,2.5
		c-50.2-131-100.5-262.2-152.9-399.1c-111.4,136.7-218.7,268.5-326.7,400.9h-391.3l282.5-328.3c13.4-13,25.1-27.8,36.7-42.6l0.1-0.1
		c9.5-12,18.9-24.1,29.4-35.2c49.8-53.2,96.4-109.5,142.2-166.3c24.5-30.3,55.1-56.1,72.8-90.8c-90.3-194.8-180-388.3-270.7-584h543
		c38.1,92.5,72.8,189.6,110.2,292.8c48.4-46.9,82.3-98.5,120.8-146.3c39.4-48.7,79.2-97,119.3-146.1h396.9
		c-158.4,188.7-314,374.1-473.2,563.9c27.3,75.8,66.6,149.6,100.5,225.7C6757.2,1141.2,6793,1215.6,6827.5,1290.5"/>
	<path class="st1" d="M2730.6,969.6c-26.2-34.8-42.9-75-64.2-112.6c-70.7-125-139.5-251.1-209.3-376.6
		c-82.4-148.3-165.1-296.5-247.5-444.8c-5.6-10.1-10.4-20.8-17.7-35.6c198.9,1.5,395.2-1,596.3,13.2c24.5,45.3,51.2,94.8,77.9,144.3
		c86.2,159.6,172.3,319.2,258.6,478.8c53.2,98.3,107.4,196.1,159.8,294.8c7.8,14.7,21.5,28.1,19.3,47.3c-8.1,7.6-18,11-28.9,12
		c-55.1,2.7-109.7,17-165.3,6.1c-55.8-11.9-112.3-3.2-168.4-5.6c-52.4-0.3-104.7,0.2-157.1-0.3
		C2763.7,990.4,2742.5,991.6,2730.6,969.6"/>
	<path class="st0" d="M2384.8,1458.3c-52.1,82-102.6,161.4-154,242.4c-15-2.9-26.4-11.1-36.9-21
		c-106.1-100.3-189.9-215.6-240.5-353.4c-29-78.9-49.9-159.2-55.6-244c-2.2-33.2-7-66.6-5.8-99.9c4.1-112,26.3-220.2,68.1-324.8
		c52.2-130.7,132.2-241.8,235-337c26.3-24.4,53.4-48.8,87.2-65.3c46.9,83.9,92.7,165.9,140.8,252.2
		c-146.2,119.9-230.1,275.9-238.2,464.6C2176.9,1161,2243.8,1324.6,2384.8,1458.3"/>
	<path class="st2" d="M1900.7,1508.4c-0.7,4.3-1.3,8.6-2.3,14.5h-461.8c-8.8-7.9-5.8-17.6-4.3-25.3c14.8-77.9,30.3-155.7,45.7-233.6
		c10.9-55.1,22-110.3,33.2-165.4c13.7-67.8,30.1-135.2,40.7-203.5c9.3-60,28.6-118.3,30.1-179.5c0.4-16,11-30,7.5-47
		c-7.2-35-18.4-48.7-60.2-68c-23.7,0.9-47.7,1-72.7,6c-49.2,9.7-77.9,39.9-94.1,82.2c-26.9,70.2-43.6,143.3-55.1,217.7
		c-9.7,62.7-21.4,125.3-36,187.1c-16.6,70.3-28.4,141.4-42.6,212.1c-12.6,62.2-23.8,124.8-36.1,187.1c-1.9,9.7-6.5,19-10.4,30H718
		c-6.5-25.9,5.8-49.3,9.9-72.3c14-79.4,34.8-157.6,48.8-237.1c20.9-119.4,47.2-237.7,69.6-356.6c11.2-59.4,26.5-119.2,21.8-181.3
		c-4.3-56.2-15.4-72-69.3-82.8c-45.3-9-110.4,17.2-133.7,56.6c-11.6,19.7-21.6,40.7-28.8,63c-17,52.5-22.3,107.3-34.2,160.8
		c-18.4,83.1-35.4,166.5-50.2,250.3c-11.6,65.4-24.7,130.4-38.1,195.5c-11.6,56.5-20.3,113.6-34.6,169.5c-2.5,9.7-1.9,20.2-2.9,32.8
		c-39,7.8-78.5,2.4-117.5,3.4c-41.2,1-82.4,0.2-123.7,0.2c-39.7,0-79.5,1.1-119.2-0.3c-38.2-1.4-77.7,7.1-115.8-6.5
		c7.5-34.6,13.6-62.4,19.6-90.3c5.5-2.3,9.8-0.9,12.8,4.1c11.2,18.5,2.1,40.8,15.4,69.2c129.5,3.9,263.3,1.6,397.4,1.5
		c22.4-68.1,32.9-131.6,45.4-194.5c37.5-189.8,70.6-380.4,111.7-569.6c7.9-36.3,20.7-70.4,40.6-101.7c47.4-74.3,141.1-78,196.3-57.2
		c29.8,11.2,44.1,36.5,51.9,66.7c12.6,48.8,3.3,97.4-6.5,144c-40.3,192.1-74.1,385.5-114.3,577.7c-8.6,40.9-20.7,82-19.1,133.7
		c135.4,2.2,268,2.2,399.8-0.2c35-55.1,33.7-114.3,45.2-169.2c38.8-186.5,71.8-374.2,112.2-560.4c8.7-40.3,24.1-78.7,42.9-115.3
		c27.3-53.3,104.8-92.2,163.7-84.3c58.8,7.9,93.4,46.9,97.3,107.2c3.2,50.8-11.4,99.2-21.1,147.7c-38.9,195.4-74.4,391.5-116,586.4
		c-5.4,25.5-9.9,51.7-4.6,88.2c142.2-0.2,285,7.8,428-5.8C1904,1499.2,1904.7,1503.4,1900.7,1508.4"/>
	<path class="st3" d="M3278.2,978.7c8.5-0.1,17-0.1,25.5-0.2c-1.8,30.8-23.9,52.1-38.2,76.4c-87.1,147.7-175.9,294.4-264.2,441.4
		c-81.5,135.8-162.9,271.7-244.5,407.4c-2.1,3.5-5.7,6.2-8.6,9.3c-23.7,0.1-47.3,0.1-71,0.2c-20.6,0-41.2,0-61.8,0.1
		c-5.8-0.4-11.7-1.4-17.5-1.2c-140.9,2.7-281.4-12.1-422.3-8.9c-5.6,0.1-11.3-1-21.9-2.1c22.9-36.9,43.6-71,65.1-104.6
		c143.9-225.3,287.9-450.5,431.9-675.8c26.6-41.6,53.4-83.1,80.2-124.6c10.1-18.4,27.8-12.7,43-12.8c55.4-0.5,110.8-0.2,166.2-0.2
		c41.6,0,83.2,0.1,124.7-0.1c4.3,0.5,8.7,0.7,11.6,7.9c-10.2,19.7-30.7,16.1-48.6,16.3c-75.1,0.8-150.1,1-225.2,0
		c-30.6-0.4-51.8,8.6-69.2,36.1c-102.9,162.4-206.3,324.5-310.2,486.3c-55.5,86.4-110.5,173.2-167.5,258.6
		c-16.2,24.3-30.9,49.2-41.5,73.7c6.1,11.3,13.8,11.7,20.9,11.5c139.7-2.5,279,15.3,418.8,10.5c8.9-0.3,17.9-0.6,26.3,1.9
		c38.4,11.7,59.3-6.7,78.3-38.2c140.8-233.9,278.7-469.4,420.6-702.6C3212.8,1090,3243,1032.8,3278.2,978.7"/>
	<path class="st4" d="M5318.9,1172.2c-0.2-1.6-0.3-3.2-0.4-4.8c-0.2-2.1-0.4-4.2-0.6-6.2c1.4,1,2.5,1.9,3,3
		C5322.4,1166.7,5321.7,1169.4,5318.9,1172.2"/>
	<path class="st5" d="M5318.9,1172.2c-0.2-1.6-0.3-3.2-0.4-4.8c-0.2-2.1-0.4-4.2-0.6-6.2c1.4,1,2.5,1.9,3,3
		C5322.4,1166.7,5321.7,1169.4,5318.9,1172.2"/>
	<path class="st5" d="M5805.3,1113.3c-0.1,0.2-0.1,0.4-0.2,0.6l0,0c-0.1,0.2-0.2,0.4-0.3,0.7c-0.2,0.5-0.4,1-0.6,1.7
		c-0.1,0.3-0.2,0.6-0.4,0.9c0,0,0,0,0,0c-0.2,0.5-0.4,1-0.6,1.5c0,0-0.1,0.1-0.1,0.2c-0.2,0.6-0.5,1.1-0.7,1.8
		c-0.3,0.6-0.5,1.3-0.8,2c-0.3,0.7-0.7,1.5-1,2.3c-0.3,0.6-0.6,1.3-0.8,2c-0.1,0.2-0.2,0.4-0.3,0.7c-0.2,0.4-0.4,0.9-0.6,1.4v0
		c-0.2,0.4-0.3,0.7-0.5,1.1c-0.3,0.8-0.7,1.5-1,2.3v0c-0.2,0.4-0.4,0.8-0.5,1.2L5805.3,1113.3z"/>
	<path class="st6" d="M27.3,1427.5c-2.6,0-5.1,0-7.7,0c73.8-384.8,147.6-769.7,220.8-1151.3c4.1-3.7,5.2-4.7,6.4-5.6
		c1.2-0.9,2.4-2.2,3.6-2.3c132.2-6.3,264.4-1.3,396.7-2.7c10-0.1,20.5-2.6,32.5,5.1c-2.5,38.7-16.8,77.1-17,117.3
		c-4,10.5-8.9,21.5,10.5,19.3c48.8-44,98.8-86.6,160.1-112.9c51-21.8,103.1-39.9,159.7-38.6c51.1,1.2,102.1-4.3,153.1,8.5
		c85.2,21.5,151.1,65.5,190.6,145.7c5.4,11,7.9,25.9,23.2,29.8c0.8,2.3,1.6,4.6,2.4,6.9c-19.5,16.7-31.6,0.5-38-12.5
		c-93.7-191.2-364.1-188.8-518.1-96.9c-39.5,23.6-73.1,54.2-108.4,82.9c-12.4,10.1-23.7,22.1-44.8,22.2
		c-41.2-42.1-5.1-90.9-8.8-145.4c-125.4-3.8-250.2-2-373.5-1.2c-25.1,48.4-25.2,94.9-34.4,138.8c-37.3,177.9-68.9,356.9-103.3,535.4
		c-25.8,133.9-53.5,267.4-76.7,401.7C52.4,1393.1,51.2,1416.3,27.3,1427.5"/>
	<path class="st4" d="M1900.7,1508.4l-0.8-10.5c-17.7-21-11.9-44.9-5.7-67.1c9.2-32.8,4.5-62.8-6.2-94.5
		c-103.6-309.5-72.2-603.4,105.3-879.5c40.9-63.6,38-87.5-27.8-127c-82.7-49.5-174.5-61.3-268.5-49.1
		c-109.5,14.2-205.8,58.1-284.1,138.2c-13.2,13.5-25.7,34.7-51.4,22.7l-1.7-1.7c40.5-44.2,81.8-87.1,134.2-118.5
		c64.9-38.9,134.8-60.2,209.7-64.7c39.6-2.4,79.5-1.4,119.2-0.3c58,1.6,110.5,21.2,160.1,50.2c38.3,22.4,62.3,55.7,77.7,96.6
		c-28.7,46.5-62.3,88.5-87.9,135.9c-46.3,85.9-78.6,176.2-99.8,271.3c-20.9,93.8-21.4,188.6-15.2,283c4.8,73.2,20.2,146,48.5,214.6
		c18.8,45.6,27.8,91.6,10.7,139C1909.7,1467.2,1914.7,1490.3,1900.7,1508.4"/>
	<path class="st1" d="M2942.5,987.1c-56.8,0-113.6,0.2-170.4,0.1c-14.5,0-29-1.2-41.2,8.8c-0.1-8.8-0.2-17.6-0.3-26.4
		c12.3,9.4,26.6,9,41.2,9c56.9-0.3,113.8-0.1,170.7-0.1c2.9,1.9,3.9,3.9,2.9,5.8C2944.4,986.2,2943.5,987.1,2942.5,987.1"/>
	<path class="st1" d="M673.1,407.3c-2.7,7.3-8.2,11.5-16.6,15.5c-1.2-13-8.3-25.4,6.1-34.8C664.1,395.5,661.6,405.1,673.1,407.3"/>
	<path class="st1" d="M4127.1,908.9C4127.1,908.9,4127.1,908.9,4127.1,908.9c-6.4,5.9-12.5,6.5-18.1-1
		C4115,908.2,4121,908.5,4127.1,908.9"/>
	<path class="st7" d="M3278.2,978.7c1.8,3.9,3.6,7.8,5.9,12.5c-181.2,302.9-362.9,606.7-542.4,906.8c-40.9,17.4-78.1-20.5-115.2,4.5
		c-10.4-0.3-18.8-9.6-31.8-8.8c-117.1,7.1-233.6-13.6-350.7-8.4c-15.9,0.7-31.9,0.1-45.9,0.1c-8.2-8.1-8.5-15.8-4.6-21.9
		c33-51.6,66.3-102.9,99.8-154.1c56-85.6,115.7-169.1,167.3-257.3c39-66.7,81-131.5,123.2-195.8c34.4-52.4,66-106.5,100-159.1
		c17.3-26.7,43.5-48.8,50.9-82.2c1.7-7.5,11.1-13.2,16.3-19c101,0,199.5,0.2,297.9-0.3c9,0,21.4,6.4,26-8.4
		c11.7-6.7,23.5-6.4,35.3-0.3C3166.8,994.2,3222,976.7,3278.2,978.7"/>
	<path class="st1" d="M3110.3,987.1c-11.8,0.1-23.5,0.2-35.3,0.3c-44.2-0.1-88.4-0.2-132.6-0.2c0-2.9,0-5.8,0-8.7
		c48.9,0,97.9-0.1,146.8,0.1C3097.3,978.6,3107.2,974.9,3110.3,987.1"/>
	<path class="st1" d="M1361.5,441.6c11.8,1.6,18.8-5.8,26.1-13.3c9.2-9.5,18.6-18.8,28-28c71.6-69.9,157.5-109.6,256.1-127.6
		c39.4-7.2,78.3-9.8,116.8-6.6c71.1,6.1,140.7,19.1,200.4,64.3c26,19.7,43.5,42.6,54.3,74.2c-42.5,59.3-83.4,119.7-112.4,186.9
		c-33.1,76.9-61.5,155-76.2,238.3c-6.4,36.3-6.6,71.8-7.3,107.7c-0.3,14.6,0.6,29-10.8,41.3c21.8,43.9,6.3,89.8,9.3,134.5
		c3,44.6,23.2,86.2,19.5,124.9c18.6,52.3,35.2,99,52.8,148.6c-11.8,34.1-21.9,71.4-18.3,110.8c-8.3,5.8-16.5,11.6-24.9,17.5h-420.7
		c-8.6-18.2-2.9-34.6,2.9-53c5-16.1,1-34.9,1-52.3c6-11.8,11.8-23.3,18.2-35.8c-1.9-29.5-1.5-59.9,13.3-87.6
		c4.6-8.6,4-16.9,3.8-25.4c-0.4-16.1,2.3-30.9,8.2-46.2c6.6-17.1,13.2-35.1,9.8-54.6c-1.8-10.3,4.2-19.3,6.8-28.8
		c5.2-19.1,14.9-37.7,11-58.9c-1.5-8.2,0.2-16.5,4.3-25.2c10.5-22.3,15.8-46,13.2-71.2c-0.9-8.4,0.5-16.6,4.1-25.3
		c8.7-21.1,16.9-42.9,13.5-66.7c-0.6-4.3-1.6-9.7,0.3-13c25.3-43.4,15.5-94.9,33.3-140.8c8.9-23,1.6-52.2,1.5-78.6
		c-6.5-12.8-13.1-25.5-20.5-40.2c-17.3-8.9-36.5-18.6-53.9-27.5c-39.6-12-70.4,17.2-105.6,16.5c-16.7,10.8-25.9,29.4-46.7,37.3
		c-57.5,110-73.5,232.8-90.1,355.6c-5.8,11.5-11.6,23-18.8,37.3c10.5,43.1-24.7,82.8-17.6,128.5c0.4,2.9,1,6.3-0.1,8.7
		c-16.5,34.2-19.3,72-25.5,108.4c-8.6,50.4-22.8,99.7-28.2,151c-3,28.9-14.7,57-22.7,86H738.6c-15.9-27.1-2-55.5,6.6-78.2
		c9.2-24.4-0.4-48.8,11.5-72c10.3-20.1,16.4-43.3,12.3-66.8c-2.2-12.9,7.5-21.4,9.8-32.7c3-15.3,10.2-29.6,8.4-46.2
		c-1.2-11.4,2.5-22,6.5-33.3c7.1-19.8,14.3-40.7,11.2-63.1c-1.5-11.3,2.5-22.1,6.1-33.4c5.8-18.6,16-37.3,11.6-58.6
		c-2.1-10,3-19.2,6.1-29c6.4-20.2,15.5-40.6,11.4-63c-1.6-9,4-16.5,6.2-24.6c5.6-20.5,15.6-40.5,11.5-63c-1.6-8.8,3-16.4,5.9-24.7
		c7.5-21.5,16.3-43.6,11.4-67.2c-3.8-18.4,10-32.3,9.8-50.5c-0.3-29.1-3.5-57.3-17.1-93.8c-15.8-23.4-45.8-36.1-84.4-31.7
		c-16,1.8-32.3,0.3-48.9,0.3c-25.3,12.1-53.1,22.2-70.8,45.2c-29.9,38.8-46.9,84.2-52.5,132.4c-2,17.3-7.1,33.5-9.9,50.3
		c-7.9,46.2-27.7,90.1-26.3,138c0.1,4.4,1.6,9.8-0.3,13c-25.9,43.3-10.7,96.6-34.8,140.2c-1.7,73.3-27.4,142.5-37.5,214.6
		c-5.9,42.7-11.3,87.5-28.7,128.3c-8,18.7-1.7,37.4-5.5,56.6c-5.6,10.7-14.6,15.2-28.1,15.1c-130.9-0.5-261.9-0.4-392.8-0.1
		c-11.2,0-20.2-2.2-28.3-15.4c11.8-21.4,7.9-47.3,8.3-72.8c10-23.8,21.4-47.5,17.3-74.2c-2-12.9,7.8-21.8,8.7-32.9
		c4.2-54.2,19.1-106.7,29.1-159.7c8.9-47.4,16.7-95.1,26.2-142.5c8.6-43.2,18.1-86.3,26.9-129.3c9.6-47,10.4-96.2,29.5-141.6
		c9.9-23.7,4.8-50.5,11.3-76.1c13-50.9,14.4-104.8,29.2-155c12.6-42.9,12-88.2,26.8-129.2c10.1-28-0.8-58,15.4-84.1
		c3.7-6,6.3-12.5,13.5-18.5h400.3c2.4,17,3.7,31.2-4.8,46.9c-14.1,26.3-10.8,56.1-11.2,85c-0.1,10.2,4.4,16.5,13.4,23.7
		c24.6-23.4,51.8-44.7,76.9-67.9c32.5-30,70.7-49.7,108.8-69.6c36.6-19.2,80.2-19,117.6-37.3c58,3.2,117.1-9.8,173.8,10.4
		c29.3,10.4,61.2,15,87.3,32.8c44.7,30.6,85.1,65.5,108,116.4c4.2,9.2,7.5,19,17.6,24.4C1355.1,450.7,1359.7,448.4,1361.5,441.6"/>
	<path class="st5" d="M5703.6,1281.3c-6.7,8.2-13.9,16.4-21.4,24.8L5703.6,1281.3z"/>
	<path class="st1" d="M5563.5,1407.8c-0.6,0.4-1.2,0.8-1.8,1.2v-0.1C5562.3,1408.6,5562.9,1408.2,5563.5,1407.8"/>
	<path class="st1" d="M5703.6,1281.3c-6.7,8.2-13.9,16.4-21.4,24.8L5703.6,1281.3z"/>
	<path class="st1" d="M5796.8,1133.5c-1.7,3.7-3.6,7.8-5.8,12.3c1.9-4,3.6-7.6,5.1-11L5796.8,1133.5z"/>
	<path class="st1" d="M5805.7,1112.4c-0.1,0.3-0.3,0.8-0.5,1.4l0,0c-0.1,0.2-0.2,0.4-0.3,0.7c-0.2,0.5-0.4,1-0.6,1.6
		c-0.1,0.3-0.2,0.6-0.4,0.9c0,0,0,0,0,0c-0.2,0.5-0.4,1-0.6,1.5c0,0.1,0,0.1-0.1,0.2c-0.2,0.6-0.5,1.2-0.7,1.8
		c-0.3,0.6-0.5,1.3-0.8,2c-0.3,0.7-0.6,1.5-1,2.3c-0.3,0.6-0.6,1.3-0.9,2c-0.1,0.2-0.2,0.4-0.3,0.7c-0.2,0.4-0.4,0.9-0.6,1.4v0
		c-0.2,0.4-0.3,0.7-0.5,1.1c-0.3,0.8-0.7,1.5-1,2.3v0c-0.2,0.4-0.3,0.8-0.5,1.2l8.5-20.3L5805.7,1112.4z"/>
	<path class="st1" d="M5805.8,1112c0,0.1,0,0.3-0.1,0.4l-0.6,0L5805.8,1112z"/>
</g>
</svg>
