<?xml version="1.0" encoding="utf-8"?>
<!-- Generator: Adobe Illustrator 25.3.1, SVG Export Plug-In . SVG Version: 6.00 Build 0)  -->
<svg version="1.1" id="Layer_1" xmlns="http://www.w3.org/2000/svg" xmlns:xlink="http://www.w3.org/1999/xlink" x="0px" y="0px"
	 viewBox="0 0 1462.8 550.34" style="enable-background:new 0 0 1462.8 550.34;" xml:space="preserve">
<style type="text/css">
	.st0{fill:#292868;}
	.st1{fill:#ED2954;}
</style>
<g>
	<path class="st0" d="M0,201.18C0,91.8,96.91,0,211.94,0c115.05,0,211.95,91.8,211.95,201.18c0,109.37-96.9,201.74-211.95,201.74
		C96.91,402.91,0,310.55,0,201.18 M310.55,201.18c0-54.98-45.33-101.44-98.61-101.44c-53.27,0-98.59,46.46-98.59,101.44
		c0,55.53,45.32,102,98.59,102C265.21,303.17,310.55,256.71,310.55,201.18"/>
	<path class="st1" d="M702.75,543.54l-82.17-117.3h-33.99v117.3H476.64V154.23h186.44c87.27,0,149.03,56.1,149.03,136.01
		c0,55.54-29.47,99.16-77.06,121.26l92.94,132.04H702.75z M586.58,326.51h67.43c26.07,0,44.76-15.31,44.76-36.27
		c0-20.97-18.69-36.27-44.76-36.27h-67.43V326.51z"/>
	<rect x="874.04" y="154.23" class="st1" width="109.93" height="389.31"/>
	<path class="st1" d="M1038.92,348.61c0-109.38,96.91-201.18,211.95-201.18c115.03,0,211.93,91.8,211.93,201.18
		c0,109.37-96.9,201.74-211.93,201.74C1135.82,550.34,1038.92,457.98,1038.92,348.61 M1349.46,348.61
		c0-54.98-45.33-101.44-98.59-101.44c-53.28,0-98.61,46.46-98.61,101.44c0,55.53,45.33,102,98.61,102
		C1304.13,450.6,1349.46,404.14,1349.46,348.61"/>
	<rect x="17.29" y="425.15" class="st1" width="389.31" height="109.93"/>
</g>
</svg>
