<?xml version="1.0" encoding="utf-8"?>
<!-- Generator: Adobe Illustrator 27.3.1, SVG Export Plug-In . SVG Version: 6.00 Build 0)  -->
<svg version="1.1" id="Layer_1" xmlns="http://www.w3.org/2000/svg" xmlns:xlink="http://www.w3.org/1999/xlink" x="0px" y="0px"
	 viewBox="0 0 383.41 142.33" style="enable-background:new 0 0 383.41 142.33;" xml:space="preserve">
<style type="text/css">
	.st0{fill-rule:evenodd;clip-rule:evenodd;fill:#0094D9;}
	.st1{fill:#105DA9;}
	.st2{fill:#B2B2B2;}
	.st3{fill:#2F2F7E;}
	.st4{fill:#FFFFFF;}
</style>
<g>
	<g>
		<path class="st0" d="M173.99,76.91l-21.43-0.04l-3.38-6.74h12.22l-6.82-12.69l-8.98,19.47h-9.97l12.62-26.05h13.75L173.99,76.91
			L173.99,76.91z M292.79,55.02c4.2,0,7.62,3.96,7.62,8.81c0,4.85-3.42,8.81-7.62,8.81c-4.2,0-7.62-3.96-7.62-8.81
			C285.16,58.98,288.59,55.02,292.79,55.02L292.79,55.02z M292.56,49.07c9.57,0,17.38,6.63,17.38,14.77
			c0,8.13-7.81,14.77-17.38,14.77c-9.57,0-17.38-6.63-17.38-14.77C275.19,55.7,282.99,49.07,292.56,49.07L292.56,49.07z
			 M257.7,55.02c4.2,0,7.62,3.96,7.62,8.81c0,4.85-3.42,8.81-7.62,8.81c-4.2,0-7.62-3.96-7.62-8.81
			C250.07,58.98,253.5,55.02,257.7,55.02L257.7,55.02z M257.47,49.07c9.57,0,17.38,6.63,17.38,14.77c0,8.13-7.81,14.77-17.38,14.77
			c-9.57,0-17.38-6.63-17.38-14.77C240.1,55.7,247.9,49.07,257.47,49.07L257.47,49.07z M199.86,76.8h-25.82V50.98h32.27l6.4,16.27
			l4.76-9.23l-3.12-7.04h13.38l-3.58,6.96l4.72,9.42l6.79-16.38h8.7l-10.63,25.71h-7.44l-5.6-10.33l-4.93,10.33h-7.78l-8.15-19.34
			h-16.54v3.77h14.32v5.77h-14.32v3.87h16.57V76.8L199.86,76.8z M130.46,63.9c0-4.65-2.82-6.97-8.45-6.97h-4.97v13.84h4.48
			c1.91,0,3.52-0.21,4.82-0.63c1.3-0.43,2.3-1.13,2.99-2.12c0.39-0.52,0.68-1.12,0.87-1.79C130.36,65.56,130.46,64.79,130.46,63.9
			L130.46,63.9z M140.1,63.81c0,3.06-0.69,5.56-2.07,7.49c-1.38,1.93-3.05,3.32-5,4.16c-1.95,0.84-3.86,1.37-5.74,1.61
			c-1.75,0.2-3.5,0.3-5.24,0.3l-14.79,0.02V50.3h15.5c3.47,0,6.38,0.44,8.74,1.32c2.36,0.88,4.15,2,5.38,3.37
			c1.22,1.37,2.07,2.81,2.53,4.33C139.86,60.83,140.1,62.32,140.1,63.81L140.1,63.81z"/>
		<path class="st0" d="M49.88,55.54c2.2,0,4.36,0.09,6.48,0.25c-4.7,21.12-5.54,40.41-5.55,59.03c-0.31,0-0.62,0.01-0.93,0.01
			c-0.36,0-0.71,0-1.07-0.01c-0.01-18.61-0.85-37.9-5.55-59.02C45.43,55.63,47.63,55.54,49.88,55.54L49.88,55.54z M46.56,114.76
			c-0.99-0.04-1.98-0.1-2.95-0.17c-0.35-24.27-6.56-39.45-19.95-54.6c3.2-1.18,6.63-2.15,10.25-2.88
			C42.71,74.44,46.03,88.22,46.56,114.76L46.56,114.76z M41.33,114.39c-1.09-0.11-2.18-0.25-3.25-0.4
			c0.12-6.6-0.86-13.56-3.07-18.99C30.77,84.59,22.53,75.28,7.98,69.13c2.22-2.04,4.85-3.9,7.81-5.56
			C27.7,70.32,41.56,88.36,41.33,114.39L41.33,114.39z M35.37,113.54C14.93,109.83,0,98.52,0,85.19c0-3.47,1.02-6.81,2.88-9.92
			c10.21,1.9,20.79,7.63,27.12,16.47C34.24,97.67,36.3,104.85,35.37,113.54L35.37,113.54z M65.71,57.08
			c3.57,0.71,6.96,1.66,10.12,2.82c-13.45,15.19-19.69,30.39-20.03,54.72c-0.91,0.06-1.83,0.12-2.75,0.15
			C53.58,88.21,56.91,74.42,65.71,57.08L65.71,57.08z M83.79,63.48c2.99,1.65,5.64,3.52,7.88,5.55c-14.69,6.14-23,15.5-27.27,25.96
			c-2.22,5.44-3.2,12.42-3.07,19.03c-1.07,0.15-2.15,0.28-3.25,0.39C57.84,88.25,71.84,70.15,83.79,63.48L83.79,63.48z M96.84,75.22
			c1.88,3.12,2.91,6.48,2.91,9.97c0,13.4-15.1,24.77-35.7,28.42c-0.95-8.72,1.11-15.92,5.37-21.87
			C75.81,82.81,86.54,77.05,96.84,75.22L96.84,75.22z"/>
		<g>
			<path class="st1" d="M135.91,87.03v6.01H122c0,0-8.01,0.24-7.31,9.19h21.21v5.66h-21.26v14.14h-7.38v-19.68
				c0,0-1.18-15.91,17.09-15.32H135.91z"/>
			<path class="st1" d="M183.99,87.5c-11.19,0.59-10.96,9.55-10.96,9.55c0.24,11.55,10.02,10.96,10.02,10.96h11.78
				c4.72-0.12,4.13,4.24,4.13,4.24c0.36,4.36-5.65,3.65-5.65,3.65h-23.69l-12.37-28.4h-7.9l-14.61,34.54h7.07l2.71-8.37h16.62
				l3.06,8.37h31.82c12.96-0.83,10.84-12.14,10.84-12.14c-0.24-7.89-9.9-7.78-9.9-7.78h-11.9c-4.36-0.36-4.48-4.36-4.48-4.36
				c-0.35-5.42,6.72-4.83,6.72-4.83h33.12v29.11h7.78V92.92h11.67V87.5H183.99z M147.41,107.5l5.47-12.81l5.64,12.81H147.41z"/>
			<path class="st2" d="M303.04,82.72h-7.13l-9.13,15.54h-1.57L276.8,87.5h-6.13l11.41,16.47l-8.13,12.69H251.7
				c0,0-7.13-0.71-5.85-9.7h20.11v-5.56H245.7c0,0-1.13-7.27,6.43-8.7h14.26v-5.2h-12.98c0,0-15.69,0.38-14.83,17.27
				c0,0-0.29,15.46,12.12,16.46h26.67l7.84-11.27h1.57l19.54,32.37h7.56l-24.4-38.54L303.04,82.72z"/>
		</g>
	</g>
	<g>
		<circle class="st3" cx="335.98" cy="47.43" r="47.43"/>
		<g>
			<path class="st4" d="M310.06,37.59c0-13.37,11.85-24.6,25.91-24.6c14.07,0,25.91,11.22,25.91,24.6
				c0,13.37-11.85,24.67-25.91,24.67C321.91,62.25,310.06,50.96,310.06,37.59 M348.03,37.59c0-6.72-5.54-12.4-12.06-12.4
				c-6.51,0-12.05,5.68-12.05,12.4c0,6.79,5.54,12.47,12.05,12.47C342.49,50.06,348.03,44.38,348.03,37.59"/>
			<rect x="312.18" y="64.97" class="st4" width="47.6" height="13.44"/>
		</g>
	</g>
</g>
</svg>
