<?xml version="1.0" encoding="utf-8"?>
<!-- Generator: Adobe Illustrator 27.3.1, SVG Export Plug-In . SVG Version: 6.00 Build 0)  -->
<svg version="1.1" id="Layer_1" xmlns="http://www.w3.org/2000/svg" xmlns:xlink="http://www.w3.org/1999/xlink" x="0px" y="0px"
	 viewBox="0 0 386.79 144" style="enable-background:new 0 0 386.79 144;" xml:space="preserve">
<style type="text/css">
	.st0{fill:#0047BA;}
	.st1{fill:#2F2F7E;}
	.st2{fill:#FFFFFF;}
	.st3{fill-rule:evenodd;clip-rule:evenodd;fill:#EC1E27;}
	.st4{fill:none;}
	.st5{fill:#221E20;}
	.st6{fill:#4E4D4E;}
	.st7{fill:#479B6C;}
	.st8{fill:#5DBD79;}
	.st9{fill-rule:evenodd;clip-rule:evenodd;fill:#0094D9;}
	.st10{fill:#105DA9;}
	.st11{fill:#B2B2B2;}
	.st12{fill:#18136E;}
	.st13{fill:#006DBA;}
</style>
<g>
	<g>
		<path class="st12" d="M11.84,54.51c1.17-0.49,2.28-1.09,3.46-1.55c2.86-1.1,5.82-1.86,8.82-2.46c1.11-0.22,2.23-0.37,3.34-0.56
			c3.26-0.4,6.54-0.56,9.83-0.46c2.56,0.08,5.12,0.31,7.64,0.8c0.11,0.02,0.22,0,0.33,0c1.61,0.38,3.24,0.69,4.82,1.19
			c0.16,0.05,0.39,0.02,0.4,0.27c-1.86,0.21-3.7,0.41-5.54,0.61c-0.09-0.05-0.16-0.03-0.22,0.05c-1.38,0.2-2.75,0.41-4.13,0.61
			c-0.05,0-0.11,0.01-0.16,0.01c-0.28,0.05-0.56,0.09-0.84,0.14c-1.62,0.21-3.23,0.47-4.82,0.83c-0.05,0.01-0.11,0.01-0.16,0.02
			c-0.12-0.03-0.23-0.02-0.34,0.04c-0.09-0.06-0.14-0.02-0.17,0.07c-0.96,0.05-1.88,0.32-2.82,0.51c-1.28,0.26-2.58,0.46-3.83,0.85
			c-0.05,0.01-0.11,0.02-0.16,0.02c-0.25-0.05-0.45,0.09-0.67,0.16c-1.63,0.27-3.21,0.73-4.8,1.15c-3.03,0.81-6.02,1.74-8.97,2.81
			c-0.13,0.05-0.25,0.12-0.37,0.18c-1.43,0.43-2.78,1.03-4.14,1.64c-2.8,1.25-5.52,2.66-8,4.48C0.28,66,0.18,66.05,0.08,66.1
			c-0.19-0.22-0.01-0.37,0.08-0.52c0.71-1.32,1.6-2.51,2.56-3.66c2.37-2.86,5.23-5.14,8.45-6.97C11.4,54.82,11.55,54.56,11.84,54.51
			z"/>
		<path class="st12" d="M11.62,53.7c-0.01,0,0.04,0.06,0.01,0.15c-0.03,0.09-0.11,0.12-0.19,0.09c-0.04-0.01-0.07-0.08-0.08-0.13
			C11.36,53.73,11.41,53.66,11.62,53.7z"/>
		<path class="st12" d="M60.23,37.01c1.03-0.17,2.07-0.32,3.09-0.51c1.98-0.36,3.97-0.64,5.97-0.84c2.67-0.27,5.34-0.48,8.02-0.43
			c2.85,0.05,5.66,0.4,8.38,1.3c0.65,0.22,1.29,0.47,1.94,0.71c0.79,0.46,1.6,0.86,2.35,1.39c2.25,1.62,3.64,3.82,4.33,6.49
			c0.57,2.18,0.82,4.4,0.77,6.65c-0.07,3.14-0.58,6.22-1.63,9.18c-0.63,1.77-1.5,3.45-2.32,5.13c-2.14,4.38-4.49,8.64-7.28,12.65
			c-1.03,1.48-2.1,2.92-3.31,4.26c-0.09,0.1-0.15,0.23-0.23,0.34c-0.2,0.18-0.4,0.35-0.52,0.59c-0.03,0.05-0.07,0.09-0.11,0.12
			c-0.11,0.02-0.16,0.09-0.18,0.19l0.01-0.01c-0.11,0.01-0.16,0.07-0.16,0.18c-0.21,0.1-0.28,0.31-0.43,0.47
			c-1.2,1.26-2.39,2.53-3.59,3.79c-4.77,5.01-9.65,9.91-14.69,14.64c-0.96,0.91-1.93,1.81-2.9,2.71c-1.02,0.8-1.96,1.68-2.93,2.54
			c-3.9,3.43-7.92,6.71-12.18,9.7c-1.06,0.75-2.14,1.46-3.22,2.19c-0.22,0.15-0.48,0.26-0.64,0.5c-0.8,0.34-1.44,0.92-2.14,1.39
			c-3.55,2.39-7.08,4.8-10.62,7.21c-0.09,0.06-0.15,0.15-0.23,0.23c-0.23,0.06-0.45,0.13-0.49,0.41c-0.03,0.04-0.08,0.05-0.13,0.04
			c-0.3,0.02-0.49,0.23-0.72,0.38c-2,1.37-4.01,2.74-6.01,4.11c-0.07,0.05-0.14,0.08-0.23,0.02c-0.09-0.19,0.07-0.29,0.16-0.41
			c2.03-2.92,4.07-5.84,6.09-8.77c1.03-1.5,2.13-2.95,3.06-4.51c0.15-0.07,0.19-0.23,0.25-0.36c0.42-0.46,0.77-0.97,1.05-1.53
			c0.19-0.09,0.26-0.29,0.36-0.44c1.55-2.25,3.1-4.5,4.64-6.76c0.78-1.14,1.61-2.24,2.31-3.43c0.24,0,0.13-0.22,0.21-0.33
			c0.64-0.72,1.12-1.57,1.66-2.36c0.62-0.91,1.31-1.77,1.81-2.76c0.13-0.1,0.26-0.2,0.28-0.38c0.05-0.02,0.07-0.06,0.06-0.12
			c0.27-0.13,0.13-0.54,0.3-0.61c0.39-0.15,0.45-0.52,0.69-0.77c0.1-0.02,0.15-0.08,0.13-0.18c0.28-0.41,0.55-0.81,0.83-1.22
			c1.94-2.93,3.89-5.84,5.8-8.78c1.33-2.04,2.67-4.07,3.79-6.23c0.1-0.06,0.23-0.1,0.16-0.26c0.04-0.09,0.09-0.17,0.13-0.26
			c0.1-0.03,0.13-0.09,0.11-0.19c1.64-3.01,3.17-6.08,4.58-9.2c0.51-1.13,1.09-2.23,1.42-3.43c0.13-0.08,0.17-0.19,0.15-0.33
			c0.02-0.05,0.04-0.11,0.05-0.16c0.02-0.02,0.06-0.03,0.07-0.05c1.2-2.97,2.3-5.98,2.82-9.16c0.18-1.11,0.34-2.25,0.07-3.38
			c-0.1-0.44-0.23-0.88-0.37-1.44c4.56,1.67,8.77,3.65,11.78,7.53c0.11-0.19,0.02-0.33-0.03-0.49c-0.98-2.83-2.49-5.36-4.44-7.62
			C67,55,65.79,53.72,64.21,52.84c-1.33-0.74-2.64-1.51-4.01-2.16c-0.45-0.21-0.86-0.51-1.37-0.56c-0.03-0.05-0.06-0.09-0.11-0.12
			c-0.03-0.1-0.08-0.16-0.18-0.08c-0.05-0.02-0.11-0.05-0.16-0.07c-0.05-0.18-0.18-0.17-0.33-0.15c-0.05-0.03-0.1-0.03-0.15-0.01
			c-0.16-0.09-0.3-0.22-0.5-0.19c-0.95-0.52-1.99-0.8-3-1.15c-1.86-0.63-3.79-1-5.71-1.34c-0.87-0.16-1.71-0.45-2.59-0.49
			c-1.06-0.31-2.15-0.47-3.24-0.65c-1.88-0.31-3.76-0.61-5.65-0.8c-1.72-0.17-3.45-0.36-5.17-0.11c-0.13-0.29,0.07-0.34,0.21-0.39
			c1.87-0.59,3.73-1.18,5.61-1.74c2.09-0.63,4.18-1.22,6.27-1.83c0.1-0.03,0.2-0.1,0.3-0.14c1.62-0.42,3.23-0.84,4.85-1.25
			c1.09-0.28,2.18-0.54,3.27-0.81c0.1,0.07,0.16,0.02,0.21-0.08c2.39-0.53,4.77-1.05,7.16-1.58C60.02,37.1,60.12,37.05,60.23,37.01z
			"/>
		<path class="st12" d="M87.65,33.66c-1.27,0.07-2.54,0.2-3.81,0.04c-5.13-0.65-9.03-3.13-11.03-7.99
			c-1.63-3.95-0.99-7.76,1.56-11.2c1.81-2.44,4.26-3.98,7.18-4.78c0.21-0.06,0.42-0.13,0.63-0.2c0.29,0.03,0.55-0.12,0.83-0.16
			c0.13,0.03,0.25,0.05,0.36-0.05c0.43-0.04,0.87-0.07,1.3-0.11c0.44,0,0.89,0,1.33,0c0.44,0.05,0.88,0.09,1.33,0.14
			c0.11,0.07,0.22,0.06,0.33,0.03c1.6,0.33,3.16,0.81,4.58,1.64c3.07,1.8,5.22,4.32,6.07,7.83c0.83,3.43,0.14,6.6-1.91,9.43
			c-2.11,2.9-5,4.63-8.54,5.25C87.79,33.57,87.72,33.62,87.65,33.66z"/>
		<path class="st12" d="M79.34,84.41c0-0.11,0.06-0.17,0.16-0.18C79.51,84.34,79.45,84.39,79.34,84.41z"/>
		<path class="st12" d="M79.5,84.23c0.02-0.1,0.08-0.17,0.18-0.19C79.68,84.16,79.62,84.23,79.5,84.23z"/>
		<path class="st12" d="M88.24,36.81c-0.01-0.02-0.03-0.03-0.04-0.05c0.02-0.01,0.03-0.04,0.05-0.04c0.02,0,0.03,0.03,0.04,0.05
			C88.28,36.79,88.26,36.8,88.24,36.81z"/>
		<path class="st12" d="M52.76,38.7c-0.04,0.09-0.1,0.14-0.21,0.08C52.6,38.69,52.67,38.67,52.76,38.7z"/>
		<path class="st12" d="M34.29,54.06c-0.02,0.06-0.02,0.16-0.06,0.18c-0.08,0.04-0.1-0.05-0.11-0.11
			C34.15,54.04,34.2,54,34.29,54.06z"/>
		<path class="st12" d="M40.6,53.01c-0.04,0.12-0.09,0.16-0.16,0.01C40.5,53.02,40.55,53.02,40.6,53.01z"/>
		<path class="st12" d="M34.78,54c-0.04,0.12-0.08,0.18-0.16,0.02C34.68,54.01,34.73,54,34.78,54z"/>
		<path class="st12" d="M27.47,55.49c-0.04,0.12-0.08,0.19-0.16,0.02C27.36,55.5,27.42,55.49,27.47,55.49z"/>
		<path class="st12" d="M51.67,84.79c-0.08-0.16,0.05-0.21,0.16-0.26C51.9,84.69,51.77,84.73,51.67,84.79z"/>
		<path class="st12" d="M58.07,71.44c0.01-0.13-0.03-0.28,0.15-0.33C58.24,71.25,58.19,71.37,58.07,71.44z"/>
		<path class="st12" d="M51.95,84.27c-0.03-0.1,0.02-0.16,0.11-0.19C52.09,84.17,52.05,84.23,51.95,84.27z"/>
	</g>
	<g>
		<path class="st12" d="M223.7,97.76c-3.06-0.16-6.14-0.01-9.34-0.53c0.56-1.07,1.11-1.95,2.37-1.99c2.01-0.05,2.87-1.31,3.23-3.06
			c0.93-4.5,1.83-9.02,2.74-13.53c-3.39-0.49-5.35,1.19-6.3,5.36c-0.58,0.53-1.34,0.8-2.07,1.09c-0.12-0.18-0.31-0.33-0.29-0.46
			c0.35-3.68,2.41-5.87,5.94-6.81c3.84-1.02,7.74-0.61,11.62-0.57c0.45,0,0.9,0.06,1.35,0.09c0.54,0.15,1.08,0.3,1.62,0.45
			c0.18,0.43,0.55,0.5,0.95,0.53c1.64,1.2,2.15,2.97,2.48,4.83c0.01,0.37,0.02,0.73,0.03,1.1c-0.25,1.94-0.15,3.92-1.06,5.77
			c-1.46,2.99-3.7,5.03-6.78,6.2C228.12,97.05,225.95,97.58,223.7,97.76z M219.17,95.48c2.75,0.78,5.09,0.91,7.45,0.8
			c1.98-0.09,3.72-0.78,5-2.33c2.7-3.26,3.63-7.04,2.98-11.17c-0.31-1.99-1.5-3.44-3.48-4.14c-1.74-0.61-3.49-0.68-5.41-0.34
			c-0.66,3.23-1.4,6.39-1.93,9.58C223.27,90.94,222.23,93.62,219.17,95.48z"/>
		<path class="st12" d="M295.72,96.2c-1.44,1.11-3.16,1.32-4.88,1.36c-2.32,0.06-3.84-1.14-4.22-3.41
			c-0.89-5.23,3.18-10.65,7.85-11.85c1.27-0.33,2.55-0.28,3.44,0.95c0.74,1.01,0.7,3.22-0.13,4.37c-1.38,1.92-3.25,3.14-5.56,3.63
			c-0.87,0.19-1.81,0.12-2.53,0.78c-0.11,3.36,0.94,4.33,4.08,3.77c0.44-0.08,0.87-0.24,1.31-0.37
			C295.35,95.63,295.69,95.79,295.72,96.2z M289.85,90.25c4.53,0.12,6.83-2.59,5.38-6.34C292.14,83.63,289.94,86.23,289.85,90.25z"
			/>
		<path class="st12" d="M312.5,95.05c-0.22-1.25-0.39-2.47,0.64-3.53c0.23-0.24,0.1-0.83,0.13-1.26c0.5-1.77,0.99-3.55,1-5.36
			c-1.02-0.68-1.82-0.27-2.62,0.1c-0.33-0.12-0.59-0.31-0.68-0.68c0.06-0.77,0.72-0.97,1.24-1.3c1.3-0.67,2.7-1.44,4.05-0.43
			c1.38,1.04,0.81,2.68,0.61,4.05c-0.32,2.22-0.84,4.41-1.31,6.61c-0.19,0.88-0.33,1.75-0.15,2.56c0.59,0.56,1.07,0.32,1.55,0.06
			c0.03,0.32,0.07,0.64,0.1,0.96c-0.75,0.28-1.5,0.55-2.25,0.83c-0.63-0.22-1.39-0.04-1.89-0.65
			C312.43,96.44,312.74,95.69,312.5,95.05z"/>
		<path class="st12" d="M275.53,95.58c-0.73,0.83-1.2,2.06-2.67,1.81c-0.57-0.93-0.25-1.85-0.27-2.72
			c-0.04-2.26-0.18-4.51-0.72-6.71c-0.26-1.06-0.67-2.04-1.43-2.87c-0.69-0.76-1.44-1.06-2.4-0.58c-0.38-0.1-0.75-0.2-1.13-0.29
			c3.51-3.32,6.23-2.54,7.52,2.12c0.65,2.37,0.66,4.78,0.66,7.2C274.76,94.33,275.22,94.94,275.53,95.58z"/>
		<path class="st12" d="M262.61,96.91c-1.14,0.56-2.28,1.1-3.62,0.6c-0.78-0.97-0.91-2.06-0.63-3.29c0.45-1.93,0.81-3.88,1.17-5.83
			c0.19-1.06,0.39-2.13,0.18-3.13c-0.82-0.94-1.75-0.01-3.01-0.3c2.12-1.77,4.58-1.58,6.64-2.91c0.23,2.49-0.87,4.46-1.13,6.57
			c-0.25,2.05-0.78,4.06-1.22,6.09c-0.1,0.49-0.02,0.88,0.3,1.25C261.5,96.59,262.56,96.05,262.61,96.91z"/>
		<path class="st12" d="M243.84,83.83c-0.32,0.03-0.63,0.06-0.95,0.08c-0.19-0.21-0.38-0.41-0.57-0.62
			c1.14-0.74,2.34-1.29,3.76-1.09c0.65,0,0.93,0.41,1.06,0.97c0.04,1.43,0.11,2.86-0.36,4.27c-0.18,0.54-0.49,1.23,0.31,1.64
			c0.11,0.13,0.22,0.25,0.33,0.38c-1.45,2.35-2.06,4.98-2.49,7.64c-0.96,0.37-1.83,0.4-2.94,0.1c0.87-4.14,1.99-8.22,2.43-12.41
			C244.49,84.31,244.63,83.79,243.84,83.83z"/>
		<path class="st12" d="M307.49,90.44c-1.48,1.96-1.37,4.42-2.1,6.66c-0.83,0.4-1.7,0.36-2.83,0.15c0.47-2.18,1-4.31,1.36-6.47
			c0.37-2.19,1.15-4.33,1.07-6.47c-0.49-0.69-1.01-0.58-1.54-0.38c-0.34-0.08-0.68-0.16-1.01-0.24c0.67-0.65,1.49-1.06,2.35-1.33
			c0.99-0.31,1.98-0.35,2.86,0.8c0.23,1.43,0.21,3.03-0.47,4.58c-0.18,0.55-0.35,1.1-0.51,1.6
			C306.98,89.76,307.24,90.1,307.49,90.44z"/>
		<path class="st12" d="M279.22,89.68c0.26-0.47,0.52-0.94,0.77-1.42c0.9-1.78,1.79-3.56,0.32-5.78c1.48-0.03,2.71-0.98,3.51,0.7
			c0.03,0.17,0.05,0.34,0.08,0.52c0.03,1.81-0.91,3.2-2,4.51c-0.62,0.75-1.31,1.44-1.97,2.15
			C279.55,90.28,279.34,90.03,279.22,89.68z"/>
		<path class="st12" d="M252.19,82.67c1.18-0.41,2.35-0.83,3.69-0.06c-0.26,1-0.95,1.56-1.65,2.29c-2.03-0.76-3.37,0.41-4.59,1.85
			c-0.75,0.89-1.48,1.8-2.23,2.71c-0.11-0.12-0.22-0.25-0.33-0.38c0.19-1.45,1.5-2.3,1.9-3.64c0.85-0.77,1.7-1.54,2.55-2.31
			C251.89,83.17,252.09,82.98,252.19,82.67z"/>
		<path class="st12" d="M307.49,90.44c-0.25-0.34-0.51-0.68-0.82-1.09c0.16-0.5,0.33-1.05,0.51-1.6c0.66,0.17,0.93-0.27,1.27-0.72
			c0.74-0.99,1.39-2.08,2.54-2.7c0.09,0.36,0.35,0.56,0.68,0.68C310.27,86.82,308.88,88.63,307.49,90.44z"/>
		<path class="st12" d="M279.22,89.68c0.12,0.34,0.33,0.6,0.7,0.68c-1.23,1.94-2.56,3.79-4.4,5.22c-0.31-0.65-0.77-1.26-0.45-2.04
			c0.74,0.34,1.1-0.19,1.5-0.65C277.48,91.84,278.12,90.57,279.22,89.68z"/>
		<path class="st12" d="M265.14,76.07c-0.27,2.35-2.37,2.65-4.26,3.73c0.82-2.32,2.29-3.33,4.33-3.66L265.14,76.07z"/>
		<path class="st12" d="M262.61,96.91c-0.05-0.86-1.11-0.32-1.33-0.95c1.85,0.03,2.75-1.74,4.62-2.78
			C265.38,95.47,264.09,96.28,262.61,96.91z"/>
		<path class="st12" d="M295.72,96.2c-0.03-0.41-0.37-0.57-0.64-0.77c0.98-0.61,1.95-1.23,2.97-1.87
			C298.32,95.09,298.32,95.09,295.72,96.2z"/>
		<path class="st12" d="M302.43,83.68c0.34,0.08,0.68,0.16,1.01,0.24c-0.98,0.85-1.73,1.98-3.32,2.6
			C300.4,84.89,301.17,84.09,302.43,83.68z"/>
		<path class="st12" d="M240.65,84.28c0.66-0.16,0.92-0.98,1.67-0.99c0.19,0.21,0.38,0.41,0.57,0.62c-0.97,0.9-1.84,1.92-2.98,2.54
			c-0.46-0.34-0.35-0.72-0.36-1.07c0.5-0.23,0.86-0.59,1.09-1.09L240.65,84.28z"/>
		<path class="st12" d="M266.9,84.22c0.38,0.1,0.75,0.2,1.13,0.29c-0.6,0.98-1.35,1.83-2.33,2.46l0.04,0.04
			C265.51,85.82,265.64,84.79,266.9,84.22z"/>
		<path class="st12" d="M243.84,83.83c0.79-0.04,0.65,0.48,0.58,0.97C244.06,84.57,243.91,84.22,243.84,83.83z"/>
		<path class="st12" d="M265.71,86.97c-0.08,0.1-0.16,0.2-0.17,0.2c0.01-0.01,0.11-0.09,0.21-0.16
			C265.75,87.01,265.71,86.97,265.71,86.97z"/>
		<path class="st12" d="M265.21,76.14c0.07-0.11,0.14-0.21,0.19-0.28c-0.06,0.05-0.16,0.13-0.26,0.21
			C265.14,76.07,265.21,76.14,265.21,76.14z"/>
		<path class="st12" d="M127.79,82.67c0.8-0.74,1.67-0.22,2.82-0.22c-0.68,4.64-2.22,9.01-2.4,13.63c0.5,0.02,0.77,0.04,1.03,0.05
			c0.3,0.17,0.65,0.28,0.67,0.71c-0.48,0.24-0.94,0.57-1.45,0.71c-2.33,0.62-3.31-0.31-3-2.8c0.11-0.88,0.19-1.75,0.3-2.84
			c-0.96,0.16-1.08,0.85-1.35,1.28c-0.92,1.48-2.06,2.77-3.46,3.77c-1.03,0.74-2.32,1.24-3.53,0.42c-1.09-0.74-1.15-2-0.95-3.18
			c0.39-2.22,0.88-4.41,1.29-6.62c0.18-0.97,0.28-1.96,0.36-2.95c0.04-0.52-0.28-0.82-0.81-0.86c-0.36-0.18-0.99,0.17-1.08-0.55
			c1.27-0.71,2.6-1.63,4.01-0.62c1.37,0.98,0.77,2.41,0.47,3.75c-0.48,2.21-0.87,4.44-1.24,6.67c-0.12,0.69-0.34,1.42,0.15,2.3
			c2.06,0.25,2.72-1.48,3.69-2.75c0.34-0.08,0.51-0.3,0.53-0.64l0.01-0.02c0.63-0.36,0.91-0.96,1.12-1.61
			c1.47-1.65,2.34-3.53,2.31-5.78C127.86,83.99,127.66,83.28,127.79,82.67z"/>
		<path class="st12" d="M104.9,98.23c-1.51-0.78-3.19-0.16-4.75-0.55c-0.23-0.24-0.5-0.33-0.83-0.26c-0.49-0.23-0.98-0.46-1.63-0.78
			c0.36-0.78,0.95-1.27,1.56-1.84c0.22,0.07,0.5,0.09,0.7,0.24c1.6,1.21,3.4,1.65,5.37,1.45c1.48-0.15,2.62-0.85,3.14-2.24
			c0.51-1.37,0.25-2.71-0.82-3.77c-1.42-1.4-2.87-2.77-4.35-4.11c-1.12-1.02-1.94-2.16-1.91-3.74c0.16-0.93,0.46-1.85,0.33-2.82
			l0.01-0.03c0.29-0.13,0.59-0.27,0.88-0.4c0.34-0.04,0.44-0.28,0.5-0.57l0.03-0.02c0.34,0,0.53-0.17,0.55-0.51
			c0.18-0.16,0.36-0.32,0.54-0.48c0.46-0.03,0.85-0.19,1.09-0.61c2.7-0.86,5.31-0.79,8.03,0.79c-0.7,1.03-0.14,2.47-1.56,3.5
			c-0.42-1.05-0.25-2.24-1.25-2.91c-0.73-0.5-1.53-0.55-2.3-0.69c-1.5-0.27-3.2,0.6-3.9,1.86c-0.78,1.41-0.6,2.88,0.72,4.2
			c1.27,1.27,2.65,2.46,4.04,3.6c3.33,2.72,2.46,6.95-0.88,8.74c-0.72,0.38-1.44,0.76-2.17,1.12c-0.43,0.21-0.33,0.59-0.33,0.93
			l-0.09,0.08C105.38,98.34,105.14,98.29,104.9,98.23z"/>
		<path class="st12" d="M173.55,96.27c-1.25,0.77-2.6,1.19-4.05,1.4c-3.05,0.46-4.75-1.83-5.03-4.07
			c-0.54-4.25,3.31-10.11,7.4-11.26c2.56-0.72,4.89,0.68,4.62,2.92c-0.21,1.71-0.86,3.31-2.49,4.3c-1.93,1.17-3.96,2.01-6.24,1.97
			c-0.79,1.99,0.07,3.23,1.64,4.34c1.34,0.3,2.72,0,4.07-0.62C173.5,95.59,173.52,95.93,173.55,96.27z M173.19,83.88
			c-3.07-0.21-5.1,2.14-5.5,6.36C172.38,90.41,174.81,87.6,173.19,83.88z"/>
		<path class="st12" d="M159.33,95.69c-1.69,1.08-3.47,1.94-5.52,2c-2.1,0.06-3.55-1.04-4.26-3.02c-0.83-2.33-0.2-4.56,0.82-6.53
			c0.92-1.8,2.21-3.48,4.09-4.59c2.33-1.37,4.66-1.88,7.39-0.63c-0.1,1.14-0.34,2.29-0.71,3.26c-0.42,0.18-0.63,0.12-0.64-0.09
			c-0.06-1.04-0.25-2.02-1.38-2.39c-1.17-0.39-2.32-0.26-3.37,0.43c-1.71,1.11-2.33,2.94-2.92,4.72c-0.49,1.48-0.46,3.05-0.3,4.59
			c0.2,1.87,1.28,2.68,3.18,2.49c1.28-0.12,2.46-0.58,3.58-1.2C159.3,95.04,159.31,95.36,159.33,95.69z"/>
		<path class="st12" d="M189.2,82.45c1.26,1.13-0.19,2.12-0.15,3.32c-1.02-1.31-1.85-2.67-3.81-2.25c-1.19,0.26-1.6,1.03-1.84,2.11
			c0.48,2,2.31,3.12,3.4,4.75c0.97,1.45,1.51,2.81,0.73,4.47c-3.25,3.07-5.71,3.58-9.49,1.93c0.28-0.65,0.54-1.31,1.46-1.56
			c0.81-0.03,1.53,0.62,2.39,0.85c0.92,0.25,1.75,0.28,2.6-0.18c1.2-0.64,1.53-1.5,0.76-2.62c-0.55-0.8-0.97-1.69-1.73-2.37
			c-0.66-0.59-1.19-1.35-1.66-2.11c-1.1-1.77-0.86-3.44,0.69-4.83c0.86-0.77,1.8-1.49,2.97-1.75c0.55-0.06,1.09-0.11,1.64-0.17
			C187.83,82.18,188.51,82.31,189.2,82.45z"/>
		<path class="st12" d="M144.08,95.72c-1.49,1.01-3.18,1.52-4.9,1.95c-0.4-0.23-0.8-0.21-1.17,0.06c-3.26-1.13-3.95-2.16-3.81-5.62
			c0.17-4.28,3.14-8.24,7.22-9.59c1.78-0.59,3.51-0.49,5.16,0.27c0.39,1.42-0.68,2.33-0.45,3.4c-0.83,0.17-0.88-0.17-0.98-0.54
			c-0.53-1.9-1.54-2.54-3.33-2.06c-1.81,0.49-2.94,1.79-3.61,3.44c-0.79,1.95-1.12,4.02-0.92,6.13c0.23,2.37,1.56,3.24,3.97,2.69
			c0.98-0.22,1.92-0.51,2.75-1.1C144.04,95.08,144.06,95.4,144.08,95.72z"/>
		<path class="st12" d="M129.92,96.83c-0.02-0.43-0.37-0.54-0.67-0.71c0.93-1.2,2.32-1.73,3.93-3.02
			C132.59,95.38,131.45,96.28,129.92,96.83z"/>
		<path class="st12" d="M116.23,83.2c0.09,0.72,0.72,0.37,1.08,0.55c-1.28,0.81-2.44,1.76-3.43,3.02
			C113.45,84.84,113.57,84.67,116.23,83.2z"/>
		<path class="st12" d="M173.55,96.27c-0.03-0.34-0.05-0.67-0.08-1.01c0.88-0.77,1.76-1.52,3.31-1.75
			C176.16,95.43,174.9,95.9,173.55,96.27z"/>
		<path class="st12" d="M144.08,95.72c-0.02-0.32-0.04-0.64-0.06-0.97c0.44-0.73,1.13-0.99,2.13-1.12
			C145.98,95.05,145.17,95.52,144.08,95.72z"/>
		<path class="st12" d="M159.33,95.69c-0.01-0.32-0.03-0.65-0.04-0.97c0.43-0.7,1.07-0.98,2.03-1.07
			C161.29,95.12,160.19,95.29,159.33,95.69z"/>
		<path class="st12" d="M127.79,82.67c-0.13,0.62,0.06,1.33-0.5,1.83C127.29,83.84,126.67,83.02,127.79,82.67z"/>
		<path class="st12" d="M123.85,91.9c-0.02,0.34-0.19,0.56-0.53,0.64C123.34,92.19,123.5,91.97,123.85,91.9z"/>
		<path class="st12" d="M103.11,78.81c-0.06,0.29-0.16,0.53-0.5,0.57C102.6,79.04,102.76,78.84,103.11,78.81z"/>
		<path class="st12" d="M103.69,78.28c-0.02,0.34-0.21,0.51-0.55,0.51C103.18,78.46,103.36,78.29,103.69,78.28z"/>
		<path class="st12" d="M317.07,96.83c-0.03-0.32-0.07-0.64-0.1-0.96c0.92-0.8,1.84-1.61,2.91-2.55
			C319.75,95.18,319.51,95.45,317.07,96.83z"/>
		<path class="st12" d="M201.24,86.28c-0.4-1.78-1.06-2.76-2.51-2.79c-1.25-0.02-2.36,0.23-2.88,1.85c0.61,3.04,4.49,4.37,4.6,8.05
			c-1.45,3.9-5.66,5.49-9.93,3.42c0.47-0.64,0.94-1.27,1.44-1.95c2.11,1.3,4.26,2.59,6.25-0.13c0-1.32-0.65-2.18-1.4-2.98
			c-0.56-0.6-1.18-1.14-1.71-1.76c-2.34-2.81-1.69-5.59,1.73-7.22c1.7-0.81,3.48-0.87,5.34-0.01
			C202.31,83.86,201.95,84.79,201.24,86.28z"/>
	</g>
	<g>
		<path class="st12" d="M226.17,71.98c-0.35,0.13-0.3-0.28-0.52-0.37c-2.2-0.82-3.15-2.54-3.37-4.78c-0.01-0.12-0.01-0.25-0.02-0.37
			c0.02-3.53,0.05-7.06,0.07-10.58c0-0.05,0.07-0.1,0.19-0.26c1.3-0.05,2.68-0.11,4.07-0.17c1.09,0,2.17,0,3.07,0
			c0.66,0.45,0.47,0.94,0.48,1.36c0.02,2.18,0.01,4.36,0.03,6.54c0.01,0.96-0.02,1.93,0.61,2.75c-0.04,0.02-0.09,0.05-0.13,0.07
			c0.02,0.04,0.04,0.11,0.08,0.12c0.04,0.01,0.09-0.03,0.13-0.06c0.86,0.45,1.62,0.43,2.18-0.49c0.32-0.52,0.19-1.07,0.11-1.61
			c0-2.82,0-5.64,0-8.57c2.93,0,5.66,0,8.46,0c0,5.46,0,10.78,0,16.2c-2.61,0-5.21,0-7.93,0c-0.04-0.74-0.08-1.49-0.13-2.24
			c0-0.04-0.05-0.11-0.09-0.12c-0.14-0.05-0.23,0.02-0.27,0.18c-0.37,0.12-0.61,0.36-0.72,0.73c-1.16,1.25-2.69,1.61-4.3,1.74
			c-0.28-0.13-0.56-0.15-0.84-0.02C226.93,72.03,226.55,72,226.17,71.98z"/>
		<path class="st12" d="M284.22,55.23c0.26,0.04,0.52,0.08,0.78,0.12c0.12,0,0.23,0.03,0.34,0.08c0.27,0.15,0.53,0.32,0.81,0.46
			c3.68,1.86,5.15,4.43,4.95,8.78c-1.3,0.32-2.64,0.09-3.97,0.13c-1.34,0.05-2.68,0.01-4.04,0.01c0.66,2.95,4.79,3.47,7.83,1.02
			c0.38,0.42,0.24,0.94,0.26,1.41c0.02,0.45,0,0.9,0,1.38c-1.75,2.35-4.24,3.2-6.97,3.62c-1.14-0.16-2.29-0.1-3.43-0.32
			c-5.23-1.02-7.46-5.21-6.89-9.7c0.53-4.16,3.58-6.84,7.82-6.98C282.55,55.2,283.39,55.23,284.22,55.23z M286.07,61.79
			c-0.54-1.99-1.05-2.51-2.19-2.4c-1.06,0.1-1.49,0.75-1.55,2.4C283.53,61.79,284.72,61.79,286.07,61.79z"/>
		<path class="st12" d="M253.4,58.5c0.62-0.92,1.13-1.65,1.83-2.21c1.7-1.36,4.29-1.22,5.59,0.31c1.41,1.67,1.31,4.32-0.27,5.78
			c-1.21,1.11-2.64,1.24-4.13,0.7c-0.71-0.26-1.37-0.66-2.17-1.06c-1.79,3.11-0.55,6.48-1.11,9.75c-2.68,0-5.41,0-8.22,0
			c0-5.33,0-10.65,0-16.09c1.31-0.48,2.72-0.14,4.09-0.2c1.34-0.06,2.68-0.01,4.09-0.01C253.47,56.37,253.13,57.29,253.4,58.5z"/>
		<path class="st12" d="M269.88,55.66c0.39,0.33,0.88-0.08,1.35,0.2c0,5.26,0,10.57,0,15.95c-2.76,0-5.44,0-8.23,0
			c0-5.31,0-10.61,0-15.99c0.57-0.2,1.06,0.17,1.57,0.31c1.65,0.44,3.29,0.43,4.94,0.01c0.26-0.07,0.47-0.18,0.41-0.51L269.88,55.66
			z"/>
		<path class="st12" d="M197.2,62.58c0.12,0.27,0.24,0.54,0.36,0.81c-0.01,0.33,0.05,0.62,0.37,0.79c0.67,2.05,2.08,3.78,2.68,5.94
			c-1.87,1.28-4.04,1.55-6.12,2.08c-1.86,0.01-3.72,0.08-5.57-0.33c-4.94-1.08-8.03-5.7-8.03-9.63c0-5.61,2.53-9.28,7.86-10.97
			c0.37-0.12,0.73-0.23,1.1-0.35c0.42,0.13,0.79-0.07,1.18-0.16c0.51,0.08,0.96-0.07,1.39-0.31c1.88,0.62,3.91,0.62,5.78,1.31
			c0.84,0.31,1.67,0.62,2.46,1.2c-0.67,1.42-1.32,2.78-1.97,4.14c-0.24,0.06-0.34,0.21-0.3,0.46c-0.48,0.68-0.81,1.44-1.09,2.21
			c-0.27,0.22-0.51,0.48-0.88,0.53c-0.98-0.56-2.03-0.51-3.09-0.41c-1.18-0.14-2.32-0.19-3.05,1.06c0.03,1.2,0.76,1.66,1.84,1.77
			c0.78,0.36,1.57,0.25,2.37,0.08C195.42,63,196.25,62.17,197.2,62.58z"/>
		<path class="st12" d="M157.84,55.32c1.07-1.28,1.95-2.69,2.89-4.15c3.04,0,6.1,0,9.38,0c-1.44,2.11-2.77,4.05-4.09,6
			c-1.04,1.54-2.06,3.1-3.11,4.63c-0.49,0.72-0.69,1.47-0.68,2.35c0.05,2.5,0.02,5,0.02,7.62c-3.07,0-6.05,0-9.21,0
			c0-2.11-0.09-4.22,0.03-6.32c0.1-1.77-0.44-3.23-1.44-4.65c-1.96-2.78-3.83-5.62-5.73-8.44c-0.21-0.31-0.55-0.56-0.45-1.14
			c2.95,0,5.93,0,9.01,0c0.76,1.06,1.57,2.2,2.38,3.34c0.12,0.17,0.24,0.33,0.37,0.5c0.05,0.06,0.1,0.13,0.12,0.21
			c0.05,0.1,0.07,0.25,0.15,0.28C157.68,55.63,157.78,55.47,157.84,55.32z"/>
		<path class="st12" d="M133.38,71.95c-0.31-0.06-0.61-0.13-0.97-0.2c0-6.86,0-13.68,0-20.75c1.41,0,2.74,0,4.07,0
			c1.6,0,3.19,0,4.97,0c0.15,1.84,0.06,3.55,0.08,5.26c0.02,1.67,0,3.34,0,5.01c0,1.72,0,3.44,0,5.29c2.72,0,5.26,0,8.02,0
			c0.02,1.83,0.03,3.53,0.05,5.24c-0.24,0.05-0.49,0.1-0.73,0.15C143.7,71.84,138.54,71.84,133.38,71.95z"/>
		<path class="st12" d="M122.57,56.79c0,0.91,0,1.82-0.01,2.72c0,1.04,0.63,0.7,1.18,0.54c1.46,0.06,2.93,0.13,4.49,0.2
			c0,1.64,0,3.23,0,4.94c-1.77,0.32-3.63-0.02-5.58,0.2c-0.33,2.07-0.01,4.18-0.19,6.38c-3,0-5.98,0-9.07,0c0-6.83,0-13.68,0-20.6
			c5.62,0,11.18,0,16.83,0c0,1.73,0,3.37,0,5.17c-2.45,0.04-4.87,0.08-7.29,0.11C122.66,56.4,122.51,56.48,122.57,56.79z"/>
		<path class="st12" d="M309.05,62.84c-1.96,0.64-2.69,1.04-5.68-0.75c-0.87,0.6-1.03,1.54-1.07,2.49c-0.07,1.8-0.07,3.6-0.1,5.4
			c-0.01,0.57,0,1.14,0,1.8c-2.83,0-5.56,0-8.33,0c0-5.4,0-10.71,0-16.19c2.78,0,5.49,0,8.12,0c0.47,0.83-0.07,1.68,0.45,2.34
			c3.33-3.04,4.42-3.27,7.29-1.49C311.23,58.97,311.05,60.66,309.05,62.84z"/>
		<path class="st12" d="M208.22,55.45c1.2-0.27,2.42-0.27,3.64-0.23c5.58,0.2,9.17,5.05,7.94,10.52c-0.55,2.44-1.98,4.29-3.98,5.39
			c-1.87,1.03-4.13,1.31-6.35,0.92c-3.36-0.58-5.74-2.39-6.99-5.61c0.08-0.21,0.03-0.37-0.16-0.49c-0.04-0.77-0.11-1.54-0.13-2.31
			c-0.08-3.34,1.41-5.78,4.26-7.43c0.39-0.22,0.8-0.41,1.2-0.61C207.84,55.56,208.03,55.51,208.22,55.45z M211.02,65.33
			c1.16,0.03,1.92-0.74,1.9-1.92c-0.02-0.99-0.89-1.82-1.88-1.79c-1.01,0.03-1.79,0.85-1.8,1.89
			C209.22,64.58,209.92,65.3,211.02,65.33z"/>
		<circle class="st12" cx="269.33" cy="53" r="2.21"/>
	</g>
	<rect x="97.69" y="105.18" class="st13" width="222.19" height="4.99"/>
	<rect x="127.12" y="114.04" class="st13" width="172.2" height="4.99"/>
</g>
<g>
	<circle class="st1" cx="336.98" cy="49.1" r="47.43"/>
	<g>
		<path class="st2" d="M311.06,39.26c0-13.37,11.85-24.6,25.91-24.6c14.07,0,25.91,11.22,25.91,24.6
			c0,13.37-11.85,24.67-25.91,24.67C322.91,63.93,311.06,52.63,311.06,39.26 M349.03,39.26c0-6.72-5.54-12.4-12.06-12.4
			c-6.51,0-12.05,5.68-12.05,12.4c0,6.79,5.54,12.47,12.05,12.47C343.49,51.73,349.03,46.05,349.03,39.26"/>
		<rect x="313.18" y="66.64" class="st2" width="47.6" height="13.44"/>
	</g>
</g>
</svg>
