<?xml version="1.0" encoding="utf-8"?>
<!-- Generator: Adobe Illustrator 23.0.1, SVG Export Plug-In . SVG Version: 6.00 Build 0)  -->
<svg version="1.1" id="Layer_1" xmlns="http://www.w3.org/2000/svg" xmlns:xlink="http://www.w3.org/1999/xlink" x="0px" y="0px"
	 viewBox="0 0 386.79 144" style="enable-background:new 0 0 386.79 144;" xml:space="preserve">
<style type="text/css">
	.st0{fill:#0047BA;}
	.st1{fill:#2F2F7E;}
	.st2{fill:#FFFFFF;}
	.st3{fill-rule:evenodd;clip-rule:evenodd;fill:#EC1E27;}
	.st4{fill:none;}
</style>
<g>
	<g>
		<path class="st3" d="M17.23,18.07h47.55c0,0,3.71-0.64,8.84,9.27l24.34,43.18c0,0,3.13,5.61,7.54,6.05h12.82l-15.28,20.38l-8.36,0
			c0,0-6.79,0.07-12.01-10.34l-24.6-44.36c0,0-1.71-3.79-6.94-3.56H1.79L17.23,18.07z"/>
		<path class="st3" d="M29.25,42.49h24.38l28.8,51.03c0,0,2.49,5.86,9.29,7.2l8.51,0l-13.84,18.49h-8.91c0,0-5.8,0.25-9.64-7.24
			L29.25,42.49z"/>
		<path class="st3" d="M1.79,42.38H25.3l42.07,75.54c0,0,1.89,4.33,6.57,4.77h9.85l-14.75,19.73h-8.37c0,0-3.94,0-7.41-6.78
			L1.79,42.38z"/>
		<path class="st3" d="M252.87,76.57h-51.23c0,0-5.76-0.27-9.94,5.32L151.7,135.4c0,0-6.03,7.02,4.71,7.02h47.27l15.18-20.18
			l-21.76,0c0,0-4.55,0.46-1.69-3.36l15.26-20.5c0,0,1.35-1.42,5.99-1.42h21.02L252.87,76.57z"/>
		<path class="st3" d="M275.3,97.04l1.2-1.65l-6.25,0c0,0-0.98-0.21-2.36,1.68c0,0-2.54,3.26,0.01,3.26l20.75,0
			c0,0,6.32-0.23,2.75,4.53l-24.87,33.25c0,0-2.46,4.47-10.12,4.47h-38.79c0,0-7.46-0.62-4.57-5.04l11.45-15.32h24.44l-1.71,2.52
			h6.57c0,0,0.61,0.17,1.98-1.73c0,0,3.46-4.1,1.11-4.21h-23.19c0,0-5.34-0.89-2.97-5.31l25.7-33.89c0,0,1.78-3.12,5.96-3.12h42.18
			c0,0,8.18-0.2,3.89,5.61l-11.21,14.94L275.3,97.04z"/>
		<polygon class="st3" points="123.96,76.57 108.67,96.96 127.4,96.96 93.43,142.38 122.18,142.38 156.15,96.96 174.94,96.96 
			190.18,76.58 		"/>
		<rect x="1.79" y="18.07" class="st4" width="316.55" height="124.53"/>
	</g>
	<g>
		<circle class="st1" cx="337.05" cy="49.36" r="47.95"/>
		<g>
			<path class="st2" d="M310.85,39.41c0-13.52,11.98-24.87,26.2-24.87c14.22,0,26.2,11.35,26.2,24.87
				c0,13.52-11.98,24.94-26.2,24.94C322.83,64.35,310.85,52.93,310.85,39.41 M349.24,39.41c0-6.8-5.6-12.54-12.19-12.54
				c-6.58,0-12.19,5.74-12.19,12.54c0,6.86,5.6,12.61,12.19,12.61C343.63,52.02,349.24,46.27,349.24,39.41"/>
			<rect x="312.99" y="67.1" class="st2" width="48.12" height="13.59"/>
		</g>
	</g>
</g>
</svg>
