<?xml version="1.0" encoding="utf-8"?>
<!-- Generator: Adobe Illustrator 23.0.1, SVG Export Plug-In . SVG Version: 6.00 Build 0)  -->
<svg version="1.1" id="Layer_1" xmlns="http://www.w3.org/2000/svg" xmlns:xlink="http://www.w3.org/1999/xlink" x="0px" y="0px"
	 viewBox="0 0 386.79 144" style="enable-background:new 0 0 386.79 144;" xml:space="preserve">
<style type="text/css">
	.st0{fill:#0047BA;}
	.st1{fill:#2F2F7E;}
	.st2{fill:#FFFFFF;}
	.st3{fill-rule:evenodd;clip-rule:evenodd;fill:#EC1E27;}
	.st4{fill:none;}
</style>
<g>
	<g>
		<g>
			<path class="st0" d="M119.23,142.33c-7.31,0-13.41-2.19-18.15-6.57c-4.74-4.38-7.11-11.04-7.11-19.98V83.15
				c0-0.38,0.3-0.68,0.68-0.68h12.66c0.38,0,0.68,0.3,0.68,0.68v32.09c0,4.61,1.04,8.06,3.11,10.36c2.08,2.3,4.79,3.45,8.13,3.45
				c3.34,0,6.05-1.15,8.13-3.45c2.08-2.3,3.11-5.76,3.11-10.36V83.15c0-0.38,0.3-0.68,0.68-0.68h12.66c0.38,0,0.68,0.3,0.68,0.68
				v32.64c0,8.85-2.39,15.49-7.18,19.91C132.53,140.12,126.45,142.33,119.23,142.33z"/>
		</g>
		<g>
			<path class="st0" d="M212.87,111.29l-43.85,8.38c-0.46,0.09-0.69,0.61-0.46,1.02c1.42,2.45,3.39,4.42,5.9,5.9
				c2.8,1.65,5.86,2.47,9.2,2.47c3.07,0,5.77-0.65,8.12-1.96c2.35-1.31,3.92-2.64,4.74-3.99l0.67-0.94
				c0.39-0.55,1.13-0.73,1.73-0.42l9.88,5.05c0.7,0.36,0.95,1.23,0.55,1.9c-0.06,0.09-0.11,0.19-0.18,0.3
				c-0.41,0.68-1.38,1.87-2.91,3.59c-1.54,1.72-3.23,3.23-5.07,4.53c-1.85,1.31-4.38,2.5-7.58,3.59c-3.2,1.08-6.61,1.62-10.22,1.62
				c-9.2,0-16.69-2.93-22.47-8.8c-5.77-5.86-8.66-13.13-8.66-21.79c0-8.57,2.93-15.81,8.8-21.72c5.86-5.91,13.13-8.86,21.79-8.86
				s15.88,2.88,21.65,8.63c5.64,5.62,8.61,12.56,8.91,20.82C213.44,110.93,213.2,111.22,212.87,111.29z M182.83,94.41
				c-4.42,0-8.17,1.35-11.23,4.06c-2.85,2.52-4.58,5.82-5.16,9.9c-0.07,0.46,0.35,0.84,0.8,0.75l29.45-5.63
				c0.45-0.09,0.69-0.58,0.48-0.98C194.23,97.11,189.45,94.41,182.83,94.41z"/>
		</g>
		<g>
			<path class="st0" d="M17.4,136.4v5.15c0,0.38-0.3,0.68-0.68,0.68H4.07c-0.38,0-0.68-0.3-0.68-0.68V44.34
				c0-0.38,0.3-0.68,0.68-0.68h12.65c0.38,0,0.68,0.3,0.68,0.68v42.53c0.45-0.45,1.1-0.99,1.96-1.62c0.86-0.63,2.8-1.49,5.82-2.57
				c3.02-1.08,6.25-1.62,9.68-1.62c8.3,0,15.25,2.87,20.84,8.59c5.59,5.73,8.39,13.06,8.39,21.99c0,8.93-2.8,16.26-8.39,21.99
				c-5.6,5.73-12.54,8.59-20.84,8.59c-3.43,0-6.59-0.47-9.47-1.42c-2.89-0.95-4.96-1.92-6.23-2.91L17.4,136.4z M21.59,98.98
				c-3.16,3.11-4.74,7.33-4.74,12.65c0,5.32,1.58,9.54,4.74,12.65c3.16,3.11,7.13,4.67,11.91,4.67c4.78,0,8.75-1.56,11.91-4.67
				c3.16-3.11,4.74-7.33,4.74-12.65c0-5.32-1.58-9.54-4.74-12.65c-3.16-3.11-7.13-4.67-11.91-4.67
				C28.72,94.31,24.75,95.87,21.59,98.98z"/>
		</g>
		<g>
			<path class="st0" d="M72.16,140.66V44.33c0-0.38,0.3-0.68,0.68-0.68h12.67c0.38,0,0.68,0.3,0.68,0.68v96.33
				c0,0.38-0.3,0.68-0.68,0.68H72.84C72.46,141.34,72.16,141.04,72.16,140.66z"/>
		</g>
		<g>
			<path class="st0" d="M221.2,33.38V48.2c0,0.45,0.22,0.87,0.6,1.13l19.91,13.42c0.46,0.31,1.06,0.31,1.52,0l10.87-7.33
				c0.4-0.27,0.4-0.86,0-1.13l-31.83-21.47C221.81,32.51,221.2,32.84,221.2,33.38z"/>
		</g>
		<g>
			<path class="st0" d="M222.56,142.22l74.71-0.03c0.75,0,1.36-0.61,1.36-1.36V84.7c0-0.23-0.11-0.44-0.3-0.56l-20.45-13.8
				c-0.46-0.31-1.06-0.31-1.52,0l-10.87,7.32c-0.4,0.27-0.4,0.86,0,1.13l18.82,12.71c0.19,0.13,0.3,0.34,0.3,0.56v35.55
				c0,0.75-0.61,1.36-1.36,1.36h-14.96c-0.75,0-1.36-0.61-1.36-1.36V96.58l-7.13-4.81l-6.89,4.66v31.17c0,0.75-0.61,1.36-1.36,1.36
				h-14.96c-0.75,0-1.36-0.61-1.36-1.36V91.88c0-0.23,0.11-0.44,0.3-0.56l62.51-42.17c0.37-0.25,0.6-0.68,0.6-1.13V33.38
				c0-0.54-0.61-0.87-1.06-0.56L221.5,83.96c-0.19,0.13-0.3,0.34-0.3,0.56v56.33C221.2,141.61,221.81,142.22,222.56,142.22z"/>
		</g>
	</g>
	<g>
		<circle class="st1" cx="335.98" cy="49.1" r="47.43"/>
		<g>
			<path class="st2" d="M310.06,39.26c0-13.37,11.85-24.6,25.91-24.6c14.07,0,25.91,11.22,25.91,24.6
				c0,13.37-11.85,24.67-25.91,24.67C321.91,63.93,310.06,52.63,310.06,39.26 M348.03,39.26c0-6.72-5.54-12.4-12.06-12.4
				c-6.51,0-12.05,5.68-12.05,12.4c0,6.79,5.54,12.47,12.05,12.47C342.49,51.73,348.03,46.05,348.03,39.26"/>
			<rect x="312.18" y="66.64" class="st2" width="47.6" height="13.44"/>
		</g>
	</g>
</g>
</svg>
