<?xml version="1.0" encoding="utf-8"?>
<!-- Generator: Adobe Illustrator 23.0.1, SVG Export Plug-In . SVG Version: 6.00 Build 0)  -->
<svg version="1.1" id="Layer_1" xmlns="http://www.w3.org/2000/svg" xmlns:xlink="http://www.w3.org/1999/xlink" x="0px" y="0px"
	 viewBox="0 0 386.79 144" style="enable-background:new 0 0 386.79 144;" xml:space="preserve">
<style type="text/css">
	.st0{fill:#0047BA;}
	.st1{fill:#2F2F7E;}
	.st2{fill:#FFFFFF;}
	.st3{fill-rule:evenodd;clip-rule:evenodd;fill:#EC1E27;}
	.st4{fill:none;}
	.st5{fill:#221E20;}
</style>
<g>
	<path class="st5" d="M126.63,127.34c-0.59,2.3-0.82,4.63-0.7,7c-0.32-0.02-0.35,0.19-0.35,0.43c0,0.67,0,1.35,0,2.02
		c-0.22-0.04-0.34,0.09-0.34,0.27c-0.02,0.45-0.01,0.91-0.01,1.47h-7.66h-7.73v-1.75c0.1-0.04,0.27-0.07,0.28-0.12
		c0.18-1.24,0.6-2.45,0.42-3.73c0.33,0.03,0.35-0.2,0.35-0.44c0-1.25,0-2.51,0-3.76c0.36-1.73,0.77-3.46,0.71-5.25
		c-0.03-0.89,0.01-1.75,0.3-2.64c0.27-0.82-0.2-1.8,0.39-2.61c-0.12-1.42,0.61-2.76,0.35-4.19c0.1-0.04,0.28-0.08,0.28-0.12
		c0.04-0.85,0.11-1.7,0.05-2.54c-0.07-0.9,0.57-1.68,0.37-2.59c-0.18-0.64,0.39-1.13,0.36-1.75c-0.03-0.63-0.03-1.27,0.01-1.9
		c0.01-0.13,0.21-0.25,0.34-0.39c-0.99-0.63,0.12-1.27,0.01-1.94c-0.1-0.67-0.02-1.38-0.02-2.07c0.1-0.04,0.28-0.08,0.29-0.12
		c0.08-1.67,0.36-3.3,0.73-4.93c0.18-0.78,0.05-1.62,0.02-2.44c-0.03-0.8,0.61-1.48,0.36-2.3v-1.05c0.1-0.04,0.28-0.09,0.28-0.12
		c-0.13-1.46,0.44-2.85,0.42-4.3c-0.01-0.74,0-1.49,0-2.23c-0.06-0.62,0.44-1.1,0.38-1.76c-0.05-0.52-0.08-1.05,0.27-1.62
		c0.28-0.46,0.06-1.23,0.06-1.87c0.57-0.05,0.33-0.5,0.34-0.78c0.07-1.49-0.18-3.01,0.36-4.47c-0.12-1.71,0.33-3.39,0.43-5.09
		c0.1-1.64,0.25-3.34,0.68-4.94c0.25-0.95,0.19-1.88,0.35-2.92h15.33c0.04,0.51-0.25,0.96-0.3,1.4c-0.14,1.2,0.06,2.44-0.38,3.62
		c-0.01,0.03,0.13,0.13,0.2,0.19c0.31-0.45,1-0.65,0.84-1.37c0.78-0.41,1.29-1.13,1.89-1.73c1.31-1.31,3.08-1.84,4.59-2.82
		c1.65,0.28,3.27-1.01,4.96-0.03c0.34,0.2,0.9,0.03,1.04,0.03c1.34,0.45,2,1.44,3.09,1.76c0.71,1.28,1.92,2.19,2.35,3.74
		c0.31,1.13-0.05,2.34,0.58,3.41c0.16,0.28,0.26,0.92-0.19,1.28c-0.18,0.14-0.14,0.31-0.12,0.47c0.24,2.18-0.41,4.31-0.35,6.48
		c-0.1,0.04-0.28,0.08-0.28,0.12c0.02,1.84-0.21,3.66-0.42,5.48v1.05c-0.1,0.04-0.28,0.08-0.28,0.12c0.06,1.61-0.62,3.16-0.42,4.78
		c-0.02,0.89-0.02,1.76-0.31,2.64c-0.27,0.82,0.1,1.75-0.35,2.64c-0.23,0.46-0.04,1.14-0.04,1.71c-0.21-0.04-0.34,0.09-0.34,0.27
		c-0.01,0.97-0.08,1.95,0.01,2.91c0.09,0.97-0.55,1.81-0.37,2.77c0.17,0.54-0.46,0.86-0.37,1.41c0.08,0.45-0.01,0.92,0.02,1.38
		c0.04,0.62-0.46,1.1-0.38,1.76c0.09,0.68,0.18,1.43-0.03,2.06c-0.19,0.6-0.14,1.23-0.35,1.75c-0.25,0.6-0.3,1.17-0.3,1.78
		c-0.1,0.04-0.28,0.08-0.28,0.11c0.09,1.05-0.4,2.01-0.42,3.03c-0.57,0-0.2,0.75-0.66,0.84c-0.57,2.31-1.89,4.06-3.9,5.32
		c-0.33,0.21-0.57,0.57-0.83,0.85c-0.28,0-0.54-0.07-0.73,0.02c-0.39,0.18-0.76,0.66-1.11,0.63c-0.82-0.06-1.52,0.35-2.29,0.38
		c-0.98,0.04-2.01,0.18-2.95-0.03c-1.2-0.27-2.4-0.66-3.34-1.58c-0.77-0.76-1.43-1.65-2.38-2.22c-0.04-0.21,0.11-0.47-0.12-0.64
		c-0.52-0.38-0.7-0.97-0.92-1.51c-0.16-0.39-0.36-0.34-0.71-0.18c0,0.82-0.06,1.68,0.02,2.52c0.09,0.91-0.57,1.7-0.37,2.61
		c-0.1,0.04-0.28,0.09-0.28,0.12c0.12,1.46-0.54,2.83-0.43,4.29C126.67,126.08,126.63,126.72,126.63,127.34 M130.13,111.25
		c0.24,0.12,0.47,0.25,0.67,0.35c0.39,0,0.54-0.35,0.94-0.4c0.68-0.08,1.24-0.51,1.19-1.35c0.22,0.04,0.31-0.1,0.35-0.28
		c0.21-0.87,0.18-1.83,0.44-2.62c0.25-0.75,0.02-1.5,0.29-2.14c0.32-0.77,0.31-1.53,0.32-2.31c0.01-0.58,0-1.16,0-1.75
		c-0.06-0.62,0.45-1.11,0.37-1.77c-0.06-0.55-0.22-1.18,0.12-1.67c0.42-0.6,0.13-1.22,0.2-1.83c0.06-0.57,0.01-1.16,0.01-1.73
		c0.1-0.04,0.28-0.09,0.28-0.12c-0.12-1.39,0.52-2.7,0.42-4.08v-1.05c0.1-0.04,0.28-0.08,0.28-0.12c-0.11-1.5,0.59-2.93,0.42-4.43
		c0.17-0.87-0.19-1.75,0.29-2.68c0.37-0.73-0.14-1.79,0.41-2.61c-0.28-2.75,0.49-5.46,0.34-8.09c-0.48-0.74-1.11-1.08-1.82-1.32
		c-0.32,0.38-0.78,0.36-0.91,0.37c-0.62,0.53-1.06,0.9-1.43,1.22c-0.04,0.54,0.02,1.03-0.12,1.45c-0.27,0.83-0.6,1.65-0.6,2.54
		c0,0.96-0.61,1.83-0.36,2.82c-0.21-0.04-0.34,0.09-0.34,0.27c-0.02,0.91-0.06,1.83,0.01,2.74c0.07,0.91-0.57,1.69-0.37,2.59v1.05
		c-0.1,0.04-0.28,0.09-0.28,0.12c0.13,1.46-0.44,2.85-0.42,4.3c0.01,0.74,0,1.49,0,2.23c-0.41,1.44-0.47,2.93-0.69,4.39
		c-0.14,0.99,0.24,2.04-0.36,2.97c0.24,1.65-0.59,3.23-0.35,4.88c-0.47,0-0.3,0.37-0.35,0.62c-0.15,0.76,0.33,1.6-0.29,2.3
		c0.02,1.6-0.43,3.25,0.45,4.83C129.69,110.65,129.75,111.32,130.13,111.25"/>
	<path class="st5" d="M220.73,108.11c0.33,0.03,0.38-0.21,0.35-0.44c-0.22-1.58,0.57-3.09,0.35-4.67c0.61-1.28,0.26-2.65,0.35-3.98
		c0.1-0.04,0.28-0.08,0.29-0.12c0.13-1.78,0.52-3.53,0.7-5.28c0.19-1.92,0.65-3.83,0.42-5.79c-0.04-0.34-0.01-0.7-0.01-1.05
		c0.1-0.04,0.29-0.09,0.29-0.12c-0.09-1.54,0.57-3,0.43-4.55c-0.07-0.72-0.01-1.42,0.31-2.14c0.28-0.64-0.11-1.39,0.32-2.15
		c0.32-0.57,0.06-1.48,0.06-2.23c0.1-0.04,0.28-0.08,0.28-0.12c-0.06-1.61,0.62-3.16,0.42-4.78c0.15-1.26,0.89-2.4,0.73-3.42
		c0.34-1.09,1.07-1.72,1.03-2.66c0.43-0.67,1.3-0.98,1.46-1.85c0.84-0.21,1.25-0.96,1.83-1.49c0.54-0.5,1.03-1.06,1.83-1.06
		c0.27,0,0.4-0.15,0.59-0.29c0.68-0.5,1.44-0.78,2.3-0.77c1.28,0.01,2.56,0,3.85,0c1.44,0,2.66,0.63,3.75,1.48
		c0.49,0.38,0.98,0.71,1.53,0.97c-0.15,0.72,0.44,1.05,0.86,1.33c0.45,0.3,0.34,1.2,1.24,1.1v-2.43c-0.18-0.7,0.4-1.24,0.37-1.93
		c-0.02-0.59-0.07-1.16,0.26-1.79c0.31-0.59,0.07-1.47,0.07-2.22c0.57-0.05,0.33-0.5,0.34-0.78c0.07-1.49-0.18-3.01,0.36-4.47
		c-0.27-1.32,0.54-2.54,0.35-3.85h15.04c0.35-0.03,0.42,0.25,0.33,0.44c-0.14,0.3-0.36,0.53-0.35,0.91
		c0.03,0.57,0.14,1.25-0.12,1.68c-0.35,0.58-0.16,1.12-0.2,1.67c-0.04,0.56-0.21,1.08-0.31,1.61c-0.18,0.89-0.05,1.85-0.05,2.78v1.4
		c-0.1,0.04-0.28,0.08-0.28,0.12c-0.04,1.6-0.63,3.16-0.42,4.78c-0.1,0.04-0.27,0.07-0.29,0.13c-0.05,0.22-0.04,0.45-0.07,0.67
		c-0.09,1.02,0.25,2.08-0.2,3.06c-0.4,0.89,0.21,1.94-0.5,2.76c0.26,1.55-0.54,3.02-0.35,4.57c-0.35-0.03-0.35,0.21-0.35,0.45
		c0.06,2.38-0.06,4.74-0.7,7.05c0.22,1.61-0.6,3.14-0.35,4.75v2.1c-0.1,0.04-0.27,0.06-0.29,0.13c-0.39,1.62-0.56,3.3-0.67,4.93
		c-0.13,1.93-0.46,3.85-0.44,5.79c0.05,0.29-0.35,0.36-0.33,0.55c0.1,1.31-0.22,2.57-0.35,3.85c-0.08,0.74-0.01,1.5-0.01,2.25
		c0.18,0.75-0.42,1.35-0.38,2.11c0.03,0.63,0.32,1.37-0.3,1.95c-0.12,0.11-0.04,0.45-0.01,0.67c0.22,1.65-0.54,3.23-0.35,4.88
		c-0.47,0.83-0.33,1.74-0.35,2.63c-0.22-0.04-0.36,0.1-0.34,0.28c0.15,1.32-0.22,2.57-0.45,3.84h-15.05
		c0.67-1.03,0.4-2.07,0.45-3.07v-1.57c-0.46,0.59-0.5,1.14-1.19,1.28c-0.43,0.08-0.75,0.69-1.13,1.04
		c-1.47,1.36-3.09,2.37-5.12,2.82c-1.07,0.24-2.08,0.62-3.21,0.67c-0.93,0.04-1.74-0.37-2.64-0.45c-0.73-0.07-1.42-0.74-2.11-1.16
		c-1.72-1.04-2.5-2.81-3.44-4.47c-0.23-0.41,0.33-1.06-0.41-1.3V108.11z M244.86,76.27c0.11-1.06-0.08-2.11,0.29-3.2
		c0.36-1.07-0.38-2.1-0.77-3.1c-0.56-0.02-1.08,0.11-1.48-0.32c-0.36,0.64-1.12,0.05-1.66,0.61c-0.75,1.32-1.47,2.79-1.28,4.55
		c0.15,1.43-0.6,2.79-0.35,4.23c0.01,0.06,0.03,0.14,0,0.17c-0.67,0.62-0.1,1.47-0.37,2.12c-0.32,0.77-0.39,1.54-0.31,2.31
		c0.15,1.44-0.61,2.79-0.36,4.23c-0.52,0.58-0.44,1.31-0.32,1.95c0.15,0.75-0.4,1.26-0.41,1.96c-0.01,1.3,0.27,2.63-0.33,3.88
		c0.22,1.61-0.6,3.14-0.35,4.75c-0.33-0.03-0.35,0.2-0.35,0.44c0,1.37,0,2.74,0,4.11c-0.34-0.03-0.34,0.21-0.35,0.45
		c-0.06,1.06,0.18,2.14-0.32,3.17c-0.12,0.24-0.15,0.67,0.17,0.95c0.39,0.36-0.03,0.89,0.36,1.18c0.23,0.33,0.46,0.66,0.64,0.91
		c0.97-0.06,1.85,0.16,2.58-0.48c0.11-0.67,0.72-1.14,0.82-1.9c0.08-0.58,0.46-1.16,0.29-1.77c-0.18-0.68,0.49-1.17,0.34-1.77
		c-0.13-0.55,0.42-0.77,0.38-1.25c-0.13-1.88,0.6-3.7,0.35-5.59c-0.05-0.34-0.15-0.8,0.02-1.02c0.61-0.79-0.01-1.77,0.37-2.46
		c0.5-0.91,0.16-1.79,0.3-2.66c0.21,0.04,0.34-0.09,0.34-0.27c0.01-0.97,0.11-1.95-0.02-2.91c-0.13-0.99,0.42-1.83,0.38-2.77
		c0-0.35-0.13-0.77,0.02-1.03c0.52-0.85,0.03-1.88,0.39-2.62c0.45-0.92,0.17-1.78,0.28-2.66c0.06-0.46,0.01-0.92,0.01-1.39
		c0.56-0.05,0.32-0.48,0.34-0.76C244.54,77.62,244.37,76.89,244.86,76.27"/>
	<path class="st5" d="M84.3,121.75c-0.62,0.05-1.15-0.3-1.67-0.51c-0.4-0.16-0.75-0.13-1.12-0.19c0.02-0.3-0.17-0.37-0.41-0.35
		c-0.5,0.05-0.94-0.07-1.34-0.35c-0.58-0.36-1.09-0.81-1.66-1.19c-1.43-0.95-2.15-2.56-3.2-3.87c-0.15-0.19-0.06-0.54-0.14-0.81
		c-0.24-0.83-0.62-1.63-0.6-2.53c-0.4-0.47-0.35-1.03-0.35-1.6c0.01-2.09,0.1-4.19-0.03-6.27c-0.13-2.07,0.47-4.07,0.38-6.13
		c0.39-0.47,0.42-1.03,0.34-1.59c-0.25-1.83,0.54-3.58,0.36-5.4c0.59-0.81,0.04-1.86,0.41-2.6c0.45-0.92,0.15-1.78,0.29-2.66
		c0.1-0.04,0.28-0.08,0.28-0.12c0.04-0.85,0.11-1.7,0.05-2.54c-0.07-0.9,0.57-1.68,0.37-2.59c-0.05-0.68,0.58-1.23,0.36-1.95
		c-0.16-0.53,0.47-1.09-0.01-1.63c0.66-1.32,0.61-2.87,1.3-4.18c0.16-0.31-0.27-0.28-0.18-0.49c0.33-0.85,1.09-1.53,0.97-2.56
		c-0.01-0.06-0.03-0.14,0-0.17c0.93-0.97,1.05-2.39,1.92-3.41c0.46-0.54,0.92-1.13,1.39-1.64c1.56-1.67,3.26-3.24,5.45-4.08
		c0.81-0.31,1.58-0.69,2.37-1.02c0.15-0.06,0.23-0.25,0.43-0.22c1.38,0.24,2.66-0.48,4.05-0.37c1.33,0.11,2.68,0,4.01,0.03
		c0.66,0.02,1.26,0.55,1.95,0.33c0.73-0.23,1.29,0.3,1.95,0.41c0.6,0.1,1.09,0.73,1.81,0.65c0.77,0.92,1.94,1.27,2.85,2.04
		c1.65,1.39,2.7,3.1,3.64,4.96c0.28,0.4,0.41,0.84,0.35,1.34c-0.03,0.24,0.04,0.43,0.35,0.41c0.08,0.54-0.13,1.07,0.31,1.62
		c0.3,0.38-0.2,1.1,0.28,1.61c0.26,0.27,0.07,0.66,0.11,0.99c0.24,2.22-0.54,4.4-0.35,6.62c-0.61,0.87-0.26,1.87-0.35,2.8
		c-0.21-0.04-0.34,0.09-0.34,0.27c-0.02,0.91-0.1,1.84,0.02,2.73c0.12,0.93-0.47,1.7-0.38,2.6c0.22,0.92-0.29,1.75-0.35,2.63
		c-0.06,0.88,0.03,1.75-0.29,2.65c-0.29,0.83-0.06,1.83-0.06,2.76c-0.1,0.04-0.28,0.08-0.29,0.12c-0.12,1.55-0.38,3.07-0.74,4.58
		c-0.15,0.66-0.08,1.4-0.01,2.09c0.07,0.7-0.55,1.25-0.36,1.95c-0.04,0.67-0.33,1.25-0.62,1.83c-0.17,0.34-0.03,0.53,0.2,0.72
		c-0.78,1.57-1.08,3.35-2.04,4.83c-0.98,1.53-1.95,3.06-3.17,4.45c-1.18,1.35-2.64,2.25-4.07,3.18c-1.49,0.98-3.28,1.31-4.99,1.78
		H84.3z M89.55,96.56v1.4v1.05c-0.1,0.04-0.28,0.08-0.28,0.12c0.11,1.5-0.59,2.93-0.42,4.43v0.7c-0.22-0.04-0.34,0.1-0.34,0.28
		c-0.01,1.8-0.01,3.6,0,5.4c0,0.18,0.12,0.31,0.34,0.27c-0.14,0.48,0.19,0.74,0.49,1.01h2.08c0.73-0.42,0.93-1.09,1.3-1.69
		c-0.22-0.94,0.16-1.83,0.44-2.73c0.06-0.19,0.25-0.34,0.24-0.59c-0.04-1.82,0.58-3.59,0.35-5.42c-0.04-0.29-0.13-0.68,0.02-0.85
		c0.62-0.78,0-1.77,0.38-2.45c0.5-0.91,0.16-1.79,0.3-2.66c0.1-0.04,0.28-0.08,0.28-0.12c-0.11-1.73,0.59-3.4,0.42-5.13v-1.75
		c0.1-0.04,0.28-0.07,0.28-0.12c0.06-1.37,0.63-2.69,0.42-4.08v-2.45c0.32,0.02,0.35-0.19,0.35-0.43c0-0.67,0-1.35,0-2.02
		c0.1-0.04,0.28-0.08,0.29-0.12c0.04-0.51,0.11-1.04,0.05-1.54c-0.08-0.6,0.42-0.99,0.39-1.6c-0.08-1.67-0.03-3.35-0.03-4.7
		c-0.59-0.62-0.98-1.04-1.36-1.44h-1.29c-1.31,1.01-1.72,2.14-1.9,4.51c-0.1,0.04-0.28,0.08-0.28,0.12
		c0.03,1.49-0.64,2.92-0.42,4.43c0,0.69,0.21,1.48-0.05,2.06c-0.4,0.9,0,1.88-0.36,2.62c-0.45,0.92-0.15,1.79-0.29,2.66
		c-0.21-0.04-0.34,0.09-0.34,0.27c-0.01,1.03-0.05,2.06,0,3.09c0.05,1.01-0.63,1.92-0.36,2.94c-0.1,0.04-0.28,0.09-0.28,0.12
		C90.09,93.63,89.51,95.07,89.55,96.56"/>
	<path class="st5" d="M188.89,100.76c0.17,0.49-0.41,0.76-0.36,1.24c0.05,0.46,0.14,0.98-0.01,1.38c-0.61,1.55-0.2,3.15-0.33,4.72
		c-0.32-0.02-0.35,0.19-0.35,0.43c0,0.67,0,1.35,0,2.02c-0.3-0.02-0.35,0.17-0.35,0.41c0,0.33,0,0.66,0,0.99v1.4
		c-0.21-0.04-0.34,0.09-0.34,0.27c-0.01,1.03-0.05,2.06,0,3.09c0.05,1.01-0.63,1.92-0.36,2.94c-0.81,0.22,0.01,1.08-0.48,1.36
		h-14.44c-0.5-0.9,0.34-1.61,0.25-2.46c-0.1-0.9-0.02-1.82-0.02-2.92c-0.54,0.69-0.59,1.4-1.12,1.81c-0.5,0.39-0.72,0.96-0.98,1.51
		c-0.94,0.51-1.47,1.45-2.3,2.1c-0.96-0.12-1.53,0.75-2.48,0.91c-0.72-0.51-1.5,0.4-2.37,0.17c-0.85-0.23-1.83,0.24-2.64-0.38
		c-0.28-0.06-0.33,0.27-0.46,0.3c-0.92-0.47-1.78-0.93-2.66-1.35c-1.77-0.84-2.91-2.12-3.19-4.14c-0.12-0.85-0.75-1.59-0.68-2.51
		v-4.9c-0.19-0.7,0.42-1.25,0.37-1.95c-0.04-0.6-0.12-1.2,0.29-1.8c0.22-0.32,0.06-0.91,0.04-1.37c-0.09-2.14,0.39-4.18,0.98-6.23
		c0.32-1.1,0.55-2.19,1.11-3.22c0.86-1.59,1.05-1.59,2.58-2.96c1.36-1.21,2.97-1.91,4.5-2.7c2.3-1.18,4.6-2.4,6.99-3.37
		c1.54-0.62,2.84-1.57,4.28-2.32c1.01-0.53,1.22-1.67,1.26-2.76c0.1-0.04,0.28-0.07,0.28-0.12c0.18-1.59,0.59-3.16,0.42-4.78v-4.69
		c-0.42-0.43-0.82-0.85-1.21-1.25h-1.17c-1.27,0.42-1.61,1.22-1.89,2.28c-0.28,1.07-0.64,2.1-0.63,3.23
		c0.01,0.9,0.01,1.77-0.31,2.67c-0.29,0.82,0.23,1.82-0.39,2.64c0.24,1.1-0.31,2.11-0.35,3.18h-13.99c0-0.87-0.02-1.74,0.01-2.61
		c0.03-0.89,0.57-1.71,0.34-2.64c-0.17-0.5,0.41-0.76,0.36-1.25c-0.05-0.46-0.16-1,0.02-1.37c0.42-0.86,0.24-1.82,0.63-2.7
		c0.31-0.68,0.57-1.45,0.36-2.22c0.49-0.22,0.56-0.73,0.64-1.01c0.65-2.25,1.97-4.07,3.62-5.62c1.48-1.39,3.14-2.59,4.93-3.59
		c0.78-0.43,1.69-0.36,2.46-0.78c0.16-0.09,0.31-0.14,0.27-0.36c0.81,0.18,1.46-0.5,2.3-0.38c0.85,0.12,1.74,0.03,2.61,0.03h5.58
		c0.76-0.25,1.38,0.35,2.1,0.35c0.77,0.39,1.51,0.89,2.45,0.7c-0.04,0.29,0.21,0.47,0.38,0.53c1.35,0.47,2.18,1.55,3.16,2.48
		c0.87,0.82,1.36,1.81,1.76,2.94c0.25,0.7,0.41,1.52,1,2.1v1.4v8.74c-0.12,0.24-0.36,0.5-0.33,0.72c0.21,1.77-0.46,3.48-0.37,5.24
		c0.05,0.96-0.52,1.81-0.38,2.81c0.13,0.91,0.03,1.85,0.03,2.77c-0.1,0.04-0.28,0.07-0.29,0.12c-0.26,1.76-0.58,3.53-0.68,5.28
		C189.22,97.14,188.71,98.93,188.89,100.76 M170.7,111.25c1.17,0.01,1.52-0.98,1.69-1.76c0.2-0.9,0.66-1.81,0.41-2.79
		c0.58-0.06,0.32-0.52,0.34-0.8c0.06-0.72-0.16-1.48,0.42-2.05c-0.18-0.25-0.31-0.42-0.52-0.71c0.35-0.24,0.55-0.57,0.47-0.99
		c0.06-0.83-0.22-1.71,0.35-2.46c-0.26-1.49,0.47-2.89,0.36-4.38c-0.07-0.98-0.01-1.97-0.01-2.96c0.17,0.03,0.27-0.05,0.31-0.21
		c0.01-0.03-0.08-0.11-0.1-0.1c-0.16,0.04-0.24,0.14-0.21,0.31h-0.56c-0.17,0.24-0.1,0.69-0.44,0.82c-1.05,0.42-1.48,1.42-2.2,2.16
		c-1.67,1.73-2.17,3.85-2.39,6.11c-0.1,0.04-0.28,0.08-0.28,0.12c0.03,1.5-0.62,2.94-0.43,4.46c0.07,0.56,0.01,1.14,0.01,1.71v0.7
		v1.93c0.39,0.36,0.81,0.74,1.33,1.22C169.59,111.29,170.3,112.08,170.7,111.25"/>
	<path class="st5" d="M62.27,117.55c-1.29,1.1-2.69,2.03-4.2,2.8c-0.4,0.28-0.84,0.41-1.34,0.35c-0.24-0.03-0.43,0.04-0.41,0.35
		c-0.82,0.23-1.63,0.47-2.45,0.7h-8.4c-0.96-0.38-1.9-0.88-2.81-0.7c-1.34-0.62-2.43-1.31-3.49-2.08c-1.53-1.11-1.56-1.05-2.84-3.02
		c-0.14-0.21-0.3-0.51-0.65-0.5c0-0.23,0.09-0.52-0.01-0.68c-0.72-1.11-1-2.38-1.31-3.62c-0.23-0.91-0.56-1.8-0.43-2.78
		c0.07-0.57,0.02-1.16,0.01-1.73c-0.01-0.18-0.12-0.31-0.34-0.27v-0.7c0.22,0.04,0.34-0.1,0.34-0.28c0.02-0.7,0.01-1.4,0.01-2.1
		c0-0.7-0.18-1.46,0.05-2.08c0.25-0.67,0.38-1.31,0.28-1.97c-0.11-0.73,0.37-1.28,0.37-1.96c0-0.93,0.02-1.86,0-2.79
		c-0.03-0.96,0.61-1.84,0.36-2.82c-0.18-0.7,0.42-1.24,0.37-1.93c-0.05-0.65-0.18-1.35,0.35-1.9c-0.21-0.5-0.53-0.86-0.16-1.53
		c0.43-0.78,0.09-1.79,0.15-2.69c0.1-0.04,0.28-0.07,0.28-0.12c0.06-1.37,0.63-2.69,0.42-4.08c0.32,0.02,0.35-0.19,0.35-0.43
		c0-0.85,0-1.7,0-2.54c0.32-0.21,0.4-0.52,0.35-0.87c0.15-1.26,0.89-2.4,0.7-3.61c0.74-0.97,0.92-2.07,1.37-3.05
		c0.52-1.14,1.12-2.22,1.76-3.29c0.95-1.6,2.59-2.49,3.82-3.8c1.25-0.38,2.11-1.53,3.51-1.67c0.61-0.06,1.01-0.83,1.75-0.82
		c0.12,0,0.23-0.23,0.44-0.2c1.26,0.19,2.43-0.58,3.7-0.36c0.33,0.06,0.65,0.02,0.95-0.27c0.15-0.15,0.61-0.17,0.82-0.05
		c0.91,0.51,1.93,0.11,2.83,0.37c1.23,0.36,2.56,0.09,3.74,0.67c3.03,1.5,4.56,2.5,5.81,4.09c1.04,1.33,1.85,2.81,2.41,4.41
		c0.05,0.15,0.21,0.27,0.36,0.46c-0.24,0.75,0.24,1.45,0.33,2.22c0.11,1.46,0.49,2.89,0.37,4.38c-0.09,1.15-0.1,2.33,0,3.48
		c0.11,1.16-0.63,2.19-0.37,3.34c0.24,0.77-0.31,1.4-0.36,2.12c-0.05,0.66,0.2,1.33-0.29,1.99c-0.14,0.18,0.08,0.78-0.01,1.25
		c-0.14,0.67,0.2,1.52-0.1,2.05c-0.37,0.67-0.13,1.33-0.37,1.99H50.54c-0.35,0.98-0.36,2-0.59,2.94c-0.35,1.48-0.24,2.94-0.26,4.41
		c-0.01,0.64-0.48,1.11-0.4,1.78c0.06,0.52,0.04,1.05-0.25,1.63c-0.3,0.6-0.07,1.48-0.07,2.23c-0.22-0.04-0.33,0.09-0.35,0.27
		c-0.12,1.22,0.27,2.48-0.35,3.65c0.28,0.66,0.17,1.45,0.7,2.02c0.09,0.5,0.62,0.63,0.79,1c1.01,0.25,1.83-0.27,2.71-0.4v-0.6
		c1.12-0.6,1.5-1.58,1.4-2.8c-0.09-0.9,0.59-1.7,0.35-2.63c0.62-0.49,0.39-1.19,0.32-1.76c-0.2-1.72,0.5-3.35,0.38-5.06
		c0.57-0.75,0.28-1.63,0.35-2.45h13.99c0.46,0,0.31,0.36,0.35,0.61c0.26,1.58-0.4,3.08-0.35,4.64c0.18,0.45-0.33,0.69-0.35,1.07
		c-0.01,0.35-0.06,0.71,0.01,1.04c0.11,0.46-0.35,0.68-0.37,1.13c0.1,0.14,0.23,0.32,0.35,0.49c0.06,0.28-0.23,0.4-0.27,0.59
		c-0.26,1.22-0.3,2.5-1.12,3.54c0.11,1.37-0.76,2.35-1.36,3.44c-0.65,1.19-1.38,2.33-2.08,3.49c-0.08,0.13-0.19,0.31-0.41,0.25
		c-0.55,0.14-0.76,0.51-0.7,1.05h-0.7V117.55z M57.1,75.86c-0.53-0.38-0.58-0.94-0.4-1.29c0.51-0.99,0.22-2.01,0.32-3.01
		c0.09-0.91-0.21-1.65-0.83-2.23H54l-1.17,1.17c0,0.45,0.18,1.06-0.04,1.34c-0.39,0.49-0.38,0.99-0.28,1.45
		c0.14,0.64-0.54,1.01-0.38,1.61c0.22,0.82-0.41,1.49-0.36,2.3c0.05,0.87,0.02,1.74,0.01,2.61c0,0.22,0.06,0.44-0.14,0.64
		c-0.34,0.33-0.3,0.7-0.08,1.01h4.69c0.29-0.91-0.06-1.79,0.37-2.7C56.99,77.96,56.39,76.85,57.1,75.86"/>
	<path class="st5" d="M295.23,98.31v2.8c-0.57,0.05-0.33,0.5-0.34,0.78c-0.07,1.49,0.18,3.01-0.36,4.47c0,0.35,0.14,0.81-0.03,1.03
		c-0.57,0.76-0.13,1.66-0.46,2.44c-0.56,1.29-0.79,2.69-1.47,3.94c-0.25,0.46-0.65,0.92-0.51,1.51c-0.6,0.77-1.27,1.48-1.9,2.18
		c-1.44,1.59-3.16,2.91-5.29,3.61c-1.35,0.44-2.64,1.06-4.12,1.07c-0.23,0-0.53,0.37-0.9,0.31h-5.6h-0.7
		c0.04-0.22-0.09-0.31-0.28-0.35c-1.54-0.34-3.13-0.5-4.62-1.05c-2.09-0.82-3.65-2.33-5.15-3.93c-0.75-0.8-1.4-2.99-1.64-4.17
		c-0.35-1.74-0.11-3.48-0.19-5.21c-0.05-1.04-0.01-2.09-0.01-3.13c0.1-0.04,0.28-0.09,0.28-0.12c-0.12-1.5,0.47-2.94,0.42-4.43
		h13.29c0.06,0.68-0.17,1.31-0.32,1.96c-0.15,0.66-0.03,1.39-0.07,2.08c-0.01,0.13-0.21,0.25-0.35,0.41
		c0.25,0.59,0.49,1.11,0.26,1.87c-0.39,1.28-0.37,2.63,0.06,3.99c0.23,0.74,0.3,1.29,1.22,1.25c0.25-0.01,0.38,0.44,0.75,0.36
		c0.95-0.42,1.97-0.71,2.65-1.64v-1.19c0.3,0.02,0.35-0.17,0.35-0.41c0-0.33,0-0.66,0-0.99c0.1-0.04,0.29-0.09,0.28-0.12
		c-0.12-1.42,0.45-2.77,0.45-4.19c0-0.82-0.3-1.52-0.53-2.24c-0.14-0.43-0.21-1.2-1.03-1.14c-1.08-1.07-2.46-1.79-3.51-2.84
		c-1.09-1.09-2.45-1.77-3.62-2.72c-1.97-1.6-4.03-3.06-5.48-5.21c-0.43-0.64-1.2-1.05-1.46-1.84c-0.3-0.92-0.58-1.85-0.86-2.78
		c0.04-0.96-0.51-1.81-0.38-2.81c0.12-0.91,0.12-1.86,0-2.77c-0.14-1,0.41-1.86,0.38-2.81c-0.15-0.85,0.61-1.58,0.35-2.45
		c0.62-0.87,0.25-1.86,0.35-2.8c0.21-0.23,0.63-1.26,0.7-1.75c0.06-0.38,0.26-0.72,0.39-1.06c1.25-3.3,3.53-5.7,6.7-7.25
		c1.02,0.03,1.73-0.95,2.83-0.82c0.39,0.05,0.85-0.42,1.28-0.65c1.46-0.1,2.89-0.51,4.38-0.36c0.8,0.08,1.62,0.01,2.43,0.01
		c0.52,0,1.05,0.06,1.56-0.02c0.55-0.09,0.88,0.53,1.42,0.37h0.7c1.12,0.54,2.41,0.66,3.44,1.4c0.73-0.28,0.99,0.47,1.44,0.73
		c1.04,0.6,2.03,1.36,2.61,2.44c0.34,0.62,0.83,1.06,1.25,1.57c-0.13,0.94,0.83,1.56,0.76,2.49c-0.01,0.08,0.22,0.16,0.23,0.25
		c0.08,2.14,0.12,4.28-0.02,6.42c-0.01,0.14-0.27,0.29-0.25,0.41c0.22,1.5-0.63,2.9-0.31,4.52c-2.29,0.16-4.54,0.05-6.78,0.07
		c-2.26,0.02-4.53,0-6.94,0c0.08-0.83-0.25-1.7,0.18-2.37c0.47-0.75-0.17-1.59,0.43-2.29c0.21-0.24,0.1-0.77,0.11-1.16
		c0.01-0.99,0-1.98,0-3.15c-0.28-0.17-0.67-0.42-1.3-0.81h-2.02c-1.38,1.19-1.74,2.82-1.89,4.47c-0.13,1.44-0.03,2.91-0.03,4.59
		c0.1,0.07,0.46,0.19,0.55,0.42c0.74,1.81,2.22,2.79,3.77,3.84c2.28,1.54,4.58,3.05,6.8,4.67c0.67,0.49,1.35,1.06,1.88,1.78
		c0.52,0.69,1.32,1.18,1.8,1.89c0.54,0.79,0.94,1.71,1.24,2.62c0.11,0.32,0.41,0.54,0.39,0.89c0,0.91,0,1.81,0,2.72
		C294.88,98.12,294.91,98.34,295.23,98.31"/>
	<path class="st5" d="M23.79,76.27c0.06,1.23-0.25,2.41-0.62,3.57c-0.11,0.35-0.07,0.67-0.08,1.01c-0.02,1.16-0.01,2.32-0.01,3.47
		c-0.1,0.04-0.28,0.08-0.28,0.12c0.06,1.61-0.62,3.16-0.42,4.78c-0.57,0.06-0.33,0.5-0.34,0.78c-0.09,1.61,0.21,3.24-0.36,4.82
		c-0.02,0.89-0.02,1.76-0.31,2.65c-0.26,0.82-0.08,1.73-0.32,2.64c-0.29,1.08-0.07,2.3-0.07,3.46c-0.22-0.04-0.34,0.1-0.34,0.28
		c-0.02,0.69-0.01,1.38-0.01,2.17h9.44h0.17c-0.08,1.75-0.55,3.45-0.52,5.21c0.01,0.29-0.31,0.37-0.33,0.56
		c-0.05,0.38-0.18,0.84,0.25,0.98c-0.36,2.65-0.72,5.23-1.08,7.88c-0.42,0.27-1.14-0.24-1.49,0.41c-0.46,0.17-0.61-0.39-1.09-0.38
		c-2.5,0.07-5.02-0.19-7.48,0.11c-1.71,0.21-3.45,0.49-5.08,0.19c-1.9-0.35-3.75-0.12-5.62-0.27c-0.42-0.03-0.78,0.05-1.1,0.38
		c-1.2-0.72-2.55-0.19-3.82-0.43c-0.23-0.18-0.07-0.43-0.12-0.65c0.32,0.02,0.35-0.19,0.35-0.43c0-0.67,0-1.35,0-2.02
		c-0.05-0.29,0.36-0.37,0.33-0.55c-0.2-1.32,0.47-2.55,0.36-3.84c-0.15-1.71,0.6-3.34,0.35-5.06c0.22,0.04,0.35-0.1,0.34-0.28
		c-0.07-1.54,0.63-3.02,0.35-4.56c-0.06-0.32,0.4-0.38,0.3-0.62c-0.14-0.19-0.35-0.26-0.29-0.48v-1.05c0.1-0.04,0.28-0.09,0.28-0.12
		c-0.12-1.62,0.54-3.17,0.42-4.78v-0.35c0.1-0.04,0.28-0.09,0.28-0.12c-0.13-1.46,0.44-2.85,0.42-4.29c-0.01-0.63,0-1.26,0-1.89
		v-0.35c0.1-0.04,0.28-0.08,0.28-0.12C6.54,87.37,7.22,85.71,7,83.97v-2.1c0.1-0.04,0.28-0.08,0.28-0.12
		C7.22,80.14,7.9,78.6,7.7,76.97c0.1-0.04,0.28-0.09,0.28-0.12C7.85,75.39,8.42,74,8.4,72.55c-0.01-0.86,0-1.72,0-2.58
		c-0.17-0.49,0.41-0.76,0.36-1.24c-0.05-0.46-0.15-0.98,0.02-1.37c0.51-1.21,0.28-2.45,0.31-3.68c0.01-0.62,0.46-1.11,0.39-1.76
		c-0.06-0.52,0.03-1.05,0.25-1.61c0.29-0.75,0.07-1.7,0.07-2.57c0.1-0.04,0.28-0.08,0.28-0.12c-0.04-1.73,0.64-3.39,0.42-5.13
		c0.02-0.89,0.02-1.76,0.31-2.64c0.27-0.82-0.1-1.75,0.35-2.64c0.23-0.46,0.04-1.14,0.04-1.71c0.33,0.03,0.35-0.2,0.35-0.44
		c0-1.25,0-2.51,0-3.76h15.74v3.5v1.4c-0.1,0.04-0.28,0.08-0.28,0.12c0.06,1.61-0.62,3.16-0.42,4.78v0.35
		c-0.33-0.03-0.35,0.2-0.35,0.44c0,1.37,0,2.74,0,4.11c-0.22-0.04-0.36,0.1-0.34,0.27c0.15,1.36-0.6,2.63-0.36,3.99
		c-0.62,1.7-0.25,3.46-0.35,5.19c-0.1,0.04-0.28,0.07-0.29,0.12c-0.22,1.82-0.4,3.65-0.74,5.46c-0.16,0.84-0.12,1.75,0,2.61
		C24.29,74.57,23.7,75.36,23.79,76.27"/>
	<path class="st5" d="M221.07,79.07v1.4h-2.1c-1.04-0.29-1.95,0.49-2.97,0.35c-0.2,0.2-0.4,0.41-0.61,0.61
		c-0.27,0.25-0.69-0.11-0.95,0.25c-0.69,0.69-1.38,1.38-2.05,2.05c-0.16,0.32,0.05,0.67-0.25,0.98c-0.75,0.76-0.88,1.74-0.86,2.76
		c0.18,0.81-0.59,1.47-0.35,2.28c-0.64,1.41-0.24,2.91-0.35,4.36c-0.1,0.04-0.28,0.08-0.28,0.12c0.09,1.27-0.58,2.46-0.42,3.73v1.05
		c-0.22-0.04-0.35,0.1-0.34,0.28c0.1,1.77-0.61,3.49-0.36,5.27c0.02,0.17,0.08,0.42-0.01,0.51c-0.57,0.59-0.29,1.31-0.33,1.96
		c-0.05,0.72-0.6,1.36-0.36,2.12v1.05c-0.32-0.02-0.35,0.19-0.35,0.43c0,0.67,0,1.35,0,2.02c0.23,1.43-0.58,2.77-0.35,4.2v0.35
		c-0.1,0.04-0.28,0.09-0.28,0.11c0.12,1.28-0.45,2.47-0.42,3.73c-2.49,0-4.98,0.01-7.47,0c-2.52-0.02-5.05,0.08-7.57-0.06v-0.64
		c0.31,0.02,0.35-0.18,0.35-0.42c0-0.44,0-0.89,0-1.33v-1.05c0.01-0.78-0.01-1.54,0.32-2.3c0.28-0.64-0.1-1.38,0.32-2.14
		c0.32-0.58,0.06-1.47,0.06-2.22v-2.08c0.32,0.02,0.35-0.19,0.35-0.43c0-0.67,0-1.35,0-2.02c0.33,0.03,0.35-0.2,0.35-0.44
		c0-0.57-0.2-1.26,0.04-1.7c0.49-0.87,0-1.84,0.38-2.59c0.48-0.96,0.14-1.88,0.27-2.81c0.06-0.39,0.01-0.8,0.01-1.2
		c0.1-0.04,0.28-0.08,0.28-0.12c-0.04-1.73,0.64-3.39,0.42-5.13c0.33,0.03,0.35-0.2,0.35-0.44c0-1.25,0-2.51,0-3.76
		c0.06-0.37,0.45-0.61,0.37-1.07c-0.08-0.45-0.2-1.06,0.02-1.36c0.68-0.91,0.08-1.96,0.52-2.92c0.44-0.98,0.1-2.15,0.14-3.23
		c0.02-0.4,0-0.81,0-1.21v-0.35c0.1-0.04,0.28-0.07,0.29-0.12c0.31-2.1,0.86-4.17,0.77-6.32c-0.02-0.52,0.06-1.06-0.02-1.57
		c-0.09-0.56,0.53-0.88,0.37-1.43c-0.12-1.42,0.61-2.77,0.35-4.2c0.32,0.02,0.35-0.18,0.35-0.42c0-0.56,0-1.12,0-1.68v-2.1
		c4.81,0,9.61-0.01,14.42,0.02c0.32,0,0.85-0.35,0.97,0.33c-0.06,0-0.16-0.01-0.16,0c-0.14,1.06-0.59,2.06-0.54,3.15v1.05
		c-0.49,0.82-0.68,1.88-0.51,2.8h0.48c-0.07-0.57,0.34-0.98,0.53-1.45c0.25-0.61,1.08-0.9,0.91-1.69c0.38-0.07,0.5-0.39,0.71-0.64
		c0.35-0.42,0.76-0.8,1.05-1.28c0.11-0.19,0.29-0.41,0.49-0.48c0.91-0.33,1.42-1.06,1.95-1.79c0.6,0.03,1.2,0.07,1.4-0.7h0.7
		c0.62-0.48,1.31-0.39,2.1-0.28v1.33v1.05c0.24,0.76-0.3,1.39-0.36,2.11c-0.06,0.65,0.11,1.27-0.27,1.97
		c-0.32,0.58-0.06,1.47-0.06,2.22c-0.1,0.04-0.28,0.09-0.28,0.12c0.12,1.62-0.54,3.17-0.42,4.78v2.1c-0.1,0.04-0.27,0.06-0.28,0.12
		C221.24,76.34,220.93,77.68,221.07,79.07"/>
	<path class="st5" d="M228.07,135.74c-0.5,0.15-0.59,0.67-0.67,1.01c-0.3,1.34-0.94,2.63-0.71,4.04c-0.19,0.19-0.36,0.36-0.53,0.53
		h-2.1c-0.35-0.13-0.04-0.7-0.45-0.8c0.63-1.59,1.12-3.21,0.96-4.91c-1.57-2.28-2.14-5-3.59-7.33c0.54-0.4,1.07-0.19,1.55-0.23
		c0.52-0.04,1.04-0.01,1.58-0.01c0.37,0.98,0.56,2.05,1.13,2.86c0.6,0.84,0.17,2.07,1.31,2.69c0.85-0.7,0.86-2.03,1.73-2.78
		c0.86-0.74,1.3-1.79,1.97-2.72h2.93c0.13,1.08-1.2,1.34-1.32,2.29c-1.24,1.29-1.99,2.92-3.09,4.31
		C228.18,134.8,228.43,135.47,228.07,135.74"/>
	<path class="st5" d="M233.32,132.94c0.54-0.15,0.75-0.68,1.18-0.99c1.25-0.23,2.51-0.49,3.83-0.42c1.88,0.1,3.63,1.85,3.75,3.72
		c0.13,1.91-0.62,3.49-1.79,4.85c-1.37,1.59-3.23,1.91-5.19,1.39c-0.4-0.11-0.78-0.07-1.23-0.18c-1.74-1.27-2.07-3.14-1.95-5.19
		c0.02-0.39,0.53-0.62,0.35-1.08c0.64-0.08,0.2-0.62,0.38-0.89c0.22-0.35,0.76-0.49,0.67-1.04
		C233.31,133.05,233.32,133,233.32,132.94 M239.26,137.14c0.05-0.21-0.05-0.42,0.11-0.65c0.59-0.88,0.16-1.68-0.26-2.47
		c-0.56,0.05-0.73-0.48-1.09-0.73h-1.11c-1.1,0.31-1.56,0.96-1.85,1.75c-0.34-0.03-0.34,0.21-0.35,0.45
		c-0.02,0.4,0.09,0.87-0.09,1.18c-0.68,1.16,0.15,1.96,0.5,2.92c0.86,0,1.66,0.01,2.46-0.01c0.18,0,0.31-0.12,0.27-0.34
		c0.55-0.14,0.76-0.51,0.7-1.05C239.16,138.08,238.9,137.4,239.26,137.14"/>
	<path class="st5" d="M247.66,131.89c0.01,1.29-0.76,2.42-0.74,3.71c-0.69,0.17,0.26,0.61-0.16,0.88c-0.34,0.22-0.19,0.66-0.13,0.97
		c0.1,0.61-0.64,0.99-0.36,1.62c0.15,0.15,0.32,0.32,0.48,0.48c1.8,0.03,2.71-0.45,3.22-1.78c0.16-0.4,0.14-0.87,0.26-1.29
		c0.44-1.47,0.71-2.98,0.99-4.54h2.63c0.39,0.71-0.21,1.33-0.41,1.95c-0.12,0.39-0.14,0.76-0.19,1.14
		c-0.32-0.02-0.35,0.19-0.35,0.43c0,0.45-0.06,0.91,0.02,1.35c0.1,0.54-0.53,0.85-0.37,1.38c0.12,1.09-0.72,1.95-0.73,3.08h-2.34
		c-0.03-0.33,0.49-0.49,0.19-0.88c-0.83,0.01-1.2,1.11-2.11,0.95c-1.48,0.82-2.67,0.31-3.74-0.86c-0.06-0.49,0.09-1.05-0.27-1.51
		c0.51-0.41,0.2-0.97,0.24-1.46c0.05-0.72,0.61-1.35,0.36-2.12c0.34,0.03,0.32-0.21,0.36-0.44c0.18-1.05,0.33-2.12,0.83-3.06H247.66
		z"/>
	<path class="st5" d="M150.42,134.34v-0.35c0.32,0.02,0.35-0.19,0.35-0.43c0-0.45,0.06-0.91-0.02-1.35
		c-0.1-0.54,0.53-0.85,0.37-1.38c-0.17-0.5,0.41-0.76,0.36-1.25c-0.05-0.46-0.01-0.92-0.01-1.46c0.54-0.18,1.09-0.08,1.67-0.07
		c0.4,1.68-0.89,3.11-0.55,4.93c0.72-0.56,1.19-1.41,2.11-1.45c0.86-0.03,1.72-0.01,2.53-0.01c0.3,0.21,0.06,0.73,0.62,0.72
		c0.43-0.01,0.22,0.43,0.27,0.68c0,0.63,0.12,1.3-0.03,1.9c-0.16,0.65-0.43,1.27-0.31,1.94c0.12,0.66-0.42,1.14-0.36,1.76
		c0.21,0.93-0.84,1.68-0.14,2.72h-1.87c-0.39-0.71,0.22-1.29,0.25-1.93c0.03-0.84,0.09-1.65,0.32-2.49
		c0.17-0.62,0.64-1.22,0.39-1.94c0.82-0.7,0.01-1.29-0.09-1.94h-2.18c-0.3,0.43-0.88,0.58-1.29,0.94c-0.41,0.36-0.45,1.03-1,1.29
		c0.14,2.13-1.2,3.95-1.04,6.09h-1.71c-0.01-0.49-0.24-1.04,0.29-1.5c-0.21-1.04,0.41-1.97,0.37-2.99
		C149.93,136.49,150.39,134.87,150.42,134.34"/>
	<path class="st5" d="M167.91,139.24c-1.04,1.63-2.54,2.38-4.46,2.47c-0.61,0.03-0.99-0.63-1.61-0.31
		c-0.49-0.54-0.96-1.05-1.62-1.78c-0.59-1.27-0.45-2.86,0.01-4.43c0.47-1.61,1.44-2.85,3.05-3.64h3.4c0.39,0.28,0.64,0.79,1.21,0.84
		c-0.03,0.55,0.47,0.74,0.75,1.11c-0.29,1.19,1.1,2.47-0.29,3.63c-2.15,0.1-4.4-0.13-6.65,0.13c-0.14,0.02-0.25,0.23-0.38,0.36
		c0.42,0.39,0.29,0.91,0.31,1.46c0.39,0.36,0.82,0.74,1.32,1.2h1.98c0.73-0.52,1.06-1.39,1.59-2.09c0.39,0.29,0.84,0.37,1.4,0.41
		V139.24z M167.52,135.71c0.16-1.08-0.44-1.79-0.94-2.46c-0.43-0.57-1.22-0.85-1.95-0.63c-0.6,0.18-1.18,0.54-1.68,0.93
		c-0.66,0.52-1.08,1.22-0.98,2.16H167.52z"/>
	<path class="st5" d="M184.7,139.24c-0.82,0.91-1.45,2.1-2.93,2.1c-0.62,0.67-1.48,0.45-2.1,0.29c-0.69-0.18-1.53-0.37-1.97-1.15
		c-0.16-0.28-0.51-0.45-0.64-0.56c-0.89-3.95-0.38-5.37,2.25-7.72c1.33-0.8,2.53-0.64,3.7-0.65c1.01,0.34,1.62,1.19,2.36,1.88
		c-0.04,1.22,1.05,2.47-0.16,3.61c-0.33-0.03-0.84-0.25-1.13-0.08c-0.51,0.3-1,0.14-1.5,0.18c-0.58,0.05-1.16,0.01-1.74,0.01h-1.56
		c-0.21-0.19-0.37-0.5-0.75-0.29c-0.03,0.06-0.11,0.15-0.12,0.25c-0.13,1.25,0.12,2.37,1.2,3.14c1.62,0.29,2.86-0.26,3.69-1.7
		c0.58,0.06,1.19-0.12,1.78,0.11C184.93,138.89,184.65,138.96,184.7,139.24 M178.79,135.74h2.6h2.58v-1.94
		c-1.38-1.91-3.52-1.35-5.18,0.79V135.74z"/>
	<path class="st5" d="M197.99,135.74v-1.24c1.1-0.95,1.95-2.22,3.31-2.94h3.53c0.43,0.47,0.9,0.98,1.55,1.69
		c0.77,1.63,0.26,3.56-0.11,5.58c-0.1,0.1-0.37,0.27-0.5,0.52c-1.04,1.89-2.76,2.42-4.75,2.33c-1.33-0.06-2.68-1.2-3.03-2.44
		C197.44,138.07,197.44,136.91,197.99,135.74 M204.98,134.34c-0.18-0.9-0.5-1.22-1.4-1.4c-0.42-0.54-0.95-0.5-1.41-0.14
		c-0.32,0.26-0.69-0.04-1.1,0.36c-0.52,0.42-1.08,1.05-1.34,1.88c-0.25,0.83-0.44,1.68-0.67,2.57c0.16,0.26,0.34,0.58,0.33,1.01
		c-0.01,0.38,0.83,1.46,1.11,1.66c0.61,0.43,1.19,0.55,1.83,0.03c0.15-0.12,0.45-0.04,0.64-0.05c0.56-0.54,1.1-1.07,1.65-1.61
		c0.07-0.24-0.06-0.51,0.12-0.8c0.63-1,0.63-2.13,0.57-3.25C205.32,134.44,205.21,134.3,204.98,134.34"/>
	<path class="st5" d="M143.77,138.54c-1.02,0.68-0.56,1.79-0.75,2.73h-2.02c0.36-1.65,0.76-3.23,1.03-4.83c0.06,0,0.16,0.01,0.16,0
		c0.17-0.93,0.66-1.81,0.54-2.8c0.05-0.38-0.14-0.79,0.24-1.12c0.31-0.27-0.06-0.77,0.35-1.09c0.2-0.16-0.51-0.49-0.18-0.8
		c0.36-0.34,0.32-0.68,0.2-1.13h-3.89c-0.45-0.46-0.07-0.92-0.29-1.39h10.82c0.33,0.58-0.42,0.79-0.31,1.3h-4.35
		c-0.37,0.81,0.1,1.7-0.46,2.47c-0.48,0.65-0.33,1.55-0.67,2.33c-0.27,0.64-0.06,1.48-0.06,2.24c-0.32-0.02-0.35,0.18-0.35,0.42
		C143.77,137.42,143.77,137.98,143.77,138.54"/>
	<path class="st5" d="M195.54,134.34c0.02,0.35-0.4,0.49-0.37,0.9c0.13,1.69-0.49,3.24-0.97,4.82c-0.11,0.37-0.07,0.78-0.1,1.22
		h-1.58c-0.22-0.34-0.28-0.7,0.08-1.04c0.07-0.07,0.13-0.19,0.13-0.29c0.03-0.89,0-1.77,0.32-2.66c0.29-0.8,0.38-1.68,0.7-2.5
		c0.2-0.5,0.04-1.14,0.04-1.67c-0.28-0.3-0.59-0.12-0.87-0.18c-0.46-0.53-0.17-0.93,0.32-1.36c0.32-0.02,0.71-0.04,1.25-0.07
		c-0.23-0.9,0.55-1.65,0.33-2.52c0.42-0.63,1.01-0.96,1.72-1.3c0.58,0,1.28,0,1.97,0c0.16,0.16,0.33,0.33,0.5,0.5
		c0.02,0.39,0.1,0.78-0.05,1.16c-0.49,0.26-0.86,0.01-1.24-0.27c-0.34,0.15-0.69,0.3-1.01,0.44c-0.29,0.59-0.57,1.17-0.86,1.77
		c0.38,0.44,0.87,0.15,1.27,0.26c0.4,0.3,0.65,0.66,0.51,1.19c-0.09,0.16-0.26,0.15-0.41,0.2c-0.43,0.16-1.05-0.41-1.33,0.34
		C195.22,133.45,195.67,134,195.54,134.34"/>
	<path class="st5" d="M171.4,134.34c-0.1-0.98,0.24-1.84,0.65-2.61c0.45-0.33,0.86-0.13,1.23-0.19c0.36,0.12,0.09,0.57,0.52,0.73
		c1.02-0.7,2.22-0.96,3.65-0.59c-0.37,0.6-0.43,1.29-0.93,1.55c-0.53,0.18-0.57-0.35-0.94-0.29c-1.11,0.58-1.94,1.51-2.77,2.7
		c0.09,0.84-0.34,1.73-0.59,2.68c-0.25,0.94-0.26,1.96-0.58,2.97h-1.52c-0.13-0.08-0.09-0.26-0.12-0.43
		c-0.11-0.75,0.6-1.35,0.35-2.12c0.66-0.55,0.23-1.3,0.35-1.95C170.91,136.49,171.38,134.87,171.4,134.34"/>
	<path class="st5" d="M208.13,139.24c0.1-0.04,0.29-0.09,0.28-0.12c-0.09-1.08,0.39-2.07,0.47-3.14c0.07-1.05,0.54-2.08,0.91-3.09
		c0.11-0.29,0.02-0.56,0.12-0.87c0.39-0.24,0.83-0.13,1.24-0.08c0.53,0.52-0.58,0.74-0.18,1.22l0.12,0.12
		c0.56-0.58,1.12-1.17,1.63-1.7h1.92c0.16,0.16,0.29,0.29,0.44,0.44c-0.42,0.32-0.24,0.88-0.44,1.37c-1.12-0.82-1.92-0.28-2.68,0.45
		c-1.1,1.04-1.59,2.36-1.71,3.81c-0.06,0.79-0.42,1.44-0.67,2.16c0.09,0.1,0.2,0.22,0.29,0.33c0.09,0.46-0.5,0.64-0.39,1.11
		c-0.44,0.21-0.91,0.03-1.35,0.09V139.24z"/>
	<path class="st5" d="M192.39,117.55v1.05c-0.31-0.02-0.35,0.18-0.35,0.42c0,0.44,0,0.89,0,1.33v0.64c2.52,0.13,5.05,0.04,7.57,0.06
		c2.49,0.02,4.98,0,7.47,0h0.35c0.02,0.35-0.35,0.42-0.49,0.68h-15.17v-4.1C191.93,117.44,192.18,117.59,192.39,117.55"/>
	<path class="st5" d="M239.96,118.25c-0.05,1,0.21,2.04-0.45,3.07h15.05c0.23-1.28,0.6-2.53,0.45-3.84
		c-0.02-0.17,0.12-0.32,0.34-0.28v4.5h-16.12C239.42,120.49,238.83,119.21,239.96,118.25"/>
	<path class="st5" d="M34.98,91.66c0.25,0.99-0.38,1.86-0.36,2.82c0.02,0.93,0.01,1.86,0,2.79c0,0.67-0.48,1.23-0.37,1.96
		c0.1,0.65-0.03,1.3-0.28,1.97c-0.23,0.62-0.05,1.38-0.05,2.08c0,0.7,0.01,1.4-0.01,2.1c0,0.18-0.12,0.32-0.34,0.28v-8.27
		c0.27-0.1,0.47-0.17,0.71-0.26v-5.3C34.52,91.56,34.77,91.71,34.98,91.66"/>
	<path class="st5" d="M84.3,121.75h9.44v0.53c-0.04,0.04-0.08,0.11-0.12,0.11c-3.07,0.01-6.13,0.01-9.2,0.01
		C84.19,122.22,84.35,121.96,84.3,121.75"/>
	<path class="st5" d="M188.89,100.76c-0.18-1.83,0.33-3.62,0.43-5.44c0.1-1.75,0.42-3.52,0.68-5.28c0.01-0.05,0.19-0.08,0.29-0.12
		v5.16c-0.24,0.05-0.39,0.08-0.65,0.14v5.3C189.36,100.87,189.11,100.72,188.89,100.76"/>
	<path class="st5" d="M74.16,97.96c0.09,2.05-0.51,4.06-0.38,6.13c0.13,2.08,0.03,4.18,0.03,6.27c0,0.56-0.05,1.13,0.35,1.6
		c-0.17,0-0.35,0-0.52,0c-0.06-0.09-0.17-0.18-0.17-0.28c-0.01-4.53-0.01-9.06-0.01-13.53C73.69,97.85,73.94,98.01,74.16,97.96"/>
	<path class="st5" d="M208.48,109.15c-0.24-0.77,0.32-1.4,0.36-2.12c0.04-0.66-0.25-1.38,0.33-1.96c0.09-0.09,0.03-0.34,0.01-0.51
		c-0.25-1.78,0.46-3.5,0.36-5.27c-0.01-0.18,0.12-0.32,0.34-0.28c-0.06,0.22,0.15,0.29,0.29,0.49c0.11,0.22-0.28,0.23-0.29,0.44
		c-0.08,1.78,0.19,3.58-0.18,5.35c-0.01,0.07,0.09,0.16,0.14,0.23c-0.12,0.21-0.31,0.11-0.48,0.13c-0.06,0.09-0.17,0.18-0.17,0.27
		c-0.01,1.16-0.01,2.32-0.01,3.48c0,0.24-0.01,0.47-0.35,0.45C208.78,109.59,209.01,109.18,208.48,109.15"/>
	<path class="st5" d="M45.48,121.75h8.4v0.52c-0.21,0.29-0.52,0.17-0.79,0.17c-1.97,0.01-3.94,0-5.91,0.01
		C46.5,122.45,45.86,122.43,45.48,121.75"/>
	<path class="st5" d="M257.45,98.31c-0.03-1.94,0.31-3.86,0.44-5.79c0.11-1.63,0.29-3.31,0.67-4.93c0.01-0.06,0.19-0.08,0.29-0.13
		v4.81c-0.27,0.07-0.43,0.11-0.7,0.18v4.81c-0.33-0.03-0.34,0.2-0.35,0.44C257.78,97.95,257.92,98.31,257.45,98.31"/>
	<path class="st5" d="M115.44,90.97c0.25,0.82-0.39,1.5-0.36,2.3c0.03,0.81,0.15,1.66-0.02,2.44c-0.37,1.63-0.65,3.26-0.73,4.93
		c0,0.05-0.19,0.08-0.29,0.12v-5.11c0.23-0.13,0.53-0.31,0.72-0.41v-4.11C114.98,90.86,115.22,91.01,115.44,90.97"/>
	<path class="st5" d="M33.58,106.36c0.22-0.04,0.34,0.09,0.34,0.27c0.02,0.58,0.07,1.16-0.01,1.73c-0.12,0.98,0.2,1.87,0.43,2.78
		c0.32,1.25,0.59,2.52,1.31,3.62c0.11,0.16,0.01,0.45,0.01,0.68h-0.53c-0.38-0.37-0.02-0.87-0.23-1.28
		c-0.19-0.08-0.39-0.15-0.63-0.25v-1.74c-0.16-0.28-0.35-0.2-0.68-0.24c-0.06-0.92-0.02-1.87-0.03-2.82
		C33.58,108.19,33.58,107.28,33.58,106.36"/>
	<path class="st5" d="M69.26,95.51H55.27c0.12-0.68,0.65-0.33,0.97-0.33c4.34-0.03,8.68-0.02,13.02-0.02V95.51z"/>
	<path class="st5" d="M257.45,98.31c0.47,0,0.33-0.36,0.35-0.61c0.02-0.24,0.02-0.46,0.35-0.44c-0.01,0.88,0.13,1.79-0.58,2.51
		c-0.27,0.28-0.11,0.65-0.11,0.98c-0.02,1.36-0.01,2.73-0.01,4.03c-0.24,0.29-0.49,0.14-0.7,0.18c0-0.75-0.06-1.51,0.01-2.25
		c0.13-1.28,0.45-2.54,0.35-3.85C257.1,98.67,257.5,98.6,257.45,98.31"/>
	<path class="st5" d="M108.44,104.96c-0.19-0.7,0.43-1.25,0.36-1.95c-0.07-0.69-0.14-1.43,0.01-2.09c0.35-1.51,0.62-3.03,0.74-4.58
		c0-0.05,0.19-0.08,0.29-0.12v4.47c-0.23,0.05-0.39,0.08-0.65,0.13v3.9C108.9,105.06,108.65,104.91,108.44,104.96"/>
	<path class="st5" d="M186.79,119.65c-0.26-1.03,0.41-1.93,0.36-2.94c-0.05-1.03-0.02-2.06,0-3.09c0-0.17,0.13-0.31,0.34-0.27
		c0.47-0.44,0.47-0.96,0-1.4c0-0.33,0-0.66,0-0.99c0-0.24,0.05-0.43,0.35-0.41c0.13,0.34-0.32,0.89,0.35,1.05v2.35
		c-0.26,0.06-0.41,0.1-0.66,0.17v5.3C187.26,119.75,187.01,119.61,186.79,119.65"/>
	<path class="st5" d="M6.3,89.57c0,0.63-0.01,1.26,0,1.89c0.02,1.45-0.55,2.83-0.42,4.29c0,0.03-0.18,0.08-0.28,0.12v-0.51
		c-0.13-0.25-0.41-0.13-0.59-0.24c-0.21-0.27-0.08-0.56-0.1-0.84c0.21-0.21,0.41-0.41,0.68-0.68v-3.83
		C5.83,89.46,6.08,89.61,6.3,89.57"/>
	<path class="st5" d="M274.24,122.45h5.6v0.64c-2.09,0.13-4.19,0.03-6.31,0.07C273.64,122.62,274.32,123.01,274.24,122.45"/>
	<path class="st5" d="M30.09,106.01h-9.44c0-0.79-0.01-1.48,0.01-2.17c0-0.18,0.12-0.32,0.34-0.28v1.94
		c0.4,0.32,0.88,0.15,1.32,0.15c2.38,0.02,4.77,0.01,7.15,0.02C29.71,105.66,30.08,105.53,30.09,106.01"/>
	<path class="st5" d="M127.33,121.05c-0.2-0.91,0.45-1.7,0.37-2.61c-0.08-0.84-0.02-1.7-0.02-2.52c0.36-0.16,0.56-0.21,0.71,0.18
		c0.22,0.55,0.4,1.14,0.92,1.51c0.23,0.17,0.07,0.43,0.12,0.64h-0.54c-0.11-0.23-0.22-0.47-0.32-0.7h-0.48v3.24
		C127.79,121.15,127.54,121,127.33,121.05"/>
	<path class="st5" d="M126.63,127.34c0-0.63,0.04-1.26-0.01-1.89c-0.11-1.46,0.54-2.84,0.43-4.29c0-0.03,0.18-0.08,0.28-0.12
		c-0.06,0.3,0.28,0.33,0.33,0.59c-0.71,1.79-0.1,3.72-0.38,5.59C127.09,127.45,126.84,127.3,126.63,127.34"/>
	<path class="st5" d="M157.41,138.54c-0.06-0.62,0.48-1.11,0.36-1.76c-0.12-0.67,0.15-1.29,0.31-1.94c0.15-0.6,0.03-1.26,0.03-1.9
		h0.66c0.09,0.88,0.02,1.78,0.04,2.58c-0.17,0.3-0.36,0.2-0.59,0.23c-0.27,0.86,0.01,1.78-0.15,2.65
		C157.88,138.65,157.63,138.49,157.41,138.54"/>
	<path class="st5" d="M4.9,102.16c-0.06,0.22,0.15,0.29,0.29,0.48c0.1,0.25-0.36,0.3-0.3,0.62c0.28,1.55-0.41,3.03-0.35,4.56
		c0.01,0.18-0.12,0.32-0.34,0.28c0-1.43,0.01-2.86,0-4.28C4.19,103.16,4.24,102.53,4.9,102.16"/>
	<path class="st5" d="M247.66,131.89h-2.32c-0.49,0.94-0.64,2-0.83,3.06c-0.04,0.23-0.02,0.47-0.36,0.44v-3
		c0.26-0.21,0.56-0.46,1.09-0.89c0.21-0.08,0.86,0.28,1.26-0.34C246.88,131.44,247.47,131.34,247.66,131.89"/>
	<path class="st5" d="M268.65,121.05c1.5,0.55,3.08,0.71,4.62,1.05c0.18,0.04,0.32,0.13,0.28,0.35h-3.42
		c-0.04-0.22-0.07-0.38-0.11-0.56c-0.35-0.35-0.85,0-1.21-0.16C268.55,121.5,268.69,121.26,268.65,121.05"/>
	<path class="st5" d="M69.26,95.51v-0.35h0.52c0.16,0.11,0.18,0.27,0.18,0.44c0,1.95,0,3.89,0,5.87c-0.53-0.11-0.14-0.79-0.7-0.71
		c-0.05-1.56,0.61-3.06,0.35-4.64C69.57,95.87,69.73,95.51,69.26,95.51"/>
	<path class="st5" d="M194.49,97.61v-0.35v-4.71c0.24-0.29,0.49-0.14,0.7-0.18c0.22,1.74-0.46,3.4-0.42,5.13
		C194.77,97.53,194.59,97.57,194.49,97.61"/>
	<path class="st5" d="M220.73,108.11v7c-0.04,0.1-0.08,0.2-0.12,0.3c-0.3-1.07-0.36-4.65-0.12-7.58
		C220.71,107.79,220.73,107.93,220.73,108.11"/>
	<path class="st5" d="M149.72,100.76c-0.18-0.96,0.46-1.8,0.37-2.77c-0.09-0.96-0.03-1.94-0.01-2.91c0-0.17,0.13-0.31,0.34-0.27
		v5.76C150.18,100.86,149.93,100.72,149.72,100.76"/>
	<path class="st5" d="M48.97,110.2c-0.53-0.57-0.42-1.36-0.7-2.02c0.63-1.17,0.24-2.43,0.35-3.65c0.02-0.18,0.13-0.31,0.35-0.27
		V110.2z"/>
	<path class="st5" d="M5.6,96.21c0.12,1.62-0.54,3.16-0.42,4.78c0,0.03-0.18,0.08-0.28,0.12v-4.4C5.18,96.55,5.25,96.19,5.6,96.21"
		/>
	<path class="st5" d="M113.34,108.8c0.21,0.91-0.43,1.69-0.37,2.59c0.06,0.84-0.02,1.69-0.05,2.54c0,0.04-0.18,0.08-0.28,0.12
		c0.06-0.22-0.15-0.29-0.24-0.41c0.5-1.43,0.09-2.9,0.27-4.35C112.91,109.16,112.98,108.79,113.34,108.8"/>
	<path class="st5" d="M207.78,116.85c-0.23-1.43,0.58-2.77,0.35-4.2h0.35v4.02C208.24,116.95,207.99,116.81,207.78,116.85"/>
	<path class="st5" d="M262,100.06h0.35c0.05,1.49-0.54,2.93-0.42,4.43c0,0.03-0.18,0.08-0.28,0.12c0-1.37,0-2.74,0-4.11
		C261.65,100.26,261.67,100.03,262,100.06"/>
	<path class="st5" d="M22.39,89.22v0.35v4.75c-0.28,0.15-0.35,0.51-0.7,0.49c0.57-1.57,0.27-3.21,0.36-4.82
		C22.06,89.72,21.82,89.27,22.39,89.22"/>
	<path class="st5" d="M167.91,139.24v-0.64c-0.56-0.04-1.01-0.12-1.4-0.41c-0.04-0.21,0.09-0.34,0.26-0.34
		c0.56-0.02,1.12-0.01,1.7-0.01c0.24,0.43,0.13,0.86,0.09,1.27C168.36,139.33,168.12,139.2,167.91,139.24"/>
	<path class="st5" d="M207.43,121.05h-0.35c-0.03-1.26,0.54-2.46,0.42-3.73c0-0.03,0.18-0.08,0.28-0.11c0,1.14,0,2.28,0,3.41
		C207.78,120.85,207.76,121.07,207.43,121.05"/>
	<path class="st5" d="M184.7,139.24c-0.04-0.28,0.23-0.34,0.38-0.59c-0.6-0.22-1.2-0.05-1.78-0.11v-0.6h2.01
		c0.19,0.33,0.08,0.77,0.04,1.17C185.15,139.34,184.91,139.2,184.7,139.24"/>
	<path class="st5" d="M209.88,97.96c-0.16-1.28,0.51-2.46,0.42-3.73c0-0.03,0.18-0.08,0.28-0.12c0,0.79-0.01,1.58,0,2.37
		C210.59,97.1,210.43,97.62,209.88,97.96"/>
	<path class="st5" d="M53.87,107.41c0.1,1.21-0.28,2.19-1.4,2.8v-0.97c0.24-0.05,0.4-0.08,0.57-0.11c0.33-0.36-0.01-0.85,0.19-1.25
		C53.46,107.74,53.53,107.39,53.87,107.41"/>
	<path class="st5" d="M110.54,132.94c0.18,1.28-0.24,2.49-0.42,3.73c-0.01,0.05-0.18,0.08-0.28,0.12c-0.18-1.28,0.24-2.49,0.42-3.73
		C110.27,133.01,110.44,132.98,110.54,132.94"/>
	<path class="st5" d="M195.19,88.17h0.35c0,1.25,0,2.51,0,3.76c0,0.24-0.02,0.46-0.35,0.44V88.17z"/>
	<path class="st5" d="M147.62,114.05c0.02-1.03,0.52-1.99,0.42-3.03c0-0.03,0.18-0.08,0.28-0.11v2.97
		C148.07,114.15,147.83,114.01,147.62,114.05"/>
	<path class="st5" d="M110.89,128.74c0,1.25,0,2.51,0,3.76c0,0.24-0.02,0.46-0.35,0.44c0-1.25,0-2.51,0-3.76
		C110.54,128.94,110.56,128.72,110.89,128.74"/>
	<path class="st5" d="M142.72,133.64c0.12,0.99-0.37,1.86-0.54,2.8c0,0.01-0.11,0-0.16,0v-2.62
		C142.27,133.54,142.51,133.68,142.72,133.64"/>
	<path class="st5" d="M197.99,135.74c-0.55,1.17-0.55,2.33,0,3.5c-0.17,0-0.35,0-0.52,0c-0.06-0.09-0.17-0.18-0.17-0.27
		c-0.01-1.04-0.01-2.07-0.01-3.04C197.52,135.63,197.77,135.78,197.99,135.74"/>
	<path class="st5" d="M151.12,130.84c0.16,0.53-0.46,0.83-0.37,1.38c0.08,0.44,0.02,0.9,0.02,1.35c0,0.24-0.03,0.45-0.35,0.43v-2.97
		C150.66,130.74,150.9,130.88,151.12,130.84"/>
	<path class="st5" d="M233.32,132.94c0,0.05-0.01,0.11,0,0.16c0.08,0.55-0.45,0.69-0.67,1.04c-0.17,0.27,0.27,0.81-0.38,0.89v-2.1
		H233.32z"/>
	<path class="st5" d="M208.48,112.65h-0.35c0-0.67,0-1.35,0-2.02c0-0.24,0.03-0.45,0.35-0.43h0.35
		C208.98,111.06,208.22,111.78,208.48,112.65"/>
	<path class="st5" d="M188.19,111.6c-0.67-0.16-0.22-0.71-0.35-1.05c0-0.67,0-1.35,0-2.02c0-0.24,0.03-0.45,0.35-0.43V111.6z"/>
	<path class="st5" d="M252.56,138.19c-0.16-0.53,0.46-0.83,0.37-1.38c-0.08-0.44-0.02-0.9-0.02-1.35c0-0.24,0.03-0.45,0.35-0.43
		v2.66C252.97,137.85,252.9,138.21,252.56,138.19"/>
	<path class="st5" d="M171.4,134.34c-0.03,0.53-0.49,2.15-0.7,2.45v-2.27C170.95,134.24,171.19,134.38,171.4,134.34"/>
	<path class="st5" d="M150.42,134.34c-0.03,0.53-0.49,2.15-0.7,2.45v-2.27C149.97,134.24,150.21,134.38,150.42,134.34"/>
	<path class="st5" d="M193.09,106.36h0.35c0,0.67,0,1.35,0,2.02c0,0.24-0.03,0.45-0.35,0.43V106.36z"/>
	<path class="st5" d="M3.15,117.55c0,0.67,0,1.35,0,2.02c0,0.24-0.03,0.45-0.35,0.43c0-0.67,0-1.35,0-2.02
		C2.8,117.74,2.83,117.53,3.15,117.55"/>
	<path class="st5" d="M125.58,136.79c0-0.67,0-1.35,0-2.02c0-0.24,0.03-0.45,0.35-0.43c0,0.67,0,1.35,0,2.02
		C125.93,136.6,125.9,136.81,125.58,136.79"/>
	<path class="st5" d="M79.76,120.35c0.4,0.28,0.84,0.41,1.34,0.35c0.24-0.03,0.43,0.04,0.41,0.35h-1.57
		C79.66,120.79,79.79,120.56,79.76,120.35"/>
	<path class="st5" d="M143.77,138.54c0-0.56,0-1.12,0-1.68c0-0.24,0.03-0.45,0.35-0.42c0,0.56,0,1.12,0,1.68
		C144.12,138.35,144.08,138.56,143.77,138.54"/>
	<path class="st5" d="M208.13,139.24v2.1C207.64,140.68,207.64,139.89,208.13,139.24"/>
	<path class="st5" d="M56.32,121.05c-0.02-0.3,0.17-0.37,0.41-0.35c0.5,0.05,0.94-0.07,1.34-0.35v0.59
		C57.52,121.19,56.9,120.98,56.32,121.05"/>
	<path class="st5" d="M62.97,116.85c-0.06-0.54,0.15-0.91,0.7-1.05v1.05H62.97z"/>
	<path class="st5" d="M280.19,107.76c0,0.33,0,0.66,0,0.99c0,0.24-0.05,0.43-0.35,0.41c0-0.33,0-0.66,0-0.99
		C279.84,107.93,279.89,107.73,280.19,107.76"/>
	<rect x="62.27" y="116.85" class="st5" width="0.7" height="0.7"/>
	<path class="st5" d="M228.07,135.74c0.36-0.26,0.11-0.94,0.7-1.05v1.05H228.07z"/>
	<path class="st5" d="M208.83,110.2h-0.35v-1.05c0.52,0.03,0.3,0.43,0.35,0.7V110.2z"/>
	<path class="st5" d="M195.54,134.34c0.13-0.34-0.32-0.89,0.35-1.05C195.76,133.64,196.21,134.18,195.54,134.34"/>
	<path class="st5" d="M132.93,109.85v-3.41c0.25-0.06,0.4-0.09,0.66-0.15v-5.3c0.28-0.34,0.53-0.19,0.74-0.23c0,0.58,0,1.16,0,1.75
		c-0.01,0.78,0.01,1.54-0.32,2.31c-0.27,0.64-0.05,1.39-0.29,2.14c-0.26,0.79-0.23,1.75-0.44,2.62
		C133.23,109.76,133.15,109.89,132.93,109.85"/>
	<path class="st5" d="M129.43,103.21v7.14c0.12,0.26,0.38,0.18,0.55,0.24c0.26,0.2,0.1,0.45,0.15,0.67
		c-0.37,0.07-0.44-0.61-0.89-0.3c-0.88-1.58-0.44-3.23-0.45-4.83c0.62-0.7,0.13-1.54,0.29-2.3
		C129.13,103.58,128.96,103.21,129.43,103.21"/>
	<path class="st5" d="M135.02,93.76v-4.02c0.24-0.28,0.49-0.14,0.7-0.18c0.1,1.38-0.54,2.69-0.42,4.08
		C135.31,93.68,135.12,93.72,135.02,93.76"/>
	<path class="st5" d="M242.76,92.71v-6.68c0.52,0.13,0.14,0.8,0.7,0.73c0.05,0.94-0.51,1.79-0.38,2.77
		c0.13,0.95,0.04,1.94,0.02,2.91C243.1,92.62,242.98,92.75,242.76,92.71"/>
	<path class="st5" d="M237.17,100.41v5.22c-0.54-0.12-0.27-0.46-0.35-0.67c0-1.37,0-2.74,0-4.11
		C236.82,100.61,236.83,100.38,237.17,100.41"/>
	<path class="st5" d="M94.45,94.81v-5.06c0.24-0.29,0.49-0.14,0.7-0.18c0.17,1.73-0.53,3.4-0.42,5.13
		C94.73,94.73,94.55,94.77,94.45,94.81"/>
	<path class="st5" d="M89.55,99.01v4.36c-0.24,0.29-0.49,0.14-0.7,0.18c-0.17-1.5,0.53-2.93,0.42-4.43
		C89.27,99.09,89.45,99.05,89.55,99.01"/>
	<path class="st5" d="M88.85,104.26v5.95c-0.22,0.04-0.34-0.1-0.34-0.27c-0.01-1.8-0.01-3.6,0-5.4
		C88.51,104.35,88.63,104.22,88.85,104.26"/>
	<path class="st5" d="M90.25,92.01v3.85c-0.21-0.04-0.32,0.09-0.34,0.27c-0.03,0.23-0.03,0.46-0.36,0.43
		c-0.05-1.49,0.54-2.93,0.42-4.43C89.97,92.1,90.15,92.05,90.25,92.01"/>
	<path class="st5" d="M89.55,96.56c0.33,0.03,0.33-0.2,0.36-0.43c0.02-0.17,0.13-0.3,0.34-0.27v1.92c-0.25,0.27-0.49,0.14-0.7,0.18
		V96.56z"/>
	<path class="st5" d="M168.61,101.46c0,1.2-0.04,2.4,0.01,3.6c0.04,0.95-0.41,1.79-0.55,2.69c0,0.01-0.11,0-0.16,0
		c0-0.57,0.06-1.15-0.01-1.71c-0.19-1.52,0.46-2.96,0.43-4.46C168.32,101.54,168.51,101.5,168.61,101.46"/>
	<path class="st5" d="M167.91,108.46h0.64c0.03,0.65,0.07,1.31,0.1,1.94c0.13,0.23,0.32,0.13,0.47,0.16
		c0.26,0.13,0.14,0.41,0.32,0.7h1.27c-0.4,0.83-1.11,0.03-1.47,0.35c-0.52-0.48-0.94-0.86-1.33-1.22V108.46z"/>
	<path class="st5" d="M172.8,106.71v-4.36c0.24-0.29,0.49-0.14,0.7-0.18c0.08,0.42-0.12,0.75-0.47,0.99
		c0.21,0.28,0.34,0.46,0.52,0.71c-0.57,0.57-0.36,1.33-0.42,2.05C173.12,106.19,173.39,106.64,172.8,106.71"/>
	<path class="st5" d="M187.49,111.95c0.47,0.44,0.47,0.96,0,1.4V111.95z"/>
	<path class="st5" d="M192.04,120.35c0-0.44,0-0.89,0-1.33c0-0.24,0.04-0.44,0.35-0.42c0,0.44,0,0.89,0,1.33
		C192.39,120.17,192.35,120.37,192.04,120.35"/>
	<path class="st5" d="M235.07,135.04v3.34c0.27,0.25,0.6,0.55,0.93,0.85h1.86c0.04,0.22-0.1,0.34-0.27,0.34
		c-0.8,0.02-1.61,0.01-2.46,0.01c-0.35-0.97-1.18-1.77-0.5-2.92c0.18-0.3,0.07-0.78,0.09-1.18
		C234.73,135.25,234.72,135.01,235.07,135.04"/>
	<path class="st5" d="M238.56,138.19v-1.05h0.7C238.9,137.4,239.16,138.08,238.56,138.19"/>
	<path class="st5" d="M204.98,134.34c-0.17,0-0.45,0.05-0.48-0.01c-0.19-0.43-0.48-0.72-0.91-0.91c-0.06-0.03-0.01-0.31-0.01-0.48
		C204.48,133.12,204.81,133.44,204.98,134.34"/>
</g>
<g>
	<circle class="st1" cx="335.98" cy="49.1" r="47.43"/>
	<g>
		<path class="st2" d="M310.06,39.26c0-13.37,11.85-24.6,25.91-24.6c14.07,0,25.91,11.22,25.91,24.6
			c0,13.37-11.85,24.67-25.91,24.67C321.91,63.93,310.06,52.63,310.06,39.26 M348.03,39.26c0-6.72-5.54-12.4-12.06-12.4
			c-6.51,0-12.05,5.68-12.05,12.4c0,6.79,5.54,12.47,12.05,12.47C342.49,51.73,348.03,46.05,348.03,39.26"/>
		<rect x="312.18" y="66.64" class="st2" width="47.6" height="13.44"/>
	</g>
</g>
</svg>
