<?xml version="1.0" encoding="utf-8"?>
<!-- Generator: Adobe Illustrator 23.0.1, SVG Export Plug-In . SVG Version: 6.00 Build 0)  -->
<svg version="1.1" id="Layer_1" xmlns="http://www.w3.org/2000/svg" xmlns:xlink="http://www.w3.org/1999/xlink" x="0px" y="0px"
	 viewBox="0 0 386.79 144" style="enable-background:new 0 0 386.79 144;" xml:space="preserve">
<style type="text/css">
	.st0{fill:#FFFFFF;}
	.st1{fill:#2F2F7E;}
</style>
<path d="M161.41,142.56c-14.33,0-28.67,0-43,0c-0.89-5.59-3.69-8.38-9.79-7.59c-3.93,0.51-8.05,0.54-11.97,0
	c-7-0.97-14.04-2.1-20.84-4c-4.91-1.37-6.56-5.34-4.58-10.34c4.47-11.28,9.05-22.52,13.35-33.87c1.34-3.53,3.69-5.2,7.15-6.08
	c12.25-3.12,24.46-6.39,36.7-9.55c1.38-0.36,2.83-0.44,5.03-0.76c-5.15,13.17-10.01,25.59-15.13,38.69c7.43,0,14.05-0.17,20.67,0.07
	c3.27,0.12,4.58-1.23,5.69-4.14c7.14-18.64,14.5-37.19,21.78-55.78c3.02-7.7,6-15.42,9.4-24.14c-5.16,0-9.45,0-13.75,0
	c-9.86-0.01-10.07-0.09-13.56,9.31c-1.46,3.92-3.67,5.51-7.71,6.36c-10.08,2.12-20.03,4.91-30.03,7.41
	c-3.65,0.91-7.31,1.77-11.96,2.9c3.63-9.03,6.85-17.05,10.28-25.58c-3.49-0.16-6.14-0.24-8.78-0.4c-4.48-0.28-7.22,1.31-8.79,5.96
	c-2.66,7.87-5.86,15.58-9.33,23.13c-1.11,2.42-3.45,4.96-5.85,5.99c-19.11,8.19-36.96,18.34-52.65,32.11
	c-0.67,0.58-1.51,0.96-3.34,2.09c9.46-23.53,18.46-45.91,27.9-69.39c-11.16,0-21.04,0-31.63,0c2.08-5.23,3.79-9.53,5.5-13.83
	c3.79-9.55,3.79-9.56,14.14-9.56c74.33,0.05,148.65,0.12,222.98,0.16c9.66,0.01,19.36-0.61,28.98-0.01c9.13,0.56,12.66,5.26,9.62,13
	c-3.16,8.05-6.21,16.15-9.71,24.05c-0.63,1.42-3.15,2.8-4.83,2.84c-11.66,0.24-23.33,0.14-34.99,0.11c-1.25,0-2.5-0.28-4.24-0.48
	c2.07-5.31,3.98-10.2,6.29-16.14c-4.5,0-8.12-0.1-11.72,0.06c-1.02,0.04-2.57,0.57-2.91,1.32c-3.92,8.52-7.66,17.12-11.69,26.26
	c3.73,0,6.55-0.05,9.37,0.01c9.32,0.2,18.65,0.21,27.96,0.74c5.64,0.33,10.73,2.57,14.06,7.45c0.78,1.15,1.31,3.16,0.85,4.36
	c-6.93,18.18-14.01,36.31-21.12,54.43c-1.85,4.71-5.35,7.74-9.8,10.16c-7.01,3.82-14.52,4.73-22.22,4.64
	c-21.19-0.24-42.44,1.78-63.9-1.7C160.01,136.16,160.71,139.36,161.41,142.56z M209.32,90.57c-2.33,6.7-4.25,12.21-6.37,18.27
	c2.8,0.13,4.8,0.55,6.69,0.24c2.46-0.41,6.29-0.72,6.98-2.23c4.03-8.8,7.31-17.94,10.84-26.95c-1.35-0.62-1.79-0.99-2.24-1
	c-11.65-0.14-23.29-0.26-34.94-0.29c-0.83,0-2.12,0.55-2.42,1.21c-1.51,3.25-2.77,6.61-4.44,10.74
	C192.32,90.57,200.26,90.57,209.32,90.57z"/>
<path class="st0" d="M209.32,92.47c-9.06,0-17,0-25.9,0c1.67-4.13,2.92-7.5,4.44-10.74c0.31-0.66,1.59-1.21,2.42-1.21
	c11.65,0.03,23.29,0.15,34.94,0.29c0.45,0.01,0.89,0.38,2.24,1c-3.53,9.01-6.81,18.15-10.84,26.95c-0.69,1.52-4.52,1.83-6.98,2.23
	c-1.88,0.31-3.89-0.11-6.69-0.24C205.07,104.67,206.99,99.16,209.32,92.47z"/>
<path d="M67.42,92.83c-5.59,13.99-11.14,28-16.85,41.95c-0.36,0.87-1.96,1.75-2.98,1.76c-13.93,0.12-27.87,0.08-43.01,0.08
	c16.54-21.8,38.41-34.23,61.64-44.79C66.62,92.15,67.02,92.49,67.42,92.83z"/>
<path d="M89.27,77.08c1.79-4.59,2.88-8.29,4.66-11.62c0.95-1.77,2.87-3.69,4.72-4.2c11.2-3.1,22.5-5.81,34.29-8.78
	c0.27-1.07,0.65-2.6,1.22-4.91c8.81,1.62,17.53,3.22,26.24,4.83c0.18,0.4,0.37,0.79,0.55,1.19c-7.42,5.3-14.85,10.59-22.9,16.34
	c-0.38-6.13-4.11-5.03-7.43-4.15c-11.56,3.07-23.07,6.3-34.6,9.47C94.16,75.75,92.27,76.26,89.27,77.08z"/>
<path d="M77.33,67.73c-2.24,5.66-3.94,10.52-6.14,15.14c-0.68,1.41-2.67,2.35-4.24,3.15c-17.05,8.81-33.61,18.37-48.11,31.1
	c-3.24,2.84-6.44,5.73-9.92,8.82c4.05-8.33,5.85-17.83,12.91-24.4c15.52-14.42,33.24-25.5,52.96-33.34
	C75.22,68.03,75.72,68.02,77.33,67.73z"/>
<g>
	<path class="st1" d="M375,49.36c0,26.48-21.47,47.95-47.95,47.95c-26.48,0-47.95-21.47-47.95-47.95s21.47-47.95,47.95-47.95
		C353.53,1.41,375,22.88,375,49.36"/>
	<path class="st0" d="M300.85,39.41c0-13.52,11.98-24.87,26.2-24.87c14.22,0,26.2,11.35,26.2,24.87c0,13.52-11.98,24.94-26.2,24.94
		C312.83,64.35,300.85,52.93,300.85,39.41 M339.24,39.41c0-6.8-5.6-12.54-12.19-12.54c-6.58,0-12.19,5.74-12.19,12.54
		c0,6.86,5.6,12.61,12.19,12.61C333.63,52.02,339.24,46.27,339.24,39.41"/>
	<rect x="302.99" y="67.1" class="st0" width="48.12" height="13.59"/>
</g>
</svg>
