<?xml version="1.0" encoding="utf-8"?>
<!-- Generator: Adobe Illustrator 24.3.0, SVG Export Plug-In . SVG Version: 6.00 Build 0)  -->
<svg version="1.1" id="Layer_1" xmlns="http://www.w3.org/2000/svg" xmlns:xlink="http://www.w3.org/1999/xlink" x="0px" y="0px"
	 viewBox="0 0 386.79 144" style="enable-background:new 0 0 386.79 144;" xml:space="preserve">
<style type="text/css">
	.st0{fill:#2F2F7E;}
	.st1{fill:#FFFFFF;}
	.st2{fill-rule:evenodd;clip-rule:evenodd;fill:#444442;}
	.st3{fill-rule:evenodd;clip-rule:evenodd;fill:#E94D11;}
	.st4{fill-rule:evenodd;clip-rule:evenodd;fill:#69227F;}
</style>
<g>
	<circle class="st0" cx="336.98" cy="49.1" r="47.43"/>
	<g>
		<path class="st1" d="M311.06,39.26c0-13.37,11.85-24.6,25.91-24.6c14.07,0,25.91,11.22,25.91,24.6
			c0,13.37-11.85,24.67-25.91,24.67C322.91,63.93,311.06,52.63,311.06,39.26 M349.03,39.26c0-6.72-5.54-12.4-12.06-12.4
			c-6.51,0-12.05,5.68-12.05,12.4c0,6.79,5.54,12.47,12.05,12.47C343.49,51.73,349.03,46.05,349.03,39.26"/>
		<rect x="313.18" y="66.64" class="st1" width="47.6" height="13.44"/>
	</g>
</g>
<g>
	<path class="st2" d="M55.5,91.63c-1.34-1.24-2.97-2.26-4.87-3.07c-1.9-0.82-3.88-1.51-5.91-2.09c-2.04-0.59-4.06-1.11-6.06-1.58
		c-1.99-0.48-3.75-1.01-5.23-1.62c-1.5-0.62-2.63-1.37-3.39-2.25c-0.76-0.89-0.98-2.02-0.65-3.39c0.31-1.14,0.92-2.1,1.83-2.9
		c0.93-0.79,1.99-1.43,3.23-1.9c1.21-0.48,2.5-0.82,3.89-1.04c1.38-0.22,2.67-0.33,3.88-0.32c2.09,0.02,4.2,0.36,6.37,1.02
		c2.17,0.66,3.77,1.69,4.82,3.07l13.98-9.92c-2.62-2.29-5.81-3.94-9.56-4.95c-3.77-1-7.79-1.5-12.08-1.53
		c-3.73-0.03-7.44,0.36-11.15,1.17c-3.71,0.79-7.13,2.02-10.27,3.65c-3.13,1.63-5.81,3.66-8.04,6.1c-2.23,2.44-3.77,5.29-4.58,8.53
		c-0.83,3.36-0.63,6.07,0.62,8.13c1.23,2.06,3.03,3.73,5.36,5c2.34,1.27,4.95,2.28,7.82,3.04c2.88,0.76,5.54,1.53,7.99,2.28
		c2.46,0.76,4.44,1.68,5.98,2.74c1.52,1.07,2.04,2.51,1.54,4.34c-0.29,1.07-0.89,2.02-1.76,2.8c-0.89,0.79-1.96,1.44-3.23,1.95
		c-1.25,0.5-2.61,0.89-4.06,1.14c-1.45,0.25-2.86,0.36-4.22,0.35c-2.79-0.01-5.34-0.53-7.68-1.54c-2.32-1.01-4.11-2.44-5.41-4.27
		L0,114.92c3.02,2.7,6.48,4.66,10.41,5.88c3.91,1.23,8.33,1.86,13.27,1.89c3.93,0.03,7.79-0.35,11.54-1.12
		c3.73-0.76,7.17-1.98,10.26-3.6c3.1-1.63,5.76-3.69,7.99-6.19c2.23-2.49,3.77-5.42,4.6-8.78c0.69-2.62,0.78-4.86,0.24-6.72
		C57.76,94.42,56.84,92.88,55.5,91.63z"/>
	<polygon class="st2" points="137.42,80.37 121.03,106.36 120.81,106.36 117.77,80.24 100.15,80.12 84.64,106.11 84.42,106.11 
		80.4,79.99 63.22,79.87 71.85,121.51 88.06,121.62 104.66,94.1 104.88,94.1 108.79,121.77 124.67,121.87 153.73,80.49 	"/>
	<path class="st2" d="M197.67,80.78l-18.42,27.34h-0.22l-6.48-27.51l-17.4-0.12l12.26,42.01l-1.81,2.38
		c-0.87,1.14-1.67,2.12-2.37,2.98c-0.7,0.84-1.52,1.57-2.41,2.16c-0.92,0.59-1.99,1.04-3.22,1.34c-1.25,0.3-2.75,0.46-4.54,0.45
		c-2.59-0.03-4.95-0.46-7.1-1.34l-4.78,10.5c3.57,1.05,7.44,1.59,11.59,1.62c3.86,0.03,7.05-0.25,9.56-0.82
		c2.52-0.59,4.71-1.46,6.54-2.61c1.84-1.17,3.48-2.59,4.9-4.3c1.41-1.7,2.94-3.66,4.53-5.87l35.91-48.11L197.67,80.78z"/>
	<path class="st2" d="M278.7,91.59l14.16,0.1l2.62-10.25l-14.18-0.1l3.09-12.3l-16.11-0.12l-3.08,12.31l-11.39-0.07v-0.01
		l-11.91-0.07l1.68-6.59c0.7-2.72,1.81-4.52,3.31-5.41c1.5-0.88,3.53-1.3,6.12-1.28c1,0,1.86,0.08,2.61,0.23
		c0.75,0.14,1.53,0.38,2.37,0.66l3.51-10.85c-1.41-0.29-2.9-0.49-4.47-0.62c-1.56-0.13-3.17-0.2-4.82-0.2
		c-4.36-0.03-7.99,0.39-10.88,1.24c-2.9,0.88-5.27,2.06-7.1,3.6c-1.85,1.52-3.24,3.29-4.22,5.31c-0.98,2.02-1.77,4.17-2.37,6.44
		l-1.85,7.35l-10.65-0.07l-2.61,10.25l10.63,0.07l-7.86,31.25l16.1,0.12l7.87-31.27l9.73,0.07v0.03l13.56,0.06l-5.05,19.74
		c-0.53,2.28-0.53,4.22,0.03,5.82c0.57,1.6,1.58,2.9,3.05,3.9c1.45,1.01,3.28,1.75,5.47,2.22c2.17,0.48,4.64,0.72,7.35,0.73
		c1.87,0.01,3.79-0.06,5.76-0.22c1.99-0.16,3.93-0.49,5.83-0.98l2.65-10.69c-0.83,0.51-1.96,0.82-3.35,0.97
		c-1.41,0.13-2.55,0.19-3.4,0.19c-1.72-0.02-3.05-0.2-3.99-0.59c-0.94-0.38-1.58-0.91-1.92-1.59c-0.34-0.69-0.47-1.5-0.4-2.45
		c0.07-0.94,0.25-1.97,0.56-3.11L278.7,91.59z"/>
	<path class="st3" d="M257.2,6.51c-5.34,0.1-9.03-1.47-23.25-0.7c-14.69,0.81-37.21,3.85-51.59,6.5c-5.78,1.07-6.99,0.37-11.19-0.88
		c-19.92-5.95-60.48-2.54,2.24-5.68c8.67-0.43,15.66-0.99,24.23-2.07c19.1-2.38,39.25-4.15,57,1.5
		C256.3,5.69,256.06,5.53,257.2,6.51z"/>
	<path class="st4" d="M268.28,22.2c9.4-1.86,17.13-0.48,21.51,5.29c0.7,0.94,3.95,1.8,4.47,2.99c-1.08,0.21-4.7,0.61-5.63,0.79
		c-8.98,1.88-11.21,3.13-19.12,7.5c-6.23,3.46-12.14,6.64-20.21,8.55c-15.61,3.68-69.14,1.99-87.53,1.37
		c-6.74-0.23-70.22-2.65-72.34-4.74c9.92-5.17,125.27,3.13,136.93-12.47c-1.5-4.05-14.21-4.87-18.88-5.77
		c-9.58-1.87-62.47-2.02-71.98-2.47c1.07-0.76,20.54-4.37,22.29-4.6c25.64-3.26,66.54-13.77,92.68-10.68
		C270.08,10.28,266.87,18.05,268.28,22.2z"/>
	<path class="st3" d="M154.8,50.29c0.6,0,38.3,0.86,40.58,1.53c-7.1,1.18-61.83,1.61-73.88,1.67c-2.9,0.02-28.63,0.37-30.26-0.33
		C95.97,51.26,148.03,50.29,154.8,50.29z"/>
</g>
</svg>
