<?xml version="1.0" encoding="utf-8"?>
<!-- Generator: Adobe Illustrator 27.3.1, SVG Export Plug-In . SVG Version: 6.00 Build 0)  -->
<svg version="1.1" id="Layer_1" xmlns="http://www.w3.org/2000/svg" xmlns:xlink="http://www.w3.org/1999/xlink" x="0px" y="0px"
	 viewBox="0 0 386.79 144" style="enable-background:new 0 0 386.79 144;" xml:space="preserve">
<style type="text/css">
	.st0{fill:#4E4D4E;}
	.st1{fill:#479B6C;}
	.st2{fill:#5DBD79;}
	.st3{fill:#2F2F7E;}
	.st4{fill:#FFFFFF;}
</style>
<g>
	<g>
		<path class="st0" d="M152.7,91.63v4.93h13.62V121h5.46V96.56h13.72v-4.93H152.7z"/>
		<path class="st0" d="M233.74,101.72c0-5.5-4.89-9.93-10.95-9.93h-23.84v5.5v14.42v9.53h5.45v-9.53h17.47l7.23,9.53h6.62
			l-8.05-10.6C231.29,108.95,233.74,105.59,233.74,101.72z M204.4,97.23v-0.51h18.39c3.01,0,5.5,2.24,5.5,4.99
			c0,2.75-2.44,4.99-5.5,4.99H204.4V97.23z"/>
		<path class="st0" d="M271.08,91.63l-0.05,0.05h-6.11v-0.05l-0.05,0.05l-17.06,29.54h6.16l14.01-24.3l14.06,24.3h6.16l-17.11-29.54
			V91.63z"/>
		<path class="st0" d="M320.43,106.15l16.66-14.47h-7.9l-12.68,11.05l-12.68-11.05h-7.89l16.61,14.47l-17.22,15.08h7.89l13.29-11.61
			l13.29,11.61h7.9L320.43,106.15z"/>
		<path class="st1" d="M62.65,98.48v30.83l7.34-4.79V93.59L62.65,98.48z"/>
		<path class="st2" d="M10.68,68.63L0,72.02l62.71,26.46l7.27-4.86L10.68,68.63z"/>
		<path class="st2" d="M19.99,84.78L9.3,88.19l41.66,17.64l7.28-4.83L19.99,84.78z"/>
		<path class="st1" d="M50.9,105.74v30.92l7.34-4.76v-30.97L50.9,105.74z"/>
		<path class="st1" d="M39.64,113.58V144l7.34-4.77v-30.47L39.64,113.58z"/>
		<path class="st2" d="M28.84,101.42l-10.73,3.33l21.57,8.9l7.31-4.73L28.84,101.42z"/>
		<path class="st1" d="M82.22,98.48v30.83l-7.34-4.79V93.59L82.22,98.48z"/>
		<path class="st2" d="M134.19,68.63l-59.31,25l7.27,4.86l62.71-26.46L134.19,68.63z"/>
		<path class="st2" d="M124.89,84.78l10.68,3.41l-41.62,17.64L86.63,101L124.89,84.78z"/>
		<path class="st1" d="M93.97,105.74v30.92l-7.34-4.76v-30.97L93.97,105.74z"/>
		<path class="st1" d="M105.23,113.58V144l-7.34-4.77v-30.47L105.23,113.58z"/>
		<path class="st2" d="M115.72,101.42l10.55,3.33l-21.15,8.9l-7.23-4.73L115.72,101.42z"/>
	</g>
	<g>
		<circle class="st3" cx="335.98" cy="49.1" r="47.43"/>
		<g>
			<path class="st4" d="M310.06,39.26c0-13.37,11.85-24.6,25.91-24.6c14.07,0,25.91,11.22,25.91,24.6
				c0,13.37-11.85,24.67-25.91,24.67C321.91,63.93,310.06,52.63,310.06,39.26 M348.03,39.26c0-6.72-5.54-12.4-12.06-12.4
				c-6.51,0-12.05,5.68-12.05,12.4c0,6.79,5.54,12.47,12.05,12.47C342.49,51.73,348.03,46.05,348.03,39.26"/>
			<rect x="312.18" y="66.64" class="st4" width="47.6" height="13.44"/>
		</g>
	</g>
</g>
</svg>
