<?xml version="1.0" encoding="utf-8"?>
<!-- Generator: Adobe Illustrator 23.0.1, SVG Export Plug-In . SVG Version: 6.00 Build 0)  -->
<svg version="1.1" id="Layer_1" xmlns="http://www.w3.org/2000/svg" xmlns:xlink="http://www.w3.org/1999/xlink" x="0px" y="0px"
	 viewBox="0 0 4322.92 1850.68" style="enable-background:new 0 0 4322.92 1850.68;" xml:space="preserve">
<style type="text/css">
	.st0{clip-path:url(#SVGID_2_);fill:#008AFF;}
	.st1{clip-path:url(#SVGID_2_);fill-rule:evenodd;clip-rule:evenodd;fill:#05CED8;}
</style>
<g>
	<defs>
		<rect id="SVGID_1_" y="0" width="4322.92" height="1850.68"/>
	</defs>
	<clipPath id="SVGID_2_">
		<use xlink:href="#SVGID_1_"  style="overflow:visible;"/>
	</clipPath>
	<path class="st0" d="M0,1053.86c0-284.61,212.52-524.12,559.53-533.59c11.48-0.39,21.1,8.6,21.49,20.08c0.01,0.2,0.01,0.4,0.01,0.6
		v244.19c-0.12,11.17-9.04,20.25-20.21,20.56c-144.53,7.71-245.35,101.88-245.35,287.18v623.9c-0.06,11.44-9.36,20.68-20.8,20.68
		H20.8c-11.44,0-20.73-9.24-20.8-20.68V1053.86z"/>
	<path class="st0" d="M3741.9,1053.86c0-284.61,212.52-524.12,559.53-533.59c11.48-0.39,21.1,8.6,21.49,20.08
		c0.01,0.28,0.01,0.55,0.01,0.83v243.95c-0.05,11.04-8.72,20.12-19.75,20.68c-144.53,7.71-245.35,101.88-245.35,287.18v623.9
		c-0.06,11.44-9.36,20.68-20.8,20.68h-274.33c-11.44,0-20.73-9.24-20.8-20.68V1053.86z"/>
	<path class="st0" d="M717.96,520.16h276.67c11.44,0.06,20.68,9.36,20.68,20.8v1175.83c0,11.42-9.26,20.68-20.68,20.68H717.96
		c-11.44,0-20.73-9.24-20.8-20.68V540.95C697.16,529.47,706.47,520.16,717.96,520.16 M702.77,249.1
		c-2.38-87.85,66.91-161,154.76-163.38c87.85-2.38,161,66.91,163.38,154.76c0.08,2.88,0.08,5.75,0,8.63
		c-2.38,87.85-75.53,157.14-163.38,154.76C773.02,401.57,705.06,333.6,702.77,249.1"/>
	<path class="st0" d="M2074.88,520.16V20.8c0-11.49,9.31-20.8,20.8-20.8h279.47c11.44,0.06,20.68,9.36,20.68,20.8v1138.21
		c0,340.34-251.78,605.91-639.09,605.91s-633.48-273.86-633.48-614.2c0-340.34,237.88-633.48,625.19-630.91L2074.88,520.16z
		 M2074.88,819.02h-301.55c-226.78,0-329.24,168.71-329.24,323.64c0,154.92,83.07,323.75,309.96,323.75
		c226.89,0,320.83-160.53,320.83-315.46V819.02z"/>
	<path class="st1" d="M3294.76,904.78c-49.26-116.7-183.79-171.37-300.48-122.11c-55.06,23.24-98.87,67.05-122.11,122.11H3294.76z
		 M3083.18,586.52c225.26,0.13,407.77,182.85,407.63,408.11c-0.02,29.83-3.31,59.56-9.81,88.67h-609.18
		c49.29,116.68,183.84,171.32,300.52,122.03c19.75-8.34,38.22-19.41,54.9-32.88h221.99c-98.47,202.46-342.42,286.76-544.87,188.29
		c-202.46-98.47-286.76-342.42-188.29-544.87C2784.38,675.39,2926.97,586.31,3083.18,586.52 M2654.86,565.84
		c239.81-233.29,623.35-228.01,856.64,11.81c228.76,235.15,228.76,609.67,0,844.83l-428.32,428.2l-428.32-428.44
		c-226.05-234.59-217.7-614,0-856.64L2654.86,565.84z"/>
</g>
</svg>
