<?xml version="1.0" encoding="utf-8"?>
<!-- Generator: Adobe Illustrator 27.3.1, SVG Export Plug-In . SVG Version: 6.00 Build 0)  -->
<svg version="1.1" id="Layer_1" xmlns="http://www.w3.org/2000/svg" xmlns:xlink="http://www.w3.org/1999/xlink" x="0px" y="0px"
	 viewBox="0 0 905.08 158.59" style="enable-background:new 0 0 905.08 158.59;" xml:space="preserve">
<style type="text/css">
	.st0{fill:url(#SVGID_1_);}
	.st1{fill:url(#SVGID_00000110457352865810195430000006750628179746277761_);}
	.st2{fill:url(#SVGID_00000096749371445469586080000002002772073077963170_);}
	.st3{fill:url(#SVGID_00000050636083036364423420000008465116627915893122_);}
	.st4{fill:url(#SVGID_00000043453992350415251080000013263728236272239526_);}
	.st5{fill:url(#SVGID_00000005253600331200125810000018173124627158354582_);}
	.st6{fill:url(#SVGID_00000042014655266277889040000017858540722621730444_);}
	.st7{fill:url(#SVGID_00000020396909658097859560000017456674687919576967_);}
	.st8{fill:url(#SVGID_00000093858645899463781550000013121011151353330858_);}
	.st9{fill:url(#SVGID_00000124840069822718097800000000352566756557093030_);}
	.st10{fill:#B00311;}
</style>
<g>
	<g>
		<linearGradient id="SVGID_1_" gradientUnits="userSpaceOnUse" x1="133.3204" y1="97.7603" x2="923.2871" y2="305.3075">
			<stop  offset="0" style="stop-color:#B00311"/>
			<stop  offset="0.1338" style="stop-color:#A6021D"/>
			<stop  offset="0.4274" style="stop-color:#960131"/>
			<stop  offset="0.718" style="stop-color:#8C003E"/>
			<stop  offset="1" style="stop-color:#890042"/>
		</linearGradient>
		<path class="st0" d="M163.85,138.98c3.88,0,6.91-0.92,9.1-2.76c2.18-1.84,3.27-4.47,3.27-7.87c0-2.93-1.14-5.48-3.43-7.65
			c-2.28-2.17-5.12-3.98-8.51-5.41c-3.39-1.43-7.1-3.01-11.14-4.72c-4.04-1.71-7.76-3.61-11.18-5.69c-3.41-2.08-6.25-5.12-8.53-9.09
			s-3.41-8.67-3.41-14.07c0-8.53,2.96-15.56,8.88-21.1c5.92-5.54,13.71-8.31,23.38-8.31c4.36,0,8.53,0.57,12.51,1.71
			c3.98,1.14,7.25,2.51,9.81,4.12c2.56,1.61,4.83,3.22,6.82,4.83c1.99,1.61,3.41,2.98,4.26,4.12l1.42,1.71l-14.21,13.5
			c-0.66-0.76-1.61-1.71-2.84-2.84c-1.23-1.14-3.69-2.68-7.39-4.62c-3.69-1.94-7.25-2.91-10.66-2.91c-3.03,0-5.45,0.86-7.25,2.58
			c-1.8,1.72-2.7,4.05-2.7,7c0,2.65,1.11,4.99,3.33,7c2.22,2.01,5,3.61,8.34,4.79c3.33,1.18,7.02,2.71,11.05,4.59
			c4.03,1.88,7.79,3.88,11.28,6c3.48,2.12,6.38,5.22,8.71,9.32c2.32,4.1,3.48,8.91,3.48,14.43c0,9.38-3.15,16.89-9.45,22.53
			c-6.3,5.64-14.61,8.45-24.94,8.45c-4.83,0-9.45-0.59-13.86-1.78c-4.41-1.18-8.08-2.63-11.01-4.33c-2.94-1.71-5.52-3.43-7.75-5.19
			c-2.23-1.75-3.86-3.25-4.9-4.48l-1.42-1.71l15.06-15.06c0.28,0.38,0.64,0.85,1.07,1.42c0.43,0.57,1.42,1.59,2.98,3.06
			c1.56,1.47,3.22,2.77,4.97,3.91c1.75,1.14,3.98,2.18,6.68,3.13C158.38,138.5,161.1,138.98,163.85,138.98z"/>
		
			<linearGradient id="SVGID_00000118363736754730910970000000622890839932469139_" gradientUnits="userSpaceOnUse" x1="138.1667" y1="79.3142" x2="928.1334" y2="286.8615">
			<stop  offset="0" style="stop-color:#B00311"/>
			<stop  offset="0.1338" style="stop-color:#A6021D"/>
			<stop  offset="0.4274" style="stop-color:#960131"/>
			<stop  offset="0.718" style="stop-color:#8C003E"/>
			<stop  offset="1" style="stop-color:#890042"/>
		</linearGradient>
		<path style="fill:url(#SVGID_00000118363736754730910970000000622890839932469139_);" d="M212.45,156.46V54.42h50.31v19.61h-28.28
			v19.9h26.15v19.61h-26.15v23.31h28.28v19.61H212.45z"/>
		
			<linearGradient id="SVGID_00000135649570965557698720000006651089695531389848_" gradientUnits="userSpaceOnUse" x1="141.5572" y1="66.4095" x2="931.5239" y2="273.9568">
			<stop  offset="0" style="stop-color:#B00311"/>
			<stop  offset="0.1338" style="stop-color:#A6021D"/>
			<stop  offset="0.4274" style="stop-color:#960131"/>
			<stop  offset="0.718" style="stop-color:#8C003E"/>
			<stop  offset="1" style="stop-color:#890042"/>
		</linearGradient>
		<path style="fill:url(#SVGID_00000135649570965557698720000006651089695531389848_);" d="M279.1,156.46V54.42h22.03v82.42h28.99
			v19.61H279.1z"/>
		
			<linearGradient id="SVGID_00000105389830448429630160000011730415763659477169_" gradientUnits="userSpaceOnUse" x1="145.5396" y1="51.2518" x2="935.5062" y2="258.7991">
			<stop  offset="0" style="stop-color:#B00311"/>
			<stop  offset="0.1338" style="stop-color:#A6021D"/>
			<stop  offset="0.4274" style="stop-color:#960131"/>
			<stop  offset="0.718" style="stop-color:#8C003E"/>
			<stop  offset="1" style="stop-color:#890042"/>
		</linearGradient>
		<path style="fill:url(#SVGID_00000105389830448429630160000011730415763659477169_);" d="M340.77,156.46V54.42h22.03v82.42h28.99
			v19.61H340.77z"/>
		
			<linearGradient id="SVGID_00000052082917830648889100000016906757498194613892_" gradientUnits="userSpaceOnUse" x1="150.4348" y1="32.6197" x2="940.4014" y2="240.1669">
			<stop  offset="0" style="stop-color:#B00311"/>
			<stop  offset="0.1338" style="stop-color:#A6021D"/>
			<stop  offset="0.4274" style="stop-color:#960131"/>
			<stop  offset="0.718" style="stop-color:#8C003E"/>
			<stop  offset="1" style="stop-color:#890042"/>
		</linearGradient>
		<path style="fill:url(#SVGID_00000052082917830648889100000016906757498194613892_);" d="M402.45,156.46V54.42h50.31v19.61h-28.28
			v19.9h26.15v19.61h-26.15v23.31h28.28v19.61H402.45z"/>
		
			<linearGradient id="SVGID_00000032607165913952403990000008686326298561703846_" gradientUnits="userSpaceOnUse" x1="154.2307" y1="18.1715" x2="944.1974" y2="225.7188">
			<stop  offset="0" style="stop-color:#B00311"/>
			<stop  offset="0.1338" style="stop-color:#A6021D"/>
			<stop  offset="0.4274" style="stop-color:#960131"/>
			<stop  offset="0.718" style="stop-color:#8C003E"/>
			<stop  offset="1" style="stop-color:#890042"/>
		</linearGradient>
		<path style="fill:url(#SVGID_00000032607165913952403990000008686326298561703846_);" d="M518.55,156.46l-27.43-45.05v45.05H469.1
			V54.42h27c12.13,0,21.98,3.22,29.56,9.66c7.58,6.44,11.37,15.25,11.37,26.43c0,12.5-5.73,21.83-17.18,27.99l23.44,37.95H518.55z
			 M496.1,74.03h-4.97V107h4.97c5.78,0,10.37-1.47,13.78-4.41c3.41-2.94,5.12-6.96,5.12-12.08c0-5.12-1.71-9.14-5.12-12.08
			C506.47,75.5,501.87,74.03,496.1,74.03z"/>
		
			<linearGradient id="SVGID_00000059267907125948678490000018341841542580501892_" gradientUnits="userSpaceOnUse" x1="159.349" y1="-1.3098" x2="949.3157" y2="206.2374">
			<stop  offset="0" style="stop-color:#B00311"/>
			<stop  offset="0.1338" style="stop-color:#A6021D"/>
			<stop  offset="0.4274" style="stop-color:#960131"/>
			<stop  offset="0.718" style="stop-color:#8C003E"/>
			<stop  offset="1" style="stop-color:#890042"/>
		</linearGradient>
		<path style="fill:url(#SVGID_00000059267907125948678490000018341841542580501892_);" d="M554.64,156.46V54.42h22.03v82.42h28.99
			v19.61H554.64z"/>
		
			<linearGradient id="SVGID_00000000932748830534207490000007570469482671269292_" gradientUnits="userSpaceOnUse" x1="165.4098" y1="-24.3782" x2="955.3765" y2="183.1691">
			<stop  offset="0" style="stop-color:#B00311"/>
			<stop  offset="0.1338" style="stop-color:#A6021D"/>
			<stop  offset="0.4274" style="stop-color:#960131"/>
			<stop  offset="0.718" style="stop-color:#8C003E"/>
			<stop  offset="1" style="stop-color:#890042"/>
		</linearGradient>
		<path style="fill:url(#SVGID_00000000932748830534207490000007570469482671269292_);" d="M698.24,67.71
			c10.09,10.28,15.13,22.86,15.13,37.73c0,14.87-5.04,27.45-15.13,37.73c-10.09,10.28-23,15.42-38.72,15.42
			c-15.73,0-28.63-5.14-38.72-15.42c-10.09-10.28-15.13-22.86-15.13-37.73c0-14.87,5.05-27.45,15.13-37.73
			c10.09-10.28,23-15.42,38.72-15.42C675.25,52.29,688.16,57.43,698.24,67.71z M636.64,81.28c-5.97,6.25-8.95,14.31-8.95,24.16
			c0,9.85,2.98,17.91,8.95,24.16c5.97,6.25,13.59,9.38,22.88,9.38c9.28,0,16.91-3.13,22.88-9.38c5.97-6.25,8.95-14.3,8.95-24.16
			c0-9.85-2.98-17.91-8.95-24.16c-5.97-6.25-13.59-9.38-22.88-9.38C650.23,71.9,642.61,75.03,636.64,81.28z"/>
		
			<linearGradient id="SVGID_00000040541056303607504870000014497854117497250446_" gradientUnits="userSpaceOnUse" x1="173.1646" y1="-53.8945" x2="963.1313" y2="153.6527">
			<stop  offset="0" style="stop-color:#B00311"/>
			<stop  offset="0.1338" style="stop-color:#A6021D"/>
			<stop  offset="0.4274" style="stop-color:#960131"/>
			<stop  offset="0.718" style="stop-color:#8C003E"/>
			<stop  offset="1" style="stop-color:#890042"/>
		</linearGradient>
		<path style="fill:url(#SVGID_00000040541056303607504870000014497854117497250446_);" d="M808.31,117.09h-30.7V99.61h54.14v5.83
			c0,15.44-4.67,28.16-14,38.16c-9.33,10-22.1,14.99-38.3,14.99c-15.73,0-28.54-5.09-38.44-15.28
			c-9.9-10.18-14.85-22.81-14.85-37.87c0-14.97,4.95-27.57,14.85-37.8c9.9-10.23,22.62-15.35,38.16-15.35
			c6.06,0,11.65,0.69,16.77,2.06c5.12,1.37,8.71,2.72,10.8,4.05l3.13,2.13l-10.66,17.2c-5.49-3.88-12.08-5.83-19.75-5.83
			c-9.29,0-16.82,3.1-22.6,9.31c-5.78,6.21-8.67,14.28-8.67,24.23c0,9.85,2.98,17.91,8.95,24.16c5.97,6.25,13.59,9.38,22.88,9.38
			C795.28,138.98,804.71,131.68,808.31,117.09z"/>
		
			<linearGradient id="SVGID_00000137813861026895889260000008867922668444931764_" gradientUnits="userSpaceOnUse" x1="178.9609" y1="-75.9567" x2="968.9276" y2="131.5906">
			<stop  offset="0" style="stop-color:#B00311"/>
			<stop  offset="0.1338" style="stop-color:#A6021D"/>
			<stop  offset="0.4274" style="stop-color:#960131"/>
			<stop  offset="0.718" style="stop-color:#8C003E"/>
			<stop  offset="1" style="stop-color:#890042"/>
		</linearGradient>
		<path style="fill:url(#SVGID_00000137813861026895889260000008867922668444931764_);" d="M870.69,138.98
			c3.88,0,6.91-0.92,9.1-2.76c2.18-1.84,3.27-4.47,3.27-7.87c0-2.93-1.14-5.48-3.43-7.65c-2.28-2.17-5.12-3.98-8.51-5.41
			c-3.39-1.43-7.1-3.01-11.14-4.72c-4.04-1.71-7.77-3.61-11.18-5.69c-3.41-2.08-6.25-5.12-8.53-9.09
			c-2.27-3.98-3.41-8.67-3.41-14.07c0-8.53,2.96-15.56,8.88-21.1c5.92-5.54,13.71-8.31,23.38-8.31c4.36,0,8.53,0.57,12.51,1.71
			c3.98,1.14,7.25,2.51,9.8,4.12c2.56,1.61,4.83,3.22,6.82,4.83c1.99,1.61,3.41,2.98,4.26,4.12l1.42,1.71l-14.21,13.5
			c-0.66-0.76-1.61-1.71-2.84-2.84c-1.23-1.14-3.69-2.68-7.39-4.62c-3.7-1.94-7.25-2.91-10.66-2.91c-3.03,0-5.45,0.86-7.25,2.58
			c-1.8,1.72-2.7,4.05-2.7,7c0,2.65,1.11,4.99,3.33,7c2.22,2.01,5,3.61,8.34,4.79c3.33,1.18,7.02,2.71,11.05,4.59
			c4.03,1.88,7.79,3.88,11.28,6c3.48,2.12,6.38,5.22,8.71,9.32c2.32,4.1,3.48,8.91,3.48,14.43c0,9.38-3.15,16.89-9.45,22.53
			c-6.3,5.64-14.61,8.45-24.94,8.45c-4.83,0-9.45-0.59-13.86-1.78c-4.41-1.18-8.08-2.63-11.01-4.33c-2.94-1.71-5.52-3.43-7.75-5.19
			c-2.23-1.75-3.86-3.25-4.9-4.48l-1.42-1.71l15.06-15.06c0.28,0.38,0.64,0.85,1.07,1.42c0.43,0.57,1.42,1.59,2.98,3.06
			c1.56,1.47,3.22,2.77,4.97,3.91c1.75,1.14,3.98,2.18,6.68,3.13C865.22,138.5,867.95,138.98,870.69,138.98z"/>
	</g>
	<g>
		<g>
			<path class="st10" d="M110.19,35.28c-8.64-19.56-23.7-31.19-44.91-34.65C63.67,0.36,62.03,0.2,60.4,0h-6.19
				c-1.07,0.11-2.14,0.22-3.2,0.35C38.62,1.88,27.61,6.6,18.55,15.23C3.2,29.84-2.73,47.7,1.15,68.59
				c1.98,10.63,6.37,20.44,11.36,29.95c10.92,20.79,24.84,39.51,40.09,57.28c3.16,3.69,6.25,3.69,9.42,0
				c13.45-15.62,25.79-32.06,36.08-49.96c5.71-9.93,10.68-20.21,13.94-31.26C115.97,61.26,115.83,48.02,110.19,35.28z M78.5,90.88
				V29.57H62.69V96.5c-1.42,0.19-2.86,0.3-4.32,0.34V43.91H42.55v50.13c-1.09-0.43-2.15-0.91-3.19-1.43V60.4H23.55v18.09
				c-4.11-6.32-6.49-13.85-6.49-21.94c0-22.27,18.05-40.31,40.31-40.31c22.26,0,40.3,18.04,40.3,40.31
				C97.67,71.06,90,83.78,78.5,90.88z"/>
		</g>
	</g>
</g>
</svg>
