<?xml version="1.0" standalone="no"?>
<!DOCTYPE svg PUBLIC "-//W3C//DTD SVG 20010904//EN"
 "http://www.w3.org/TR/2001/REC-SVG-20010904/DTD/svg10.dtd">
<svg version="1.0" xmlns="http://www.w3.org/2000/svg"
 width="409.000000pt" height="81.000000pt" viewBox="0 0 409.000000 81.000000"
 preserveAspectRatio="xMidYMid meet">

<g transform="translate(0.000000,81.000000) scale(0.100000,-0.100000)"
fill="#000000" stroke="none">
<path d="M2486 791 c-27 -6 -36 -25 -162 -321 -73 -173 -137 -323 -141 -333
-7 -14 -33 42 -108 225 l-100 243 -36 3 -35 3 -92 -218 c-51 -120 -92 -221
-92 -225 0 -5 20 -8 44 -8 43 0 45 1 63 45 l18 45 91 0 91 0 28 -73 c16 -39
39 -95 51 -124 l23 -52 51 22 52 23 159 374 c87 206 159 376 159 378 0 3 -32
0 -64 -7z m-518 -390 c12 -29 22 -58 22 -62 0 -5 -25 -9 -56 -9 -49 0 -55 2
-49 18 4 9 16 41 28 70 11 29 23 49 27 45 4 -4 16 -32 28 -62z"/>
<path d="M93 595 c-39 -17 -73 -68 -73 -110 0 -54 21 -78 105 -120 84 -42 98
-62 75 -104 -18 -34 -89 -29 -130 9 -18 17 -34 30 -35 30 -9 0 -25 -69 -19
-83 3 -9 20 -25 37 -36 71 -43 160 -35 212 19 23 24 30 41 33 89 4 53 2 61
-24 89 -16 17 -56 42 -88 54 -67 26 -87 48 -70 75 19 30 64 34 125 9 17 -7 44
38 33 56 -22 34 -125 48 -181 23z"/>
<path d="M472 383 l3 -218 43 -3 42 -3 0 100 0 101 90 0 89 0 3 -97 3 -98 43
-3 42 -3 0 220 0 221 -45 0 -45 0 0 -80 0 -80 -90 0 -90 0 0 80 0 80 -45 0
-45 0 2 -217z"/>
<path d="M1042 383 l3 -218 43 -3 42 -3 0 220 0 221 -45 0 -45 0 2 -217z"/>
<path d="M1350 379 l0 -220 43 3 42 3 3 76 3 77 60 6 c81 9 129 50 136 117 7
59 -16 113 -59 139 -27 16 -50 20 -130 20 l-98 0 0 -221z m152 141 c84 -24 54
-120 -38 -120 -23 0 -24 3 -24 65 0 71 1 72 62 55z"/>
<path d="M2520 265 l0 -95 53 0 c43 0 58 5 74 23 67 72 16 167 -91 167 l-36 0
0 -95z m105 31 c28 -42 0 -96 -49 -96 -13 0 -16 12 -16 60 0 57 1 60 25 60 15
0 31 -9 40 -24z"/>
<path d="M2770 265 l0 -95 50 0 c38 0 50 4 50 15 0 11 -11 15 -36 15 -31 0
-35 3 -32 23 2 17 11 23 36 25 43 4 43 30 0 34 -22 2 -34 9 -36 21 -3 14 4 17
32 17 29 0 36 4 36 20 0 17 -7 20 -50 20 l-50 0 0 -95z"/>
<path d="M2970 265 l0 -95 50 0 c38 0 50 4 50 15 0 10 -10 15 -30 15 l-30 0 0
80 c0 73 -2 80 -20 80 -19 0 -20 -7 -20 -95z"/>
<path d="M3150 265 c0 -78 3 -95 15 -95 12 0 15 17 15 95 0 78 -3 95 -15 95
-12 0 -15 -17 -15 -95z"/>
<path d="M3279 313 c48 -120 64 -153 75 -153 11 0 86 167 86 191 0 5 -8 9 -18
9 -12 0 -24 -18 -41 -61 -13 -33 -26 -58 -29 -55 -3 3 -15 30 -26 58 -16 39
-27 54 -44 56 l-22 3 19 -48z"/>
<path d="M3530 265 l0 -95 50 0 c38 0 50 4 50 15 0 11 -11 15 -36 15 -31 0
-35 3 -32 23 2 17 11 23 36 25 43 4 43 30 0 34 -22 2 -34 9 -36 21 -3 14 4 17
32 17 29 0 36 4 36 20 0 17 -7 20 -50 20 l-50 0 0 -95z"/>
<path d="M3730 265 c0 -78 3 -95 15 -95 11 0 15 11 15 38 l1 37 20 -24 c11
-13 23 -31 28 -39 4 -7 18 -12 30 -10 l22 3 -25 34 c-25 34 -25 35 -6 48 28
19 26 67 -2 87 -12 9 -39 16 -60 16 l-38 0 0 -95z m70 50 c16 -20 5 -45 -20
-45 -14 0 -20 7 -20 23 0 38 18 48 40 22z"/>
<path d="M3920 355 c0 -3 14 -27 30 -53 21 -34 30 -62 30 -91 0 -34 3 -41 20
-41 17 0 20 7 20 40 0 27 10 55 30 87 35 55 37 63 10 63 -12 0 -26 -12 -35
-30 -19 -37 -26 -37 -47 0 -10 18 -25 30 -38 30 -11 0 -20 -2 -20 -5z"/>
</g>
</svg>
