<?xml version="1.0" encoding="utf-8"?>
<!-- Generator: Adobe Illustrator 25.0.0, SVG Export Plug-In . SVG Version: 6.00 Build 0)  -->
<svg version="1.1" id="Layer_1" xmlns="http://www.w3.org/2000/svg" xmlns:xlink="http://www.w3.org/1999/xlink" x="0px" y="0px"
	 viewBox="0 0 315.61 217.24" style="enable-background:new 0 0 315.61 217.24;" xml:space="preserve">
<style type="text/css">
	.st0{fill-rule:evenodd;clip-rule:evenodd;fill:#444442;}
	.st1{fill-rule:evenodd;clip-rule:evenodd;fill:#E94D11;}
	.st2{fill-rule:evenodd;clip-rule:evenodd;fill:#69227F;}
</style>
<g>
	<path class="st0" d="M59.28,121.04c-1.43-1.66-3.17-3.03-5.2-4.12c-2.03-1.1-4.14-2.03-6.31-2.81c-2.18-0.79-4.33-1.49-6.48-2.12
		c-2.13-0.64-4.01-1.36-5.59-2.17c-1.6-0.83-2.81-1.84-3.62-3.02c-0.81-1.2-1.04-2.71-0.69-4.55c0.33-1.53,0.98-2.82,1.95-3.89
		c0.99-1.07,2.13-1.92,3.45-2.55c1.29-0.64,2.67-1.1,4.15-1.39c1.47-0.29,2.85-0.44,4.14-0.43c2.23,0.02,4.49,0.49,6.81,1.37
		c2.32,0.89,4.03,2.26,5.14,4.12l14.93-13.3c-2.8-3.08-6.21-5.28-10.21-6.64c-4.03-1.34-8.32-2.01-12.9-2.05
		c-3.99-0.04-7.95,0.49-11.91,1.57c-3.96,1.07-7.62,2.71-10.97,4.9c-3.35,2.18-6.21,4.91-8.59,8.18c-2.38,3.27-4.02,7.1-4.9,11.45
		c-0.89,4.51-0.67,8.14,0.66,10.91c1.32,2.76,3.23,5.01,5.72,6.71c2.5,1.7,5.28,3.06,8.36,4.08c3.08,1.02,5.92,2.05,8.53,3.05
		c2.63,1.02,4.74,2.25,6.38,3.68c1.62,1.43,2.18,3.36,1.64,5.82c-0.31,1.43-0.95,2.71-1.88,3.75c-0.95,1.06-2.09,1.94-3.45,2.61
		c-1.33,0.67-2.78,1.2-4.33,1.53c-1.55,0.33-3.06,0.49-4.51,0.46c-2.97-0.02-5.7-0.72-8.2-2.07c-2.48-1.36-4.39-3.27-5.78-5.72
		L0,152.27c3.23,3.62,6.92,6.25,11.12,7.89c4.18,1.64,8.9,2.5,14.18,2.53c4.2,0.04,8.32-0.46,12.32-1.51
		c3.98-1.02,7.65-2.65,10.96-4.83c3.31-2.19,6.15-4.95,8.53-8.3c2.38-3.35,4.03-7.27,4.91-11.78c0.74-3.52,0.83-6.52,0.25-9.01
		C61.7,124.77,60.71,122.7,59.28,121.04z"/>
	<polygon class="st0" points="146.78,105.93 129.28,140.79 129.04,140.79 125.8,105.76 106.98,105.59 90.4,140.46 90.17,140.46 
		85.88,105.41 67.52,105.25 76.75,161.12 94.06,161.27 111.79,124.35 112.03,124.35 116.21,161.46 133.16,161.59 164.21,106.08 	"/>
	<path class="st0" d="M211.13,106.47l-19.67,36.68h-0.23l-6.92-36.9l-18.59-0.16l13.09,56.36l-1.93,3.19
		c-0.93,1.52-1.78,2.84-2.54,4c-0.75,1.13-1.62,2.11-2.57,2.9c-0.98,0.79-2.12,1.39-3.44,1.8c-1.34,0.41-2.94,0.62-4.85,0.6
		c-2.77-0.04-5.28-0.62-7.59-1.8l-5.1,14.08c3.81,1.41,7.95,2.13,12.38,2.17c4.12,0.03,7.53-0.33,10.21-1.1
		c2.69-0.79,5.03-1.96,6.98-3.5c1.97-1.57,3.71-3.48,5.24-5.76c1.51-2.28,3.14-4.91,4.84-7.87l38.35-64.54L211.13,106.47z"/>
	<path class="st0" d="M297.69,120.98l15.13,0.13l2.8-13.75l-15.14-0.13l3.3-16.5l-17.21-0.16l-3.29,16.52L271.11,107v-0.02
		l-12.72-0.1l1.8-8.84c0.75-3.65,1.93-6.07,3.54-7.25c1.6-1.18,3.77-1.74,6.54-1.72c1.07,0,1.99,0.11,2.78,0.31
		c0.8,0.19,1.63,0.5,2.54,0.89l3.75-14.56c-1.51-0.39-3.09-0.66-4.78-0.83c-1.66-0.18-3.38-0.27-5.14-0.27
		c-4.66-0.04-8.53,0.52-11.63,1.66c-3.09,1.18-5.62,2.76-7.58,4.83c-1.97,2.04-3.46,4.41-4.51,7.12c-1.04,2.71-1.9,5.59-2.54,8.65
		l-1.97,9.86l-11.37-0.1l-2.79,13.75l11.35,0.1l-8.39,41.93l17.2,0.16l8.41-41.95l10.39,0.09v0.04l14.48,0.08l-5.39,26.48
		c-0.57,3.06-0.57,5.66,0.03,7.81c0.6,2.14,1.68,3.89,3.25,5.24c1.55,1.36,3.5,2.34,5.84,2.98c2.32,0.64,4.95,0.97,7.85,0.98
		c2,0.02,4.05-0.08,6.15-0.29c2.13-0.21,4.2-0.65,6.23-1.31l2.83-14.34c-0.89,0.68-2.09,1.1-3.58,1.3
		c-1.51,0.17-2.73,0.25-3.63,0.25c-1.84-0.02-3.25-0.27-4.26-0.79c-1.01-0.51-1.68-1.22-2.05-2.13c-0.37-0.93-0.5-2.01-0.43-3.29
		c0.08-1.26,0.27-2.65,0.6-4.18L297.69,120.98z"/>
	<path class="st1" d="M274.72,6.84c-5.7,0.14-9.65-1.97-24.83-0.95c-15.69,1.08-39.75,5.16-55.1,8.72
		c-6.17,1.43-7.47,0.5-11.95-1.18c-21.28-7.99-64.6-3.4,2.4-7.62c9.26-0.58,16.73-1.33,25.88-2.78c20.41-3.2,41.93-5.57,60.89,2.01
		C273.76,5.74,273.51,5.53,274.72,6.84z"/>
	<path class="st2" d="M286.56,27.89c10.04-2.5,18.29-0.64,22.98,7.1c0.75,1.26,4.21,2.42,4.77,4.01c-1.16,0.29-5.03,0.81-6.01,1.06
		c-9.6,2.52-11.97,4.2-20.42,10.06c-6.65,4.64-12.96,8.91-21.59,11.47c-16.67,4.93-73.85,2.67-93.5,1.84
		c-7.2-0.31-75-3.56-77.27-6.36c10.6-6.94,133.8,4.2,146.26-16.73c-1.6-5.44-15.18-6.54-20.17-7.73
		c-10.24-2.51-66.73-2.71-76.89-3.31c1.14-1.03,21.94-5.86,23.81-6.17c27.39-4.37,71.08-18.47,98.99-14.33
		C288.48,11.89,285.05,22.32,286.56,27.89z"/>
	<path class="st1" d="M165.35,65.57c0.64,0,40.91,1.16,43.34,2.05c-7.58,1.58-66.05,2.16-78.91,2.24
		c-3.09,0.02-30.58,0.5-32.32-0.45C102.51,66.88,158.12,65.57,165.35,65.57z"/>
	<path class="st0" d="M266.72,212.75h1.97v-5.84c0-0.33,0.04-0.64,0.08-0.93c0.27-1.49,1.28-2.56,2.67-2.56
		c0.27,0,0.49,0.02,0.68,0.08v-1.88c-0.17-0.06-0.33-0.08-0.56-0.08c-1.34,0-2.54,0.93-3.04,2.4h-0.07l-0.08-2.15h-1.74
		c0.08,1.03,0.09,2.13,0.09,3.43V212.75z M254.25,206.22c0.15-1.37,1.04-3.23,3.06-3.23c2.24,0,2.78,1.97,2.76,3.23H254.25z
		 M261.92,207.65c0.02-0.21,0.06-0.52,0.06-0.93c0-2.02-0.95-5.16-4.53-5.16c-3.19,0-5.13,2.61-5.13,5.92
		c0,3.29,2.01,5.51,5.38,5.51c1.74,0,2.94-0.37,3.63-0.68l-0.33-1.43c-0.76,0.33-1.61,0.56-3.04,0.56c-1.99,0-3.71-1.1-3.75-3.79
		H261.92z M243.95,199.18v2.63h-1.7v1.51h1.7v5.98c0,1.3,0.2,2.26,0.78,2.86c0.46,0.54,1.22,0.83,2.14,0.83
		c0.76,0,1.38-0.11,1.76-0.27l-0.1-1.49c-0.25,0.05-0.64,0.13-1.14,0.13c-1.12,0-1.51-0.77-1.51-2.13v-5.92h2.86v-1.51h-2.86v-3.15
		L243.95,199.18z M231.5,212.23c0.77,0.46,1.88,0.75,3.08,0.75c2.61,0,4.1-1.35,4.1-3.29c0-1.63-0.97-2.57-2.86-3.29
		c-1.43-0.56-2.09-0.97-2.09-1.86c0-0.83,0.66-1.51,1.84-1.51c1,0,1.8,0.37,2.22,0.64l0.5-1.45c-0.6-0.35-1.58-0.67-2.69-0.67
		c-2.36,0-3.77,1.45-3.77,3.21c0,1.32,0.93,2.4,2.88,3.11c1.47,0.54,2.05,1.07,2.05,2.01c0,0.91-0.67,1.62-2.12,1.62
		c-1.01,0-2.05-0.41-2.63-0.79L231.5,212.23z M224.86,209.08c0,0.19-0.04,0.43-0.1,0.62c-0.33,0.93-1.24,1.84-2.65,1.84
		c-1.02,0-1.88-0.6-1.88-1.9c0-2.12,2.46-2.51,4.62-2.48V209.08z M226.97,212.75c-0.14-0.73-0.17-1.66-0.17-2.61v-4.1
		c0-2.21-0.81-4.49-4.16-4.49c-1.39,0-2.71,0.39-3.6,0.97l0.44,1.31c0.77-0.48,1.84-0.81,2.84-0.81c2.24,0,2.5,1.63,2.5,2.54v0.23
		c-4.23-0.02-6.58,1.43-6.58,4.08c0,1.57,1.12,3.14,3.35,3.14c1.55,0,2.73-0.77,3.35-1.62H225l0.17,1.37H226.97z M206.9,212.75h1.97
		v-6.9h5.78v-1.62h-5.78v-5.07h6.24v-1.64h-8.22V212.75z M193.69,213.01c0.83,0,1.36-0.6,1.36-1.43c0-0.83-0.54-1.41-1.34-1.41
		c-0.79,0-1.35,0.58-1.35,1.41C192.35,212.41,192.89,213.01,193.69,213.01z M184.36,212.75h1.98v-5.84c0-0.33,0.04-0.64,0.09-0.93
		c0.27-1.49,1.26-2.56,2.67-2.56c0.27,0,0.47,0.02,0.68,0.08v-1.88c-0.19-0.06-0.35-0.08-0.58-0.08c-1.34,0-2.53,0.93-3.02,2.4h-0.1
		l-0.08-2.15h-1.74c0.07,1.03,0.09,2.13,0.09,3.43V212.75z M171.89,206.22c0.17-1.37,1.04-3.23,3.05-3.23
		c2.24,0,2.78,1.97,2.77,3.23H171.89z M179.57,207.65c0.02-0.21,0.08-0.52,0.08-0.93c0-2.02-0.97-5.16-4.53-5.16
		c-3.19,0-5.15,2.61-5.15,5.92c0,3.29,2.01,5.51,5.38,5.51c1.74,0,2.94-0.37,3.65-0.68l-0.35-1.43c-0.73,0.33-1.6,0.56-3.03,0.56
		c-2,0-3.69-1.1-3.75-3.79H179.57z M157.59,206.43c0-0.27,0.06-0.58,0.13-0.81c0.39-1.51,1.64-2.48,3.02-2.48
		c2.09,0,3.25,1.88,3.25,4.08c0,2.51-1.22,4.22-3.33,4.22c-1.43,0-2.63-0.95-2.98-2.32c-0.06-0.25-0.1-0.52-0.1-0.81V206.43z
		 M155.62,217.24h1.97v-5.96h0.04c0.66,1.08,1.93,1.72,3.38,1.72c2.57,0,4.97-1.94,4.97-5.88c0-3.33-1.99-5.57-4.64-5.57
		c-1.78,0-3.07,0.79-3.89,2.12h-0.04l-0.1-1.88h-1.8c0.06,1.04,0.1,2.17,0.1,3.58V217.24z M148.23,209.08
		c0,0.19-0.05,0.43-0.11,0.62c-0.33,0.93-1.24,1.84-2.65,1.84c-1.02,0-1.88-0.6-1.88-1.9c0-2.12,2.46-2.51,4.64-2.48V209.08z
		 M150.32,212.75c-0.13-0.73-0.17-1.66-0.17-2.61v-4.1c0-2.21-0.81-4.49-4.16-4.49c-1.39,0-2.71,0.39-3.59,0.97l0.45,1.31
		c0.77-0.48,1.84-0.81,2.84-0.81c2.24,0,2.5,1.63,2.5,2.54v0.23c-4.24-0.02-6.58,1.43-6.58,4.08c0,1.57,1.12,3.14,3.34,3.14
		c1.57,0,2.73-0.77,3.35-1.62h0.08l0.15,1.37H150.32z M129.97,206.22c0.17-1.37,1.04-3.23,3.06-3.23c2.24,0,2.79,1.97,2.77,3.23
		H129.97z M137.66,207.65c0.02-0.21,0.07-0.52,0.07-0.93c0-2.02-0.95-5.16-4.53-5.16c-3.19,0-5.14,2.61-5.14,5.92
		c0,3.29,2.01,5.51,5.4,5.51c1.74,0,2.94-0.37,3.63-0.68l-0.35-1.43c-0.73,0.33-1.61,0.56-3.02,0.56c-2,0-3.71-1.1-3.77-3.79H137.66
		z M114.04,212.75h1.99v-6.6c0-0.38,0.02-0.67,0.13-0.95c0.35-1.1,1.37-1.99,2.67-1.99c1.88,0,2.54,1.49,2.54,3.25v6.28h1.99v-6.52
		c0-3.77-2.36-4.68-3.83-4.68c-0.76,0-1.45,0.23-2.03,0.56c-0.62,0.35-1.12,0.85-1.43,1.41h-0.03v-6.83h-1.99V212.75z M108.97,210.7
		c-0.79,0.38-2.03,0.64-3.23,0.64c-3.69,0-5.86-2.4-5.86-6.13c0-4.03,2.38-6.31,5.96-6.31c1.28,0,2.34,0.27,3.08,0.64l0.49-1.6
		c-0.52-0.27-1.72-0.68-3.62-0.68c-4.74,0-7.97,3.23-7.97,8.01c0,5.01,3.23,7.72,7.52,7.72c1.86,0,3.31-0.37,4.05-0.71L108.97,210.7
		z M85.49,213.01c0.85,0,1.35-0.6,1.35-1.43c0-0.83-0.54-1.41-1.34-1.41c-0.79,0-1.35,0.58-1.35,1.41
		C84.15,212.41,84.69,213.01,85.49,213.01z M76.17,212.75h1.97v-5.84c0-0.33,0.04-0.64,0.1-0.93c0.27-1.49,1.26-2.56,2.67-2.56
		c0.27,0,0.46,0.02,0.67,0.08v-1.88c-0.19-0.06-0.35-0.08-0.56-0.08c-1.33,0-2.54,0.93-3.04,2.4h-0.1l-0.05-2.15h-1.74
		c0.06,1.03,0.08,2.13,0.08,3.43V212.75z M63.71,206.22c0.15-1.37,1.02-3.23,3.03-3.23c2.25,0,2.79,1.97,2.77,3.23H63.71z
		 M71.37,207.65c0.02-0.21,0.08-0.52,0.08-0.93c0-2.02-0.95-5.16-4.53-5.16c-3.19,0-5.15,2.61-5.15,5.92c0,3.29,2.02,5.51,5.4,5.51
		c1.74,0,2.94-0.37,3.64-0.68l-0.35-1.43c-0.73,0.33-1.6,0.56-3.02,0.56c-1.99,0-3.71-1.1-3.77-3.79H71.37z M53.4,199.18v2.63h-1.7
		v1.51h1.7v5.98c0,1.3,0.21,2.26,0.77,2.86c0.47,0.54,1.22,0.83,2.15,0.83c0.77,0,1.37-0.11,1.76-0.27l-0.07-1.49
		c-0.25,0.05-0.64,0.13-1.16,0.13c-1.1,0-1.49-0.77-1.49-2.13v-5.92h2.84v-1.51h-2.84v-3.15L53.4,199.18z M43.65,199.18v2.63h-1.7
		v1.51h1.7v5.98c0,1.3,0.19,2.26,0.78,2.86c0.46,0.54,1.22,0.83,2.14,0.83c0.77,0,1.38-0.11,1.76-0.27l-0.1-1.49
		c-0.23,0.05-0.62,0.13-1.14,0.13c-1.12,0-1.49-0.77-1.49-2.13v-5.92h2.84v-1.51h-2.84v-3.15L43.65,199.18z M30.73,206.22
		c0.15-1.37,1.04-3.23,3.06-3.23c2.24,0,2.79,1.97,2.75,3.23H30.73z M38.39,207.65c0.04-0.21,0.08-0.52,0.08-0.93
		c0-2.02-0.95-5.16-4.53-5.16c-3.19,0-5.14,2.61-5.14,5.92c0,3.29,2.02,5.51,5.4,5.51c1.74,0,2.94-0.37,3.64-0.68l-0.33-1.43
		c-0.75,0.33-1.61,0.56-3.04,0.56c-1.99,0-3.71-1.1-3.75-3.79H38.39z M17.02,205.45h1.63c2.15,0,3.94,0.87,3.94,2.96
		c0,2.21-1.89,2.96-3.93,2.96c-0.69,0-1.25-0.02-1.64-0.1V205.45z M17.02,199.04c0.31-0.06,0.83-0.14,1.74-0.14
		c1.99,0,3.35,0.72,3.35,2.5c0,1.47-1.22,2.55-3.31,2.55h-1.78V199.04z M15.05,212.71c0.66,0.1,1.7,0.18,3.06,0.18
		c2.5,0,4.22-0.45,5.28-1.42c0.75-0.75,1.27-1.74,1.27-3.06c0-2.26-1.7-3.46-3.13-3.83v-0.04c1.61-0.6,2.57-1.9,2.57-3.37
		c0-1.2-0.49-2.09-1.28-2.69c-0.95-0.77-2.2-1.1-4.17-1.1c-1.38,0-2.75,0.13-3.6,0.31V212.71z"/>
</g>
</svg>
