<?xml version="1.0" encoding="utf-8"?>
<!-- Generator: Adobe Illustrator 23.0.1, SVG Export Plug-In . SVG Version: 6.00 Build 0)  -->
<svg version="1.1" id="Layer_1" xmlns="http://www.w3.org/2000/svg" xmlns:xlink="http://www.w3.org/1999/xlink" x="0px" y="0px"
	 viewBox="0 0 3807.43 1497.79" style="enable-background:new 0 0 3807.43 1497.79;" xml:space="preserve">
<style type="text/css">
	.st0{fill-rule:evenodd;clip-rule:evenodd;fill:#EC1E27;}
	.st1{fill:none;}
</style>
<path class="st0" d="M185.65,0.1h571.96c0,0,44.67-7.69,106.34,111.49l292.79,519.36c0,0,37.59,67.44,90.75,72.73h154.19
	l-183.73,245.16l-100.55,0.06c0,0-81.62,0.84-144.51-124.36L676.99,290.93c0,0-20.56-45.64-83.45-42.84H0L185.65,0.1z"/>
<path class="st0" d="M330.22,293.83h293.27l346.39,613.84c0,0,29.89,70.46,111.69,86.57l102.34,0.04l-166.44,222.45H910.32
	c0,0-69.77,3.05-115.97-87.13L330.22,293.83z"/>
<path class="st0" d="M0,292.4h282.77L788.78,1201c0,0,22.77,52.03,79.08,57.38h118.47l-177.46,237.33H708.25
	c0,0-47.39,0.04-89.08-81.54L0,292.4z"/>
<path class="st0" d="M3019.9,703.68h-616.18c0,0-69.33-3.24-119.5,63.96l-481.19,643.59c0,0-72.49,84.47,56.6,84.47h568.56
	l182.57-242.75l-261.76-0.02c0,0-54.75,5.59-20.3-40.41l183.56-246.55c0,0,16.23-17.06,72.05-17.06h252.84L3019.9,703.68z"/>
<path class="st0" d="M3289.7,949.94l14.46-19.87l-75.12,0.06c0,0-11.77-2.5-28.36,20.23c0,0-30.58,39.16,0.08,39.22l249.59,0.02
	c0,0,76.07-2.74,33.11,54.54l-299.16,399.95c0,0-29.59,53.71-121.76,53.71h-466.61c0,0-89.77-7.44-54.93-60.61l137.71-184.27h293.95
	l-20.54,30.35h79.01c0,0,7.38,2.05,23.85-20.86c0,0,41.61-49.32,13.41-50.61h-278.97c0,0-64.22-10.66-35.68-63.92l309.06-407.67
	c0,0,21.4-37.49,71.69-37.49h507.39c0,0,98.34-2.37,46.84,67.48l-134.8,179.67L3289.7,949.94z"/>
<polygon class="st0" points="1469.39,703.68 1285.54,948.9 1510.76,948.9 1102.19,1495.19 1447.99,1495.19 1856.55,948.9 
	2082.64,948.9 2265.92,703.76 "/>
<rect class="st1" width="3807.43" height="1497.79"/>
</svg>
