<?xml version="1.0" standalone="no"?>
<!DOCTYPE svg PUBLIC "-//W3C//DTD SVG 20010904//EN"
 "http://www.w3.org/TR/2001/REC-SVG-20010904/DTD/svg10.dtd">
<svg version="1.0" xmlns="http://www.w3.org/2000/svg"
 width="1200.000000pt" height="600.000000pt" viewBox="0 0 1200.000000 600.000000"
 preserveAspectRatio="xMidYMid meet">

<g transform="translate(0.000000,600.000000) scale(0.100000,-0.100000)"
fill="#000000" stroke="none">
<path d="M7520 5254 c0 -10 39 -62 314 -419 491 -636 526 -678 615 -722 50
-25 162 -25 216 1 27 13 224 203 595 575 l555 556 -555 6 c-772 9 -1740 10
-1740 3z"/>
<path d="M1181 5213 c-21 -81 -122 -616 -117 -621 3 -2 191 -11 418 -19 315
-12 416 -18 427 -28 12 -12 -9 -160 -144 -1012 -145 -924 -277 -1740 -291
-1805 l-6 -28 401 0 401 0 5 23 c3 12 115 651 249 1420 134 769 250 1404 256
1412 10 13 62 15 319 15 403 0 529 7 536 30 6 19 125 630 125 643 0 4 -578 7
-1285 7 l-1284 0 -10 -37z"/>
<path d="M4006 5233 c-4 -14 -557 -3270 -591 -3480 l-7 -43 415 0 c387 0 416
1 421 18 3 9 59 318 125 685 65 367 125 674 131 682 11 13 103 15 656 15 603
0 643 1 648 18 12 40 97 644 92 650 -4 3 -292 8 -641 10 -519 4 -637 7 -646
18 -9 11 3 100 49 370 33 195 66 361 71 368 9 11 164 14 782 18 585 3 772 7
778 16 6 10 101 637 101 665 0 4 -535 7 -1189 7 -1124 0 -1190 -1 -1195 -17z"/>
<path d="M9370 4605 c-735 -736 -704 -710 -847 -703 -49 2 -93 11 -118 23
-110 52 -371 382 -848 1067 l-172 247 -362 1 c-336 0 -362 -1 -367 -17 -14
-47 -547 -3495 -541 -3501 9 -9 3919 -15 4102 -7 l142 7 5 27 c6 27 396 3444
396 3466 0 17 -87 23 -445 31 l-300 6 -645 -647z m-1541 -1094 c17 -21 31 -45
31 -52 0 -21 -862 -879 -882 -879 -12 0 -18 8 -18 23 0 25 18 143 26 169 7 24
781 778 798 778 8 0 28 -18 45 -39z m1508 -579 l353 -345 -1 -51 c-2 -74 -12
-110 -31 -114 -12 -2 -147 123 -404 375 -212 207 -390 386 -396 396 -8 15 -1
27 36 63 40 41 47 44 67 34 12 -7 181 -168 376 -358z"/>
<path d="M4655 1335 c-2027 -28 -2501 -35 -2760 -42 l-270 -7 535 -17 c294 -9
780 -24 1080 -33 1079 -32 1202 -38 1182 -58 -13 -13 -269 -23 -1197 -48 -418
-11 -965 -25 -1215 -32 -250 -7 -439 -15 -420 -19 19 -4 179 -9 355 -13 1347
-26 2203 -50 2217 -64 23 -23 -56 -26 -2052 -77 -344 -9 -638 -20 -655 -24
-30 -7 93 -11 1650 -56 881 -25 1191 -38 1202 -49 4 -3 3 -9 0 -12 -10 -10
-311 -22 -1072 -44 -1395 -40 -1874 -54 -1870 -58 8 -9 4553 -87 4562 -78 3 3
27 155 54 338 26 183 51 350 54 371 l5 37 -232 -1 c-128 -1 -647 -8 -1153 -14z"/>
<path d="M6527 1280 c-157 -27 -287 -164 -318 -334 -30 -167 54 -256 229 -243
85 6 171 32 179 53 3 8 2 39 -1 68 l-7 54 -56 -19 c-102 -35 -199 -18 -191 34
3 19 13 23 89 34 176 25 266 82 288 181 11 51 3 101 -20 129 -33 38 -113 56
-192 43z m53 -144 c35 -43 -24 -93 -124 -103 -46 -5 -57 -3 -62 11 -22 57 146
140 186 92z"/>
<path d="M6970 1283 c-14 -2 -40 -9 -59 -15 -31 -10 -33 -12 -27 -47 3 -20 6
-46 6 -58 0 -19 5 -22 36 -21 49 2 64 -17 65 -86 1 -48 -2 -62 -18 -75 -12 -9
-69 -56 -127 -105 l-106 -89 17 -26 c30 -48 48 -70 54 -71 4 0 42 32 84 70 42
39 80 70 84 70 16 -1 29 -18 41 -53 23 -71 110 -97 200 -61 41 17 41 17 35 58
-11 71 -12 72 -48 68 -49 -5 -69 16 -74 79 l-5 54 126 108 c69 59 126 113 126
120 0 15 -58 87 -71 87 -5 0 -40 -29 -78 -65 -37 -36 -76 -65 -84 -65 -9 0
-24 18 -35 43 -30 66 -72 90 -142 80z"/>
<path d="M7789 1276 c-25 -6 -60 -22 -77 -35 -34 -24 -52 -21 -52 10 0 17 -7
19 -60 19 l-59 0 -121 -372 c-67 -205 -125 -385 -130 -399 -8 -26 -6 -27 33
-33 23 -3 55 -2 71 2 27 7 33 18 63 107 18 55 39 104 46 111 6 6 41 16 77 22
257 45 457 326 375 525 -17 40 -98 62 -166 43z m19 -148 c18 -18 14 -77 -7
-125 -50 -109 -228 -203 -239 -125 -4 26 47 141 85 190 47 62 129 92 161 60z"/>
<path d="M8111 1279 c-30 -5 -57 -11 -59 -13 -2 -3 -6 -32 -9 -66 l-6 -62 34
2 c100 6 105 -7 54 -162 -21 -62 -42 -118 -47 -125 -5 -6 -33 -15 -62 -18
l-53 -7 -16 -52 c-10 -29 -17 -56 -17 -60 0 -3 84 -5 187 -4 l187 3 17 55 17
55 -39 7 c-22 4 -44 10 -49 13 -16 10 -12 47 15 124 41 123 82 171 144 171 34
0 66 -36 56 -62 -11 -29 102 -40 129 -13 20 20 31 99 20 143 -24 95 -167 102
-249 12 -24 -27 -43 -25 -57 6 -23 49 -100 70 -197 53z"/>
<path d="M8967 1280 c-157 -27 -287 -164 -318 -334 -30 -167 54 -256 229 -243
85 6 171 32 179 53 3 8 2 39 -1 68 l-7 54 -56 -19 c-102 -35 -199 -18 -191 34
3 19 13 23 89 34 176 25 266 82 288 181 11 51 3 101 -20 129 -33 38 -113 56
-192 43z m53 -144 c35 -43 -24 -93 -124 -103 -46 -5 -57 -3 -62 11 -22 57 146
140 186 92z"/>
<path d="M9570 1280 c-125 -17 -205 -66 -241 -145 -21 -46 -24 -114 -6 -138 6
-9 55 -32 107 -51 109 -39 127 -57 90 -88 -23 -19 -34 -20 -152 -15 l-126 6
-28 -64 c-15 -36 -24 -69 -20 -73 4 -4 76 -7 159 -7 123 0 162 4 206 19 113
39 185 157 146 239 -18 38 -47 56 -145 90 -51 17 -66 27 -68 44 -5 36 31 47
157 48 l115 0 27 60 c19 42 24 62 15 66 -21 12 -170 17 -236 9z"/>
<path d="M10180 1280 c-125 -17 -205 -66 -241 -145 -21 -46 -24 -114 -6 -138
6 -9 55 -32 107 -51 109 -39 127 -57 90 -88 -23 -19 -34 -20 -152 -15 l-126 6
-28 -64 c-15 -36 -24 -69 -20 -73 4 -4 76 -7 159 -7 123 0 162 4 206 19 113
39 185 157 146 239 -18 38 -47 56 -145 90 -51 17 -66 27 -68 44 -5 36 31 47
157 48 l115 0 27 60 c19 42 24 62 15 66 -21 12 -170 17 -236 9z"/>
</g>
</svg>
