<?xml version="1.0" encoding="utf-8"?>
<!-- Generator: Adobe Illustrator 23.0.1, SVG Export Plug-In . SVG Version: 6.00 Build 0)  -->
<svg version="1.1" id="Layer_1" xmlns="http://www.w3.org/2000/svg" xmlns:xlink="http://www.w3.org/1999/xlink" x="0px" y="0px"
	 viewBox="0 0 690 154" style="enable-background:new 0 0 690 154;" xml:space="preserve">
<style type="text/css">
	.st0{fill:#4E4D4E;}
	.st1{fill:#479B6C;}
	.st2{fill:#5DBD79;}
</style>
<g>
	<path class="st0" d="M312,47v10.1h27.8V107H351V57.1h28V47H312z"/>
	<path class="st0" d="M477.6,67.6c0-11.2-10-20.3-22.4-20.3h-48.7v11.2V88v19.5h11.1V88h35.7l14.8,19.5h13.5l-16.4-21.6
		C472.6,82.4,477.6,75.5,477.6,67.6z M417.6,58.4v-1h37.6c6.1,0,11.2,4.6,11.2,10.2c0,5.6-5,10.2-11.2,10.2h-37.6V58.4z"/>
	<path class="st0" d="M553.9,47l-0.1,0.1h-12.5V47l-0.1,0.1l-34.9,60.4h12.6l28.6-49.6l28.7,49.6h12.6l-35-60.4V47z"/>
	<path class="st0" d="M654.7,76.7l34-29.6h-16.1l-25.9,22.6l-25.9-22.6h-16.1l33.9,29.6l-35.2,30.8h16.1l27.2-23.7l27.2,23.7H690
		L654.7,76.7z"/>
	<path class="st1" d="M128,61v63l15-9.8V51L128,61z"/>
	<path class="st2" d="M21.8,0L0,6.9L128.1,61l14.9-9.9L21.8,0z"/>
	<path class="st2" d="M40.9,33L19,40l85.1,36l14.9-9.9L40.9,33z"/>
	<path class="st1" d="M104,75.8V139l15-9.7V66L104,75.8z"/>
	<path class="st1" d="M81,91.8V154l15-9.7V82L81,91.8z"/>
	<path class="st2" d="M58.9,67L37,73.8L81.1,92L96,82.3L58.9,67z"/>
	<path class="st1" d="M168,61v63l-15-9.8V51L168,61z"/>
	<path class="st2" d="M274.2,0L153,51.1l14.9,9.9L296,6.9L274.2,0z"/>
	<path class="st2" d="M255.2,33l21.8,7l-85,36l-15-9.9L255.2,33z"/>
	<path class="st1" d="M192,75.8V139l-15-9.7V66L192,75.8z"/>
	<path class="st1" d="M215,91.8V154l-15-9.7V82L215,91.8z"/>
	<path class="st2" d="M236.4,67l21.6,6.8L214.8,92L200,82.3L236.4,67z"/>
</g>
</svg>
